<?xml version="1.0" encoding="UTF-8" standalone="no"?><!DOCTYPE svg PUBLIC "-//W3C//DTD SVG 1.1//EN" "http://www.w3.org/Graphics/SVG/1.1/DTD/svg11.dtd"><svg width="100%" height="100%" viewBox="0 0 599 115" version="1.1" xmlns="http://www.w3.org/2000/svg" xmlns:xlink="http://www.w3.org/1999/xlink" xml:space="preserve" xmlns:serif="http://www.serif.com/" style="fill-rule:evenodd;clip-rule:evenodd;stroke-linejoin:round;stroke-miterlimit:1.41421;"><g id="bacon"><g><path d="M591.302,63.497c-2.774,2.474 -4.538,5.315 -5.648,8.621c-0.769,-0.019 -1.526,-0.027 -2.283,-0.045c-6.26,-0.156 -12.354,-0.617 -18.131,-2.416c-0.303,-0.094 -0.608,-0.198 -0.912,-0.301l-0.178,-0.474l-0.375,0.268c-0.23,-0.209 -0.516,-0.408 -0.818,-0.608c-0.849,-0.523 -1.949,-1.042 -2.983,-1.506c-1.02,-0.463 -1.986,-0.872 -2.425,-1.118c-1.192,-0.67 -2.4,-1.01 -3.436,-1.399c-1.035,-0.4 -1.876,-0.806 -2.599,-1.625c-1.53,-1.79 -3.799,-2.551 -6.096,-2.598c-3.306,-0.071 -6.746,1.158 -9.297,2.537c-3.75,2.044 -6.722,3.134 -10.659,3.036c-1.021,-0.025 -2.112,-0.126 -3.31,-0.327c-3.384,-0.554 -6.773,-2.091 -10.085,-3.84c-3.324,-1.75 -6.556,-3.71 -9.74,-5.104c-3.544,-1.541 -6.799,-2.188 -9.935,-2.266c-5.267,-0.12 -10.144,1.277 -15.951,2.435c-0.283,0.058 -1.878,0.382 -3.419,0.696c-0.777,0.162 -1.526,0.326 -2.092,0.45c-0.297,0.067 -0.523,0.126 -0.708,0.175l-0.071,0.019c-0.652,-0.166 -1.338,-0.545 -1.963,-1.064c-0.707,-0.573 -1.353,-1.251 -1.935,-1.81c-2.149,-2.063 -3.872,-4.606 -6.601,-6.554c-1.787,-1.262 -3.699,-1.844 -5.604,-1.88c-3.432,-0.075 -6.66,1.448 -9.6,3.159c-3.916,2.296 -7.029,4.879 -11.482,6.19c-1.631,0.483 -3.363,0.665 -5.126,0.621c-4.973,-0.113 -10.296,-2.051 -14.446,-3.852c-4.315,-1.861 -8.401,-4.249 -12.767,-6.259c-3.91,-1.806 -8.059,-3.308 -12.778,-3.811c-0.306,-0.039 -0.628,-0.058 -0.949,-0.088c0.035,-0.18 0.07,-0.35 0.077,-0.531c0.049,-1.271 -0.22,-2.666 -0.473,-4.083c-0.268,-1.417 -0.506,-2.844 -0.457,-4.115c0.051,-1.323 0.416,-2.437 1.317,-3.258c0.914,-0.821 2.424,-1.425 5.039,-1.606c0.267,-0.025 0.468,-0.138 0.584,-0.241c0.116,-0.116 0.177,-0.242 0.183,-0.392c0.004,-0.085 -0.021,-0.192 -0.086,-0.301l0.184,-0.059l0.078,0.14c0.108,0.142 0.286,0.254 0.479,0.322c2.725,0.955 4.868,2.824 6.718,4.986c1.865,2.151 3.412,4.573 5.074,6.58c3.08,3.708 6.601,7.611 11.708,10.056c1.5,0.722 3.029,1.069 4.512,1.105c1.779,0.045 3.477,-0.341 5.044,-0.985c4.716,-1.945 8.551,-6.146 10.993,-8.735c4.326,-4.604 8.872,-7.216 14.191,-9.2c5.321,-1.994 11.414,-2.249 18.908,-2.063l0.012,0.001c3.11,0.077 5.312,0.056 6.905,0.908c2.363,1.255 3.53,2.984 4.22,5.447c0.651,2.356 0.86,4.936 1.345,7.609c-2.387,1.18 -4.594,2.429 -6.478,3.654c-0.215,0.144 -0.32,0.312 -0.327,0.483c-0.006,0.16 0.059,0.291 0.18,0.432c0.134,0.143 0.382,0.266 0.676,0.263c0.197,0.005 0.366,-0.044 0.495,-0.105c1.941,-0.882 3.954,-1.836 6.006,-2.715l0.259,0.241c0.231,0.145 0.51,0.206 0.748,0.212c0.364,0.009 0.689,-0.09 0.964,-0.254c0.256,-0.165 0.478,-0.426 0.491,-0.747l-0.033,-0.247l-0.049,-0.204c3.516,-1.365 7.087,-2.346 10.49,-2.261c3.024,0.085 5.936,0.959 8.775,3.231c1.879,1.489 3.396,3.236 5.113,4.882c1.73,1.634 3.661,3.189 6.382,4.25c1.767,0.685 3.339,1.024 4.767,1.06c1.791,0.054 3.324,-0.41 4.545,-1.181c1.825,-1.163 3.03,-2.959 3.96,-4.892c0.717,-1.467 1.266,-3.013 1.769,-4.432c1.507,2.035 3.581,3.508 6.08,4.489c2.981,1.185 6.522,1.7 10.389,1.796c0.335,0.008 0.672,0.006 1.007,0.015c3.644,0.015 7.216,-0.25 10.746,-0.162c0.63,0.015 1.26,0.043 1.902,0.079c2.531,0.181 3.963,0.88 4.849,1.874c0.886,0.993 1.198,2.369 1.138,3.917c-0.041,1.056 -0.253,2.184 -0.549,3.299l-0.036,0.234c-0.014,0.362 0.183,0.71 0.497,0.942c0.313,0.221 0.714,0.359 1.132,0.402c3.046,0.279 6.083,0.429 9.122,0.504c4.286,0.106 8.562,0.073 12.837,0.094Z" style="fill:#a23237;fill-rule:nonzero;"/><path d="M585.08,74.305c-0.471,2.393 -0.538,4.848 -0.853,7.203c-8.576,-0.844 -17.279,-1.241 -25.87,-1.68c-2.924,-0.147 -5.888,-0.348 -8.857,-0.422c-5.477,-0.136 -10.971,0.176 -16.093,2.154c-3.23,1.245 -6.289,2.75 -9.235,3.906c-2.961,1.155 -5.795,1.95 -8.54,1.882c-2.983,-0.084 -5.957,-1.131 -9.194,-4.075c-2.356,-2.152 -4.311,-4.915 -6.606,-7.493c-2.299,-2.568 -4.967,-4.954 -8.842,-6.267c-4.98,-1.695 -9.829,-2.478 -14.787,-2.59c-3.627,-0.09 -7.325,0.171 -11.198,0.672c-7.891,1.034 -15.506,2.555 -22.972,2.37c-4.314,-0.107 -8.578,-0.78 -12.873,-2.436c-4.019,-1.542 -7.806,-3.292 -11.776,-4.694c-3.982,-1.403 -8.161,-2.457 -12.91,-2.575c-0.377,-0.009 -0.742,-0.008 -1.12,-0.007c-4.053,0.028 -8.165,1.241 -12.219,2.389c-4.04,1.15 -8.021,2.238 -11.676,2.136c-0.77,-0.019 -1.511,-0.102 -2.248,-0.237c0.197,-0.755 0.325,-1.52 0.355,-2.279c0.079,-2.402 -0.461,-4.765 -0.357,-7.049c0.038,-0.982 0.187,-1.951 0.532,-2.904c0.516,-1.397 2.103,-2.555 3.887,-3.75c1.786,-1.206 3.754,-2.45 4.789,-4.177l0.107,-0.253c6.063,1.646 12.458,5.181 19.076,8.444c6.836,3.354 13.923,6.426 21.332,6.62c3.235,0.081 6.52,-0.405 9.792,-1.638c2.96,-1.123 5.788,-3.21 8.604,-4.968c1.408,-0.884 2.812,-1.682 4.18,-2.247c1.381,-0.554 2.711,-0.874 4.014,-0.841c1.737,0.043 3.52,0.686 5.485,2.455c1.462,1.319 2.992,3.44 4.857,5.261c0.945,0.91 1.978,1.758 3.174,2.396c1.193,0.64 2.565,1.068 4.105,1.106l0.366,-0.001c1.655,-0.034 3.344,-0.569 4.979,-1.158c1.634,-0.589 3.217,-1.257 4.49,-1.588c3.57,-0.937 6.723,-1.628 10.083,-1.544c1.234,0.03 2.491,0.157 3.811,0.425c5.511,1.098 10.296,3.824 15.231,6.361c4.934,2.538 10.072,4.899 16.36,5.055c0.224,0.005 0.463,0.011 0.701,0.007c3.378,-0.013 6.441,-1.594 9.385,-3.059c1.472,-0.743 2.916,-1.466 4.323,-1.976c1.409,-0.52 2.754,-0.84 4.04,-0.798c1.499,0.037 2.967,0.503 4.587,1.771c0.681,0.529 1.255,0.876 1.808,1.102c0.827,0.353 1.512,0.412 2.166,0.535c0.668,0.135 1.39,0.312 2.53,0.907c2.267,1.188 4.543,2.507 7.011,3.582l0.272,0.584l0.334,-0.29l0.285,0.242c0.15,0.099 0.314,0.189 0.493,0.279c0.537,0.27 1.172,0.499 1.88,0.709c1.385,0.409 3.041,0.717 4.49,0.966c1.448,0.239 2.704,0.41 3.233,0.497c3.649,0.636 7.397,0.835 11.079,0.98Z" style="fill:#d03d46;fill-rule:nonzero;"/><path d="M583.93,83.37c-0.562,2.55 -1.646,4.853 -4.229,6.765c-0.131,0.093 -0.219,0.219 -0.294,0.335c-1.729,0.138 -3.455,0.17 -5.177,0.128c-2.955,-0.074 -5.918,-0.318 -8.886,-0.392c-4.762,-0.128 -9.612,0.221 -14.467,2.526c-4.613,2.183 -8.078,5.121 -11.685,7.413c-3.623,2.315 -7.304,3.975 -12.443,3.859c-1.303,-0.032 -2.713,-0.185 -4.23,-0.479c-5.288,-0.997 -10.34,-3.045 -15.609,-4.512c-5.871,-1.598 -11.49,-1.973 -16.548,-4.556c-3.342,-1.686 -5.322,-4.844 -7.431,-7.974c-1.062,-1.554 -2.15,-3.099 -3.514,-4.436c-1.365,-1.337 -3.016,-2.468 -5.164,-3.131c-0.97,-0.301 -2.001,-0.444 -3.052,-0.471c-2.941,-0.073 -6.058,0.737 -9.051,1.656c-2.978,0.909 -5.851,1.939 -8.096,2.364c-2.781,0.518 -5.538,0.749 -8.212,0.683c-5.84,-0.156 -11.376,-1.682 -16.323,-4.573c-1.975,-1.139 -3.618,-2.547 -5.373,-3.915c-1.755,-1.368 -3.638,-2.708 -6.07,-3.645c-1.173,-0.446 -2.37,-0.668 -3.546,-0.698c-3.32,-0.07 -6.498,1.251 -9.308,2.858c-2.823,1.607 -5.309,3.554 -7.154,4.823c-2.692,1.857 -5.664,2.552 -8.73,2.487c-2.943,-0.073 -5.968,-0.876 -8.779,-2.131c-1.131,-0.488 -2.789,-1.437 -4.108,-2.506c-0.666,-0.53 -1.248,-1.099 -1.647,-1.633c-0.4,-0.533 -0.59,-1.041 -0.575,-1.446c0.014,-0.363 0.166,-0.658 0.57,-0.979c0.392,-0.311 1.091,-0.625 2.165,-0.877c0.482,-0.116 0.732,-0.43 0.744,-0.75c0.02,-0.149 -0.042,-0.333 -0.205,-0.486c-0.161,-0.164 -0.425,-0.257 -0.663,-0.273c-0.236,-0.016 -0.461,-0.034 -0.699,-0.039c-0.449,-0.012 -0.884,0.01 -1.292,0.064c0.462,-0.704 0.883,-1.431 1.263,-2.169c0.794,0.126 1.589,0.22 2.4,0.24c4.692,0.106 9.741,-1.413 13.89,-2.454c4.714,-1.208 8.884,-2.098 13.353,-1.987c1.693,0.042 3.439,0.224 5.289,0.591c5.69,1.134 10.937,3.957 16.276,6.162c4.705,1.934 9.497,2.705 14.301,2.824c11.975,0.286 24.047,-3.357 35.754,-3.055c3.684,0.092 7.324,0.567 10.927,1.648c4.463,1.352 7.236,3.953 9.77,6.89c2.551,2.926 4.823,6.188 8.369,8.68c2.922,2.049 6.025,3.003 9.191,3.082c3.346,0.072 6.745,-0.784 10.178,-2.194c4.544,-1.855 8.364,-4.249 13.067,-5.457c2.194,-0.576 4.848,-0.681 7.551,-0.614c2.619,0.065 5.275,0.292 7.639,0.382c7.84,0.28 15.893,1.185 23.89,1.394c2.003,0.05 3.98,0.046 5.973,-0.022Z" style="fill:#a23237;fill-rule:nonzero;"/><path d="M558.399,79.319c-2.914,-0.147 -5.887,-0.35 -8.88,-0.424c-5.52,-0.137 -11.142,0.173 -16.416,2.209c-3.272,1.261 -6.336,2.769 -9.241,3.907c-2.915,1.141 -5.654,1.893 -8.21,1.826c-2.778,-0.087 -5.527,-1.019 -8.699,-3.891c-2.295,-2.093 -4.247,-4.845 -6.567,-7.452c-2.324,-2.596 -5.063,-5.325 -9.115,-6.701c-5.018,-1.707 -9.916,-2.758 -14.91,-2.882l-0.121,-0.003l0.003,0c-3.686,-0.091 -7.439,0.427 -11.344,0.932c-7.928,1.041 -15.512,2.672 -22.841,2.487c-4.237,-0.106 -8.393,-0.699 -12.595,-2.317c-3.988,-1.531 -7.782,-3.251 -11.797,-4.671c-4.027,-1.417 -8.286,-2.926 -13.154,-3.047c-0.394,-0.01 -0.751,-0.422 -1.13,-0.432l-0.003,0c-4.26,0.942 -8.399,1.337 -12.448,2.483c-4.015,1.146 -7.923,2.251 -11.373,2.166l-0.048,-0.002c-0.512,-0.012 -1.115,0.313 -1.61,0.244c0.135,-0.613 0.129,-0.856 0.153,-1.476l0,-0.003c0.095,-2.44 -1.189,-4.8 -1.104,-6.99l0.003,-0.071l0,-0.005c0.037,-0.952 0.644,-1.866 0.972,-2.769c0.43,-1.201 2.136,-2.316 3.916,-3.499l0.119,0.001c1.704,-1.156 3.727,-2.391 4.876,-4.149c5.755,1.671 11.959,5.046 18.373,8.212c6.858,3.359 14.046,6.494 21.688,6.702c3.339,0.084 6.759,-0.623 10.128,-1.893c3.098,-1.182 5.944,-3.208 8.746,-5.234c1.396,-1.013 2.759,-1.45 4.062,-1.988c1.32,-0.529 2.534,-0.709 3.674,-0.68c1.519,0.043 3.089,0.623 4.992,2.325c1.393,1.249 2.936,3.406 4.839,5.268l0.001,0.016c0.969,0.931 2.055,1.48 3.329,2.163c1.274,0.681 2.791,0.819 4.483,0.861l0.404,0.01c1.832,0.046 3.58,-0.275 5.235,-0.869c1.656,-0.6 3.233,-1.093 4.415,-1.398c3.556,-0.934 6.627,-1.718 9.848,-1.637c1.189,0.029 2.387,0.256 3.666,0.288l0.003,0c5.331,1.18 10.066,3.945 15.016,6.495c4.948,2.542 9.764,5.07 16.272,5.233c0.22,0.006 0.285,0.017 0.286,0.006l0.018,-0.471c0,0 0.882,0.022 0.883,0.022c0.004,0 -0.883,-0.022 -0.883,-0.022l-0.018,0.448c4.126,-0.017 7.243,-1.62 10.177,-3.071l0.225,0.032c1.471,-0.743 2.542,-1.448 3.889,-1.936l-0.349,-0.003l0.002,-0.043c1.394,-0.494 3.514,-1.282 4.62,-1.254l0.056,0.001c1.323,0.033 2.569,0.703 4.114,1.905l0.084,0.148c0.707,0.55 0.678,1.049 2.043,1.328l-0.001,0.005c0,0.001 -0.083,-0.045 -0.082,-0.045c0.002,0 0.033,-0.043 0.035,-0.043l-0.058,-0.002c0.949,0.024 1.702,0.515 2.29,0.628c0.634,0.13 1.213,0.294 2.301,0.857c2.182,1.143 4.398,2.434 6.828,3.513l0.189,0.419l0.38,0.827l0.626,-0.543c0.122,0.071 0.243,0.146 0.366,0.209c0.595,0.299 1.27,0.623 2.002,0.841c1.448,0.426 3.159,-0.013 4.584,1.07l0.005,0.001c1.467,0.036 3.59,0.47 3.587,0.541l0.004,-0.1c2.727,0.586 6.831,0.761 10.292,0.906c-0.357,2.077 -0.56,4.133 -0.798,6.13c-8.382,-0.801 -16.949,-1.224 -25.307,-1.649Zm20.7,10.447c-0.003,0.072 -0.094,0.141 -0.155,0.21c-1.587,0.115 -3.148,0.365 -4.737,0.325c-2.92,-0.071 -5.859,-0.1 -8.86,-0.174l-0.157,-0.004c-4.766,-0.119 -9.73,0.039 -14.678,2.39c-4.711,2.233 -8.197,5.091 -11.755,7.347c-3.588,2.287 -7.061,3.625 -11.987,3.518c-1.247,-0.031 -2.59,-0.65 -4.073,-0.687l-0.469,-0.011l-0.02,0.536c-5.462,-0.98 -9.757,-2.875 -15.097,-4.055l-0.001,-0.001l-0.001,0c-5.953,-2.243 -11.513,-2.313 -16.387,-4.814l-0.001,-0.159l-0.262,-0.084c-3.121,-1.562 -4.84,-4.669 -7.468,-7.826l0.001,-0.023c0.059,-1.53 -1.904,-3.133 -3.314,-4.517c-1.411,-1.384 -3.023,-2.588 -5.309,-3.293c-1.055,-0.328 -2.1,-0.481 -3.216,-0.509c-3.119,-0.073 -6.272,0.769 -9.288,1.692c-2.997,0.916 -5.852,1.939 -7.991,2.341c-2.725,0.509 -5.412,0.734 -8.021,0.669c-5.7,-0.153 -11.084,-1.637 -15.932,-4.467l-0.002,-0.002c-1.905,-1.097 -3.526,-2.484 -5.295,-3.865c-1.769,-1.379 -3.406,-2.758 -5.944,-3.736l0.299,0.005l-0.001,0.022c-1.356,-0.48 -3.149,-0.945 -4.421,-0.977l-0.004,0c-3.574,-0.089 -6.87,1.422 -9.73,3.054c-2.876,1.637 -5.385,3.65 -7.203,4.9c-2.576,1.769 -5.341,2.436 -8.263,2.379c-2.795,-0.069 -5.728,-0.673 -8.465,-1.896l-0.01,0.159l-0.005,-0.001c-1.033,-1.073 -2.382,-1.531 -3.643,-2.555l0.304,-0.07l0.002,-0.039c-1.355,-0.522 -1.488,-1.074 -1.852,-1.559c-0.356,-0.473 -0.652,-0.919 -0.638,-1.19c0.024,-0.261 -0.004,-0.384 0.309,-0.649c0.269,-0.218 0.848,-0.82 1.854,-1.053l-0.003,-0.311l-0.008,0c0.74,0.018 1.135,0.028 1.186,-1.019l0.005,0l-0.003,0.151c0.009,-0.266 -0.111,-0.423 -0.348,-0.658l-0.001,0.054c-0.003,-0.002 -0.129,0.021 -0.134,0.018c0,-0.002 -0.127,0.006 -0.127,0.005l0,0.009c0.011,-0.287 -0.597,-0.426 -1.001,-0.457c-0.236,-0.017 -0.414,-0.031 -0.679,-0.038c-0.087,-0.002 -0.136,0.013 -0.221,0.015c0.206,-0.344 0.429,-0.685 0.617,-1.035c0.647,0.09 1.309,0.163 1.99,0.18c4.893,0.104 10.01,-1.775 14.136,-2.803l0.021,-0.327l-0.001,0c4.687,-0.931 8.773,-1.745 13.106,-1.636c1.645,0.041 3.333,0.38 5.136,0.736c5.525,1.097 10.737,3.971 16.12,6.2c4.812,1.977 9.717,2.823 14.598,2.943c12.149,0.278 24.204,-3.283 35.705,-2.997l0.047,0.001c3.623,0.09 6.948,0.532 10.468,1.59c4.262,1.289 6.586,3.759 9.223,6.678l0,-0.003c2.638,2.899 5.041,6.504 8.697,9.076c3.016,2.12 6.516,3.436 9.847,3.518l0.003,0.001c3.512,0.087 7.033,-1.118 10.526,-2.554c4.613,-1.888 8.419,-4.407 12.968,-5.571l0.007,-0.075c2.061,-0.543 4.648,-0.691 7.314,-0.623c2.585,0.063 5.233,0.27 7.627,0.362c7.798,0.277 15.855,1.174 23.901,1.386c1.737,0.043 3.387,0.03 5.113,-0.014c-0.586,2.242 -1.135,4.216 -3.949,5.868l0,-0.001Zm-185.498,-60.644c2.515,0.893 4.47,2.664 6.276,4.774l-0.102,0.003l0,-0.002c2.667,2.133 3.481,4.53 5.168,6.573c3.094,3.72 6.712,7.695 11.973,10.218c1.59,0.766 3.27,1.146 4.877,1.185c1.92,0.047 3.748,-0.369 5.394,-1.046c4.923,-2.042 8.775,-6.301 11.224,-8.886c4.274,-4.54 8.697,-6.928 13.943,-8.887c5.149,-1.934 11.119,-2.044 18.587,-1.859l0.014,0c0.486,0.012 0.954,-0.13 1.392,-0.119c1.189,0.028 2.211,-0.008 3.062,0.106c0.852,0.115 1.528,0.259 2.097,0.563l0.011,-0.014l0.34,-0.006c2.194,1.174 3.016,2.713 4.297,5.133l0,-0.001c1.289,2.228 1.024,4.68 1.472,7.258c-2.272,1.14 -4.593,2.33 -6.014,3.52l0,0.002l-0.541,-0.01c-0.33,0.216 -0.815,0.521 -0.823,0.844c-0.016,0.278 -0.01,0.538 0.153,0.723l-0.058,0.01l-0.014,-0.249c0.242,0.252 0.642,0.205 1.166,0.218l0.058,0.001l-0.02,0.51c1.374,0.029 0.322,-0.502 0.524,-0.497l0.151,0.003c1.767,0.044 3.723,-1.526 5.599,-2.342c0.361,0.213 0.797,0.382 1.153,0.392c0.54,0.013 1.046,-0.099 1.416,-0.324l0.016,0.016l0.783,0.024c0.376,-0.24 1.486,-0.597 1.505,-1.093l0.002,-0.033l-0.789,-0.157c3.325,-1.262 6.265,-2.118 9.347,-2.038c2.869,0.088 5.369,0.921 8.12,3.085l-0.096,-0.002c1.836,1.094 3.283,3.158 5.023,4.827l-0.021,-0.007c1.753,1.655 3.752,3.038 6.596,4.148c1.833,0.71 3.497,0.838 5.05,0.877l-0.005,0l0.06,0.001c1.937,0.048 3.43,-0.238 4.837,-1.067l-0.004,0.115c1.424,-1.276 3.253,-3.08 4.203,-5.045c0.553,-1.132 1.01,-2.253 1.416,-3.37c1.476,1.622 3.346,2.889 5.532,3.744c3.105,1.233 6.768,1.358 10.697,1.455c0.354,0.009 0.712,-0.392 1.028,-0.384l0.019,0.001c3.685,0.091 7.24,0.157 10.711,0.244c0.618,0.016 1.228,0.245 1.86,0.281c1.194,0.086 2.087,0.392 2.775,0.674c0.689,0.282 1.176,0.691 1.567,1.128c0.768,0.853 1.083,2.15 1.023,3.64c-0.04,1.016 -0.246,2.13 -0.536,3.225l-0.007,0.026l0.347,0.268l0.383,0.034l-0.001,0.024c-0.02,0.514 -0.136,0.98 0.313,1.315l-0.187,0.001l-0.082,-0.213c0.421,0.297 0.86,0.304 1.413,0.318l0.008,0c3.078,0.076 6.117,0.645 9.172,0.721c3.836,0.096 7.651,0.189 11.459,0.199c-2.24,2.235 -3.754,4.81 -4.76,7.646c-0.593,-0.012 -1.184,0.005 -1.761,-0.009c-6.232,-0.154 -12.241,-0.602 -17.898,-2.364l-0.006,0.005c-0.194,-0.061 -0.399,-0.128 -0.604,-0.196l-0.09,-0.24l-0.303,-0.807l-0.711,0.51c-0.13,-0.094 -0.251,-0.197 -0.382,-0.285l-0.009,-0.007l-0.018,0.169c-0.9,-0.554 -2.011,-1.347 -3.072,-1.373l0.004,0c-1,-1.073 -2.002,-1.06 -2.364,-1.265c-1.281,-0.718 -2.937,-1.169 -3.924,-1.542c-1.008,-0.392 -1.391,-0.808 -2.737,-1.55l0,0.009c-1.301,-1.91 -3.316,-3.294 -5.769,-3.355l-0.057,-0.001l0.002,0c-3.538,-0.088 -7.082,1.485 -9.712,2.902l-0.009,0.139c-3.725,2.02 -6.502,3.051 -10.246,2.964c-0.978,-0.025 -2.021,-0.263 -3.189,-0.292l-0.004,0c-3.201,-1.128 -6.56,-1.979 -9.843,-3.718c-3.303,-1.736 -6.544,-3.682 -9.792,-5.105c-3.627,-1.579 -7.004,-2.244 -10.247,-2.323c-5.444,-0.119 -10.366,1.023 -16.13,2.17c-0.286,0.057 -1.886,0.451 -3.412,0.413l-0.004,0c-0.776,-0.019 -1.545,0.616 -2.113,0.741l-0.012,0.145c-0.226,0.051 -0.24,0.172 -0.398,0.213c-0.462,-0.15 -1.337,-0.618 -1.322,-1.021l0.007,-0.173l-0.337,-0.008c-0.686,-0.017 -1.312,-1.004 -1.905,-1.576c-2.097,-2.004 -3.838,-4.478 -6.673,-6.508l-0.009,0.151c-1.864,-1.32 -3.934,-1.81 -5.99,-1.861l-0.062,-0.001l0.005,0c-3.717,-0.092 -7.047,1.437 -10.021,3.16l-0.002,-0.049c-3.969,2.337 -7.025,4.352 -11.294,5.601c-1.534,0.455 -3.153,0.112 -4.843,0.07l-0.045,-0.001c-4.748,-0.118 -10.008,-1.509 -14.108,-3.294c-4.261,-1.835 -8.796,-3.987 -13.204,-6.017c-3.941,-1.82 -7.989,-3.031 -13.468,-3.565l-0.013,0.336c0,0 0.879,0.022 0.876,0.022c-0.004,0 -0.865,-0.31 -0.865,-0.31l0.003,-0.064c0,-0.011 0.234,-0.04 0.131,-0.05c0.001,-0.025 0.26,-0.052 0.261,-0.078c0.051,-1.336 -0.28,-2.771 -0.226,-4.178l0,-0.003c0.055,-1.403 -0.535,-2.816 -0.487,-4.028c0.049,-1.265 0.39,-2.465 1.152,-3.159c0.78,-0.695 2.045,-0.655 4.587,-1.64l0.005,0l0.002,0.212c0.475,-0.047 0.801,-0.129 1.006,-0.311l0.006,0.046l0.008,0.016c0.037,-0.033 0.053,-0.052 0.083,-0.089Zm204.492,32.471c-0.096,-0.181 -0.229,-0.325 -0.376,-0.468l0,-0.001c-0.002,0 -0.002,-0.001 -0.003,-0.002c-0.005,-0.006 -0.009,-0.012 -0.016,-0.018l-0.003,0.002c-0.133,-0.136 -0.404,-0.249 -0.591,-0.305c-0.105,-0.031 -0.383,-0.054 -0.383,-0.064l0.009,-0.214l0.019,-0.516l-0.59,-0.138c-5.666,-0.095 -12.6,0.32 -18.658,0.169c-0.224,-0.005 -0.448,-0.011 -0.685,-0.017l-0.043,-0.001c-0.821,-0.02 -1.801,-0.045 -2.717,-0.067l-0.008,0l-0.006,-0.001l-0.055,-0.001c-0.543,-0.013 -1.044,-0.078 -1.241,-0.171l-0.073,-0.038l-0.01,0.002l-0.013,-0.006l-0.006,-0.005c-0.014,-0.027 0.343,-0.1 0.347,-0.229c0.002,-0.045 0.41,-0.127 0.414,-0.233l0,-0.002c0.021,-0.535 0.141,-1.063 0.162,-1.586c0.022,-0.574 -0.057,-1.143 -0.035,-1.688l0,-0.003c0.069,-1.796 -1.29,-3.366 -2.687,-4.544l-0.184,-0.006c-1.394,-1.166 -3.375,-1.952 -5.513,-2.354c-1.902,-0.367 -3.91,-0.514 -5.871,-0.563c-4.051,-0.1 -8.182,0.215 -11.844,0.123c-3.144,-0.077 -5.904,-0.446 -8.069,-1.487l-0.007,-0.002c-2.168,-1.035 -3.92,-2.727 -5.021,-5.864l-0.004,-0.006l0.327,0.004c-0.111,-0.297 -0.406,-0.624 -0.397,-0.855l0,-0.002c0,-0.004 -0.681,-0.023 -0.689,-0.025c-0.006,-0.003 -0.684,-0.024 -0.684,-0.027l0,0.002c0.008,-0.222 -0.482,-0.306 -0.853,-0.316c-0.619,-0.015 -0.982,0.154 -1.39,0.356l0.077,0.008l0.034,0.004c-0.39,0.205 -0.77,0.497 -0.999,0.921l0.008,0.008l0.004,0c-1.172,2.275 -1.847,5.382 -3.024,7.82c-0.59,1.213 -1.298,2.251 -2.115,2.886c-0.843,0.647 -1.665,0.958 -2.977,0.946c-0.918,-0.022 -2.109,-0.261 -3.594,-0.832c-1.963,-0.745 -3.668,-2.177 -5.288,-3.824l-0.003,-0.001c-1.638,-1.643 -3.18,-3.31 -5.054,-4.797c-2.947,-2.35 -6.44,-3.234 -9.926,-3.32l-0.063,-0.002l0.004,0c-3.862,-0.095 -7.673,0.748 -11.205,2.165c-0.258,-2.07 0.25,-4.436 -0.353,-6.651c-0.363,-1.384 -1.117,-2.799 -1.07,-4.001l0,-0.019c0,-0.001 0.001,-0.011 0.001,-0.011c0,-0.001 0,-0.008 0,-0.009l0,-0.003c-1.326,-1.247 -3.442,-2.349 -5.062,-3.437l-0.003,0c-2.971,-1.122 -6.686,-1.955 -10.573,-2.052c-7.061,-0.161 -14.962,1.385 -19.972,3.168c-4.607,1.647 -8.472,4.531 -11.326,7.235l-0.001,0.017c-1.452,2.002 -4.433,4.967 -7.231,7.398c-1.38,1.207 -2.739,2.287 -4.229,3.008c-1.498,0.725 -2.922,1.122 -4.461,1.083c-0.891,-0.022 -1.8,-0.195 -2.84,-0.562c-2.712,-0.975 -5.218,-3.014 -7.431,-5.376l0.005,-0.001c-2.216,-2.351 -4.136,-5.004 -5.872,-7.167c-1.276,-1.592 -2.634,-3.423 -4.408,-5.022l-0.001,-0.001c-1.774,-1.588 -4.026,-2.96 -7.034,-3.434l-0.032,-0.005l-0.222,-0.216l-0.016,-0.199l-0.023,0c-0.546,-0.014 -1.026,0.356 -1.344,0.618c-0.141,0.113 -0.265,0.349 -0.352,0.503c-0.725,0.03 -1.61,0.16 -2.496,0.316c-0.927,0.167 -1.848,0.428 -2.575,0.809c-1.352,0.706 -2.902,1.773 -3.665,3.149c-0.744,1.323 -2.074,3.308 -2.138,4.95l0,0.004c-0.004,0.091 -0.015,0.203 -0.02,0.325l0,0.193l-0.001,0.008c1.324,1.335 0.667,2.524 0.624,3.635c-0.052,1.359 -0.082,2.538 -0.758,3.609c-0.68,1.073 -1.639,2.068 -3.538,3.05c-1.856,0.957 -2.928,2.386 -3.589,3.872c-0.676,1.497 -0.607,3.086 -0.664,4.525c-0.014,0.362 0.3,0.718 0.287,1.05l0,0.005c-0.088,2.276 0.196,4.294 0.201,6.225c-0.428,-0.213 -0.991,-0.452 -1.422,-0.735l-0.049,-0.331c-0.354,-0.233 -0.844,-0.705 -1.308,-0.717l-0.009,0l-0.009,0c-0.772,-0.019 -1.081,0.648 -1.424,0.953c-0.362,0.31 -0.355,1.063 -0.373,1.532l-0.001,0.016c-0.013,0.34 -0.172,0.714 0.166,1.039c1.063,1.027 2.171,1.74 3.488,2.249c-0.451,1 -0.695,2.01 -1.291,3.031c-1.005,0.696 -1.297,1.682 -1.339,2.761l-0.002,0.038l0.005,-0.111l-0.781,-0.019c-0.036,1.047 0.409,2.274 1.339,3.357c3.76,4.35 10.4,7.51 17.333,7.699c1.516,0.037 3.034,-0.054 4.537,-0.328c2.874,-0.52 5.177,-1.794 7.164,-3.228c1.987,-1.434 3.709,-3.031 5.352,-4.287l0,0.062c2.497,-1.944 6.126,-3.285 9.394,-3.203l0.036,0c1.458,0.037 2.855,0.283 4.182,0.949c2.451,1.222 4.648,3.44 7.092,5.286c5.558,4.161 12.247,5.877 19.08,6.046l0.067,0.002c5.6,0.139 11.317,-0.728 16.785,-2.179c1.689,-0.451 3.257,-1.192 4.692,-1.587c1.434,-0.397 2.745,-0.873 3.899,-0.844l0.065,0.002c1.414,0.035 2.676,0.619 4.261,1.828l0.222,0.122c1.796,1.37 3.399,3.206 4.7,5.109l-0.001,0.029c1.301,1.891 2.375,3.92 4.119,5.744c2.669,2.781 6.331,4.457 10.189,5.701c6.956,2.225 14.329,3.069 21.046,5.16c4.023,1.245 7.602,1.703 11.056,1.789l0.05,0.001c6.066,0.151 11.431,-1.457 16.984,-5.326c3.146,-2.172 5.966,-4.194 9.037,-5.703c3.081,-1.523 6.336,-1.791 10.61,-2.733l0.004,0c0.929,0.023 1.843,0.048 2.761,0.071c3.46,0.084 6.917,0.64 10.584,0.733c2.3,0.057 4.699,-0.032 7.194,-0.533l0.009,0.012l0.011,0.004c0.495,-0.114 1.173,-0.336 1.426,-0.628c0.234,-0.273 0.642,-0.563 0.653,-0.844l0.001,-0.025l0.001,-0.026c0.01,-0.247 -0.351,-0.594 -0.647,-0.911l-0.141,-0.003c-0.001,-0.003 -0.086,0.298 -0.087,0.297c-0.003,-0.002 -0.053,0.296 -0.053,0.296l-0.019,0c-0.108,-1.051 -0.432,-0.568 -0.625,-0.66c1.997,-2.369 1.818,-5.363 3.299,-8.106l0,-0.002c0.094,-2.423 1.016,-4.947 1.602,-7.184c0.389,-0.102 0.972,-0.685 1.199,-0.679l-0.061,-0.002c0,0 -0.03,0 -0.028,0c0.001,0 -0.014,-0.001 -0.013,-0.001l-0.008,0c0.331,0.008 0.504,-0.525 0.518,-0.911c0.016,-0.309 -0.075,-0.759 -0.418,-1.096l-0.008,-0.086l-0.011,-0.001c-0.051,-0.001 -0.115,0.14 -0.17,0.102c1.245,-3.257 3.195,-6.314 7.017,-8.315l0.004,0l0.009,-0.066c0.27,-0.177 0.503,-0.394 0.671,-0.624c0.17,-0.229 0.254,-0.509 0.261,-0.773c0.009,-0.203 -0.023,-0.428 -0.126,-0.617Z" style="fill:#692535;fill-rule:nonzero;"/></g><g><path d="M387.348,75.642l0.189,0.058c-0.16,0.476 -0.813,1.194 -1.886,1.92c-1.742,1.213 -4.372,2.479 -6.807,3.55c-2.432,1.059 -4.667,1.911 -5.683,2.331c-0.378,0.163 -0.74,0.328 -1.115,0.49c-1.012,-0.917 -2.159,-1.644 -3.074,-2.458c-1.216,-1.058 -2.323,-2.229 -3.663,-3.314c-1.889,-1.543 -4.273,-2.44 -6.784,-2.741c-1.41,-0.169 -2.867,-0.16 -4.316,0.026c-0.161,0.015 -0.3,0.067 -0.411,0.123c-2.088,-0.482 -3.526,-1.196 -4.55,-2.116c-1.635,-1.442 -2.288,-3.426 -2.675,-5.678c-0.391,-2.229 -0.494,-4.688 -1.124,-7.016c-0.374,-1.316 -1.147,-2.354 -2.155,-3.133l-0.012,-0.013l-0.027,-0.004l-0.012,-0.013l-0.013,-0.012c-0.711,-0.594 -1.63,-1.073 -2.788,-1.362c-0.221,-0.051 -0.404,-0.073 -0.528,-0.098l-0.042,-0.017l-0.042,-0.005c-0.402,-0.084 -0.807,-0.154 -1.23,-0.205c-1.748,-0.211 -3.585,-0.106 -5.293,0.231c-2.951,0.593 -6.784,2.281 -10.801,3.717c-4.003,1.437 -8.137,2.569 -11.392,2.168c-1.804,-0.228 -3.341,-0.874 -4.631,-2.229c-0.877,-0.936 -1.339,-2.402 -1.597,-3.956c-0.257,-1.555 -0.338,-3.193 -0.637,-4.534c-0.771,-3.51 -2.586,-6.833 -5.655,-9.476c-1.092,-0.939 -2.411,-1.443 -3.793,-1.61c-2.314,-0.276 -4.734,0.334 -6.99,1.138c-2.254,0.803 -4.334,1.823 -5.878,2.447c-5.992,2.434 -12.306,3.04 -18.484,2.299c-7.922,-0.961 -15.598,-4.178 -21.872,-8.637c-4.798,-3.416 -8.54,-5.538 -13.687,-6.156c-2.257,-0.269 -4.753,-0.257 -7.707,0.035c-1.674,0.169 -2.95,0.201 -4.021,0.073c-1.015,-0.122 -1.848,-0.372 -2.743,-0.825c-0.885,-0.441 -1.831,-1.086 -2.949,-1.97c-4.679,-3.668 -11.041,-6.89 -14.426,-11.07c0.231,-0.389 0.438,-0.802 0.621,-1.243c1.26,-3.185 1.406,-6.136 2.396,-8.419c0.487,-1.142 1.172,-2.11 2.277,-2.925c1.099,-0.791 2.634,-1.44 4.912,-1.906c0.157,0.008 0.315,0.015 0.427,0.029l0.31,0.037c1.454,0.175 2.908,0.568 4.407,0.956c1.607,0.734 2.705,1.652 3.656,2.735c1.305,1.508 2.285,3.357 3.767,5.382c2.361,3.181 6.845,4.574 10.656,5.701c5.729,1.679 11.58,2.542 16.878,4.666c2.399,0.969 4.07,2.681 5.437,4.694c1.371,2.011 2.401,4.281 3.587,6.271c1.03,1.741 2.342,3.283 3.937,4.467c1.597,1.185 3.503,2.014 5.675,2.274c1.777,0.213 3.725,0.054 5.785,-0.553c4.379,-1.288 8.311,-2.653 12.27,-4.708c2.424,-1.245 4.602,-2.173 6.752,-2.712c2.144,-0.528 4.266,-0.689 6.635,-0.406c1.452,0.175 3.002,0.522 4.704,1.061c3.623,1.138 7.036,3.546 10.59,5.831c3.567,2.286 7.297,4.465 11.708,5.006c0.735,0.087 1.49,0.131 2.256,0.12c6.22,-0.098 11.83,-2.035 17.45,-3.486c5.289,-1.375 10.777,-1.965 15.993,-1.327c3.752,0.449 7.357,1.528 10.682,3.416c3.155,1.787 4.516,4.144 5.114,6.882c0.89,4.114 -0.111,9.005 0.399,13.454c0.262,2.224 0.914,4.359 2.443,6.216c0.329,0.397 0.717,0.791 1.138,1.164l-0.156,0.062c-0.227,0.135 -0.407,0.32 -0.457,0.592c-0.061,0.247 0.068,0.562 0.337,0.745c1.762,1.296 3.797,1.979 5.782,2.771c0.968,0.381 1.927,0.798 2.936,1.195Z" style="fill:#a23237;fill-rule:nonzero;"/><path d="M366.649,83.622c0.72,0.698 1.49,1.367 2.397,1.916c-2.506,1.443 -4.661,3.182 -6.281,5.447c-1.109,1.529 -1.817,3.234 -2.489,4.829c-0.411,0.966 -1.019,1.747 -1.743,2.458c-3.457,-0.715 -6.137,-1.96 -8.542,-3.599c-2.506,-1.708 -4.701,-3.843 -7.118,-6.187c-3.078,-2.979 -6.67,-4.98 -11.506,-5.559c-0.127,-0.016 -0.254,-0.031 -0.381,-0.047c-3.408,-0.35 -6.936,0.081 -10.171,0.34c-1.258,0.092 -2.376,0.062 -3.448,-0.067c-3.004,-0.359 -5.587,-1.501 -8.994,-2.405c-6.512,-1.728 -13.061,-3.483 -19.214,-5.825c-0.808,-0.305 -1.341,-0.692 -1.761,-1.147c-0.637,-0.676 -0.996,-1.54 -1.366,-2.484c-0.371,-0.945 -0.773,-1.963 -1.61,-2.883c-0.315,-0.327 -0.636,-0.608 -0.931,-0.885c-0.932,-1.266 -2.244,-2.267 -3.747,-3.094c-0.731,-0.561 -1.465,-1.11 -2.168,-1.669c-1.799,-1.404 -3.99,-1.644 -5.894,-2.022c-0.961,-0.185 -1.858,-0.396 -2.684,-0.76c-0.811,-0.363 -1.54,-0.867 -2.206,-1.696c-0.552,-0.678 -0.939,-1.765 -1.462,-2.832c-0.522,-1.055 -1.224,-2.167 -2.636,-2.787c-1.278,-0.568 -2.569,-0.908 -3.853,-1.062c-2.342,-0.281 -4.635,0.034 -6.843,0.588c-2.226,0.565 -4.393,1.357 -6.53,2.07c-3.074,1.017 -5.577,1.295 -7.636,1.047c-3.058,-0.377 -5.253,-1.9 -6.966,-4.159c-1.712,-2.25 -2.861,-5.204 -3.741,-8.22c-0.129,-0.385 -0.489,-0.612 -0.913,-0.664l-0.375,0.002c-9.338,1.513 -18.14,4.938 -27.453,4.007l-0.341,-0.03c-2.324,-0.29 -3.847,-1.015 -5.012,-2.032c-1.752,-1.503 -2.662,-3.737 -3.738,-6.002c-1.039,-2.157 -2.271,-4.36 -4.802,-5.852c0.2,-0.381 0.387,-0.762 0.571,-1.133c0.765,-1.698 1.352,-3.452 2.226,-4.652c1.129,-1.574 2.614,-2.804 4.133,-4.066c1.215,-1.02 2.431,-2.052 3.455,-3.291c1.644,2.702 4.021,4.407 6.934,6.338c1.68,1.114 3.266,2.736 4.98,4.292c1.697,1.566 3.52,3.078 5.781,3.938c0.648,0.239 1.281,0.396 1.917,0.471c1.508,0.181 2.919,-0.042 4.416,-0.255c3.425,-0.502 6.456,-0.681 9.249,-0.347c3.228,0.399 6.172,1.456 9.191,3.597c7.821,5.52 17.057,9.792 27.534,11.059c0.789,0.095 1.596,0.179 2.406,0.242c4.921,0.359 9.581,-1.115 13.787,-2.632c2.119,-0.773 4.349,-1.902 6.586,-2.767c2.241,-0.873 4.465,-1.438 6.525,-1.192c1.041,0.136 2.063,0.456 3.099,1.088c2.015,1.246 3.289,3.223 4.133,5.425c0.829,2.201 1.227,4.616 1.579,6.667c0.162,0.909 0.289,2.091 0.622,3.238c0.343,1.162 0.893,2.313 2.007,3.139c1.41,1.024 3.109,1.574 4.901,1.788c4.853,0.57 10.385,-1.179 14.151,-2.575c2.217,-0.832 4.56,-1.878 6.938,-2.645c2.389,-0.752 4.785,-1.216 7.111,-0.937c0.281,0.034 0.547,0.077 0.825,0.134c1.037,0.239 1.96,0.627 2.705,1.19c1.133,0.955 1.656,2.403 1.862,3.998c0.222,1.598 0.133,3.308 0.173,4.71c0.164,4.291 3.732,8.345 8.926,9.637l0.093,0.195c0.163,0.216 0.484,0.347 0.766,0.381c2.143,0.257 3.935,0.553 5.538,1.08c1.615,0.528 3.029,1.298 4.437,2.564c0.828,0.733 1.661,1.677 2.601,2.586Z" style="fill:#d03d46;fill-rule:nonzero;"/><path d="M356.669,99.757c-1.091,0.746 -2.308,1.467 -3.54,2.278c-2.091,1.388 -4.114,2.266 -5.891,3.358c-1.725,1.052 -3.194,2.353 -4.098,4.415c-1.212,0.467 -2.101,0.592 -2.707,0.519c-0.577,-0.07 -0.984,-0.291 -1.387,-0.685c-0.58,-0.59 -1.012,-1.6 -1.351,-2.714c-0.366,-1.129 -0.656,-2.354 -1.119,-3.425c-1.084,-2.462 -2.219,-5.716 -4.724,-7.818c-1.285,-1.077 -2.854,-1.623 -4.477,-1.818c-2.144,-0.256 -4.406,0.049 -6.591,0.469c-2.183,0.419 -4.287,0.953 -6.047,1.192c-1.553,0.206 -3.023,0.203 -4.447,0.033c-4.359,-0.523 -8.348,-2.629 -12.396,-4.881c-4.049,-2.252 -8.129,-4.646 -12.811,-5.6c-3.431,-0.7 -5.771,-1.985 -7.607,-3.729c-1.852,-1.746 -3.196,-3.962 -4.512,-6.487c-1.917,-3.636 -6.267,-6.202 -10.51,-7.645c-1.424,-0.483 -2.878,-0.806 -4.33,-0.98c-8.253,-0.979 -16.762,2.354 -23.641,4.751c-1.607,0.57 -2.857,0.709 -3.874,0.587c-0.987,-0.119 -1.782,-0.491 -2.499,-1.05c-1.07,-0.833 -1.922,-2.136 -2.705,-3.5c-0.798,-1.366 -1.51,-2.802 -2.452,-3.931c-2.042,-2.427 -5.629,-3.676 -8.73,-4.521c-2.015,-0.554 -4.111,-0.921 -6.226,-1.174c-5.948,-0.725 -12.135,-0.566 -17.861,-1.021c-0.782,-0.059 -1.56,-0.14 -2.335,-0.234c-3.484,-0.417 -6.813,-1.197 -9.707,-2.756c-1.849,-0.995 -2.962,-2.365 -3.701,-3.966c-0.704,-1.562 -0.88,-3.315 -1.101,-5.063c0.463,-1.318 1.548,-2.654 1.844,-4.235l0.002,-0.011l0.003,-0.012c0.04,-0.214 -0.17,-0.482 -0.338,-0.664c0.393,-0.333 0.682,-0.403 1.095,-0.768c0.171,-0.143 0.125,-0.206 0.125,-0.206l0.014,0.002c1.734,-0.946 3.594,-1.717 5.334,-2.617c0.946,-0.509 1.688,-1.31 2.261,-2.072c2.437,2.393 3.519,5.248 5.05,7.937c0.824,1.449 1.799,2.79 3.243,3.933c1.443,1.155 3.355,2.031 5.956,2.539c0.433,0.075 0.855,0.137 1.278,0.187c5.246,0.629 10.877,-0.798 15.535,-1.81c2.676,-0.579 5.293,-1.235 7.937,-1.807c0.601,-0.125 1.067,-0.15 1.419,-0.108c0.437,0.053 0.715,0.19 0.973,0.428c0.396,0.348 0.698,0.973 0.931,1.729c0.221,0.743 0.41,1.584 0.693,2.381c0.788,2.196 2.146,4.032 3.98,5.407c1.817,1.384 4.129,2.285 6.752,2.6c1.241,0.148 2.535,0.164 3.895,0.062c2.697,-0.231 5.202,-1.063 7.641,-1.925c2.425,-0.853 4.808,-1.733 7.23,-2.112c1.188,-0.182 2.143,-0.205 2.888,-0.105c1.214,0.146 1.946,0.545 2.557,1.138c0.928,0.897 1.463,2.278 2.174,3.644c0.363,0.68 0.783,1.364 1.362,1.964c0.594,0.603 1.348,1.121 2.351,1.46c3.477,1.156 8.031,2.163 11.366,3.995c1.239,0.934 2.445,1.887 3.511,2.892c0.594,0.833 1.008,1.783 1.144,2.909c0.13,1.077 0.526,1.968 1.194,2.717c0.666,0.75 1.582,1.333 2.661,1.877c7.785,3.867 18.48,6.592 27.049,8.727c0.522,0.133 1.066,0.232 1.603,0.296c2.834,0.341 5.772,-0.104 8.331,-0.294c2.43,-0.194 4.593,-0.2 6.568,0.037c4.03,0.494 7.263,1.955 10.443,4.992c2.458,2.361 4.622,4.584 7.173,6.449c2.272,1.646 4.861,2.996 8.149,3.84Z" style="fill:#a23237;fill-rule:nonzero;"/><path d="M343.14,109.808c-1.212,0.467 -2.101,0.592 -2.707,0.519c-0.577,-0.07 -0.984,-0.291 -1.387,-0.685c-0.58,-0.59 -1.012,-1.6 -1.351,-2.714c-0.366,-1.129 -0.656,-2.354 -1.119,-3.425c-1.084,-2.462 -2.219,-5.716 -4.724,-7.818c-1.285,-1.077 -2.854,-1.623 -4.477,-1.818c-2.144,-0.256 -4.406,0.049 -6.591,0.469c-2.183,0.419 -4.287,0.953 -6.047,1.192c-1.553,0.206 -3.023,0.203 -4.447,0.033c-4.359,-0.523 -8.348,-2.629 -12.396,-4.881c-4.049,-2.252 -8.129,-4.646 -12.811,-5.6c-3.431,-0.7 -5.771,-1.985 -7.607,-3.729c-1.852,-1.746 -3.196,-3.962 -4.512,-6.487c-1.917,-3.636 -6.267,-6.202 -10.51,-7.645c-1.424,-0.483 -2.878,-0.806 -4.33,-0.98c-8.253,-0.979 -16.762,2.354 -23.641,4.751c-1.607,0.57 -2.857,0.709 -3.874,0.587c-0.987,-0.119 -1.782,-0.491 -2.499,-1.05c-1.07,-0.833 -1.922,-2.136 -2.705,-3.5c-0.798,-1.366 -1.51,-2.802 -2.452,-3.931c-2.042,-2.427 -5.629,-3.677 -8.73,-4.521c-2.015,-0.554 -4.111,-0.921 -6.226,-1.175c-5.948,-0.724 -12.135,-0.565 -17.861,-1.02c-0.782,-0.059 -1.56,-0.141 -2.335,-0.234c-3.484,-0.417 -6.813,-1.197 -9.707,-2.756c-1.849,-0.995 -2.962,-2.365 -3.701,-3.966c-0.704,-1.562 -0.88,-3.315 -1.101,-5.063c0.463,-1.318 1.548,-2.654 1.844,-4.235l0.002,-0.011l0.003,-0.012c0.04,-0.214 -0.17,-0.482 -0.338,-0.664c0.393,-0.333 0.682,-0.403 1.095,-0.769c0.171,-0.142 0.125,-0.205 0.125,-0.205l0.014,0.002c1.734,-0.946 3.594,-1.717 5.334,-2.617c0.946,-0.509 1.688,-1.31 2.261,-2.072c2.437,2.393 3.519,5.248 5.05,7.937c0.824,1.449 1.799,2.79 3.243,3.933c1.443,1.155 3.355,2.031 5.956,2.539c0.433,0.075 0.855,0.137 1.278,0.187c5.246,0.629 10.877,-0.798 15.535,-1.81c2.676,-0.579 5.293,-1.235 7.937,-1.807c0.601,-0.125 1.067,-0.15 1.419,-0.108c0.437,0.053 0.715,0.19 0.973,0.428c0.396,0.348 0.698,0.973 0.932,1.729c0.22,0.743 0.409,1.584 0.692,2.381c0.788,2.196 2.146,4.032 3.98,5.407c1.817,1.384 4.129,2.285 6.752,2.6c1.241,0.148 2.535,0.164 3.895,0.062c2.697,-0.231 5.202,-1.063 7.641,-1.925c2.423,-0.853 4.808,-1.733 7.23,-2.112c1.188,-0.182 2.143,-0.205 2.888,-0.105c1.214,0.146 1.946,0.545 2.557,1.138c0.928,0.897 1.463,2.278 2.174,3.644c0.363,0.68 0.783,1.364 1.362,1.964c0.594,0.603 1.348,1.121 2.351,1.46c3.477,1.156 8.031,2.163 11.366,3.995c1.239,0.934 2.445,1.887 3.511,2.892c0.594,0.833 1.008,1.783 1.144,2.909c0.13,1.077 0.526,1.968 1.194,2.717c0.666,0.75 1.582,1.333 2.661,1.877c7.785,3.867 18.48,6.592 27.049,8.727c0.522,0.133 1.066,0.232 1.603,0.296c2.834,0.341 5.772,-0.104 8.331,-0.294c2.43,-0.194 4.593,-0.2 6.568,0.037c4.03,0.494 7.263,1.955 10.443,4.992c2.458,2.361 4.623,4.584 7.173,6.449c2.272,1.646 4.861,2.996 8.149,3.84c-1.091,0.746 -2.308,1.467 -3.54,2.278c-2.09,1.388 -4.114,2.266 -5.89,3.358c-1.726,1.052 -3.195,2.353 -4.099,4.415Zm19.068,-19.08c-1.151,1.591 -1.868,3.328 -2.541,4.92c-0.334,0.784 -0.808,1.429 -1.378,2.031c-3.159,-0.706 -5.63,-1.864 -7.882,-3.398c-2.445,-1.666 -4.622,-3.778 -7.039,-6.124c-3.136,-3.042 -6.894,-5.106 -11.906,-5.702c-0.128,-0.015 -0.254,-0.008 -0.38,-0.008l-0.01,0l-0.004,0c-0.947,0 -1.896,-0.175 -2.841,-0.175c-2.578,0.001 -5.123,0.268 -7.473,0.455c-0.471,0.034 -0.923,0.042 -1.356,0.042c-0.676,0 -1.313,-0.045 -1.936,-0.12c-2.854,-0.336 -5.417,-1.155 -8.888,-2.082c-6.51,-1.727 -13.035,-3.39 -19.138,-5.498l-0.003,0c-0.716,-1.055 -1.343,-0.895 -1.715,-1.293l-0.199,-0.193l0,-0.058c0,-0.579 -0.704,-1.416 -1.07,-2.359c-0.374,-0.944 -0.694,-2.041 -1.606,-3.046l0.045,-0.013l0.018,-0.009c-0.33,-0.343 -0.645,-0.63 -0.924,-0.894c-0.976,-1.301 -2.314,-2.326 -3.825,-3.163c-0.726,-0.558 -1.306,-1.099 -1.991,-1.644l0.139,-0.004l0,0.142c-2.632,-1.537 -4.624,-2.223 -6.469,-2.223l-0.004,0c-0.942,0 -1.779,-0.418 -2.521,-0.747c-0.732,-0.33 -1.361,-0.777 -1.978,-1.543l-0.397,-0.011c-0.468,-0.564 -0.478,-1.654 -1.794,-2.747l0,-0.002c0,-1.079 -0.903,-2.329 -2.531,-3.049c-1.343,-0.597 -2.514,-0.957 -3.871,-1.12c-0.632,-0.075 -1.16,-0.11 -1.781,-0.11c-1.81,0 -3.519,0.293 -5.203,0.717c-2.276,0.578 -4.434,1.375 -6.558,2.085c-2.323,0.769 -4.27,1.093 -5.919,1.093c-0.48,0 -0.518,-0.028 -0.947,-0.079c-2.831,-0.355 -4.781,-1.733 -6.097,-3.918l0,-0.001c-2.633,-2.165 -3.205,-5.079 -4.074,-8.069l-0.207,-0.007l-0.106,-0.01c-0.184,-0.575 -0.841,-0.97 -1.49,-1.038l-0.074,-0.213l-0.45,-0.205l-0.063,0l-0.062,0.218c-8.34,1.359 -16.138,4.162 -24.083,4.153c-1.05,0 -2.105,-0.154 -3.163,-0.154l-0.005,0l-0.324,0.076c-2.202,-0.282 -3.549,-0.884 -4.629,-1.82l-0.003,0.025l-0.55,0.01c-1.615,-1.374 -2.838,-3.537 -4.154,-5.821l0,-0.002c-1.317,-2.056 -1.658,-4.239 -4.085,-5.821c0.136,-0.266 0.545,-0.534 0.671,-0.788l0.141,-0.007l0.073,-0.008c0.771,-1.723 1.402,-3.467 2.21,-4.568l0.018,-0.003c1.081,-1.504 2.527,-2.703 4.048,-3.964l0.008,-0.002c0.989,-0.833 1.998,-1.695 2.914,-2.679c1.676,2.384 3.955,4.011 6.602,5.766c1.602,1.058 3.182,2.665 4.909,4.235l-0.003,-0.002c1.713,1.578 3.586,3.003 5.992,3.92l0.004,-0.142l0.001,0c0.695,1.054 1.39,0.574 2.09,0.659c0.424,0.05 0.84,0.398 1.247,0.398c1.173,-0.001 2.273,-0.003 3.379,-0.003l0.001,0c2.208,-1.054 4.236,-0.763 6.124,-0.763c1.008,0 1.978,-0.075 2.914,0.038c3.114,0.387 5.918,1.324 8.862,3.408c7.885,5.566 17.229,9.692 27.865,10.979c0.798,0.095 1.615,0.041 2.44,0.041l0.003,0c0.528,0 1.052,-0.188 1.572,-0.188c4.529,-0.002 8.746,-0.866 12.536,-2.974l0.002,0c2.178,-1.054 4.406,-2.108 6.6,-2.108l0.003,0c1.838,-1.055 3.629,-1.118 5.243,-1.116c0.305,0 0.605,0.06 0.9,0.095c0.948,0.126 1.852,0.427 2.808,1.008c1.854,1.144 3.567,3.028 4.387,5.176c0.808,2.146 0.721,4.547 2.038,6.599l0,0.003c0,0.885 -0.333,2.087 0.014,3.281l-0.466,0.007c0.001,1.2 1.003,2.192 2.26,3.128l-0.003,-0.262l0.036,0c1.516,1.054 3.364,1.955 5.255,2.182c0.68,0.08 1.378,0.334 2.07,0.334c4.507,-0.006 9.167,-1.462 12.463,-2.516l0.001,0c2.246,-1.054 4.578,-1.969 6.905,-2.718c1.871,-0.589 3.71,-1.026 5.469,-1.025c0.441,0 0.877,0.003 1.309,0.054c0.255,0.031 0.495,0.06 0.749,0.111c0.949,0.22 2.086,0.563 2.742,1.054c0.971,0.817 2,2.144 2,3.681l0,-0.103l-0.38,0c0.213,1.054 0.38,3.343 0.38,4.77l0,-0.554l-0.385,0c0.175,5.27 3.717,8.853 9.028,10.304l-0.012,0.158l0.017,0.108c0.311,0.394 0.774,0.601 1.215,0.66c2.126,0.254 4.01,0.563 5.534,1.064c1.535,0.505 3.031,1.224 4.348,2.439l0,0.007c0,0.699 1.478,1.643 2.437,2.572c0.566,0.548 1.126,1.076 1.818,1.564c-2.293,1.401 -4.38,3.075 -5.911,5.216Zm9.838,-6.737c-1.012,-0.917 -2.159,-1.644 -3.074,-2.458c-1.216,-1.058 -2.323,-2.229 -3.663,-3.314c-1.889,-1.543 -4.273,-2.44 -6.784,-2.741c-1.41,-0.169 -2.867,-0.16 -4.316,0.026c-0.161,0.015 -0.3,0.067 -0.411,0.123c-2.088,-0.482 -3.526,-1.196 -4.55,-2.116c-1.635,-1.442 -2.288,-3.426 -2.675,-5.678c-0.391,-2.229 -0.494,-4.689 -1.124,-7.016c-0.374,-1.316 -1.147,-2.354 -2.155,-3.133l-0.012,-0.013l-0.027,-0.004l-0.012,-0.013l-0.013,-0.012c-0.711,-0.594 -1.63,-1.073 -2.788,-1.362c-0.221,-0.051 -0.404,-0.073 -0.528,-0.098l-0.042,-0.017l-0.042,-0.005c-0.402,-0.084 -0.807,-0.154 -1.23,-0.205c-1.748,-0.211 -3.585,-0.106 -5.293,0.231c-2.951,0.593 -6.784,2.281 -10.801,3.717c-4.003,1.436 -8.137,2.569 -11.392,2.168c-1.804,-0.228 -3.341,-0.874 -4.631,-2.229c-0.877,-0.936 -1.339,-2.402 -1.597,-3.956c-0.257,-1.555 -0.338,-3.193 -0.637,-4.534c-0.771,-3.51 -2.586,-6.833 -5.655,-9.476c-1.092,-0.939 -2.411,-1.443 -3.793,-1.61c-2.314,-0.277 -4.734,0.334 -6.99,1.138c-2.254,0.803 -4.334,1.823 -5.878,2.447c-5.992,2.434 -12.306,3.04 -18.484,2.299c-7.922,-0.961 -15.598,-4.178 -21.872,-8.637c-4.798,-3.416 -8.54,-5.538 -13.687,-6.156c-2.257,-0.269 -4.753,-0.257 -7.707,0.035c-1.674,0.169 -2.95,0.201 -4.021,0.073c-1.015,-0.122 -1.848,-0.372 -2.743,-0.825c-0.885,-0.441 -1.831,-1.086 -2.949,-1.97c-4.679,-3.668 -11.041,-6.89 -14.426,-11.07c0.231,-0.389 0.438,-0.802 0.621,-1.243c1.26,-3.185 1.406,-6.136 2.396,-8.419c0.487,-1.142 1.172,-2.11 2.277,-2.925c1.099,-0.791 2.634,-1.44 4.912,-1.906c0.157,0.008 0.315,0.015 0.427,0.029l0.31,0.037c1.454,0.175 2.908,0.568 4.407,0.956c1.607,0.734 2.705,1.652 3.656,2.735c1.305,1.508 2.285,3.357 3.767,5.382c2.361,3.181 6.845,4.574 10.656,5.701c5.729,1.679 11.58,2.542 16.878,4.666c2.399,0.969 4.07,2.681 5.437,4.694c1.371,2.011 2.401,4.281 3.587,6.271c1.03,1.741 2.342,3.283 3.937,4.467c1.597,1.185 3.503,2.014 5.675,2.274c1.777,0.213 3.725,0.054 5.785,-0.553c4.379,-1.288 8.311,-2.653 12.27,-4.708c2.424,-1.245 4.602,-2.173 6.752,-2.712c2.144,-0.528 4.266,-0.689 6.635,-0.406c1.452,0.175 3.002,0.522 4.704,1.061c3.623,1.138 7.036,3.546 10.59,5.831c3.567,2.286 7.297,4.465 11.708,5.006c0.735,0.087 1.49,0.131 2.256,0.12c6.22,-0.098 11.83,-2.035 17.45,-3.486c5.289,-1.375 10.777,-1.965 15.993,-1.327c3.752,0.449 7.357,1.528 10.682,3.416c3.154,1.787 4.516,4.144 5.114,6.882c0.89,4.114 -0.111,9.005 0.399,13.454c0.262,2.224 0.914,4.359 2.443,6.216c0.329,0.397 0.717,0.791 1.138,1.164l-0.156,0.062c-0.227,0.135 -0.407,0.32 -0.457,0.592c-0.061,0.247 0.068,0.562 0.337,0.745c1.762,1.296 3.797,1.979 5.782,2.771c0.968,0.381 1.927,0.798 2.936,1.195l0.189,0.058c-0.16,0.476 -0.813,1.194 -1.886,1.92c-1.742,1.213 -4.372,2.479 -6.807,3.55c-2.432,1.059 -4.667,1.911 -5.683,2.331c-0.378,0.163 -0.739,0.328 -1.115,0.49Zm19.46,-8.557l0,-0.105c0,-0.05 0.125,-0.26 0.156,-0.26l-0.156,0l0,0.044c0,-0.01 0.472,-0.044 0.479,-0.044l-0.003,0c0.094,0 0.14,-0.223 0.166,-0.36l0.022,-0.198c0,-0.2 0.118,-0.393 0.002,-0.606c-0.183,-0.328 -0.666,-0.531 -0.666,-0.68l0,-0.001c0,-0.001 -0.328,-0.264 -0.331,-0.264c-0.001,0 0.331,0 0.331,0l0,0.084c-1.317,-0.551 -2.468,-0.788 -3.649,-0.96c-0.029,-0.111 -0.3,-0.179 -0.3,-0.29l0,0.022c0,-0.002 -0.011,0.047 -0.011,0.046c-0.001,-0.002 -0.01,0.044 -0.011,0.044l-0.002,0c-0.184,0 -0.493,-0.568 -0.854,-0.701l0.003,-0.022c-2.341,-0.927 -3.997,-1.978 -5.197,-3.133c-1.201,-1.156 -1.956,-2.436 -2.462,-3.867c-0.641,-1.849 -0.808,-3.965 -0.807,-6.282c0,-1.267 0.049,-2.594 0.093,-3.97c0.009,-0.296 0.013,-0.595 0.013,-0.895c0,-2.364 -0.311,-4.809 -1.303,-7.082c-1.102,-2.559 -3.119,-4.534 -6.405,-6.087c-3.578,-1.7 -7.175,-2.745 -10.748,-2.745l-0.002,0c-1.539,-1.054 -3.075,-0.64 -4.609,-0.64c-5.849,0.001 -11.658,1.036 -17.592,2.593c-4.037,1.068 -7.573,1.773 -10.869,1.771c-0.766,0 -1.52,-0.088 -2.268,-0.18c-2.212,-0.267 -4.405,-0.977 -6.774,-2.326c-4.818,-2.762 -9.205,-5.957 -14.923,-8.139c-1.934,-0.741 -3.803,-1.211 -5.633,-1.43c-0.87,-0.107 -1.727,-0.16 -2.572,-0.16c-4.828,0.002 -9.195,1.647 -13.561,3.93l0.002,-0.003c-2.237,1.157 -4.955,2.485 -7.747,3.44c-2.271,0.765 -4.586,1.263 -6.687,1.262c-0.488,0 -0.965,0.054 -1.428,-0.002c-0.379,-0.045 -0.756,-0.116 -1.111,-0.116l-0.004,0c-0.875,0 -1.685,-0.717 -2.423,-1.34l-0.006,-0.045l-0.001,-0.022c-1.14,-0.928 -2.124,-2.307 -2.959,-3.747c-0.837,-1.441 -1.536,-2.934 -2.251,-4.154c-2.588,-4.481 -6.49,-7.145 -10.947,-8.829c-4.467,-1.7 -9.458,-2.944 -14.564,-3.998l-0.002,0c-3.003,-1.054 -5.235,-1.684 -7.091,-3.026c-1.843,-1.343 -3.33,-2.995 -4.746,-5.222c-0.91,-1.436 -2.042,-2.605 -3.484,-3.483l-0.001,0.01c-1.452,-0.877 -3.17,-1.42 -5.134,-1.654l-0.073,-0.372c-1.072,-0.265 -2.163,-1.01 -3.284,-1.01l-0.003,0l-0.005,0c-0.703,0 -1.413,-0.23 -2.121,-0.23c-1.008,0 -2.018,0.23 -3.005,0.23l-0.003,0l-0.004,0c-1.674,1.054 -3.263,1.684 -4.55,2.993l-0.004,0.236l-0.004,0.12c-0.172,0.182 -0.283,0.452 -0.324,0.672l-0.017,0.208c0,0.022 0.008,0.052 0.009,0.073c-0.689,0.81 -1.282,1.751 -1.725,2.848c-1.155,2.862 -1.326,5.804 -2.189,8.37c-0.583,1.748 -1.85,2.977 -3.441,4.258c-1.578,1.263 -3.359,2.533 -4.819,4.353c-1.915,2.38 -4.017,4.941 -4.017,7.33l0,0.002c0,1.114 -1.884,1.936 -3.48,2.685c-1.584,0.737 -3.566,1.35 -5.276,2.133c-2.917,1.342 -5.178,3.336 -5.658,5.781c-0.057,0.298 -0.103,0.285 -0.103,0.589c0,1.341 0.415,2.674 1.584,3.728l-0.23,0c0,0 0,0.628 0,0.629c0,0.002 0.192,0.425 0.193,0.425l0.097,0c0.28,0 0.724,0.227 1.211,0.293l0.036,-0.293l0.027,0l0.197,0.094c0.094,0 0.175,0.018 0.263,0.007c1.161,3.584 3.583,6.194 6.766,7.917c3.475,1.887 7.75,2.918 12.253,3.458c5.288,0.645 10.922,0.119 16.064,1.173l0.002,0c1.229,0 2.451,0.099 3.645,0.242c3.527,0.423 6.851,1.169 9.694,2.732c0.883,0.487 1.507,1.048 2.024,1.725c0.515,0.677 0.917,1.442 1.325,2.283c0.804,1.656 1.603,3.606 3.818,5.084c1.349,0.902 2.966,1.387 4.582,1.581c0.604,0.072 1.211,0.104 1.813,0.104c1.299,0 2.572,0.026 3.747,-0.237c3.798,-0.856 6.778,-2.974 10.116,-2.974l0.004,0c3.239,-1.054 6.432,-1.079 9.686,-1.079c0.732,0 1.468,0.025 2.208,0.025l0.013,0c0.403,0 0.791,-0.097 1.156,-0.054c2.922,0.365 4.963,1.279 6.727,2.685c2.652,2.108 4.539,5.199 6.857,8.208c2.307,2.994 5.204,5.909 10.076,7.253c4.71,1.295 8.932,3.694 13.347,5.998c4.403,2.286 9.028,4.494 14.584,5.173c0.628,0.075 1.271,0.127 1.904,0.155c0.353,0.018 0.704,-0.145 1.053,-0.145c4.213,-0.006 8.204,-1.867 11.804,-1.867l0.004,0c0.257,0 0.494,0.118 0.716,0.118c0.185,0 0.357,0.096 0.524,0.116c0.861,0.104 1.415,0.495 2.152,1.103c1.078,0.902 2.532,2.426 2.532,3.98l0,0.002c1.316,1.545 1.408,3.15 1.853,4.36c0.595,1.626 1.321,3.217 2.209,4.537c0.437,0.658 0.991,1.259 1.641,1.751l0.025,0.001c0.645,0.484 1.476,0.856 2.418,0.97c0.205,0.024 0.419,0.142 0.628,0.142c0.633,0 1.29,-0.215 1.944,-0.215l0.003,0l0.004,-0.109c0.662,-0.221 1.319,-0.617 1.995,-1.029l0.133,-0.019c0.338,0.001 0.687,-0.09 0.995,-0.243l0.003,-0.003c0.004,-0.002 0.006,-0.009 0.012,-0.012c0.006,-0.004 0.015,-0.006 0.022,-0.01l-0.004,-0.005c0.431,-0.206 0.602,-0.541 0.741,-0.948l-0.143,-0.007l0,-0.008c1.316,-2.518 2.913,-4.123 5.556,-5.664c2.611,-1.52 5.872,-2.857 8.531,-4.82c0.001,-0.002 0.038,-0.003 0.039,-0.004c0.001,-0.001 0.024,-0.002 0.025,-0.004c0.237,-0.17 0.421,-0.329 0.575,-0.464c0.2,-0.057 0.406,-0.132 0.585,-0.264l0.01,-0.006l0.008,-0.006c0.279,-0.218 0.823,-0.508 0.893,-0.817c2.202,-2.403 3.522,-5.054 4.838,-7.477l0,0.002c1.317,-1.263 1.459,-2.296 2.692,-3.205l-0.234,0.56l1.556,-0.024l0.509,-0.002l0.488,-0.002l0.228,-0.846c0.028,-0.093 0.021,-0.175 0.032,-0.232l-0.006,-0.063l0,-0.011l0.024,-0.019c0.115,-0.145 0.224,-0.306 0.273,-0.493l0.007,-0.015l0.004,-0.017l0.016,-0.161c-0.006,-0.197 -0.066,-0.372 -0.16,-0.533c0.05,-0.025 0.096,-0.049 0.146,-0.075c0.234,-0.028 0.48,-0.079 0.725,-0.203l0.003,0.003c0.004,-0.002 0.135,-0.005 0.139,-0.008c0.003,-0.003 0.14,-0.003 0.14,-0.005l0,-0.002c0,-0.107 0.247,-0.241 0.381,-0.377c2.966,-1.327 6.283,-2.424 9.474,-3.838c2.865,-1.268 5.537,-2.849 7.524,-5.143l0.054,0.048l0.473,0.327l0.977,-0.898l0.467,-0.437l0.239,-0.395l-1.161,-0.652Z" style="fill:#692535;fill-rule:nonzero;"/></g><g><path d="M260.045,85.182c0.015,0.145 -0.03,0.327 -0.196,0.546c-0.232,0.336 -0.7,0.703 -1.182,1.058c-0.499,0.368 -1.015,0.721 -1.378,1.17c-1.707,2.241 -1.93,4.496 -1.678,7.2l0.096,0.91c-5.415,-1.063 -11.152,-4.305 -16.506,-8.116c-5.659,-4.016 -10.875,-8.612 -14.942,-11.741c-4.927,-3.797 -9.691,-7.407 -15.703,-10.105c-9.439,-4.231 -19.525,-6.664 -28.508,-11.21c-3.033,-1.534 -5.737,-3.704 -8.548,-5.836c-2.811,-2.133 -5.746,-4.23 -9.322,-5.529c-3.2,-1.17 -6.401,-1.592 -9.551,-1.682c-5.319,-0.153 -10.557,0.617 -15.733,0.469c-1.551,-0.045 -3.08,-0.167 -4.606,-0.421c-4.702,-0.754 -9.484,-3.023 -14.095,-5.745c-4.607,-2.711 -9.026,-5.877 -13.089,-8.361c-7.638,-4.678 -14.507,-10.136 -22.525,-14.523c1.421,-0.143 2.795,-0.433 4.101,-0.921c1.714,-0.662 3.07,-1.741 4.481,-2.423c1.217,-0.598 2.678,-0.819 4.26,-0.773c3.291,0.081 7.089,1.388 9.866,2.73c5.167,2.477 9.025,6.324 13.088,10.162c4.046,3.825 8.344,7.645 14.476,9.833c4.852,1.731 9.376,2.428 13.713,2.552c9.197,0.264 17.594,-1.994 27.149,-2.39c0.297,-0.018 0.599,-0.009 0.868,-0.002c2.152,0.062 3.542,0.681 4.784,1.689c1.258,1.01 2.295,2.474 3.419,4.163c3.104,4.627 6.549,8.909 11.508,12.55c5.35,3.929 11.378,5.575 17.467,6.605c6.103,1.017 12.316,1.42 18.14,2.77c2.491,0.585 4.201,1.686 5.648,3.162c1.433,1.461 2.555,3.295 3.717,5.196c2.798,4.579 6.32,9.284 11.153,12.777c0.409,0.301 0.915,0.461 1.374,0.474c0.19,0.005 0.377,-0.028 0.563,-0.063c1.698,0.548 3.398,1.11 4.955,1.813c1.108,0.478 1.817,0.92 2.232,1.26c0.398,0.354 0.486,0.58 0.504,0.752Z" style="fill:#a23237;fill-rule:nonzero;"/><path d="M255.995,100.179c-0.163,2.218 -1.438,3.615 -3.377,4.532c-2.108,0.979 -5.008,1.316 -7.825,1.235c-1.14,-0.032 -2.271,-0.131 -3.312,-0.278c-1.089,-0.15 -2.183,-0.353 -3.263,-0.555c0.045,-0.182 0.089,-0.365 0.066,-0.577c-0.026,-0.25 -0.137,-0.556 -0.4,-0.813c-0.25,-0.271 -0.631,-0.452 -1.033,-0.517c-4.484,-0.773 -8.28,-3.276 -11.939,-6.262c-3.642,-2.985 -7.081,-6.437 -10.926,-8.955c-3.847,-2.518 -8.529,-3.376 -12.824,-3.854c-4.359,-0.467 -7.685,-1.496 -10.647,-3.107c-2.964,-1.625 -5.565,-3.87 -8.336,-6.816c-2.841,-3.016 -6.043,-6.014 -9.738,-8.304c-3.696,-2.29 -7.902,-3.883 -12.652,-4.019c-0.286,-0.009 -0.584,-0.005 -0.899,-0.001c-5.454,0.067 -10.197,1.812 -15.31,1.797c-0.159,0.008 -0.333,0.003 -0.507,-0.002c-2.912,-0.083 -5.288,-0.914 -7.55,-2.176c-2.247,-1.261 -4.334,-2.966 -6.572,-4.74c-3.906,-3.085 -8.372,-4.752 -12.777,-6.72c-4.187,-1.869 -7.182,-4.692 -10.211,-7.856c-2.851,-2.963 -5.748,-6.072 -9.163,-8.538c-3.415,-2.465 -7.411,-4.303 -12.302,-4.588c-0.142,-0.004 -0.284,-0.008 -0.442,-0.013c-2.802,-0.08 -6.064,0.59 -9.404,1.243c-3.325,0.641 -6.701,1.268 -9.566,1.185c-1.583,-0.045 -2.982,-0.296 -4.144,-0.842c-1.16,-0.533 -2.113,-1.35 -2.866,-2.66c-1.909,-3.317 -4.64,-5.882 -7.903,-7.66c-2.644,-1.444 -5.646,-2.371 -8.849,-2.818c1.579,-0.889 3.137,-1.843 4.61,-2.853c4.594,-3.157 8.938,-5.992 15.07,-6.512c0.579,-0.05 1.13,-0.06 1.652,-0.045c2.517,0.072 4.285,0.82 6.168,1.782c1.883,0.961 3.856,2.15 6.548,2.845c0.989,0.252 1.985,0.425 2.96,0.532c15.19,10.025 30.039,23.894 48.091,30.515c3.675,1.329 7.182,1.812 10.57,1.909c5.19,0.136 10.136,-0.564 15.218,-0.418c1.646,0.048 3.318,0.187 5.002,0.459c4.319,0.703 8.472,3.282 12.616,6.229c4.126,2.947 8.212,6.247 12.57,8.226c9.376,4.242 19.349,6.791 28.326,11.284c6.374,3.156 12.148,8.86 17.828,13.232c3.623,2.787 8.02,6.36 12.838,9.405c4.562,2.88 9.517,5.298 14.604,6.089Z" style="fill:#d03d46;fill-rule:nonzero;"/><path d="M227.855,103.356c-0.159,-0.018 -0.319,-0.036 -0.464,-0.053c-0.238,-0.02 -0.491,-0.028 -0.744,-0.035c-2.756,-0.079 -6.184,0.48 -9.789,1.021c-3.572,0.555 -7.306,1.079 -10.471,0.988c-2.406,-0.069 -4.439,-0.496 -5.862,-1.417c-1.424,-0.936 -2.427,-2.385 -2.69,-4.892c-0.016,-0.159 -0.034,-0.329 -0.052,-0.501c0.002,-0.132 -0.011,-0.263 -0.025,-0.395c-0.206,-1.966 -1.084,-3.569 -2.538,-4.651c-1.456,-1.093 -3.405,-1.623 -5.574,-1.686c-0.49,-0.014 -0.994,0.012 -1.511,0.049c-3.629,-1.209 -7.241,-2.391 -10.752,-3.821c-3.643,-1.485 -6.87,-3.813 -10.857,-5.27c-3.723,-1.344 -5.778,-3.639 -8.073,-5.81c-1.155,-1.084 -2.351,-2.118 -3.889,-2.926c-1.518,-0.793 -3.357,-1.318 -5.621,-1.383c-0.444,-0.013 -0.899,-0.001 -1.372,0.012c-3.752,0.182 -7.204,1.594 -10.403,2.385c-1.431,0.353 -2.695,0.487 -3.867,0.453c-2.628,-0.075 -4.727,-0.99 -6.726,-2.441c-1.999,-1.452 -3.832,-3.438 -5.737,-5.518c-0.768,-0.838 -1.791,-1.881 -2.98,-2.822c-1.185,-0.929 -2.506,-1.781 -3.932,-2.138c-0.469,-0.118 -0.979,-0.16 -1.549,-0.176c-2.105,-0.061 -5.196,0.271 -7.572,0.19c-0.884,-0.012 -1.652,-0.1 -2.156,-0.246c-0.244,-0.074 -0.426,-0.158 -0.528,-0.227l-0.144,-0.162c-1.467,-3.619 -3.42,-9.318 -6.391,-14.335c-1.494,-2.516 -3.24,-4.868 -5.359,-6.719c-2.118,-1.849 -4.643,-3.197 -7.573,-3.611c-0.337,-0.035 -0.656,-0.071 -0.988,-0.08c-2.533,-0.073 -4.537,0.975 -6.118,2.31c-1.598,1.336 -2.813,3.01 -3.79,4.364c-1.267,1.765 -2.288,3.183 -3.593,4.276c-1.321,1.106 -2.909,1.929 -5.447,2.54c-3.526,0.846 -7.329,1.158 -11.139,1.548c-0.034,-0.317 -0.049,-0.619 -0.082,-0.936c-0.432,-3.971 -1.385,-8.26 -3.726,-11.787c-1.163,-1.757 -2.7,-3.326 -4.687,-4.515c-2.003,-1.202 -4.439,-2.008 -7.339,-2.276c-0.544,-0.055 -1.082,-0.083 -1.621,-0.099c-5.556,-0.159 -10.998,1.525 -16.028,3.841c-4.636,2.141 -8.903,4.808 -12.618,7.161c-0.148,-0.504 -0.247,-1.006 -0.298,-1.494c-0.458,-4.211 2.168,-8.383 5.97,-12.023c3.717,-3.549 8.515,-6.568 12.434,-8.626c0.929,0.118 1.836,0.198 2.707,0.223c4.211,0.121 7.962,-0.823 11.36,-2.292c0.149,0.057 0.279,0.101 0.422,0.105c6.846,0.735 12.618,3.847 16.007,9.087c0.448,0.671 0.866,1.644 1.436,2.58c0.574,0.951 1.291,1.919 2.508,2.546c1.937,1.015 4.125,1.42 6.39,1.485c3.243,0.08 6.667,-0.518 9.929,-1.175c3.246,-0.657 6.327,-1.384 8.755,-1.564c0.564,-0.036 1.132,-0.046 1.669,-0.031c2.517,0.073 4.781,0.743 6.929,1.804c3.198,1.618 6.084,4.161 8.83,6.871c2.763,2.722 5.369,5.612 8.102,7.9c3.561,2.957 8.132,4.561 12.182,6.321c4.034,1.748 6.891,4.934 10.668,7.542c3.981,2.758 8.143,3.758 12.258,3.876c3.61,0.104 7.229,-0.45 10.875,-1.042c1.678,-0.268 3.23,-0.367 4.686,-0.325c5.653,0.175 9.9,2.453 13.932,5.7c4.032,3.233 7.751,7.405 12.161,11.096c3.735,3.119 8.323,4.422 13.011,5.043c3.73,0.502 6.721,1.035 9.489,1.996c2.753,0.96 5.311,2.336 8.183,4.602c2.168,1.706 4.434,3.915 6.911,6.012c1.524,1.293 3.149,2.511 4.871,3.573Z" style="fill:#a23237;fill-rule:nonzero;"/><path d="M252.618,104.711c1.939,-0.917 3.214,-2.314 3.377,-4.532c-5.087,-0.791 -10.042,-3.209 -14.604,-6.089c-4.818,-3.045 -9.215,-6.618 -12.838,-9.405c-5.68,-4.372 -11.454,-10.076 -17.828,-13.232c-8.977,-4.493 -18.95,-7.042 -28.326,-11.284c-4.358,-1.979 -8.444,-5.279 -12.57,-8.226c-4.144,-2.947 -8.297,-5.526 -12.616,-6.229c-1.684,-0.272 -3.356,-0.411 -5.002,-0.459c-5.082,-0.146 -10.028,0.554 -15.218,0.418c-3.388,-0.097 -6.895,-0.58 -10.57,-1.909c-18.052,-6.621 -32.901,-20.49 -48.091,-30.515c-0.975,-0.107 -1.971,-0.28 -2.96,-0.532c-2.692,-0.695 -4.665,-1.884 -6.548,-2.845c-1.883,-0.962 -3.651,-1.71 -6.168,-1.782c-0.522,-0.015 -1.073,-0.005 -1.652,0.045c-6.132,0.52 -10.476,3.355 -15.07,6.512c-1.473,1.01 -3.031,1.964 -4.61,2.853c3.203,0.447 6.205,1.374 8.849,2.818c3.263,1.778 5.994,4.343 7.903,7.66c0.753,1.31 1.706,2.127 2.866,2.66c1.162,0.546 2.561,0.797 4.144,0.842c2.865,0.083 6.241,-0.544 9.566,-1.185c3.34,-0.653 6.602,-1.323 9.404,-1.243c0.158,0.005 0.3,0.009 0.442,0.013c4.891,0.285 8.887,2.123 12.302,4.588c3.415,2.466 6.312,5.575 9.163,8.538c3.029,3.164 6.024,5.987 10.211,7.856c4.405,1.968 8.871,3.635 12.777,6.72c2.238,1.774 4.325,3.479 6.572,4.74c2.262,1.262 4.638,2.093 7.55,2.176c0.174,0.005 0.348,0.01 0.507,0.002c5.113,0.015 9.856,-1.73 15.31,-1.797c0.315,-0.004 0.613,-0.008 0.899,0.001c4.75,0.136 8.956,1.729 12.652,4.019c3.695,2.29 6.897,5.288 9.738,8.304c2.771,2.946 5.372,5.191 8.336,6.816c2.962,1.611 6.288,2.64 10.647,3.107c4.295,0.478 8.977,1.336 12.824,3.854c3.845,2.518 7.284,5.97 10.926,8.955c3.659,2.986 7.455,5.489 11.939,6.262c0.402,0.065 0.783,0.246 1.033,0.517c0.263,0.257 0.374,0.563 0.4,0.813c0.023,0.212 -0.021,0.395 -0.066,0.577c1.08,0.202 2.174,0.405 3.263,0.555c1.041,0.147 2.172,0.246 3.312,0.278c2.817,0.081 5.717,-0.256 7.825,-1.235Zm7.231,-18.983c0.166,-0.219 0.211,-0.401 0.196,-0.546c-0.018,-0.172 -0.106,-0.398 -0.504,-0.752c-0.415,-0.34 -1.124,-0.782 -2.232,-1.26c-1.557,-0.703 -3.257,-1.265 -4.955,-1.813c-0.186,0.035 -0.373,0.068 -0.563,0.063c-0.459,-0.013 -0.965,-0.173 -1.374,-0.474c-4.833,-3.493 -8.355,-8.198 -11.153,-12.777c-1.162,-1.901 -2.284,-3.735 -3.717,-5.196c-1.447,-1.476 -3.157,-2.577 -5.648,-3.162c-5.824,-1.35 -12.037,-1.753 -18.14,-2.77c-6.089,-1.03 -12.117,-2.676 -17.467,-6.605c-4.959,-3.641 -8.404,-7.923 -11.508,-12.55c-1.124,-1.689 -2.161,-3.153 -3.419,-4.163c-1.242,-1.008 -2.632,-1.627 -4.784,-1.689c-0.269,-0.007 -0.571,-0.016 -0.868,0.002c-9.555,0.396 -17.952,2.654 -27.149,2.39c-4.337,-0.124 -8.861,-0.821 -13.713,-2.552c-6.132,-2.188 -10.43,-6.008 -14.476,-9.833c-4.063,-3.838 -7.921,-7.685 -13.088,-10.162c-2.777,-1.342 -6.575,-2.649 -9.866,-2.73c-1.582,-0.046 -3.043,0.175 -4.26,0.773c-1.411,0.682 -2.767,1.761 -4.481,2.423c-1.306,0.488 -2.68,0.778 -4.101,0.921c8.018,4.387 14.887,9.845 22.525,14.523c4.063,2.484 8.482,5.65 13.089,8.361c4.611,2.722 9.393,4.991 14.095,5.745c1.526,0.254 3.055,0.376 4.606,0.421c5.176,0.148 10.414,-0.622 15.733,-0.469c3.15,0.09 6.351,0.512 9.551,1.682c3.576,1.299 6.511,3.396 9.322,5.529c2.811,2.132 5.515,4.302 8.548,5.836c8.983,4.546 19.069,6.979 28.508,11.21c6.012,2.698 10.776,6.308 15.703,10.105c4.067,3.129 9.283,7.725 14.942,11.741c5.354,3.811 11.091,7.053 16.506,8.116l-0.096,-0.91c-0.252,-2.704 -0.029,-4.959 1.678,-7.2c0.363,-0.449 0.879,-0.802 1.378,-1.17c0.482,-0.355 0.95,-0.722 1.182,-1.058Zm-212.755,-31.168c-0.057,-0.541 -0.254,-1.059 -0.312,-1.612c-0.287,-2.744 -1.034,-5.674 -2.089,-8.217c-1.071,-2.542 -2.608,-4.705 -4.733,-6.014c-1.417,-0.87 -3.098,-1.405 -5.235,-1.466c-1.267,-0.037 -2.705,0.093 -4.308,0.455c-9.222,2.063 -17.201,6.806 -24.752,11.429c-0.401,0.239 -0.863,0.344 -1.339,0.33c-0.901,-0.026 -1.879,-0.462 -2.357,-1.265c-1.096,-1.872 -1.704,-3.771 -1.899,-5.632c-0.594,-5.685 2.649,-11.038 7.383,-15.268c4.75,-4.231 11.02,-7.366 16.716,-8.583l0.344,-0.029c0.331,-0.004 0.695,0.151 0.891,0.367c0.141,0.135 0.202,0.269 0.264,0.403c6.65,-0.691 11.41,-2.725 16.589,-6.324c3.119,-2.16 6.276,-4.726 10.187,-6.271c3.106,-1.227 6.519,-2.101 10.223,-1.995c0.68,0.02 1.365,0.065 2.069,0.164c2.703,0.34 5.175,1.648 7.521,2.807c2.364,1.173 4.587,2.198 6.61,2.243l0.334,0.009c2.661,-0.056 4.654,-0.919 6.699,-1.887c2.049,-0.94 4.148,-1.997 6.97,-2.167c0.832,-0.042 1.668,-0.056 2.522,-0.032c3.989,0.115 8.222,1.052 11.779,3.061c5.921,3.353 10.365,7.966 15.071,12.074c4.723,4.107 9.656,7.668 16.581,9.144c2.824,0.594 5.491,0.881 8.103,0.956c6.996,0.201 13.516,-1.138 20.885,-2.057c2.118,-0.268 4.315,-0.547 6.579,-0.482c1.44,0.041 2.911,0.215 4.408,0.653c1.463,0.409 2.67,1.234 3.65,2.156c0.981,0.923 1.769,1.972 2.42,2.911c2.964,4.347 5.789,9.031 10.199,12.262c7.725,5.668 17.295,7.678 27,8.564c2.039,0.176 4.375,0.348 6.692,0.756c2.299,0.409 4.624,1.067 6.615,2.282c3.254,1.987 5.049,4.525 6.803,7.259c3.036,4.731 6.783,9.02 11.193,13.001c0.122,0.122 0.357,0.247 0.432,0.367c2.405,0.359 4.917,0.996 6.729,2.167c1.962,1.253 4.305,3.135 4.568,5.655l-0.545,0.208c0.07,0.673 -0.865,1.252 -1.493,1.575c-1.752,0.91 -2.54,2.124 -2.921,3.613c-0.323,1.293 -0.293,2.779 -0.194,4.321c0.33,-0.003 0.676,-0.007 0.989,-0.037l0.331,-0.004c0.6,0.004 1.182,0.283 1.52,0.649c0.338,0.365 0.492,0.777 0.534,1.172c0.047,0.45 -0.048,0.894 -0.309,1.295c-0.242,0.387 -0.695,0.729 -1.351,0.802c-0.514,0.064 -1.017,0.089 -1.519,0.113c0,1.356 -0.16,2.693 -0.727,3.913c-0.629,1.377 -1.829,2.592 -3.794,3.416c-3.251,1.355 -6.35,1.764 -9.358,1.666c-5.843,-0.182 -11.281,-2.087 -17.533,-2.254c-0.427,-0.012 -0.84,-0.024 -1.264,-0.009c-2.524,0.018 -5.944,0.67 -9.585,1.316c-3.657,0.644 -7.567,1.282 -11.24,1.176c-3.056,-0.087 -6.007,-0.699 -8.416,-2.307c-1.086,-0.715 -2.11,-1.455 -2.946,-2.36c-0.85,-0.892 -1.467,-1.95 -1.694,-3.218c-0.235,-1.349 -0.471,-2.394 -0.822,-3.181c-0.348,-0.759 -0.764,-1.271 -1.444,-1.738c-4.464,-1.326 -8.892,-2.781 -13.262,-4.419c-2.266,-0.854 -4.414,-2.073 -6.507,-3.212c-2.108,-1.152 -4.162,-2.224 -6.232,-2.849c-3.015,-0.916 -5.242,-1.848 -7.713,-3.721c-0.6,-0.465 -0.974,-1.027 -1.316,-1.577c-0.325,-0.548 -0.603,-1.082 -0.845,-1.444c-0.842,-1.261 -1.776,-2.038 -2.743,-2.539c-0.983,-0.489 -2.047,-0.703 -3.173,-0.749c-1.646,-0.047 -3.438,0.322 -5.08,0.762c-3.853,1.034 -7.628,2.228 -11.617,2.113c-2.659,-0.076 -5.413,-0.761 -8.182,-2.471c-3.07,-1.903 -4.905,-4.665 -7.055,-6.806c-1.06,-1.082 -2.097,-2.099 -3.184,-2.827c-1.103,-0.742 -2.224,-1.195 -3.648,-1.236c-0.65,-0.018 -1.351,0.054 -2.153,0.24c-0.478,0.105 -1.106,0.298 -1.784,0.45c-0.695,0.15 -1.406,0.288 -2.134,0.267l-0.27,-0.008c-1.561,-0.137 -2.759,-0.421 -3.723,-0.896c-0.963,-0.462 -1.647,-1.113 -2.102,-1.836c-0.91,-1.461 -1.151,-3.15 -1.956,-5.133c-0.961,-2.395 -2.548,-5.638 -4.448,-8.717c-1.885,-3.079 -4.114,-5.998 -6.22,-7.716c-1.379,-1.105 -2.493,-1.505 -3.522,-1.535c-0.856,-0.024 -1.684,0.202 -2.534,0.678c-0.851,0.462 -1.694,1.161 -2.491,1.979c-1.613,1.638 -3.077,3.78 -4.419,5.595c-0.886,1.198 -1.721,2.252 -2.577,2.965c-2.388,1.918 -6.052,2.799 -9.861,3.347c-3.81,0.549 -7.75,0.75 -10.676,1.153c-0.186,0.034 -0.358,0.043 -0.549,0.037c-0.648,-0.018 -1.255,-0.247 -1.723,-0.641c-0.452,-0.395 -0.633,-0.927 -0.69,-1.467l0.165,-0.088Zm180.297,48.743c0.145,0.017 0.305,0.035 0.464,0.053c-1.722,-1.062 -3.347,-2.28 -4.871,-3.573c-2.477,-2.097 -4.743,-4.306 -6.911,-6.012c-2.872,-2.266 -5.43,-3.642 -8.183,-4.602c-2.768,-0.961 -5.759,-1.494 -9.489,-1.996c-4.688,-0.621 -9.276,-1.924 -13.011,-5.043c-4.41,-3.691 -8.129,-7.863 -12.161,-11.096c-4.032,-3.247 -8.279,-5.525 -13.932,-5.7c-1.456,-0.042 -3.008,0.057 -4.686,0.325c-3.646,0.592 -7.265,1.146 -10.875,1.042c-4.115,-0.118 -8.277,-1.118 -12.258,-3.876c-3.777,-2.608 -6.634,-5.794 -10.668,-7.542c-4.05,-1.76 -8.621,-3.364 -12.182,-6.321c-2.733,-2.288 -5.339,-5.178 -8.102,-7.9c-2.746,-2.71 -5.632,-5.253 -8.83,-6.871c-2.148,-1.061 -4.412,-1.731 -6.929,-1.804c-0.537,-0.015 -1.105,-0.005 -1.669,0.031c-2.428,0.18 -5.509,0.907 -8.755,1.564c-3.262,0.657 -6.686,1.255 -9.929,1.175c-2.265,-0.065 -4.453,-0.47 -6.39,-1.485c-1.217,-0.627 -1.934,-1.595 -2.508,-2.546c-0.57,-0.936 -0.988,-1.909 -1.436,-2.58c-3.389,-5.24 -9.161,-8.352 -16.007,-9.087c-0.143,-0.004 -0.273,-0.048 -0.422,-0.105c-3.398,1.469 -7.149,2.413 -11.36,2.292c-0.871,-0.025 -1.778,-0.105 -2.707,-0.223c-3.919,2.058 -8.717,5.077 -12.434,8.626c-3.802,3.64 -6.428,7.812 -5.97,12.023c0.051,0.488 0.15,0.99 0.298,1.494c3.715,-2.353 7.982,-5.02 12.618,-7.161c5.03,-2.316 10.472,-4 16.028,-3.841c0.539,0.016 1.077,0.044 1.621,0.099c2.9,0.268 5.336,1.074 7.339,2.276c1.987,1.189 3.524,2.758 4.687,4.515c2.341,3.527 3.294,7.816 3.726,11.787c0.033,0.317 0.048,0.619 0.082,0.936c3.81,-0.39 7.613,-0.702 11.139,-1.548c2.538,-0.611 4.126,-1.434 5.447,-2.54c1.305,-1.093 2.326,-2.511 3.593,-4.276c0.977,-1.354 2.192,-3.028 3.79,-4.364c1.581,-1.335 3.585,-2.383 6.118,-2.31c0.332,0.009 0.651,0.045 0.988,0.08c2.93,0.414 5.455,1.762 7.573,3.611c2.119,1.851 3.865,4.203 5.359,6.719c2.971,5.017 4.924,10.716 6.391,14.335l0.144,0.162c0.102,0.069 0.284,0.153 0.528,0.227c0.504,0.146 1.272,0.234 2.156,0.246c2.376,0.081 5.467,-0.251 7.572,-0.19c0.57,0.016 1.08,0.058 1.549,0.176c1.426,0.357 2.747,1.209 3.932,2.138c1.189,0.941 2.212,1.984 2.98,2.822c1.905,2.08 3.738,4.066 5.737,5.518c1.999,1.451 4.098,2.366 6.726,2.441c1.172,0.034 2.436,-0.1 3.867,-0.453c3.199,-0.791 6.651,-2.203 10.403,-2.385c0.473,-0.013 0.928,-0.025 1.372,-0.012c2.264,0.065 4.103,0.59 5.621,1.383c1.538,0.808 2.734,1.842 3.889,2.926c2.295,2.171 4.35,4.466 8.073,5.81c3.987,1.457 7.214,3.785 10.857,5.27c3.511,1.43 7.123,2.612 10.752,3.821c0.517,-0.037 1.021,-0.063 1.511,-0.049c2.169,0.063 4.118,0.593 5.574,1.686c1.454,1.082 2.332,2.685 2.538,4.651c0.014,0.132 0.027,0.263 0.025,0.395c0.018,0.172 0.036,0.342 0.052,0.501c0.263,2.507 1.266,3.956 2.69,4.892c1.423,0.921 3.456,1.348 5.862,1.417c3.165,0.091 6.899,-0.433 10.471,-0.988c3.605,-0.541 7.033,-1.1 9.789,-1.021c0.253,0.007 0.506,0.015 0.744,0.035Z" style="fill:#692535;fill-rule:nonzero;"/></g></g></svg>