<?xml version="1.0" encoding="UTF-8" standalone="no"?><!DOCTYPE svg PUBLIC "-//W3C//DTD SVG 1.1//EN" "http://www.w3.org/Graphics/SVG/1.1/DTD/svg11.dtd"><svg width="100%" height="100%" viewBox="0 0 573 80" version="1.1" xmlns="http://www.w3.org/2000/svg" xmlns:xlink="http://www.w3.org/1999/xlink" xml:space="preserve" xmlns:serif="http://www.serif.com/" style="fill-rule:evenodd;clip-rule:evenodd;stroke-linejoin:round;stroke-miterlimit:1.41421;"><g id="barbecue"><g id="ketchup"><g><path d="M567.731,16.086c2.495,-12.259 -29.317,-13.03 -40.441,-13.388c-15.611,-0.49 -33.849,-1.219 -48.741,3.176c-21.666,6.399 -40.8,19.296 -65.285,18.847c-21.395,-0.414 -40.023,-7.513 -59.472,-12.577c-19.747,-5.146 -59.764,-11.647 -70.722,7.493c-3.669,6.443 -7.809,11.325 -17.152,14.343c-8.845,2.861 -19.155,1.729 -28.413,1.844c-5.14,0.074 -12.097,-0.087 -16.603,2.184c-8.003,3.995 1.7,11.647 6.774,13.567c9.995,3.731 21.992,4.532 33.364,4.297c24.195,-0.472 49.114,-10.879 72.817,-4.442c20.519,5.575 33.992,20.716 56.273,23.454c32.019,3.951 64.803,-5.218 97.067,-4.707c1.573,0.034 1.99,0.93 1.663,1.798c17.969,-1.704 26.256,-20.289 34.09,-30.91c3.501,-4.763 8.143,-8.466 14.897,-11.072c9.056,-3.485 28.134,-5.247 29.884,-13.907Zm2.16,-7.562c8.59,7.771 -3.049,15.846 -13.625,18.903c-12.501,3.624 -24.228,6.296 -30.101,15.791c-3.581,5.801 -6.889,11.744 -11.877,17.049c-6.545,6.974 -14.84,12.483 -24.945,13.034c-0.312,0.148 -0.677,0.238 -1.095,0.249c-39.918,0.636 -88.441,15.692 -122.866,-3.089c-14.487,-7.917 -28.814,-17.91 -49.03,-17.091c-18.353,0.735 -35.997,6.415 -54.369,6.518c-13.051,0.079 -30.191,-0.487 -39.928,-7.158c-5.805,-3.99 -11.32,-12.663 -2.407,-17.076c12.302,-6.099 28.183,-1.53 41.586,-3.711c12.616,-2.035 15.264,-7.402 20.485,-14.561c2.715,-3.751 6.362,-7.158 11.992,-8.987c19.584,-6.351 39.334,-5.445 58.647,-0.314c20.197,5.357 40.754,14.427 63.275,14.211c26.988,-0.243 45.196,-15.322 70.19,-20.075c14.648,-2.778 31.088,-2.427 45.899,-1.705c11.7,0.542 30.357,0.935 38.169,8.012Z" style="fill:#3a150f;fill-rule:nonzero;"/><path d="M403.586,34.095c0.217,-0.066 0.261,-0.386 -0.051,-0.384c-23.01,1.516 -35.492,-17.21 -59.695,-14.42c-1.055,0.12 -1.528,1.45 -0.393,1.644c5.653,1.033 11.43,1.453 16.991,2.689c7.056,1.557 12.796,4.809 18.736,7.675c6.641,3.216 16.557,5.402 24.412,2.796Zm123.704,-31.397c11.124,0.358 42.936,1.129 40.441,13.388c-1.75,8.66 -20.828,10.422 -29.884,13.907c-6.754,2.606 -11.396,6.309 -14.897,11.072c-7.834,10.621 -16.121,29.206 -34.09,30.91c0.327,-0.868 -0.09,-1.764 -1.663,-1.798c-32.264,-0.511 -65.048,8.658 -97.067,4.707c-22.281,-2.738 -35.754,-17.879 -56.273,-23.454c-23.703,-6.437 -48.622,3.97 -72.817,4.442c-11.372,0.235 -23.369,-0.566 -33.364,-4.297c-5.074,-1.92 -14.777,-9.572 -6.774,-13.567c4.506,-2.271 11.463,-2.11 16.603,-2.184c9.258,-0.115 19.568,1.017 28.413,-1.844c9.343,-3.018 13.483,-7.9 17.152,-14.343c10.958,-19.14 50.975,-12.639 70.722,-7.493c19.449,5.064 38.077,12.163 59.472,12.577c24.485,0.449 43.619,-12.448 65.285,-18.847c14.892,-4.395 33.13,-3.666 48.741,-3.176Z" style="fill:#3a150f;fill-rule:nonzero;"/><path d="M403.535,33.711c0.312,-0.002 0.268,0.318 0.051,0.384c-7.855,2.606 -17.771,0.42 -24.412,-2.796c-5.94,-2.866 -11.68,-6.118 -18.736,-7.675c-5.561,-1.236 -11.338,-1.656 -16.991,-2.689c-1.135,-0.194 -0.662,-1.524 0.393,-1.644c24.203,-2.79 36.685,15.936 59.695,14.42Z" style="fill:#7a1f20;fill-rule:nonzero;"/></g></g><g id="ketchup1" serif:id="ketchup"><g><path d="M306.091,13.283c0.709,-11.594 -27.263,-11.125 -37.055,-11.044c-13.741,0.125 -29.812,0.125 -42.333,4.807c-18.217,6.815 -33.433,19.633 -54.945,20.129c-18.8,0.414 -35.981,-5.548 -53.636,-9.57c-17.926,-4.088 -53.779,-8.687 -61.077,9.681c-2.439,6.182 -5.479,10.918 -13.304,14.099c-7.407,3.016 -16.579,2.34 -24.678,2.795c-4.496,0.262 -10.613,0.372 -14.288,2.671c-6.533,4.049 2.893,10.864 7.571,12.475c9.209,3.126 19.82,3.428 29.757,2.78c21.148,-1.349 41.733,-12.047 63.281,-6.896c18.654,4.461 32.285,18.161 52.142,19.894c28.537,2.508 56.164,-7.324 84.501,-8.054c1.383,-0.027 1.857,0.798 1.674,1.625c15.543,-2.273 20.567,-20.019 26.153,-30.278c2.494,-4.599 6.117,-8.248 11.722,-10.946c7.517,-3.609 24.024,-5.977 24.515,-14.168Zm0.982,-7.174c8.464,6.968 -0.764,14.98 -9.664,18.244c-10.519,3.869 -20.475,6.815 -24.478,15.944c-2.439,5.577 -4.623,11.276 -8.355,16.44c-4.896,6.788 -11.502,12.268 -20.292,13.163c-0.255,0.151 -0.564,0.249 -0.929,0.275c-34.907,2.093 -75.619,18.037 -108.05,1.707c-13.651,-6.884 -27.41,-15.723 -45.029,-14.196c-15.996,1.378 -30.774,7.367 -46.862,8.153c-11.429,0.563 -26.518,0.674 -35.855,-5.218c-5.568,-3.527 -11.446,-11.457 -4.167,-15.931c10.047,-6.183 24.515,-2.492 35.998,-5.041c10.812,-2.382 12.486,-7.516 16.199,-14.428c1.928,-3.621 4.714,-6.954 9.428,-8.881c16.398,-6.692 33.816,-6.583 51.359,-2.493c18.346,4.269 37.454,12.007 57.165,10.96c23.623,-1.239 37.764,-16.069 59.096,-21.465c12.503,-3.155 26.953,-3.442 40.02,-3.32c10.319,0.07 26.717,-0.26 34.416,6.087Z" style="fill:#340d0e;fill-rule:nonzero;"/><path d="M164.405,36.332c0.183,-0.069 0.183,-0.371 -0.09,-0.358c-19.984,2.285 -33.179,-14.816 -54.054,-11.291c-0.91,0.153 -1.164,1.418 -0.146,1.557c5.078,0.757 10.193,0.935 15.215,1.886c6.371,1.196 11.794,4.033 17.344,6.499c6.208,2.767 15.161,4.447 21.731,1.707Zm104.631,-34.093c9.792,-0.081 37.764,-0.55 37.055,11.044c-0.491,8.191 -16.998,10.559 -24.515,14.168c-5.605,2.698 -9.228,6.347 -11.722,10.946c-5.586,10.259 -10.61,28.005 -26.153,30.278c0.183,-0.827 -0.291,-1.652 -1.674,-1.625c-28.337,0.73 -55.964,10.562 -84.501,8.054c-19.857,-1.733 -33.488,-15.433 -52.142,-19.894c-21.548,-5.151 -42.133,5.547 -63.281,6.896c-9.937,0.648 -20.548,0.346 -29.757,-2.78c-4.678,-1.611 -14.104,-8.426 -7.571,-12.475c3.675,-2.299 9.792,-2.409 14.288,-2.671c8.099,-0.455 17.271,0.221 24.678,-2.795c7.825,-3.181 10.865,-7.917 13.304,-14.099c7.298,-18.368 43.151,-13.769 61.077,-9.681c17.655,4.022 34.836,9.984 53.636,9.57c21.512,-0.496 36.728,-13.314 54.945,-20.129c12.521,-4.682 28.592,-4.682 42.333,-4.807Z" style="fill:#3a150f;fill-rule:nonzero;"/><path d="M166.901,70.5c0.296,-0.032 0.402,0.454 0.225,0.573c-6.295,4.67 -16.762,2.326 -24.578,-1.88c-6.987,-3.747 -13.962,-8.094 -21.411,-9.765c-5.874,-1.329 -11.58,-1.412 -17.449,-2.427c-1.172,-0.184 -1.333,-2.23 -0.382,-2.511c21.807,-6.505 42.339,20.485 63.595,16.01Z" style="fill:#fff;fill-rule:nonzero;"/></g></g></g></svg>