<?xml version="1.0" encoding="UTF-8" standalone="no"?><!DOCTYPE svg PUBLIC "-//W3C//DTD SVG 1.1//EN" "http://www.w3.org/Graphics/SVG/1.1/DTD/svg11.dtd"><svg width="100%" height="100%" viewBox="0 0 81 172" version="1.1" xmlns="http://www.w3.org/2000/svg" xmlns:xlink="http://www.w3.org/1999/xlink" xml:space="preserve" xmlns:serif="http://www.serif.com/" style="fill-rule:evenodd;clip-rule:evenodd;stroke-linejoin:round;stroke-miterlimit:1.41421;"><g><path d="M73.558,10.367l-30.121,0l-4.383,0l-30.122,0c0,0 -7.557,26.132 -6.244,45.846c1.315,19.715 2.849,30.946 6.354,45.158c3.504,14.213 4.381,43.785 2.628,57.996c-0.876,6.418 0.658,8.254 2.849,9.629c1.806,1.133 17.44,2.063 26.727,2.063c10.601,0 24.921,-0.93 26.726,-2.063c2.191,-1.375 3.725,-3.211 2.848,-9.629c-1.752,-14.211 -0.876,-43.783 2.63,-57.996c3.505,-14.212 5.039,-25.443 6.351,-45.158c1.315,-19.714 -6.243,-45.846 -6.243,-45.846Z" style="fill:#e7e6e2;fill-rule:nonzero;"/><path d="M80.061,46.888c-0.854,-17.734 -6.29,-36.521 -6.29,-36.521l-64.626,0c0,0 -5.428,18.782 -6.286,36.516c8.775,-2.407 22.8,-3.965 38.598,-3.965c15.803,0 29.828,1.558 38.604,3.97Z" style="fill:#e7e6e2;fill-rule:nonzero;"/><path d="M9.145,10.367c0,0 -5.428,18.782 -6.286,36.516c8.775,-2.407 22.8,-3.965 38.598,-3.965c11.322,0 21.729,0.799 29.949,2.141c-0.847,-11.807 -2.333,-23.762 -7.281,-34.692l-54.98,0Z" style="fill:#fff2e7;fill-rule:nonzero;"/><path d="M71.336,10.367l-8.918,0c4.574,10.93 5.949,22.885 6.732,34.692c3.008,0.529 5.7,1.145 8.003,1.829c-0.79,-17.734 -5.817,-36.521 -5.817,-36.521Z" style="fill:#fedec5;fill-rule:nonzero;"/><path d="M70.832,159.367c-0.014,-0.115 -0.027,-0.234 -0.04,-0.351c-0.866,4.185 -3.663,7.898 -7.554,8.605c-16.046,3.666 -31.176,1.375 -46.764,0.916c-1.267,0 -2.41,-0.268 -3.445,-0.736c0.441,0.472 0.952,0.847 1.504,1.195c1.806,1.133 17.441,2.063 26.724,2.063c10.605,0 24.922,-0.93 26.728,-2.063c2.192,-1.375 3.723,-3.211 2.847,-9.629Z" style="fill:#cdcccc;fill-rule:nonzero;"/><path d="M77.153,46.888c-8.114,-2.412 -21.082,-3.97 -35.695,-3.97c-14.608,0 -27.576,1.558 -35.689,3.965c-0.141,3.181 -0.148,6.332 0.037,9.33c1.217,19.715 2.638,30.946 5.876,45.158c3.167,13.883 4.016,42.408 2.545,56.975c6.756,1.187 16.642,1.939 27.656,1.939c10.573,0 20.106,-0.691 26.828,-1.797c-1.491,-14.521 -0.651,-43.193 2.528,-57.117c3.238,-14.212 4.659,-25.443 5.871,-45.158c0.187,-2.998 0.181,-6.143 0.043,-9.325Z" style="fill:#ffc511;fill-rule:nonzero;"/><path d="M14.227,158.346c0.023,-0.233 0.059,-0.607 0.101,-1.057c-0.033,0.359 -0.066,0.712 -0.101,1.057Z" style="fill:#e7d0a0;fill-rule:nonzero;"/><path d="M77.153,46.888c-0.006,-0.002 -0.013,-0.004 -0.019,-0.006c0.006,0.002 0.013,0.004 0.019,0.006Z" style="fill:#fdc98c;fill-rule:nonzero;"/><path d="M41.883,160.285c-4.746,0 -9.282,-0.14 -13.449,-0.393c-0.453,-1.703 -0.715,-3.678 -0.465,-5.929c0.118,-1.063 0.248,-2.266 0.383,-3.59c3.021,-0.851 6.292,-2.059 9.556,-3.817c-0.009,0.627 0.476,1.154 1.106,1.192c0.025,0.002 0.05,0.002 0.075,0.002c0.617,0 1.135,-0.482 1.175,-1.106c0.029,-0.463 -0.213,-0.879 -0.588,-1.095c5.737,-3.461 11.311,-8.739 15.324,-16.899c12.911,-26.244 15.826,-54.282 14.15,-83.591c1.785,0.378 6.477,1.378 7.984,1.823c0.006,0.002 0.013,0.004 0.019,0.006c0.065,1.491 0.101,2.975 0.101,4.439c0.001,1.659 -0.045,3.293 -0.144,4.886c-1.212,19.715 -2.633,30.946 -5.871,45.158c-2.164,9.477 -3.244,25.788 -3.243,39.818c0.001,6.582 0.239,12.662 0.715,17.299c-6.722,1.106 -16.255,1.797 -26.828,1.797Zm-10.221,-7.418c-1.204,0 -2.215,0.939 -2.29,2.154c-0.078,1.266 0.885,2.356 2.15,2.434c0.048,0.003 0.096,0.004 0.143,0.004c1.206,0 2.216,-0.939 2.292,-2.154c0.077,-1.268 -0.886,-2.356 -2.152,-2.434c-0.048,-0.003 -0.096,-0.004 -0.143,-0.004Zm20.45,-10.094c-1.205,0 -2.218,0.936 -2.292,2.157c-0.078,1.265 0.886,2.355 2.151,2.431c0.048,0.003 0.096,0.005 0.144,0.005c1.204,0 2.215,-0.938 2.289,-2.155c0.078,-1.266 -0.886,-2.356 -2.152,-2.434c-0.047,-0.003 -0.093,-0.004 -0.14,-0.004Zm-33.123,16.274c-1.718,-0.212 -3.312,-0.447 -4.762,-0.701c0.035,-0.345 0.068,-0.698 0.101,-1.057c0.131,-1.416 0.325,-3.579 0.384,-4.398c0.882,-0.294 3.171,-0.463 6.287,-0.946c-0.593,2.709 -1.268,5.118 -2.01,7.102Z" style="fill:#fcb116;fill-rule:nonzero;"/><path d="M42.314,10.367l-3.26,0l-8.635,0c1.9,-1.163 3.893,-1.782 5.948,-1.782c2.055,0 4.048,0.619 5.947,1.782Z" style="fill:#ba7f56;fill-rule:nonzero;"/><path d="M58.237,43.642c-5.174,-0.467 -10.835,-0.724 -16.766,-0.724l0.362,0c0.059,0 0.117,0 0.176,0.001l0.282,0c5.592,0.02 10.955,0.235 15.928,0.613c0.006,0.037 0.012,0.073 0.018,0.11Zm-30.228,-0.266c0,-0.023 0,-0.046 0.001,-0.068c4.268,-0.254 8.78,-0.39 13.447,-0.39c-4.686,0 -9.205,0.16 -13.448,0.458Z" style="fill:#ebeae6;fill-rule:nonzero;"/><path d="M58.219,43.532c-4.973,-0.378 -10.336,-0.593 -15.928,-0.613c5.593,0.02 10.955,0.234 15.928,0.612l0,0.001Zm-15.932,-0.613c-0.089,0 -0.181,0 -0.27,0c0.09,0 0.18,0 0.27,0Zm-0.278,0c-0.059,-0.001 -0.117,-0.001 -0.176,-0.001c0.058,0 0.118,0 0.176,0.001Zm-0.189,-0.001c-0.025,0 -0.05,0 -0.075,0c0.025,0 0.05,0 0.075,0Zm-0.089,0c-0.029,0 -0.057,0 -0.085,0c0.028,0 0.057,0 0.085,0Zm-0.096,0c-0.024,0 -0.05,0 -0.074,0c0.025,0 0.05,0 0.074,0Zm-0.093,0l-0.082,0c0.028,0 0.054,0 0.082,0Zm-0.085,0l0.001,0" style="fill:#ebeae6;fill-rule:nonzero;"/><path d="M58.219,43.531c-4.973,-0.378 -10.335,-0.592 -15.928,-0.612c-0.002,0 -0.002,0 -0.004,0l-0.278,0c-0.058,-0.001 -0.118,-0.001 -0.176,-0.001l-0.373,0c-0.001,0 -0.001,0 -0.002,0l-0.001,0c-4.667,0 -9.179,0.136 -13.447,0.39c0.159,-9.92 0.351,-16.893 0.351,-16.893l-9.776,1.288c3.058,-8.323 7.162,-14.475 11.834,-17.336l11.895,0c7.289,4.464 13.196,16.936 15.905,33.164Z" style="fill:#fff5ec;fill-rule:nonzero;"/><path d="M36.367,118.512c-2.287,0 -4.498,-0.768 -6.587,-2.197c-0.126,-4.268 -0.393,-8.607 -0.855,-12.891c-1.39,-12.912 -1.212,-41.566 -0.916,-60.048c4.243,-0.298 8.762,-0.458 13.449,-0.458l0.013,0c5.931,0 11.592,0.257 16.766,0.724c1.024,6.172 1.586,12.887 1.586,19.907c0,14.152 -2.282,27.055 -6.032,36.797c-0.388,0.208 -0.661,0.605 -0.69,1.076c-0.011,0.171 0.012,0.337 0.063,0.49c-4.26,10.241 -10.211,16.6 -16.797,16.6Zm0.245,-2.933c-0.236,0 -0.433,0.183 -0.447,0.421c-0.016,0.248 0.172,0.461 0.419,0.477c0.009,0 0.018,0 0.026,0c0.238,0 0.437,-0.183 0.45,-0.42c0.015,-0.25 -0.173,-0.461 -0.42,-0.477c-0.009,-0.001 -0.019,-0.001 -0.028,-0.001Zm3.473,-14.205c-0.538,0 -0.988,0.419 -1.022,0.962c-0.035,0.565 0.395,1.051 0.96,1.086c0.022,0.001 0.043,0.002 0.064,0.002c0.538,0 0.989,-0.419 1.021,-0.963c0.035,-0.565 -0.394,-1.051 -0.96,-1.085c-0.021,-0.001 -0.042,-0.002 -0.063,-0.002Zm-6.573,0.127c-0.236,0 -0.433,0.184 -0.448,0.422c-0.015,0.247 0.174,0.46 0.42,0.475c0.009,0.001 0.019,0.001 0.029,0.001c0.236,0 0.433,-0.184 0.446,-0.422c0.017,-0.247 -0.17,-0.461 -0.418,-0.475c-0.01,-0.001 -0.02,-0.001 -0.029,-0.001Zm18.6,-9.221c-0.236,0 -0.434,0.184 -0.447,0.422c-0.017,0.248 0.171,0.462 0.419,0.476c0.01,0 0.019,0.001 0.029,0.001c0.234,0 0.432,-0.184 0.447,-0.421c0.016,-0.248 -0.174,-0.461 -0.421,-0.477c-0.009,0 -0.018,-0.001 -0.027,-0.001Zm-13.024,-9.079c-0.689,0 -1.266,0.535 -1.309,1.231c-0.045,0.721 0.505,1.342 1.227,1.387c0.027,0.002 0.055,0.003 0.081,0.003c0.687,0 1.265,-0.535 1.307,-1.23c0.044,-0.723 -0.505,-1.344 -1.226,-1.389c-0.027,-0.002 -0.054,-0.002 -0.08,-0.002Zm8.16,-1.674c-0.237,0 -0.436,0.184 -0.45,0.422c-0.014,0.248 0.173,0.461 0.42,0.477c0.009,0 0.017,0 0.026,0c0.237,0 0.435,-0.183 0.45,-0.422c0.015,-0.248 -0.172,-0.461 -0.421,-0.477c-0.009,0 -0.017,0 -0.025,0Zm0.935,-11.867c-0.492,0 -0.904,0.383 -0.935,0.881c-0.033,0.517 0.361,0.963 0.877,0.993c0.02,0.001 0.04,0.002 0.06,0.002c0.491,0 0.904,-0.384 0.934,-0.88c0.031,-0.517 -0.363,-0.961 -0.878,-0.994c-0.02,-0.001 -0.039,-0.002 -0.058,-0.002Zm-4.078,-12.136c-0.236,0 -0.433,0.184 -0.447,0.421c-0.015,0.248 0.173,0.461 0.421,0.477c0.009,0 0.018,0.001 0.026,0.001c0.236,0 0.434,-0.184 0.448,-0.422c0.016,-0.248 -0.174,-0.461 -0.42,-0.476c-0.009,0 -0.019,-0.001 -0.028,-0.001Zm10.305,-5.046c-0.689,0 -1.267,0.535 -1.309,1.231c-0.045,0.721 0.506,1.344 1.227,1.387c0.027,0.001 0.055,0.002 0.082,0.002c0.688,0 1.264,-0.534 1.306,-1.229c0.043,-0.723 -0.505,-1.344 -1.226,-1.389c-0.027,-0.001 -0.053,-0.002 -0.08,-0.002Zm-32.101,55.072c-5.706,-10.026 -9.398,-26.004 -9.398,-44.001c0,-1.74 0.034,-3.462 0.102,-5.161c1.104,13.638 3.338,29.723 7.814,43.212c0.592,1.785 1.083,3.787 1.482,5.95Z" style="fill:#fecd0b;fill-rule:nonzero;"/><path d="M52.115,147.366c-0.048,0 -0.096,-0.002 -0.144,-0.005c-1.265,-0.076 -2.229,-1.166 -2.151,-2.431c0.074,-1.221 1.087,-2.157 2.292,-2.157c0.047,0 0.093,0.001 0.14,0.004c1.266,0.078 2.23,1.168 2.152,2.434c-0.074,1.217 -1.085,2.155 -2.289,2.155Z" style="fill:#fcdf08;fill-rule:nonzero;"/><path d="M31.665,157.459c-0.047,0 -0.095,-0.001 -0.143,-0.004c-1.265,-0.078 -2.228,-1.168 -2.15,-2.434c0.075,-1.215 1.086,-2.154 2.29,-2.154c0.047,0 0.095,0.001 0.143,0.004c1.266,0.078 2.229,1.166 2.152,2.434c-0.076,1.215 -1.086,2.154 -2.292,2.154Z" style="fill:#fcdf08;fill-rule:nonzero;"/><path d="M37.908,146.556c0.001,-0.019 0.001,-0.038 0.003,-0.058c0.037,-0.624 0.557,-1.106 1.176,-1.106c0.023,0 0.047,0.001 0.072,0.002c0.188,0.012 0.364,0.067 0.517,0.155c-0.588,0.354 -1.178,0.69 -1.768,1.007Z" style="fill:#fbe809;fill-rule:nonzero;"/><path d="M39.089,147.75c-0.025,0 -0.05,0 -0.075,-0.002c-0.63,-0.038 -1.115,-0.565 -1.106,-1.192c0.59,-0.317 1.18,-0.653 1.768,-1.007c0.375,0.216 0.617,0.632 0.588,1.095c-0.04,0.624 -0.558,1.106 -1.175,1.106Z" style="fill:#fcdf08;fill-rule:nonzero;"/><path d="M49.122,128.817c-0.02,0 -0.039,0 -0.059,-0.002c-0.516,-0.031 -0.909,-0.476 -0.878,-0.993c0.031,-0.497 0.443,-0.88 0.935,-0.88c0.019,0 0.038,0.001 0.057,0.002c0.517,0.033 0.91,0.476 0.879,0.993c-0.03,0.497 -0.443,0.88 -0.934,0.88Z" style="fill:#fbe809;fill-rule:nonzero;"/><path d="M48.185,71.536c-0.02,0 -0.04,-0.001 -0.06,-0.002c-0.516,-0.03 -0.91,-0.476 -0.877,-0.993c0.031,-0.498 0.443,-0.881 0.935,-0.881c0.019,0 0.038,0.001 0.058,0.002c0.515,0.033 0.909,0.477 0.878,0.994c-0.03,0.496 -0.443,0.88 -0.934,0.88Z" style="fill:#fbeb0c;fill-rule:nonzero;"/><path d="M34.341,129.965c-0.02,0 -0.041,-0.001 -0.061,-0.002c-0.566,-0.035 -0.995,-0.522 -0.96,-1.087c0.034,-0.542 0.484,-0.962 1.021,-0.962c0.022,0 0.043,0.001 0.065,0.002c0.564,0.035 0.995,0.52 0.96,1.086c-0.034,0.544 -0.486,0.963 -1.025,0.963Z" style="fill:#fbe809;fill-rule:nonzero;"/><path d="M40.087,103.424c-0.021,0 -0.042,-0.001 -0.064,-0.002c-0.565,-0.035 -0.995,-0.521 -0.96,-1.086c0.034,-0.543 0.484,-0.962 1.022,-0.962c0.021,0 0.042,0.001 0.063,0.002c0.566,0.034 0.995,0.52 0.96,1.085c-0.032,0.544 -0.483,0.963 -1.021,0.963Z" style="fill:#fbeb0c;fill-rule:nonzero;"/><path d="M40.267,136.412c-0.027,0 -0.054,-0.001 -0.081,-0.003c-0.723,-0.044 -1.272,-0.665 -1.229,-1.388c0.044,-0.695 0.62,-1.23 1.308,-1.23c0.027,0 0.054,0.001 0.081,0.003c0.722,0.044 1.271,0.667 1.228,1.389c-0.043,0.694 -0.62,1.229 -1.307,1.229Z" style="fill:#fbe809;fill-rule:nonzero;"/><path d="M39.087,85.822c-0.026,0 -0.054,-0.001 -0.081,-0.003c-0.722,-0.045 -1.272,-0.666 -1.227,-1.387c0.043,-0.696 0.62,-1.231 1.309,-1.231c0.026,0 0.053,0 0.08,0.002c0.721,0.045 1.27,0.666 1.226,1.389c-0.042,0.695 -0.62,1.23 -1.307,1.23Z" style="fill:#fbeb0c;fill-rule:nonzero;"/><path d="M54.41,102.811c-0.027,0 -0.055,-0.001 -0.082,-0.003c-0.55,-0.032 -1.001,-0.402 -1.164,-0.896c0.213,-0.511 0.422,-1.035 0.627,-1.566c0.185,-0.099 0.396,-0.155 0.619,-0.155c0.026,0 0.053,0.001 0.08,0.002c0.721,0.045 1.269,0.666 1.226,1.389c-0.042,0.695 -0.618,1.229 -1.306,1.229Z" style="fill:#fbe809;fill-rule:nonzero;"/><path d="M53.164,101.912c-0.051,-0.153 -0.074,-0.319 -0.063,-0.49c0.029,-0.471 0.302,-0.868 0.69,-1.076c-0.205,0.531 -0.414,1.055 -0.627,1.566Z" style="fill:#fbeb0c;fill-rule:nonzero;"/><path d="M54.41,55.098c-0.027,0 -0.055,-0.001 -0.082,-0.002c-0.721,-0.043 -1.272,-0.666 -1.227,-1.387c0.042,-0.696 0.62,-1.231 1.309,-1.231c0.027,0 0.053,0.001 0.08,0.002c0.721,0.045 1.269,0.666 1.226,1.389c-0.042,0.695 -0.618,1.229 -1.306,1.229Z" style="fill:#fbeb0c;fill-rule:nonzero;"/><path d="M49.815,116.028c-0.008,0 -0.017,0 -0.026,-0.001c-0.249,-0.015 -0.437,-0.228 -0.422,-0.476c0.015,-0.238 0.214,-0.422 0.448,-0.422c0.009,0 0.018,0 0.027,0.001c0.248,0.014 0.437,0.227 0.421,0.476c-0.014,0.238 -0.212,0.422 -0.448,0.422Z" style="fill:#fbe809;fill-rule:nonzero;"/><path d="M44.105,58.423c-0.008,0 -0.017,-0.001 -0.026,-0.001c-0.248,-0.016 -0.436,-0.229 -0.421,-0.477c0.014,-0.237 0.211,-0.421 0.447,-0.421c0.009,0 0.019,0.001 0.028,0.001c0.246,0.015 0.436,0.228 0.42,0.476c-0.014,0.238 -0.212,0.422 -0.448,0.422Z" style="fill:#fbeb0c;fill-rule:nonzero;"/><path d="M33.513,102.399c-0.01,0 -0.02,0 -0.029,-0.001c-0.246,-0.015 -0.435,-0.228 -0.42,-0.475c0.015,-0.238 0.212,-0.422 0.448,-0.422c0.009,0 0.019,0 0.029,0.001c0.248,0.014 0.435,0.228 0.418,0.475c-0.013,0.238 -0.21,0.422 -0.446,0.422Z" style="fill:#fbeb0c;fill-rule:nonzero;"/><path d="M52.113,93.179c-0.01,0 -0.019,-0.001 -0.029,-0.001c-0.248,-0.014 -0.436,-0.228 -0.419,-0.476c0.013,-0.238 0.211,-0.422 0.447,-0.422c0.009,0 0.018,0.001 0.027,0.001c0.247,0.016 0.437,0.229 0.421,0.477c-0.015,0.237 -0.213,0.421 -0.447,0.421Z" style="fill:#fbeb0c;fill-rule:nonzero;"/><path d="M47.244,82.426c-0.009,0 -0.017,0 -0.026,0c-0.247,-0.016 -0.434,-0.229 -0.42,-0.477c0.014,-0.238 0.213,-0.422 0.45,-0.422c0.008,0 0.016,0 0.025,0c0.249,0.016 0.436,0.229 0.421,0.477c-0.015,0.239 -0.213,0.422 -0.45,0.422Z" style="fill:#fbeb0c;fill-rule:nonzero;"/><path d="M36.61,116.477c-0.008,0 -0.017,0 -0.026,0c-0.247,-0.016 -0.435,-0.229 -0.419,-0.477c0.014,-0.238 0.211,-0.421 0.447,-0.421c0.009,0 0.019,0 0.028,0.001c0.247,0.016 0.435,0.227 0.42,0.477c-0.013,0.237 -0.212,0.42 -0.45,0.42Z" style="fill:#fbeb0c;fill-rule:nonzero;"/><path d="M28.053,168.009c-0.113,0 -0.23,-0.001 -0.35,-0.003c-7.488,-0.155 -15.874,-0.69 -12.531,-3.287c1.388,-0.592 2.68,-2.633 3.817,-5.672c2.838,0.349 6.017,0.636 9.445,0.845c1.45,5.46 4.859,8.118 -0.381,8.117Zm-15.825,-122.668c-0.006,-0.133 -0.011,-0.265 -0.016,-0.397c0.694,-0.108 1.403,-0.213 2.125,-0.314c-0.017,0.111 -0.035,0.225 -0.052,0.337c-0.702,0.12 -1.389,0.245 -2.057,0.374Z" style="fill:#f3ece4;fill-rule:nonzero;"/><path d="M12.212,44.944c-0.381,-9.802 -0.205,-16.374 -0.205,-16.374l6.578,-0.867c-1.82,4.953 -3.269,10.673 -4.248,16.927c-0.722,0.101 -1.431,0.206 -2.125,0.314Z" style="fill:#fff2e7;fill-rule:nonzero;"/><path d="M20.999,151.945c2.733,-12.49 3.709,-31.367 1.31,-44.395c2.219,3.899 4.741,6.897 7.471,8.765c0.392,13.337 -0.607,25.974 -1.428,34.058c-2.713,0.764 -5.226,1.241 -7.353,1.572Zm-7.986,-93.557c-0.382,-4.71 -0.628,-9.129 -0.785,-13.047c0.668,-0.129 1.355,-0.254 2.057,-0.374c-0.652,4.256 -1.087,8.753 -1.272,13.421Z" style="fill:#fedb78;fill-rule:nonzero;"/><path d="M28.434,159.892c-3.428,-0.209 -6.607,-0.496 -9.445,-0.845c0.742,-1.984 1.417,-4.393 2.01,-7.102c2.127,-0.331 4.64,-0.808 7.353,-1.572c-0.135,1.324 -0.265,2.527 -0.383,3.59c-0.25,2.251 0.012,4.226 0.465,5.929Z" style="fill:#ffd176;fill-rule:nonzero;"/><path d="M14.285,44.967c0.017,-0.112 0.035,-0.226 0.052,-0.337c4.14,-0.579 8.743,-1.029 13.673,-1.322c-0.001,0.022 -0.001,0.045 -0.001,0.068c-5.019,0.352 -9.651,0.895 -13.724,1.591Z" style="fill:#f7efe7;fill-rule:nonzero;"/><path d="M14.337,44.63c0.979,-6.254 2.428,-11.974 4.248,-16.927l9.776,-1.288c0,0 -0.192,6.973 -0.351,16.893c-4.93,0.293 -9.533,0.743 -13.673,1.322Z" style="fill:#fff3e9;fill-rule:nonzero;"/><path d="M29.78,116.315c-2.73,-1.868 -5.252,-4.866 -7.471,-8.765c-0.399,-2.163 -0.89,-4.165 -1.482,-5.95c-4.476,-13.489 -6.71,-29.574 -7.814,-43.212c0.185,-4.668 0.62,-9.165 1.272,-13.421c4.073,-0.696 8.705,-1.239 13.724,-1.591c-0.296,18.482 -0.474,47.136 0.916,60.048c0.462,4.284 0.729,8.623 0.855,12.891Z" style="fill:#fddf7b;fill-rule:nonzero;"/><path d="M78.17,34.665c0,0 -2.413,-22.541 -10.185,-16.581c-7.772,5.96 -4.868,3.63 -7.743,6.381c-2.875,2.75 -8.945,6.074 -15.865,25.558c-3.512,9.17 -2.661,22.006 -10.008,29.686c-7.345,7.68 -13.202,2.178 -14.798,-2.981c-1.598,-5.157 0.319,-15.013 -0.745,-21.89c-1.065,-6.877 -4.153,-19.141 -11.499,-18.453c-3.939,0 -4.045,4.011 -4.045,4.011c0,0 -5.644,-2.636 -2.13,-11.576c3.513,-8.941 0.745,-15.473 7.879,-21.09c7.133,-5.616 22.677,-8.711 41.415,-7.45c18.739,1.261 27.895,5.96 28.961,16.277c1.063,10.314 1.319,18.108 -1.237,18.108Z" style="fill:#fffffc;fill-rule:nonzero;"/><path d="M15.471,38.906c-1.834,-3.209 -7.507,-3.783 -10.717,-5.158c-1.833,-0.917 0.46,-4.126 1.376,-6.418c1.491,-2.924 -1.703,-13.119 3.038,-19.703l-0.137,0.103c-7.134,5.617 -4.366,12.149 -7.879,21.09c-3.514,8.94 2.13,11.576 2.13,11.576c0,0 0.106,-4.011 4.045,-4.011c7.346,-0.688 10.434,11.576 11.499,18.453c0.313,2.029 0.367,4.318 0.329,6.67c0.415,-0.944 0.73,-1.921 0.73,-3.003c0.916,-7.794 -0.747,-13.181 -4.414,-19.599Z" style="fill:#fffbfa;fill-rule:nonzero;"/><path d="M79.407,16.557c-0.574,-5.555 -3.499,-9.479 -8.995,-12.117c2.72,2.369 9.073,9.479 4.03,10.167c-6.877,-0.918 -11.794,-1.951 -16.391,4.814c-0.815,1.2 -5.018,6.302 -5.731,7.565c-7.989,14.162 -13.524,25.33 -17.193,40.345c-0.687,2.817 -2.75,6.532 -5.042,8.366c-3.868,2.256 -9.169,1.147 -11.164,-3.943c0.05,1.894 0.225,3.602 0.65,4.974c1.596,5.159 7.453,10.661 14.798,2.981c7.347,-7.68 6.496,-20.516 10.008,-29.686c6.92,-19.484 12.99,-22.808 15.865,-25.558c2.875,-2.751 -0.029,-0.421 7.743,-6.381c7.772,-5.96 10.185,16.581 10.185,16.581c2.556,0 2.3,-7.794 1.237,-18.108Z" style="fill:#f3e6dd;fill-rule:nonzero;"/><path d="M13.029,161.814c0,0 -1.924,4.504 3.235,5.217c5.159,0.715 21.988,2.119 31.92,1.547c0,0 -29.793,-1.769 -31.789,-2.713c-2.449,-1.156 -3.293,-3.017 -3.366,-4.051Z" style="fill:#fff;fill-rule:nonzero;"/><path d="M26.954,138.484c-0.363,8.629 -1.226,15.6 -1.929,15.571c-0.703,-0.03 -0.981,-7.049 -0.62,-15.677c0.362,-8.629 1.225,-15.599 1.928,-15.569c0.704,0.029 0.981,7.046 0.621,15.675Z" style="fill:#fff;fill-rule:nonzero;"/></g></svg>