<?xml version="1.0" encoding="UTF-8" standalone="no"?><!DOCTYPE svg PUBLIC "-//W3C//DTD SVG 1.1//EN" "http://www.w3.org/Graphics/SVG/1.1/DTD/svg11.dtd"><svg width="100%" height="100%" viewBox="0 0 414 550" version="1.1" xmlns="http://www.w3.org/2000/svg" xmlns:xlink="http://www.w3.org/1999/xlink" xml:space="preserve" xmlns:serif="http://www.serif.com/" style="fill-rule:evenodd;clip-rule:evenodd;stroke-linejoin:round;stroke-miterlimit:1.41421;"><g><rect x="219.655" y="26.552" width="57.625" height="372.229" style="fill:#f4d030;fill-rule:nonzero;"/><rect x="255.143" y="26.552" width="22.137" height="372.229" style="fill:#eab531;fill-rule:nonzero;"/><path d="M124.57,412.9l-63.213,5.622l-36.316,-408.316l63.213,-5.623l36.316,408.317Z" style="fill:#f1c731;fill-rule:nonzero;"/><path d="M124.57,412.9l-24.285,2.16l-36.315,-408.317l24.284,-2.16l36.316,408.317Z" style="fill:#eab531;fill-rule:nonzero;"/><path d="M307.734,420.066l-62.787,-9.238l59.672,-405.562l62.786,9.238l-59.671,405.562Z" style="fill:#f1c731;fill-rule:nonzero;"/><path d="M307.734,420.066l-24.121,-3.549l59.672,-405.562l24.12,3.549l-59.671,405.562Z" style="fill:#eab531;fill-rule:nonzero;"/><path d="M219.037,409.904l-63.459,0.697l-4.506,-409.903l63.458,-0.698l4.507,409.904Z" style="fill:#f1c731;fill-rule:nonzero;"/><path d="M219.037,409.904l-24.379,0.268l-4.505,-409.904l24.377,-0.268l4.507,409.904Z" style="fill:#eab531;fill-rule:nonzero;"/><path d="M108.889,448.006l-57.065,8.023l-51.824,-368.603l57.065,-8.023l51.824,368.603Z" style="fill:#f4d030;fill-rule:nonzero;"/><path d="M108.889,448.006l-21.922,3.082l-51.824,-368.603l21.922,-3.082l51.824,368.603Z" style="fill:#e6a830;fill-rule:nonzero;"/><path d="M185.321,450.902l-57.62,0.873l-5.637,-372.186l57.619,-0.873l5.638,372.186Z" style="fill:#f4d030;fill-rule:nonzero;"/><path d="M185.321,450.902l-22.136,0.335l-5.637,-372.186l22.135,-0.335l5.638,372.186Z" style="fill:#e6a830;fill-rule:nonzero;"/><rect x="270.689" y="75.555" width="57.625" height="372.229" style="fill:#f4d030;fill-rule:nonzero;"/><rect x="306.176" y="75.555" width="22.138" height="372.229" style="fill:#eec131;fill-rule:nonzero;"/><path d="M120.571,409.409l-57.531,-3.306l21.355,-371.616l57.531,3.306l-21.355,371.616Z" style="fill:#f4d030;fill-rule:nonzero;"/><path d="M120.571,409.409l-22.101,-1.27l21.354,-371.616l22.102,1.27l-21.355,371.616Z" style="fill:#eec131;fill-rule:nonzero;"/><path d="M276.865,454.11l-57.064,8.023l-51.824,-368.603l57.064,-8.024l51.824,368.604Z" style="fill:#f4d030;fill-rule:nonzero;"/><path d="M276.865,454.11l-21.922,3.082l-51.824,-368.603l21.922,-3.083l51.824,368.604Z" style="fill:#eec131;fill-rule:nonzero;"/><path d="M356.47,437.809l-57.73,-8.793l56.796,-372.897l57.73,8.793l-56.796,372.897Z" style="fill:#f4d030;fill-rule:nonzero;"/><path d="M356.47,437.809l-22.178,-3.378l56.796,-372.897l22.178,3.378l-56.796,372.897Z" style="fill:#e6a830;fill-rule:nonzero;"/><path d="M404.576,192.084l-45.256,6.782c0,0 -36.457,49.685 -154.998,50.176c-118.541,-0.491 -154.997,-50.176 -154.997,-50.176l-45.255,-6.782l45.439,330.324l23.184,27.592c0,0 50.95,-11.988 131.629,-14.021c80.681,2.033 131.63,14.021 131.63,14.021l23.185,-27.592l45.439,-330.324Z" style="fill:#c72b2c;fill-rule:nonzero;"/><path d="M335.953,550l23.184,-27.592l45.439,-330.324c-26.82,141.517 -127.296,303.833 -196.168,344.014c78.298,2.327 127.545,13.902 127.545,13.902Z" style="fill:#b8252b;fill-rule:nonzero;"/><path d="M204.322,290.563l19.977,61.481l64.645,0l-52.299,37.997l19.976,61.48l-52.299,-37.997l-52.297,37.997l19.976,-61.48l-52.299,-37.997l64.645,0l19.975,-61.481Z" style="fill:#e6a830;fill-rule:nonzero;"/></g></svg>