<svg aria-hidden="true" style="position: absolute; width: 0; height: 0; overflow: hidden;" version="1.1" xmlns="http://www.w3.org/2000/svg" xmlns:xlink="http://www.w3.org/1999/xlink">
<defs>
<symbol id="icon-air" viewBox="0 0 20 20">
<title>air</title>
<path d="M2.643 6.357c1.747-1.5 3.127-2.686 6.872-0.57 1.799 1.016 3.25 1.4 4.457 1.398 2.115 0 3.486-1.176 4.671-2.193 0.423-0.363 0.477-1.008 0.122-1.439-0.357-0.432-0.987-0.488-1.41-0.125-1.746 1.502-3.127 2.688-6.872 0.57-4.948-2.793-7.266-0.803-9.128 0.797-0.422 0.363-0.476 1.006-0.121 1.439 0.356 0.43 0.986 0.487 1.409 0.123zM17.355 8.535c-1.746 1.5-3.127 2.688-6.872 0.57-4.948-2.795-7.266-0.804-9.128 0.795-0.422 0.363-0.477 1.008-0.121 1.439s0.986 0.488 1.409 0.125c1.747-1.501 3.127-2.687 6.872-0.572 1.799 1.018 3.25 1.4 4.457 1.4 2.115 0 3.486-1.176 4.671-2.195 0.423-0.363 0.477-1.008 0.122-1.438-0.356-0.433-0.987-0.487-1.41-0.124zM17.355 13.641c-1.746 1.502-3.127 2.688-6.872 0.572-4.948-2.795-7.266-0.805-9.128 0.795-0.422 0.363-0.477 1.008-0.121 1.439s0.986 0.486 1.409 0.123c1.747-1.5 3.127-2.685 6.872-0.57 1.799 1.016 3.25 1.4 4.457 1.4 2.115 0 3.486-1.178 4.671-2.195 0.423-0.363 0.477-1.008 0.122-1.439s-0.987-0.487-1.41-0.125z"></path>
</symbol>
<symbol id="icon-circle-with-minus" viewBox="0 0 20 20">
<title>circle-with-minus</title>
<path d="M10 1.6c-4.639 0-8.4 3.761-8.4 8.4s3.761 8.4 8.4 8.4 8.4-3.761 8.4-8.4c0-4.639-3.761-8.4-8.4-8.4zM15 11h-10v-2h10v2z"></path>
</symbol>
<symbol id="icon-circle-with-plus" viewBox="0 0 20 20">
<title>circle-with-plus</title>
<path d="M10 1.6c-4.639 0-8.4 3.761-8.4 8.4s3.761 8.4 8.4 8.4 8.4-3.761 8.4-8.4c0-4.639-3.761-8.4-8.4-8.4zM15 11h-4v4h-2v-4h-4v-2h4v-4h2v4h4v2z"></path>
</symbol>
<symbol id="icon-drink" viewBox="0 0 20 20">
<title>drink</title>
<path d="M17.538 2.639c0.394-0.545 0.462-1.639 0.462-1.639h-16c0 0 0.068 1.094 0.462 1.639l6.538 8.361v6h-2c-2 0-2 2-2 2h10c0 0 0-2-2-2h-2v-6l6.538-8.361zM9.4 6c0-0.885 0.716-1.6 1.6-1.6s1.6 0.715 1.6 1.6c0 0.883-0.716 1.6-1.6 1.6s-1.6-0.717-1.6-1.6z"></path>
</symbol>
<symbol id="icon-squared-minus" viewBox="0 0 20 20">
<title>squared-minus</title>
<path d="M16 2h-12c-1.1 0-2 0.9-2 2v12c0 1.1 0.9 2 2 2h12c1.1 0 2-0.9 2-2v-12c0-1.1-0.9-2-2-2zM15 11h-10v-2h10v2z"></path>
</symbol>
<symbol id="icon-squared-plus" viewBox="0 0 20 20">
<title>squared-plus</title>
<path d="M16 2h-12c-1.1 0-2 0.9-2 2v12c0 1.1 0.9 2 2 2h12c1.1 0 2-0.9 2-2v-12c0-1.1-0.9-2-2-2zM15 11h-4v4h-2v-4h-4v-2h4v-4h2v4h4v2z"></path>
</symbol>
</defs>
</svg>
