<?xml version="1.0" encoding="UTF-8" standalone="no"?><!DOCTYPE svg PUBLIC "-//W3C//DTD SVG 1.1//EN" "http://www.w3.org/Graphics/SVG/1.1/DTD/svg11.dtd"><svg width="100%" height="100%" viewBox="0 0 585 124" version="1.1" xmlns="http://www.w3.org/2000/svg" xmlns:xlink="http://www.w3.org/1999/xlink" xml:space="preserve" xmlns:serif="http://www.serif.com/" style="fill-rule:evenodd;clip-rule:evenodd;stroke-linejoin:round;stroke-miterlimit:1.41421;"><g id="ketchup"><g id="ketchup1" serif:id="ketchup"><g><path d="M578.929,57.535c3.623,-15.827 -27.979,-20.751 -39.022,-22.589c-15.498,-2.564 -33.588,-5.764 -48.824,-1.81c-22.168,5.758 -42.418,20.381 -66.755,16.781c-21.264,-3.174 -39.152,-14.807 -58.046,-23.861c-19.182,-9.2 -58.421,-22.674 -71.112,1.17c-4.252,8.028 -8.827,13.945 -18.411,16.769c-9.073,2.678 -19.233,-0.079 -28.461,-1.065c-5.124,-0.535 -12.037,-1.602 -16.734,0.833c-8.34,4.275 0.61,15.538 5.483,18.688c9.605,6.139 21.476,8.668 32.82,9.755c24.134,2.353 49.913,-8.281 72.915,3.104c19.911,9.859 31.918,31.441 53.849,37.782c31.512,9.136 65.007,1.097 97.083,5.734c1.563,0.238 1.895,1.47 1.489,2.572c18.049,-0.035 28.028,-23.476 36.816,-36.492c3.928,-5.837 8.895,-10.141 15.862,-12.74c9.341,-3.474 28.5,-3.448 31.048,-14.631Zm2.853,-9.686c7.831,11.283 -4.509,20.48 -15.324,23.203c-12.783,3.234 -24.708,5.308 -31.438,17.084c-4.104,7.194 -7.951,14.609 -13.41,20.978c-7.165,8.373 -15.937,14.605 -26.05,14.087c-0.324,0.157 -0.695,0.231 -1.112,0.194c-39.805,-4.069 -89.518,9.782 -122.047,-19.165c-13.689,-12.2 -27.024,-27.113 -47.229,-28.518c-18.342,-1.288 -36.438,4.018 -54.739,1.896c-13.003,-1.5 -30.015,-4.352 -39.09,-14.327c-5.409,-5.965 -10.093,-18.058 -0.809,-22.77c12.815,-6.515 28.203,1.45 41.751,0.227c12.75,-1.128 15.886,-7.866 21.749,-16.645c3.053,-4.604 7.001,-8.639 12.777,-10.354c20.089,-5.952 39.669,-2.332 58.422,6.794c19.611,9.532 39.236,23.995 61.679,26.478c26.894,2.997 46.426,-14.61 71.753,-17.794c14.843,-1.855 31.179,0.626 45.859,3.397c11.599,2.151 30.138,4.961 37.258,15.235Z" style="fill:#7a1f20;fill-rule:nonzero;"/><path d="M413.82,61.064c0.222,-0.06 0.296,-0.475 -0.014,-0.512c-23.052,-0.832 -33.739,-27.01 -58.097,-26.313c-1.062,0.028 -1.656,1.72 -0.544,2.115c5.532,2.054 11.246,3.317 16.668,5.627c6.88,2.917 12.293,7.902 17.941,12.404c6.313,5.048 15.983,9.144 24.046,6.679Zm126.087,-26.118c11.043,1.838 42.645,6.762 39.022,22.589c-2.548,11.183 -21.707,11.157 -31.048,14.631c-6.967,2.599 -11.934,6.903 -15.862,12.74c-8.788,13.016 -18.767,36.457 -36.816,36.492c0.406,-1.102 0.074,-2.334 -1.489,-2.572c-32.076,-4.637 -65.571,3.402 -97.083,-5.734c-21.931,-6.341 -33.938,-27.923 -53.849,-37.782c-23.002,-11.385 -48.781,-0.751 -72.915,-3.104c-11.344,-1.087 -23.215,-3.616 -32.82,-9.755c-4.873,-3.15 -13.823,-14.413 -5.483,-18.688c4.697,-2.435 11.61,-1.368 16.734,-0.833c9.228,0.986 19.388,3.743 28.461,1.065c9.584,-2.824 14.159,-8.741 18.411,-16.769c12.691,-23.844 51.93,-10.37 71.112,-1.17c18.894,9.054 36.782,20.687 58.046,23.861c24.337,3.6 44.587,-11.023 66.755,-16.781c15.236,-3.954 33.326,-0.754 48.824,1.81Z" style="fill:#a92b2e;fill-rule:nonzero;"/><path d="M413.806,60.552c0.31,0.037 0.236,0.452 0.014,0.512c-8.063,2.465 -17.733,-1.631 -24.046,-6.679c-5.648,-4.502 -11.061,-9.487 -17.941,-12.404c-5.422,-2.31 -11.136,-3.573 -16.668,-5.627c-1.112,-0.395 -0.518,-2.087 0.544,-2.115c24.358,-0.697 35.045,25.481 58.097,26.313Z" style="fill:#7a1f20;fill-rule:nonzero;"/></g></g><g id="ketchup2" serif:id="ketchup"><g><path d="M306.091,17.558c0.709,-15.326 -27.263,-14.705 -37.055,-14.598c-13.741,0.165 -29.812,0.165 -42.333,6.354c-18.217,9.008 -33.433,25.95 -54.945,26.606c-18.8,0.547 -35.981,-7.334 -53.636,-12.649c-17.926,-5.404 -53.779,-11.484 -61.077,12.796c-2.439,8.171 -5.479,14.431 -13.304,18.636c-7.407,3.986 -16.579,3.093 -24.678,3.695c-4.496,0.346 -10.613,0.491 -14.288,3.53c-6.533,5.352 2.893,14.36 7.571,16.489c9.209,4.132 19.82,4.531 29.757,3.675c21.148,-1.783 41.733,-15.924 63.281,-9.115c18.654,5.897 32.285,24.005 52.142,26.296c28.537,3.314 56.164,-9.681 84.501,-10.646c1.383,-0.036 1.857,1.055 1.674,2.148c15.543,-3.004 20.567,-26.462 26.153,-40.022c2.494,-6.079 6.117,-10.902 11.722,-14.468c7.517,-4.77 24.024,-7.9 24.515,-18.727Zm0.982,-9.484c8.464,9.211 -0.764,19.801 -9.664,24.116c-10.519,5.114 -20.475,9.008 -24.478,21.075c-2.439,7.371 -4.623,14.904 -8.355,21.73c-4.896,8.973 -11.502,16.216 -20.292,17.399c-0.255,0.2 -0.564,0.329 -0.929,0.363c-34.907,2.767 -75.619,23.842 -108.05,2.258c-13.651,-9.101 -27.41,-20.783 -45.029,-18.765c-15.996,1.821 -30.774,9.738 -46.862,10.776c-11.429,0.745 -26.518,0.892 -35.855,-6.898c-5.568,-4.66 -11.446,-15.143 -4.167,-21.057c10.047,-8.173 24.515,-3.294 35.998,-6.662c10.812,-3.149 12.486,-9.936 16.199,-19.072c1.928,-4.787 4.714,-9.192 9.428,-11.739c16.398,-8.846 33.816,-8.701 51.359,-3.295c18.346,5.643 37.454,15.871 57.165,14.487c23.623,-1.638 37.764,-21.24 59.096,-28.372c12.503,-4.17 26.953,-4.551 40.02,-4.389c10.319,0.093 26.717,-0.344 34.416,8.045Z" style="fill:#7a1f20;fill-rule:nonzero;"/><path d="M164.405,48.024c0.183,-0.092 0.183,-0.491 -0.09,-0.474c-19.984,3.021 -33.179,-19.583 -54.054,-14.923c-0.91,0.201 -1.164,1.873 -0.146,2.057c5.078,1.001 10.193,1.236 15.215,2.493c6.371,1.582 11.794,5.33 17.344,8.59c6.208,3.658 15.161,5.878 21.731,2.257Zm104.631,-45.064c9.792,-0.107 37.764,-0.728 37.055,14.598c-0.491,10.827 -16.998,13.957 -24.515,18.727c-5.605,3.566 -9.228,8.389 -11.722,14.468c-5.586,13.56 -10.61,37.018 -26.153,40.022c0.183,-1.093 -0.291,-2.184 -1.674,-2.148c-28.337,0.965 -55.964,13.96 -84.501,10.646c-19.857,-2.291 -33.488,-20.399 -52.142,-26.296c-21.548,-6.809 -42.133,7.332 -63.281,9.115c-9.937,0.856 -20.548,0.457 -29.757,-3.675c-4.678,-2.129 -14.104,-11.137 -7.571,-16.489c3.675,-3.039 9.792,-3.184 14.288,-3.53c8.099,-0.602 17.271,0.291 24.678,-3.695c7.825,-4.205 10.865,-10.465 13.304,-18.636c7.298,-24.28 43.151,-18.2 61.077,-12.796c17.655,5.315 34.836,13.196 53.636,12.649c21.512,-0.656 36.728,-17.598 54.945,-26.606c12.521,-6.189 28.592,-6.189 42.333,-6.354Z" style="fill:#a92b2e;fill-rule:nonzero;"/><path d="M447.986,116.165c-0.306,0.125 -0.423,-0.202 -0.243,-0.352c6.405,-5.65 17.238,-7.472 25.372,-6.993c7.27,0.418 14.538,1.29 22.247,-0.004c6.08,-1.013 11.964,-2.902 18.032,-4.147c1.212,-0.264 1.415,1.214 0.439,1.75c-22.364,12.326 -44.016,-0.871 -65.847,9.746Z" style="fill:#fff;fill-rule:nonzero;"/></g></g></g></svg>