<?xml version="1.0" encoding="UTF-8" standalone="no"?><!DOCTYPE svg PUBLIC "-//W3C//DTD SVG 1.1//EN" "http://www.w3.org/Graphics/SVG/1.1/DTD/svg11.dtd"><svg width="100%" height="100%" viewBox="0 0 586 59" version="1.1" xmlns="http://www.w3.org/2000/svg" xmlns:xlink="http://www.w3.org/1999/xlink" xml:space="preserve" xmlns:serif="http://www.serif.com/" style="fill-rule:evenodd;clip-rule:evenodd;stroke-linejoin:round;stroke-miterlimit:1.41421;"><g id="moutarde"><g id="ketchup"><g><path d="M306.091,8.591c0.709,-7.499 -27.263,-7.195 -37.055,-7.143c-13.741,0.081 -29.812,0.081 -42.333,3.109c-18.217,4.408 -33.433,12.698 -54.945,13.019c-18.8,0.268 -35.981,-3.588 -53.636,-6.189c-17.926,-2.645 -53.779,-5.619 -61.077,6.261c-2.439,3.998 -5.479,7.061 -13.304,9.119c-7.407,1.95 -16.579,1.513 -24.678,1.808c-4.496,0.169 -10.613,0.24 -14.288,1.727c-6.533,2.619 2.893,7.026 7.571,8.068c9.209,2.022 19.82,2.218 29.757,1.799c21.148,-0.873 41.733,-7.792 63.281,-4.461c18.654,2.886 32.285,11.746 52.142,12.868c28.537,1.621 56.164,-4.738 84.501,-5.21c1.383,-0.017 1.857,0.516 1.674,1.051c15.543,-1.47 20.567,-12.948 26.153,-19.583c2.494,-2.974 6.117,-5.334 11.722,-7.079c7.517,-2.334 24.024,-3.866 24.515,-9.164Zm0.982,-4.64c8.464,4.507 -0.764,9.689 -9.664,11.8c-10.519,2.502 -20.475,4.408 -24.478,10.312c-2.439,3.607 -4.623,7.293 -8.355,10.633c-4.896,4.39 -11.502,7.935 -20.292,8.514c-0.255,0.097 -0.564,0.161 -0.929,0.177c-34.907,1.354 -75.619,11.666 -108.05,1.105c-13.651,-4.453 -27.41,-10.17 -45.029,-9.182c-15.996,0.891 -30.774,4.765 -46.862,5.273c-11.429,0.364 -26.518,0.436 -35.855,-3.375c-5.568,-2.281 -11.446,-7.41 -4.167,-10.304c10.047,-3.999 24.515,-1.611 35.998,-3.26c10.812,-1.54 12.486,-4.861 16.199,-9.332c1.928,-2.342 4.714,-4.497 9.428,-5.744c16.398,-4.328 33.816,-4.257 51.359,-1.612c18.346,2.761 37.454,7.766 57.165,7.089c23.623,-0.802 37.764,-10.393 59.096,-13.883c12.503,-2.041 26.953,-2.227 40.02,-2.148c10.319,0.045 26.717,-0.168 34.416,3.937Z" style="fill:#d0b245;fill-rule:nonzero;"/><path d="M164.405,23.499c0.183,-0.045 0.183,-0.24 -0.09,-0.232c-19.984,1.478 -33.179,-9.582 -54.054,-7.302c-0.91,0.098 -1.164,0.916 -0.146,1.006c5.078,0.49 10.193,0.605 15.215,1.22c6.371,0.774 11.794,2.608 17.344,4.203c6.208,1.79 15.161,2.877 21.731,1.105Zm104.631,-22.051c9.792,-0.052 37.764,-0.356 37.055,7.143c-0.491,5.298 -16.998,6.83 -24.515,9.164c-5.605,1.745 -9.228,4.105 -11.722,7.079c-5.586,6.635 -10.61,18.113 -26.153,19.583c0.183,-0.535 -0.291,-1.068 -1.674,-1.051c-28.337,0.472 -55.964,6.831 -84.501,5.21c-19.857,-1.122 -33.488,-9.982 -52.142,-12.868c-21.548,-3.331 -42.133,3.588 -63.281,4.461c-9.937,0.419 -20.548,0.223 -29.757,-1.799c-4.678,-1.042 -14.104,-5.449 -7.571,-8.068c3.675,-1.487 9.792,-1.558 14.288,-1.727c8.099,-0.295 17.271,0.142 24.678,-1.808c7.825,-2.058 10.865,-5.121 13.304,-9.119c7.298,-11.88 43.151,-8.906 61.077,-6.261c17.655,2.601 34.836,6.457 53.636,6.189c21.512,-0.321 36.728,-8.611 54.945,-13.019c12.521,-3.028 28.592,-3.028 42.333,-3.109Z" style="fill:#dcb400;fill-rule:nonzero;"/></g></g><g id="ketchup1" serif:id="ketchup"><g><path d="M209.646,47.637c-1.556,8.153 32.583,8.512 44.529,8.697c16.764,0.251 36.362,0.648 51.91,-2.342c22.622,-4.352 41.94,-13.009 68.203,-12.827c22.951,0.172 43.547,4.798 64.837,8.067c21.616,3.324 65.064,7.45 75.058,-5.313c3.343,-4.296 7.332,-7.558 17.064,-9.607c9.213,-1.942 20.357,-1.239 30.261,-1.36c5.498,-0.073 12.963,0 17.582,-1.529c8.208,-2.692 -2.88,-7.727 -8.489,-8.977c-11.044,-2.431 -23.965,-2.905 -36.121,-2.694c-25.87,0.428 -51.61,7.458 -77.581,3.297c-22.481,-3.605 -38.288,-13.595 -62.4,-15.306c-34.65,-2.472 -68.926,3.774 -103.526,3.589c-1.687,-0.015 -2.216,-0.609 -1.944,-1.187c-19.089,1.218 -26.273,13.599 -33.697,20.69c-3.316,3.179 -7.951,5.661 -14.947,7.424c-9.381,2.357 -29.652,3.618 -30.739,9.378Zm-1.625,5.031c-9.907,-5.119 1.824,-10.537 12.872,-12.617c13.058,-2.467 25.374,-4.297 30.8,-10.631c3.307,-3.869 6.31,-7.831 11.168,-11.378c6.375,-4.662 14.758,-8.361 25.53,-8.774c0.321,-0.1 0.703,-0.162 1.149,-0.171c42.693,-0.613 93.289,-10.843 131.866,1.464c16.235,5.189 32.488,11.757 54.064,11.116c19.589,-0.576 37.968,-4.432 57.633,-4.588c13.971,-0.115 32.378,0.179 43.413,4.562c6.58,2.623 13.275,8.356 4.132,11.329c-12.62,4.109 -30.044,1.151 -44.199,2.663c-13.327,1.412 -15.674,4.988 -20.614,9.767c-2.567,2.504 -6.162,4.784 -12.025,6.025c-20.396,4.311 -41.63,3.804 -62.78,0.489c-22.117,-3.461 -44.959,-9.386 -69.058,-9.135c-28.881,0.29 -47.009,10.391 -73.344,13.667c-15.435,1.914 -33.073,1.76 -49.001,1.351c-12.579,-0.304 -32.596,-0.476 -41.606,-5.139Z" style="fill:#d0b245;fill-rule:nonzero;"/><path d="M383.8,34.894c-0.226,0.044 -0.244,0.257 0.089,0.255c24.505,-1.117 39.577,11.258 65.243,9.29c1.12,-0.085 1.505,-0.97 0.272,-1.093c-6.148,-0.659 -12.374,-0.911 -18.442,-1.705c-7.698,-1 -14.142,-3.133 -20.764,-5.008c-7.404,-2.103 -18.222,-3.507 -26.398,-1.739Zm-129.625,21.44c-11.946,-0.185 -46.085,-0.544 -44.529,-8.697c1.087,-5.76 21.358,-7.021 30.739,-9.378c6.996,-1.763 11.631,-4.245 14.947,-7.424c7.424,-7.091 14.608,-19.472 33.697,-20.69c-0.272,0.578 0.257,1.172 1.944,1.187c34.6,0.185 68.876,-6.061 103.526,-3.589c24.112,1.711 39.919,11.701 62.4,15.306c25.971,4.161 51.711,-2.869 77.581,-3.297c12.156,-0.211 25.077,0.263 36.121,2.694c5.609,1.25 16.697,6.285 8.489,8.977c-4.619,1.529 -12.084,1.456 -17.582,1.529c-9.904,0.121 -21.048,-0.582 -30.261,1.36c-9.732,2.049 -13.721,5.311 -17.064,9.607c-9.994,12.763 -53.442,8.637 -75.058,5.313c-21.29,-3.269 -41.886,-7.895 -64.837,-8.067c-26.263,-0.182 -45.581,8.475 -68.203,12.827c-15.548,2.99 -35.146,2.593 -51.91,2.342Z" style="fill:#dcb400;fill-rule:nonzero;"/><path d="M383.889,35.149c-0.333,0.002 -0.315,-0.211 -0.089,-0.255c8.176,-1.768 18.994,-0.364 26.398,1.739c6.622,1.875 13.066,4.008 20.764,5.008c6.068,0.794 12.294,1.046 18.442,1.705c1.233,0.123 0.848,1.008 -0.272,1.093c-25.666,1.968 -40.738,-10.407 -65.243,-9.29Z" style="fill:#fff;fill-rule:nonzero;"/></g></g></g></svg>