<svg clip-rule="evenodd" fill-rule="evenodd" stroke-linejoin="round" stroke-miterlimit="1.41421" viewBox="0 0 573 94" xmlns="http://www.w3.org/2000/svg"><g fill-rule="nonzero"><path d="m242.753 51.09c-4.023 24.379-61.571 43.024-128.544 41.661-66.973-1.365-118.014-22.236-113.986-46.608 4.019-24.377 61.563-43.035 128.538-41.665 66.978 1.369 118.011 22.235 113.992 46.612z" fill="#9f3e85"/><path d="m1.076 55.21c.815 1.947 2.13 3.704 3.552 5.358 1.434 1.665 3.042 3.204 4.775 4.657 3.474 2.904 7.421 5.424 11.616 7.653 8.38 4.491 17.721 7.832 27.405 10.47 9.708 2.579 19.746 4.663 29.958 6.015 10.294 1.223 20.765 1.931 31.29 2.258 21.028.704 42.445-.221 63.6-3.778 10.564-1.792 21.053-4.319 31.137-7.863 10.093-3.499 19.749-8.109 28.342-13.878-8.331 6.033-17.969 10.817-28.027 14.573-10.101 3.712-20.647 6.397-31.284 8.337-21.307 3.842-42.881 4.763-64.05 4.168-10.59-.371-21.098-1.13-31.459-2.41-10.342-1.456-20.417-3.498-30.134-6.287-9.689-2.795-19.037-6.298-27.379-10.963-4.135-2.341-8.016-4.982-11.404-7.99-3.343-3.019-6.39-6.38-7.938-10.32z" fill="#8c2b6c"/><path d="m241.198 46.4c-3.929 23.796-60.445 42.001-126.238 40.657-65.788-1.344-115.946-21.721-112.022-45.516 3.925-23.796 60.44-42.007 126.233-40.663 65.792 1.344 115.948 21.728 112.027 45.522z" fill="#f0d2e5"/><path d="m121.875 9.556c-8.17.354-16.203 1.317-24.183 2.71-7.979 1.32-15.884 3.046-23.696 4.961-7.768 1.966-15.37 4.178-22.013 7.369-3.295 1.593-6.341 3.407-8.741 5.505-.613.533-1.158 1.044-1.72 1.637-.408.427-.929 1.065-1.331 1.616-.837 1.157-1.492 2.391-1.964 3.67-.975 2.545-1.192 5.27-.664 7.843.254 1.288.681 2.537 1.288 3.721.627 1.198 1.365 2.194 2.392 3.362 3.943 4.454 9.818 7.936 16.233 10.848 6.498 2.842 13.594 5.147 20.931 7.109 3.646 1.039 7.39 1.93 11.138 2.84 3.728.955 7.597 1.667 11.279 2.816-16.063-.652-32.324-2.079-47.277-7.232-7.448-2.537-14.596-6.15-19.942-11.543-1.3-1.279-2.602-2.921-3.522-4.561-.941-1.675-1.628-3.448-2.056-5.284-.809-3.663-.57-7.594.844-11.417.726-1.896 1.746-3.772 3.051-5.541.678-.903 1.316-1.684 2.209-2.61.732-.756 1.578-1.552 2.443-2.246 3.469-2.858 7.42-5.092 11.462-6.859 8.11-3.518 16.525-5.523 24.76-6.927 8.222-1.466 16.499-2.411 24.752-2.869 8.232-.355 16.523-.301 24.327 1.082z" fill="#fff"/><path d="m139.749 1.272c9.473 2.283 62.805 15.791 59.564 43.615-3.375 29.04-60.396 37.961-107.207 39.995-2.09.09-3.74.221-5.015.387 8.88.971 18.198 1.594 27.869 1.788 65.793 1.344 122.309-16.861 126.238-40.657 3.705-22.507-40.951-41.942-101.449-45.128z" fill="#e5aacd"/><g fill="#9f3e85"><path d="m223.153 46.038c.663-4.018-.647-7.932-3.017-11.195-2.372-3.294-5.671-6.078-9.364-8.425-7.417-4.707-16.174-7.987-25.228-10.534-18.218-5.018-37.793-7.267-57.578-7.708-9.895-.197-19.897.15-29.879 1.008-9.981.858-19.971 2.304-29.794 4.517-9.785 2.251-19.512 5.174-28.345 9.547-4.386 2.199-8.552 4.758-11.947 7.89-3.392 3.111-5.922 6.841-6.593 10.788-.698 3.902.513 7.792 2.808 11.057 2.286 3.307 5.56 6.091 9.192 8.49 7.312 4.803 16.008 8.209 25.045 10.813 9.066 2.617 18.561 4.433 28.237 5.635 9.676 1.222 19.524 1.852 29.448 2.003 19.822.288 40.018-1.202 59.757-5.451 9.829-2.169 19.606-5.078 28.522-9.455 4.442-2.179 8.629-4.815 12.069-7.99 3.429-3.153 6.004-6.984 6.667-10.99zm.198.002c-.629 4.037-3.201 7.942-6.63 11.147-3.427 3.237-7.665 5.872-12.062 8.172-8.884 4.562-18.678 7.679-28.548 10.061-19.828 4.685-40.253 6.246-60.186 5.804-19.933-.553-39.553-3.155-57.76-8.425-9.028-2.718-17.794-6.076-25.229-10.884-3.674-2.417-7.034-5.207-9.465-8.555-2.422-3.323-3.787-7.316-3.122-11.48.621-4.115 3.24-8.109 6.711-11.356 3.474-3.288 7.725-5.978 12.183-8.273 8.966-4.573 18.814-7.656 28.726-9.961 19.896-4.555 40.301-6.151 60.271-5.731 19.939.453 39.709 2.869 57.858 8.357 9.02 2.773 17.725 6.255 25.045 11.155 3.617 2.463 6.952 5.259 9.288 8.614 2.358 3.324 3.631 7.299 2.92 11.355z"/><path d="m207.853 43.844c.538-3.312-.541-6.533-2.5-9.227-1.96-2.714-4.681-5.015-7.74-6.949-6.142-3.863-13.377-6.56-20.859-8.641-15.05-4.11-31.213-5.947-47.546-6.315-16.33-.257-33.018.937-49.243 4.541-8.079 1.857-16.103 4.261-23.389 7.853-3.619 1.804-7.051 3.922-9.85 6.486-2.79 2.561-4.874 5.618-5.434 8.868-.58 3.202.406 6.404 2.294 9.101 1.878 2.726 4.574 5.025 7.571 7.006 6.025 3.963 13.206 6.784 20.673 8.927 7.483 2.16 15.331 3.645 23.329 4.628 7.993.992 16.125 1.497 24.323 1.611 16.361.224 33.034-.994 49.331-4.468 8.113-1.779 16.187-4.169 23.566-7.762 3.668-1.795 7.126-3.964 9.963-6.582 2.836-2.605 4.965-5.764 5.511-9.077zm.195.002c-.512 3.351-2.63 6.574-5.468 9.232-2.836 2.678-6.336 4.85-9.964 6.768-7.339 3.788-15.433 6.374-23.585 8.359-16.391 3.904-33.287 5.204-49.772 4.824-16.466-.471-32.677-2.66-47.716-7.022-7.462-2.257-14.706-5.031-20.858-8.998-3.04-1.998-5.827-4.31-7.845-7.077-2.015-2.754-3.155-6.06-2.604-9.519.512-3.411 2.679-6.738 5.553-9.436 2.877-2.726 6.394-4.956 10.084-6.861 7.421-3.8 15.564-6.356 23.762-8.267 16.462-3.774 33.335-5.102 49.846-4.754 16.482.368 32.839 2.392 47.83 6.957 7.445 2.313 14.636 5.211 20.673 9.27 2.983 2.05 5.74 4.355 7.668 7.136 1.946 2.75 2.994 6.044 2.396 9.388z"/><path d="m183.369 42.777c.365-2.284-.388-4.503-1.747-6.362-1.364-1.865-3.246-3.456-5.372-4.774-4.272-2.653-9.284-4.488-14.467-5.895-10.44-2.766-21.591-4.021-32.881-4.269-11.271-.16-22.8.641-33.999 3.115-5.57 1.271-11.11 2.923-16.122 5.387-2.481 1.24-4.845 2.684-6.776 4.434-1.921 1.741-3.36 3.803-3.764 6.029-.407 2.175.255 4.381 1.541 6.237 1.274 1.884 3.131 3.474 5.197 4.846 4.152 2.739 9.113 4.704 14.287 6.166 10.384 2.969 21.677 4.047 32.984 4.199 11.306.133 22.812-.702 34.084-3.035 5.612-1.2 11.198-2.816 16.307-5.282 2.549-1.223 4.936-2.731 6.907-4.53 1.954-1.801 3.428-3.97 3.821-6.266zm.196.009c-.353 2.32-1.822 4.567-3.784 6.41-1.965 1.863-4.39 3.373-6.898 4.718-5.073 2.649-10.681 4.469-16.336 5.876-11.363 2.775-23.089 3.686-34.525 3.391-11.415-.352-22.626-1.95-33.044-4.978-5.161-1.577-10.187-3.494-14.468-6.243-2.112-1.388-4.049-2.98-5.473-4.904-1.413-1.913-2.229-4.223-1.855-6.661.339-2.383 1.849-4.731 3.85-6.622 1.997-1.93 4.449-3.492 7.019-4.825 5.175-2.645 10.828-4.435 16.525-5.766 11.427-2.644 23.138-3.578 34.605-3.317 11.431.256 22.785 1.677 33.156 4.913 5.148 1.633 10.117 3.669 14.28 6.517 2.052 1.441 3.968 3.031 5.303 4.974 1.343 1.903 2.066 4.194 1.645 6.517z"/><path d="m154.184 41.764c.348-2.346-1.508-4.272-3.635-5.518-2.173-1.282-4.702-2.155-7.327-2.808-5.255-1.279-10.834-1.86-16.469-1.96-5.627-.082-11.376.279-16.955 1.491-2.772.619-5.529 1.42-8.011 2.614-2.426 1.187-4.77 2.831-5.226 5.03-.416 2.098 1.197 4.131 3.249 5.44 2.059 1.379 4.536 2.376 7.148 3.085 5.213 1.486 10.905 1.897 16.575 1.923 5.651.037 11.387-.4 17.033-1.443 2.812-.555 5.619-1.321 8.2-2.51 2.526-1.151 4.999-2.996 5.418-5.344zm.188.004c-.404 2.418-2.888 4.344-5.364 5.682-2.548 1.379-5.368 2.352-8.223 3.108-5.739 1.539-11.69 1.978-17.482 1.801-5.764-.236-11.393-1.162-16.641-2.707-2.591-.826-5.137-1.773-7.321-3.158-2.095-1.372-4.171-3.282-3.836-5.948.156-1.195.936-2.497 1.958-3.471 1.031-1.008 2.28-1.834 3.595-2.517 2.645-1.382 5.52-2.314 8.412-2.999 5.806-1.375 11.751-1.879 17.561-1.752 5.798.162 11.546.916 16.749 2.662 2.586.88 5.064 1.955 7.14 3.43 2.013 1.436 3.851 3.452 3.452 5.869z"/><path d="m137.916 41.764c.145-1.035-.694-1.876-1.685-2.394-1.005-.52-2.16-.862-3.345-1.092-2.402-.433-4.849-.671-7.35-.693-2.492-.024-5.024.1-7.475.601-1.215.258-2.428.588-3.5 1.072-1.056.499-2.032 1.112-2.269 2.003-.212.792.396 1.731 1.296 2.315.89.632 2.007 1.069 3.172 1.382 2.357.627 4.926.693 7.464.634 2.505-.051 5.031-.2 7.55-.551 1.26-.189 2.519-.484 3.689-.963 1.152-.468 2.266-1.277 2.453-2.314zm.192.009c-.181 1.102-1.307 1.987-2.401 2.64-1.134.682-2.416 1.172-3.713 1.574-2.612.807-5.358 1.052-8.007.911-2.612-.182-5.146-.71-7.5-1.458-1.187-.373-2.331-.817-3.353-1.433-.968-.621-2.022-1.461-1.893-2.815.131-1.249 1.391-2.334 2.592-2.959 1.233-.671 2.561-1.126 3.901-1.451 2.678-.664 5.406-.93 8.076-.867 2.652.093 5.306.457 7.625 1.39 1.156.46 2.262.998 3.171 1.718.881.707 1.697 1.632 1.502 2.75z"/></g><path d="m21.753 31.386c23.917-27.449 107.418-30.508 107.418-30.508-65.793-1.344-122.307 16.867-126.233 40.663-3.081 18.668 27.131 35.23 72.068 42.154-29.29-5.671-75.326-26.987-53.253-52.309z" fill="#fff"/><path d="m241.097 46.403c.775-4.73-.756-9.333-3.543-13.194-2.791-3.88-6.678-7.159-11.017-9.936-8.731-5.554-19.027-9.439-29.684-12.459-21.446-5.946-44.509-8.602-67.819-9.127-11.658-.232-23.434.169-35.198 1.187-11.761 1.017-23.533 2.723-35.107 5.334-11.534 2.655-22.996 6.111-33.407 11.277-5.166 2.591-10.082 5.634-14.083 9.33-3.999 3.669-6.986 8.081-7.77 12.752-.806 4.611.64 9.194 3.366 13.029 2.722 3.89 6.573 7.157 10.84 9.995 8.595 5.663 18.825 9.689 29.474 12.764 10.677 3.088 21.852 5.229 33.241 6.661 11.395 1.452 22.988 2.206 34.68 2.397 23.343.353 47.143-1.402 70.389-6.448 11.574-2.571 23.084-6.018 33.584-11.185 5.224-2.577 10.161-5.678 14.203-9.422 4.034-3.716 7.072-8.225 7.851-12.955zm.195.002c-.743 4.762-3.768 9.341-7.808 13.111-4.044 3.804-9.014 6.912-14.203 9.607-10.457 5.361-21.988 8.998-33.603 11.783-23.34 5.482-47.363 7.312-70.832 6.797-23.437-.622-46.559-3.635-67.986-9.842-10.624-3.192-20.95-7.137-29.713-12.776-4.34-2.842-8.291-6.12-11.127-10.069-2.831-3.924-4.41-8.629-3.612-13.502.737-4.826 3.813-9.502 7.887-13.326 4.089-3.854 9.086-7.007 14.322-9.699 10.544-5.368 22.123-8.982 33.785-11.692 23.407-5.345 47.41-7.211 70.911-6.722 23.457.518 46.719 3.368 68.096 9.764 10.616 3.254 20.868 7.34 29.503 13.087 4.26 2.899 8.181 6.177 10.939 10.137 2.776 3.904 4.277 8.58 3.441 13.342z" fill="#9f3e85"/><path d="m124.927 25.121c-9.036 1.055-18.119 1.942-26.219 4.766-2.016.707-3.931 1.544-5.76 2.467-1.798.962-3.553 2.026-4.856 3.181-2.746 2.327-3.65 4.982-2.345 7.552 1.16 2.597 4.031 4.85 7.309 6.459 3.385 1.69 7.241 2.912 11.229 3.953 8.094 1.998 16.686 3.172 25.569 3.878-9.073 1.229-18.3 1.074-27.14-.329-4.464-.684-8.766-1.919-12.839-3.601-4.021-1.851-7.737-4.437-9.666-8.338-.895-1.963-1.153-4.332-.344-6.616.791-2.293 2.486-4.326 4.462-5.856 1.995-1.559 4.141-2.692 6.323-3.719 2.201-1.013 4.519-1.794 6.838-2.411 9.377-2.449 18.645-2.238 27.439-1.386z" fill="#fff"/><path d="m168.914 64.318c-.656.147-1.311.287-1.964.422-2.687.527-5.362.973-8.026 1.397-2.661.429-5.36.847-8.046 1.15-5.37.652-10.758 1.018-16.1 1.057-5.337.064-10.648-.155-15.817-.78 5.288.151 10.586.069 15.897-.32 5.301-.392 10.597-1.02 15.852-1.864 4.155-.688 8.348-1.504 12.476-2.425 1.076-.241 2.147-.488 3.212-.742 5.148-1.196 10.171-2.759 14.598-5.02 4.372-2.242 8.262-5.393 10.086-8.991 1.883-3.632 1.255-7.639-.817-11.027-1.025-1.709-2.402-3.294-4.013-4.708-.8-.705-1.672-1.354-2.575-2.003-.926-.684-1.813-1.303-2.794-1.928-3.861-2.455-8.008-4.7-12.652-6.439 5.195.686 10.079 2.345 14.474 4.522 4.431 2.096 8.362 5.208 10.865 9.027 1.266 1.92 2.128 4.074 2.38 6.379.26 2.302-.154 4.748-1.275 7.036-1.117 2.313-2.887 4.35-4.977 6.109-2.059 1.766-4.424 3.282-6.924 4.533-4.412 2.195-9.16 3.566-13.86 4.615z" fill="#b56ca3"/><path d="m159.813 7.298c-3.257-.662-6.536-1.295-9.836-1.914 1.521.008 3.04.037 4.556.087 1.693.556 3.463 1.165 5.28 1.827z" fill="#b56ca3"/><path d="m216.463 64.214c4.112-3.444 7.879-7.147 10.212-11.228.568-.998 1.102-2.073 1.48-3.054.464-1.159.677-2.063.884-3.145.351-2.082.359-4.168-.103-6.161-.915-3.983-3.177-7.671-6.401-10.689-1.602-1.509-3.371-2.914-5.352-4.114-.978-.592-2.029-1.148-3.065-1.642-1.174-.543-2.335-1.062-3.474-1.559-4.586-2.068-9.355-3.931-14.238-5.623-4.841-1.754-9.884-3.212-14.95-4.647-7.055-1.925-14.289-3.56-21.643-5.054-1.817-.662-3.587-1.271-5.28-1.827 9.735.316 19.344 1.465 28.653 3.357 5.407 1.048 10.644 2.469 15.807 4.033 5.123 1.632 10.094 3.509 14.912 5.611 1.218.552 2.382 1.103 3.524 1.653 1.261.608 2.427 1.264 3.563 1.973 2.238 1.425 4.309 3.027 6.023 4.866 3.422 3.641 5.945 8.002 6.442 12.824.28 2.39.098 4.87-.659 7.281-.371 1.158-.921 2.487-1.484 3.503-.648 1.193-1.341 2.257-2.155 3.33-3.302 4.212-7.805 7.611-12.696 10.312z" fill="#b3619d"/><path d="m131.704 43.499c-1.027.229-2 .326-2.974.375-2.278.1-4.499-.011-6.657-.353 2.249-.311 4.466-.536 6.618-.864.672-.118 1.353-.226 1.991-.369.377-.084.739-.18 1.075-.297.451-.14.858-.363.887-.442.001-.001.002-.003.004-.005l-.015-.117c-.001.01-.002.015-.005.016-.016.003-.062-.12-.152-.173-.418-.394-1.437-.694-2.386-.891-.972-.224-2.022-.36-3.066-.509l-6.437-.752c2.247-.376 4.491-.515 6.741-.463 1.123.013 2.237.114 3.367.284 1.105.214 2.256.405 3.309 1.239.257.239.45.46.559.95l.015.161c.01.044-.01.24-.034.357-.061.278-.192.451-.33.647-.65.686-1.351.882-1.96 1.071-.185.05-.369.094-.55.135zm.945-1.948c-.002.004-.004.007-.006.012-.009.002.006.051.011.05.002 0 .002-.005 0-.02z" fill="#b56ca3"/><path d="m401.832 51.09c-4.024 24.379-61.571 43.024-128.544 41.661-66.973-1.365-118.015-22.236-113.986-46.608 4.018-24.377 61.563-43.035 128.537-41.665 66.979 1.369 118.012 22.235 113.993 46.612z" fill="#9f3e85"/><path d="m160.155 55.21c.815 1.947 2.13 3.704 3.552 5.358 1.434 1.665 3.042 3.204 4.775 4.657 3.474 2.904 7.421 5.424 11.615 7.653 8.381 4.491 17.722 7.832 27.405 10.47 9.709 2.579 19.746 4.663 29.959 6.015 10.294 1.223 20.765 1.931 31.29 2.258 21.028.704 42.445-.221 63.6-3.778 10.564-1.792 21.053-4.319 31.136-7.863 10.094-3.499 19.75-8.109 28.343-13.878-8.331 6.033-17.969 10.817-28.027 14.573-10.101 3.712-20.647 6.397-31.284 8.337-21.307 3.842-42.882 4.763-64.05 4.168-10.59-.371-21.098-1.13-31.459-2.41-10.342-1.456-20.417-3.498-30.134-6.287-9.689-2.795-19.037-6.298-27.379-10.963-4.135-2.341-8.016-4.982-11.404-7.99-3.343-3.019-6.39-6.38-7.938-10.32z" fill="#8c2b6c"/><path d="m400.277 46.4c-3.929 23.796-60.445 42.001-126.238 40.657-65.789-1.344-115.946-21.721-112.022-45.516 3.925-23.796 60.44-42.007 126.233-40.663 65.792 1.344 115.947 21.728 112.027 45.522z" fill="#f0d2e5"/><path d="m280.953 9.556c-8.169.354-16.202 1.317-24.182 2.71-7.979 1.32-15.884 3.046-23.697 4.961-7.767 1.966-15.369 4.178-22.012 7.369-3.295 1.593-6.342 3.407-8.741 5.505-.613.533-1.158 1.044-1.72 1.637-.408.427-.929 1.065-1.331 1.616-.837 1.157-1.492 2.391-1.964 3.67-.975 2.545-1.192 5.27-.664 7.843.254 1.288.681 2.537 1.288 3.721.627 1.198 1.365 2.194 2.392 3.362 3.943 4.454 9.817 7.936 16.233 10.848 6.497 2.842 13.594 5.147 20.931 7.109 3.646 1.039 7.39 1.93 11.138 2.84 3.728.955 7.597 1.667 11.279 2.816-16.063-.652-32.324-2.079-47.277-7.232-7.449-2.537-14.596-6.15-19.942-11.543-1.3-1.279-2.602-2.921-3.522-4.561-.942-1.675-1.629-3.448-2.056-5.284-.809-3.663-.571-7.594.843-11.417.727-1.896 1.746-3.772 3.052-5.541.678-.903 1.316-1.684 2.209-2.61.732-.756 1.578-1.552 2.442-2.246 3.47-2.858 7.421-5.092 11.463-6.859 8.11-3.518 16.525-5.523 24.76-6.927 8.221-1.466 16.499-2.411 24.751-2.869 8.233-.355 16.523-.301 24.327 1.082z" fill="#fff"/><path d="m298.828 1.272c9.473 2.283 62.805 15.791 59.564 43.615-3.375 29.04-60.396 37.961-107.207 39.995-2.09.09-3.741.221-5.015.387 8.88.971 18.198 1.594 27.869 1.788 65.793 1.344 122.309-16.861 126.238-40.657 3.705-22.507-40.951-41.942-101.449-45.128z" fill="#e5aacd"/><path d="m382.231 46.038c.663-4.018-.646-7.932-3.016-11.195-2.372-3.294-5.671-6.078-9.364-8.425-7.417-4.707-16.174-7.987-25.228-10.534-18.218-5.018-37.793-7.267-57.578-7.708-9.895-.197-19.898.15-29.879 1.008-9.982.858-19.971 2.304-29.794 4.517-9.785 2.251-19.512 5.174-28.345 9.547-4.386 2.199-8.552 4.758-11.947 7.89-3.392 3.111-5.922 6.841-6.593 10.788-.698 3.902.513 7.792 2.807 11.057 2.287 3.307 5.561 6.091 9.193 8.49 7.312 4.803 16.008 8.209 25.045 10.813 9.065 2.617 18.561 4.433 28.237 5.635 9.676 1.222 19.524 1.852 29.448 2.003 19.822.288 40.018-1.202 59.757-5.451 9.829-2.169 19.606-5.078 28.522-9.455 4.442-2.179 8.629-4.815 12.069-7.99 3.429-3.153 6.004-6.984 6.666-10.99zm.199.002c-.629 4.037-3.201 7.942-6.63 11.147-3.427 3.237-7.665 5.872-12.062 8.172-8.884 4.562-18.678 7.679-28.548 10.061-19.829 4.685-40.254 6.246-60.186 5.804-19.933-.553-39.553-3.155-57.76-8.425-9.029-2.718-17.794-6.076-25.229-10.884-3.675-2.417-7.034-5.207-9.465-8.555-2.422-3.323-3.787-7.316-3.122-11.48.62-4.115 3.239-8.109 6.71-11.356 3.475-3.288 7.726-5.978 12.184-8.273 8.966-4.573 18.814-7.656 28.726-9.961 19.896-4.555 40.301-6.151 60.271-5.731 19.939.453 39.708 2.869 57.858 8.357 9.02 2.773 17.725 6.255 25.045 11.155 3.617 2.463 6.952 5.259 9.288 8.614 2.358 3.324 3.631 7.299 2.92 11.355z" fill="#9f3e85"/><path d="m366.932 43.844c.538-3.312-.541-6.533-2.5-9.227-1.96-2.714-4.681-5.015-7.74-6.949-6.142-3.863-13.377-6.56-20.859-8.641-15.05-4.11-31.213-5.947-47.547-6.315-16.329-.257-33.017.937-49.242 4.541-8.079 1.857-16.103 4.261-23.389 7.853-3.62 1.804-7.051 3.922-9.85 6.486-2.791 2.561-4.875 5.618-5.435 8.868-.579 3.202.407 6.404 2.295 9.101 1.877 2.726 4.574 5.025 7.571 7.006 6.024 3.963 13.206 6.784 20.673 8.927 7.483 2.16 15.331 3.645 23.329 4.628 7.992.992 16.125 1.497 24.323 1.611 16.361.224 33.034-.994 49.33-4.468 8.114-1.779 16.188-4.169 23.567-7.762 3.668-1.795 7.126-3.964 9.963-6.582 2.836-2.605 4.965-5.764 5.511-9.077zm.195.002c-.512 3.351-2.631 6.574-5.468 9.232-2.837 2.678-6.336 4.85-9.964 6.768-7.339 3.788-15.433 6.374-23.585 8.359-16.391 3.904-33.287 5.204-49.772 4.824-16.466-.471-32.678-2.66-47.717-7.022-7.462-2.257-14.706-5.031-20.857-8.998-3.04-1.998-5.827-4.31-7.845-7.077-2.015-2.754-3.155-6.06-2.604-9.519.512-3.411 2.679-6.738 5.553-9.436 2.877-2.726 6.394-4.956 10.084-6.861 7.421-3.8 15.564-6.356 23.762-8.267 16.462-3.774 33.335-5.102 49.846-4.754 16.482.368 32.838 2.392 47.83 6.957 7.445 2.313 14.636 5.211 20.673 9.27 2.983 2.05 5.739 4.355 7.668 7.136 1.946 2.75 2.994 6.044 2.396 9.388z" fill="#9f3e85"/><path d="m342.447 42.777c.366-2.284-.387-4.503-1.746-6.362-1.364-1.865-3.246-3.456-5.372-4.774-4.272-2.653-9.284-4.488-14.467-5.895-10.44-2.766-21.591-4.021-32.881-4.269-11.271-.16-22.8.641-33.999 3.115-5.57 1.271-11.11 2.923-16.123 5.387-2.481 1.24-4.844 2.684-6.776 4.434-1.921 1.741-3.36 3.803-3.763 6.029-.407 2.175.254 4.381 1.54 6.237 1.275 1.884 3.132 3.474 5.198 4.846 4.152 2.739 9.113 4.704 14.287 6.166 10.384 2.969 21.677 4.047 32.984 4.199 11.306.133 22.812-.702 34.084-3.035 5.612-1.2 11.198-2.816 16.307-5.282 2.549-1.223 4.935-2.731 6.907-4.53 1.954-1.801 3.428-3.97 3.82-6.266zm.197.009c-.353 2.32-1.823 4.567-3.784 6.41-1.966 1.863-4.39 3.373-6.899 4.718-5.072 2.649-10.681 4.469-16.335 5.876-11.364 2.775-23.089 3.686-34.525 3.391-11.415-.352-22.626-1.95-33.044-4.978-5.161-1.577-10.187-3.494-14.468-6.243-2.112-1.388-4.05-2.98-5.473-4.904-1.413-1.913-2.229-4.223-1.856-6.661.339-2.383 1.849-4.731 3.851-6.622 1.997-1.93 4.449-3.492 7.019-4.825 5.175-2.645 10.828-4.435 16.524-5.766 11.427-2.644 23.139-3.578 34.605-3.317 11.432.256 22.785 1.677 33.156 4.913 5.149 1.633 10.117 3.669 14.281 6.517 2.052 1.441 3.968 3.031 5.303 4.974 1.342 1.903 2.065 4.194 1.645 6.517z" fill="#9f3e85"/><path d="m313.263 41.764c.347-2.346-1.508-4.272-3.635-5.518-2.173-1.282-4.703-2.155-7.327-2.808-5.256-1.279-10.834-1.86-16.469-1.96-5.627-.082-11.376.279-16.955 1.491-2.772.619-5.529 1.42-8.012 2.614-2.425 1.187-4.769 2.831-5.226 5.03-.415 2.098 1.198 4.131 3.25 5.44 2.059 1.379 4.536 2.376 7.148 3.085 5.213 1.486 10.905 1.897 16.575 1.923 5.651.037 11.387-.4 17.033-1.443 2.812-.555 5.619-1.321 8.2-2.51 2.526-1.151 4.999-2.996 5.418-5.344zm.187.004c-.403 2.418-2.888 4.344-5.364 5.682-2.547 1.379-5.367 2.352-8.222 3.108-5.74 1.539-11.69 1.978-17.483 1.801-5.763-.236-11.392-1.162-16.64-2.707-2.591-.826-5.138-1.773-7.321-3.158-2.095-1.372-4.171-3.282-3.836-5.948.156-1.195.935-2.497 1.957-3.471 1.031-1.008 2.281-1.834 3.596-2.517 2.644-1.382 5.52-2.314 8.412-2.999 5.806-1.375 11.75-1.879 17.561-1.752 5.797.162 11.545.916 16.749 2.662 2.586.88 5.064 1.955 7.14 3.43 2.013 1.436 3.85 3.452 3.451 5.869z" fill="#9f3e85"/><path d="m296.994 41.764c.146-1.035-.693-1.876-1.684-2.394-1.005-.52-2.16-.862-3.345-1.092-2.402-.433-4.849-.671-7.35-.693-2.493-.024-5.024.1-7.475.601-1.216.258-2.428.588-3.5 1.072-1.056.499-2.032 1.112-2.269 2.003-.212.792.395 1.731 1.296 2.315.89.632 2.007 1.069 3.172 1.382 2.357.627 4.926.693 7.464.634 2.505-.051 5.031-.2 7.55-.551 1.26-.189 2.518-.484 3.689-.963 1.152-.468 2.265-1.277 2.452-2.314zm.193.009c-.181 1.102-1.308 1.987-2.401 2.64-1.134.682-2.416 1.172-3.713 1.574-2.612.807-5.358 1.052-8.007.911-2.613-.182-5.146-.71-7.5-1.458-1.188-.373-2.332-.817-3.353-1.433-.968-.621-2.022-1.461-1.893-2.815.131-1.249 1.39-2.334 2.592-2.959 1.233-.671 2.561-1.126 3.901-1.451 2.678-.664 5.406-.93 8.076-.867 2.652.093 5.305.457 7.624 1.39 1.157.46 2.262.998 3.172 1.718.881.707 1.696 1.632 1.502 2.75z" fill="#9f3e85"/><path d="m180.832 31.386c23.916-27.449 107.418-30.508 107.418-30.508-65.793-1.344-122.308 16.867-126.233 40.663-3.081 18.668 27.13 35.23 72.068 42.154-29.29-5.671-75.326-26.987-53.253-52.309z" fill="#fff"/><path d="m400.176 46.403c.775-4.73-.756-9.333-3.543-13.194-2.791-3.88-6.679-7.159-11.017-9.936-8.731-5.554-19.027-9.439-29.685-12.459-21.445-5.946-44.508-8.602-67.818-9.127-11.659-.232-23.434.169-35.199 1.187-11.76 1.017-23.532 2.723-35.106 5.334-11.535 2.655-22.996 6.111-33.407 11.277-5.166 2.591-10.082 5.634-14.083 9.33-3.999 3.669-6.986 8.081-7.77 12.752-.806 4.611.64 9.194 3.366 13.029 2.722 3.89 6.573 7.157 10.84 9.995 8.595 5.663 18.825 9.689 29.473 12.764 10.678 3.088 21.853 5.229 33.242 6.661 11.395 1.452 22.988 2.206 34.68 2.397 23.343.353 47.143-1.402 70.389-6.448 11.574-2.571 23.084-6.018 33.584-11.185 5.224-2.577 10.161-5.678 14.203-9.422 4.034-3.716 7.071-8.225 7.851-12.955zm.195.002c-.743 4.762-3.769 9.341-7.808 13.111-4.044 3.804-9.015 6.912-14.203 9.607-10.457 5.361-21.988 8.998-33.603 11.783-23.34 5.482-47.363 7.312-70.832 6.797-23.438-.622-46.559-3.635-67.986-9.842-10.624-3.192-20.95-7.137-29.713-12.776-4.341-2.842-8.291-6.12-11.128-10.069-2.83-3.924-4.409-8.629-3.611-13.502.737-4.826 3.813-9.502 7.887-13.326 4.088-3.854 9.086-7.007 14.322-9.699 10.544-5.368 22.122-8.982 33.784-11.692 23.408-5.345 47.411-7.211 70.912-6.722 23.456.518 46.719 3.368 68.096 9.764 10.616 3.254 20.868 7.34 29.503 13.087 4.26 2.899 8.181 6.177 10.939 10.137 2.776 3.904 4.277 8.58 3.441 13.342z" fill="#9f3e85"/><path d="m284.006 25.121c-9.036 1.055-18.119 1.942-26.219 4.766-2.016.707-3.931 1.544-5.76 2.467-1.799.962-3.553 2.026-4.856 3.181-2.746 2.327-3.651 4.982-2.345 7.552 1.159 2.597 4.031 4.85 7.309 6.459 3.385 1.69 7.241 2.912 11.229 3.953 8.094 1.998 16.685 3.172 25.569 3.878-9.074 1.229-18.3 1.074-27.141-.329-4.463-.684-8.765-1.919-12.838-3.601-4.021-1.851-7.738-4.437-9.666-8.338-.895-1.963-1.154-4.332-.344-6.616.791-2.293 2.486-4.326 4.462-5.856 1.995-1.559 4.141-2.692 6.323-3.719 2.201-1.013 4.518-1.794 6.838-2.411 9.377-2.449 18.645-2.238 27.439-1.386z" fill="#fff"/><path d="m327.993 64.318c-.656.147-1.311.287-1.964.422-2.687.527-5.362.973-8.026 1.397-2.662.429-5.36.847-8.046 1.15-5.371.652-10.758 1.018-16.1 1.057-5.337.064-10.648-.155-15.817-.78 5.287.151 10.586.069 15.897-.32 5.301-.392 10.596-1.02 15.852-1.864 4.155-.688 8.348-1.504 12.476-2.425 1.076-.241 2.147-.488 3.212-.742 5.147-1.196 10.171-2.759 14.597-5.02 4.373-2.242 8.263-5.393 10.086-8.991 1.884-3.632 1.256-7.639-.816-11.027-1.025-1.709-2.403-3.294-4.013-4.708-.8-.705-1.672-1.354-2.575-2.003-.926-.684-1.813-1.303-2.795-1.928-3.86-2.455-8.008-4.7-12.651-6.439 5.195.686 10.079 2.345 14.474 4.522 4.431 2.096 8.362 5.208 10.864 9.027 1.267 1.92 2.129 4.074 2.381 6.379.26 2.302-.154 4.748-1.276 7.036-1.116 2.313-2.886 4.35-4.977 6.109-2.059 1.766-4.423 3.282-6.923 4.533-4.413 2.195-9.16 3.566-13.86 4.615z" fill="#b56ca3"/><path d="m318.891 7.298c-3.256-.662-6.535-1.295-9.835-1.914 1.521.008 3.04.037 4.556.087 1.693.556 3.463 1.165 5.279 1.827z" fill="#b56ca3"/><path d="m375.542 64.214c4.112-3.444 7.879-7.147 10.212-11.228.568-.998 1.102-2.073 1.479-3.054.465-1.159.678-2.063.885-3.145.351-2.082.359-4.168-.103-6.161-.915-3.983-3.177-7.671-6.401-10.689-1.602-1.509-3.371-2.914-5.352-4.114-.978-.592-2.029-1.148-3.065-1.642-1.175-.543-2.335-1.062-3.475-1.559-4.585-2.068-9.354-3.931-14.237-5.623-4.841-1.754-9.884-3.212-14.95-4.647-7.056-1.925-14.289-3.56-21.644-5.054-1.816-.662-3.586-1.271-5.279-1.827 9.735.316 19.344 1.465 28.653 3.357 5.407 1.048 10.644 2.469 15.807 4.033 5.123 1.632 10.094 3.509 14.912 5.611 1.218.552 2.382 1.103 3.524 1.653 1.261.608 2.427 1.264 3.563 1.973 2.238 1.425 4.309 3.027 6.022 4.866 3.423 3.641 5.946 8.002 6.443 12.824.28 2.39.097 4.87-.659 7.281-.372 1.158-.921 2.487-1.485 3.503-.647 1.193-1.34 2.257-2.154 3.33-3.302 4.212-7.805 7.611-12.696 10.312z" fill="#b3619d"/><path d="m290.783 43.499c-1.028.229-2 .326-2.974.375-2.279.1-4.499-.011-6.657-.353 2.249-.311 4.466-.536 6.618-.864.672-.118 1.353-.226 1.991-.369.377-.084.739-.18 1.075-.297.451-.14.858-.363.887-.442.001-.001.002-.003.004-.005l-.015-.117c-.001.01-.002.015-.005.016-.016.003-.062-.12-.152-.173-.418-.394-1.437-.694-2.387-.891-.972-.224-2.021-.36-3.066-.509l-6.436-.752c2.246-.376 4.491-.515 6.741-.463 1.123.013 2.237.114 3.367.284 1.105.214 2.256.405 3.309 1.239.257.239.449.46.559.95l.015.161c.01.044-.01.24-.034.357-.061.278-.192.451-.33.647-.65.686-1.351.882-1.96 1.071-.186.05-.369.094-.55.135zm.944-1.948c-.001.004-.003.007-.005.012-.009.002.006.051.011.05.001 0 .002-.005 0-.02z" fill="#b56ca3"/><path d="m572.031 51.09c-4.023 24.379-61.571 43.024-128.544 41.661-66.973-1.365-118.015-22.236-113.986-46.608 4.019-24.377 61.563-43.035 128.538-41.665 66.978 1.369 118.011 22.235 113.992 46.612z" fill="#9f3e85"/><path d="m330.354 55.21c.815 1.947 2.13 3.704 3.552 5.358 1.434 1.665 3.042 3.204 4.775 4.657 3.474 2.904 7.421 5.424 11.615 7.653 8.381 4.491 17.722 7.832 27.405 10.47 9.709 2.579 19.747 4.663 29.959 6.015 10.294 1.223 20.765 1.931 31.29 2.258 21.028.704 42.445-.221 63.6-3.778 10.564-1.792 21.053-4.319 31.137-7.863 10.093-3.499 19.749-8.109 28.342-13.878-8.331 6.033-17.969 10.817-28.027 14.573-10.101 3.712-20.647 6.397-31.284 8.337-21.307 3.842-42.881 4.763-64.05 4.168-10.59-.371-21.098-1.13-31.459-2.41-10.342-1.456-20.417-3.498-30.134-6.287-9.689-2.795-19.037-6.298-27.379-10.963-4.135-2.341-8.016-4.982-11.404-7.99-3.343-3.019-6.39-6.38-7.938-10.32z" fill="#8c2b6c"/><path d="m570.476 46.4c-3.929 23.796-60.445 42.001-126.238 40.657-65.789-1.344-115.946-21.721-112.022-45.516 3.925-23.796 60.44-42.007 126.233-40.663 65.792 1.344 115.948 21.728 112.027 45.522z" fill="#f0d2e5"/><path d="m451.152 9.556c-8.169.354-16.202 1.317-24.182 2.71-7.979 1.32-15.884 3.046-23.696 4.961-7.768 1.966-15.37 4.178-22.013 7.369-3.295 1.593-6.342 3.407-8.741 5.505-.613.533-1.158 1.044-1.72 1.637-.408.427-.929 1.065-1.331 1.616-.837 1.157-1.492 2.391-1.964 3.67-.975 2.545-1.192 5.27-.664 7.843.254 1.288.681 2.537 1.288 3.721.627 1.198 1.365 2.194 2.392 3.362 3.943 4.454 9.817 7.936 16.233 10.848 6.497 2.842 13.594 5.147 20.931 7.109 3.646 1.039 7.39 1.93 11.138 2.84 3.728.955 7.597 1.667 11.279 2.816-16.063-.652-32.324-2.079-47.277-7.232-7.449-2.537-14.596-6.15-19.942-11.543-1.3-1.279-2.602-2.921-3.522-4.561-.941-1.675-1.628-3.448-2.056-5.284-.809-3.663-.57-7.594.843-11.417.727-1.896 1.747-3.772 3.052-5.541.678-.903 1.316-1.684 2.209-2.61.732-.756 1.578-1.552 2.442-2.246 3.47-2.858 7.421-5.092 11.463-6.859 8.11-3.518 16.525-5.523 24.76-6.927 8.221-1.466 16.499-2.411 24.752-2.869 8.232-.355 16.522-.301 24.326 1.082z" fill="#fff"/><path d="m469.027 1.272c9.473 2.283 62.805 15.791 59.564 43.615-3.375 29.04-60.396 37.961-107.207 39.995-2.09.09-3.741.221-5.015.387 8.88.971 18.198 1.594 27.869 1.788 65.793 1.344 122.309-16.861 126.238-40.657 3.705-22.507-40.951-41.942-101.449-45.128z" fill="#e5aacd"/><path d="m552.431 46.038c.662-4.018-.647-7.932-3.017-11.195-2.372-3.294-5.671-6.078-9.364-8.425-7.417-4.707-16.174-7.987-25.228-10.534-18.218-5.018-37.793-7.267-57.578-7.708-9.895-.197-19.897.15-29.879 1.008s-19.971 2.304-29.794 4.517c-9.785 2.251-19.512 5.174-28.345 9.547-4.386 2.199-8.552 4.758-11.947 7.89-3.392 3.111-5.922 6.841-6.593 10.788-.698 3.902.513 7.792 2.807 11.057 2.287 3.307 5.561 6.091 9.193 8.49 7.312 4.803 16.008 8.209 25.045 10.813 9.065 2.617 18.561 4.433 28.237 5.635 9.676 1.222 19.524 1.852 29.448 2.003 19.822.288 40.018-1.202 59.757-5.451 9.829-2.169 19.606-5.078 28.522-9.455 4.442-2.179 8.629-4.815 12.069-7.99 3.429-3.153 6.004-6.984 6.667-10.99zm.198.002c-.629 4.037-3.201 7.942-6.63 11.147-3.427 3.237-7.665 5.872-12.062 8.172-8.884 4.562-18.678 7.679-28.548 10.061-19.828 4.685-40.254 6.246-60.186 5.804-19.933-.553-39.553-3.155-57.76-8.425-9.028-2.718-17.794-6.076-25.229-10.884-3.674-2.417-7.034-5.207-9.465-8.555-2.422-3.323-3.787-7.316-3.122-11.48.621-4.115 3.239-8.109 6.71-11.356 3.475-3.288 7.726-5.978 12.184-8.273 8.966-4.573 18.814-7.656 28.726-9.961 19.896-4.555 40.301-6.151 60.271-5.731 19.939.453 39.709 2.869 57.858 8.357 9.02 2.773 17.725 6.255 25.045 11.155 3.617 2.463 6.952 5.259 9.288 8.614 2.358 3.324 3.631 7.299 2.92 11.355z" fill="#9f3e85"/><path d="m537.131 43.844c.538-3.312-.541-6.533-2.5-9.227-1.96-2.714-4.681-5.015-7.74-6.949-6.142-3.863-13.377-6.56-20.859-8.641-15.05-4.11-31.213-5.947-47.546-6.315-16.33-.257-33.018.937-49.243 4.541-8.079 1.857-16.103 4.261-23.389 7.853-3.62 1.804-7.051 3.922-9.85 6.486-2.791 2.561-4.875 5.618-5.434 8.868-.58 3.202.406 6.404 2.294 9.101 1.877 2.726 4.574 5.025 7.571 7.006 6.024 3.963 13.206 6.784 20.673 8.927 7.483 2.16 15.331 3.645 23.329 4.628 7.992.992 16.125 1.497 24.323 1.611 16.361.224 33.034-.994 49.33-4.468 8.114-1.779 16.188-4.169 23.567-7.762 3.668-1.795 7.126-3.964 9.963-6.582 2.836-2.605 4.965-5.764 5.511-9.077zm.195.002c-.512 3.351-2.631 6.574-5.468 9.232-2.837 2.678-6.336 4.85-9.964 6.768-7.339 3.788-15.433 6.374-23.585 8.359-16.391 3.904-33.287 5.204-49.772 4.824-16.466-.471-32.678-2.66-47.716-7.022-7.462-2.257-14.706-5.031-20.858-8.998-3.04-1.998-5.827-4.31-7.845-7.077-2.015-2.754-3.155-6.06-2.604-9.519.512-3.411 2.679-6.738 5.553-9.436 2.877-2.726 6.394-4.956 10.084-6.861 7.421-3.8 15.564-6.356 23.762-8.267 16.462-3.774 33.335-5.102 49.846-4.754 16.482.368 32.838 2.392 47.83 6.957 7.445 2.313 14.636 5.211 20.673 9.27 2.983 2.05 5.739 4.355 7.668 7.136 1.946 2.75 2.994 6.044 2.396 9.388z" fill="#9f3e85"/><path d="m512.646 42.777c.366-2.284-.387-4.503-1.746-6.362-1.364-1.865-3.246-3.456-5.372-4.774-4.272-2.653-9.284-4.488-14.467-5.895-10.44-2.766-21.591-4.021-32.881-4.269-11.271-.16-22.8.641-33.999 3.115-5.57 1.271-11.11 2.923-16.122 5.387-2.482 1.24-4.845 2.684-6.777 4.434-1.921 1.741-3.359 3.803-3.763 6.029-.407 2.175.254 4.381 1.54 6.237 1.275 1.884 3.132 3.474 5.198 4.846 4.152 2.739 9.113 4.704 14.287 6.166 10.384 2.969 21.677 4.047 32.984 4.199 11.306.133 22.812-.702 34.084-3.035 5.612-1.2 11.198-2.816 16.307-5.282 2.549-1.223 4.936-2.731 6.907-4.53 1.954-1.801 3.428-3.97 3.82-6.266zm.197.009c-.353 2.32-1.822 4.567-3.784 6.41-1.965 1.863-4.39 3.373-6.898 4.718-5.073 2.649-10.681 4.469-16.336 5.876-11.364 2.775-23.089 3.686-34.525 3.391-11.415-.352-22.626-1.95-33.044-4.978-5.161-1.577-10.187-3.494-14.468-6.243-2.112-1.388-4.05-2.98-5.473-4.904-1.413-1.913-2.229-4.223-1.855-6.661.339-2.383 1.849-4.731 3.85-6.622 1.997-1.93 4.449-3.492 7.019-4.825 5.175-2.645 10.828-4.435 16.524-5.766 11.427-2.644 23.139-3.578 34.606-3.317 11.431.256 22.785 1.677 33.156 4.913 5.148 1.633 10.116 3.669 14.28 6.517 2.052 1.441 3.968 3.031 5.303 4.974 1.343 1.903 2.066 4.194 1.645 6.517z" fill="#9f3e85"/><path d="m483.462 41.764c.348-2.346-1.508-4.272-3.635-5.518-2.173-1.282-4.703-2.155-7.327-2.808-5.256-1.279-10.834-1.86-16.469-1.96-5.627-.082-11.376.279-16.955 1.491-2.772.619-5.529 1.42-8.012 2.614-2.425 1.187-4.769 2.831-5.226 5.03-.415 2.098 1.198 4.131 3.25 5.44 2.059 1.379 4.536 2.376 7.148 3.085 5.213 1.486 10.905 1.897 16.575 1.923 5.651.037 11.387-.4 17.033-1.443 2.812-.555 5.619-1.321 8.2-2.51 2.526-1.151 4.999-2.996 5.418-5.344zm.187.004c-.403 2.418-2.888 4.344-5.364 5.682-2.547 1.379-5.367 2.352-8.222 3.108-5.739 1.539-11.69 1.978-17.483 1.801-5.763-.236-11.392-1.162-16.64-2.707-2.591-.826-5.137-1.773-7.321-3.158-2.095-1.372-4.171-3.282-3.836-5.948.156-1.195.935-2.497 1.957-3.471 1.031-1.008 2.281-1.834 3.596-2.517 2.644-1.382 5.52-2.314 8.412-2.999 5.806-1.375 11.75-1.879 17.561-1.752 5.797.162 11.545.916 16.749 2.662 2.586.88 5.064 1.955 7.14 3.43 2.013 1.436 3.85 3.452 3.451 5.869z" fill="#9f3e85"/><path d="m467.193 41.764c.146-1.035-.693-1.876-1.684-2.394-1.005-.52-2.16-.862-3.345-1.092-2.402-.433-4.849-.671-7.35-.693-2.492-.024-5.024.1-7.475.601-1.216.258-2.428.588-3.5 1.072-1.056.499-2.032 1.112-2.269 2.003-.212.792.396 1.731 1.296 2.315.89.632 2.007 1.069 3.172 1.382 2.357.627 4.926.693 7.464.634 2.505-.051 5.031-.2 7.55-.551 1.26-.189 2.518-.484 3.689-.963 1.152-.468 2.266-1.277 2.452-2.314zm.193.009c-.181 1.102-1.307 1.987-2.401 2.64-1.134.682-2.416 1.172-3.713 1.574-2.612.807-5.358 1.052-8.007.911-2.613-.182-5.146-.71-7.5-1.458-1.187-.373-2.331-.817-3.353-1.433-.968-.621-2.022-1.461-1.893-2.815.131-1.249 1.391-2.334 2.592-2.959 1.233-.671 2.561-1.126 3.901-1.451 2.678-.664 5.406-.93 8.076-.867 2.652.093 5.306.457 7.624 1.39 1.157.46 2.262.998 3.172 1.718.881.707 1.696 1.632 1.502 2.75z" fill="#9f3e85"/><path d="m351.031 31.386c23.917-27.449 107.418-30.508 107.418-30.508-65.793-1.344-122.307 16.867-126.233 40.663-3.081 18.668 27.131 35.23 72.068 42.154-29.29-5.671-75.326-26.987-53.253-52.309z" fill="#fff"/><path d="m570.375 46.403c.775-4.73-.756-9.333-3.543-13.194-2.791-3.88-6.678-7.159-11.017-9.936-8.731-5.554-19.027-9.439-29.684-12.459-21.446-5.946-44.509-8.602-67.819-9.127-11.658-.232-23.434.169-35.199 1.187-11.76 1.017-23.532 2.723-35.106 5.334-11.535 2.655-22.996 6.111-33.407 11.277-5.166 2.591-10.082 5.634-14.083 9.33-3.999 3.669-6.986 8.081-7.77 12.752-.806 4.611.64 9.194 3.366 13.029 2.722 3.89 6.573 7.157 10.84 9.995 8.595 5.663 18.825 9.689 29.474 12.764 10.677 3.088 21.852 5.229 33.241 6.661 11.395 1.452 22.988 2.206 34.68 2.397 23.343.353 47.143-1.402 70.389-6.448 11.574-2.571 23.084-6.018 33.584-11.185 5.224-2.577 10.161-5.678 14.203-9.422 4.034-3.716 7.071-8.225 7.851-12.955zm.195.002c-.743 4.762-3.769 9.341-7.808 13.111-4.044 3.804-9.014 6.912-14.203 9.607-10.457 5.361-21.988 8.998-33.603 11.783-23.34 5.482-47.363 7.312-70.832 6.797-23.437-.622-46.559-3.635-67.986-9.842-10.624-3.192-20.95-7.137-29.713-12.776-4.341-2.842-8.291-6.12-11.127-10.069-2.831-3.924-4.41-8.629-3.612-13.502.737-4.826 3.813-9.502 7.887-13.326 4.088-3.854 9.086-7.007 14.322-9.699 10.544-5.368 22.122-8.982 33.784-11.692 23.408-5.345 47.411-7.211 70.912-6.722 23.457.518 46.719 3.368 68.096 9.764 10.616 3.254 20.868 7.34 29.503 13.087 4.26 2.899 8.181 6.177 10.939 10.137 2.776 3.904 4.277 8.58 3.441 13.342z" fill="#9f3e85"/><path d="m454.205 25.121c-9.036 1.055-18.119 1.942-26.219 4.766-2.016.707-3.931 1.544-5.76 2.467-1.799.962-3.553 2.026-4.856 3.181-2.746 2.327-3.65 4.982-2.345 7.552 1.159 2.597 4.031 4.85 7.309 6.459 3.385 1.69 7.241 2.912 11.229 3.953 8.094 1.998 16.686 3.172 25.569 3.878-9.073 1.229-18.3 1.074-27.14-.329-4.464-.684-8.766-1.919-12.839-3.601-4.021-1.851-7.737-4.437-9.666-8.338-.895-1.963-1.154-4.332-.344-6.616.791-2.293 2.486-4.326 4.462-5.856 1.995-1.559 4.141-2.692 6.323-3.719 2.201-1.013 4.518-1.794 6.838-2.411 9.377-2.449 18.645-2.238 27.439-1.386z" fill="#fff"/><path d="m498.192 64.318c-.656.147-1.311.287-1.964.422-2.687.527-5.362.973-8.026 1.397-2.661.429-5.36.847-8.046 1.15-5.37.652-10.758 1.018-16.1 1.057-5.337.064-10.648-.155-15.817-.78 5.287.151 10.586.069 15.897-.32 5.301-.392 10.596-1.02 15.852-1.864 4.155-.688 8.348-1.504 12.476-2.425 1.076-.241 2.147-.488 3.212-.742 5.148-1.196 10.171-2.759 14.598-5.02 4.372-2.242 8.262-5.393 10.085-8.991 1.884-3.632 1.256-7.639-.816-11.027-1.025-1.709-2.403-3.294-4.013-4.708-.8-.705-1.672-1.354-2.575-2.003-.926-.684-1.813-1.303-2.795-1.928-3.86-2.455-8.007-4.7-12.651-6.439 5.195.686 10.079 2.345 14.474 4.522 4.431 2.096 8.362 5.208 10.865 9.027 1.266 1.92 2.128 4.074 2.38 6.379.26 2.302-.154 4.748-1.276 7.036-1.116 2.313-2.886 4.35-4.976 6.109-2.06 1.766-4.424 3.282-6.924 4.533-4.412 2.195-9.16 3.566-13.86 4.615z" fill="#b56ca3"/><path d="m489.09 7.298c-3.256-.662-6.535-1.295-9.835-1.914 1.521.008 3.04.037 4.556.087 1.693.556 3.463 1.165 5.279 1.827z" fill="#b56ca3"/><path d="m545.741 64.214c4.112-3.444 7.879-7.147 10.212-11.228.568-.998 1.102-2.073 1.479-3.054.465-1.159.678-2.063.885-3.145.351-2.082.359-4.168-.103-6.161-.915-3.983-3.177-7.671-6.401-10.689-1.602-1.509-3.371-2.914-5.352-4.114-.978-.592-2.029-1.148-3.065-1.642-1.175-.543-2.335-1.062-3.474-1.559-4.586-2.068-9.355-3.931-14.238-5.623-4.841-1.754-9.884-3.212-14.95-4.647-7.056-1.925-14.289-3.56-21.644-5.054-1.816-.662-3.586-1.271-5.279-1.827 9.735.316 19.344 1.465 28.653 3.357 5.407 1.048 10.644 2.469 15.807 4.033 5.123 1.632 10.094 3.509 14.912 5.611 1.218.552 2.382 1.103 3.524 1.653 1.261.608 2.427 1.264 3.563 1.973 2.238 1.425 4.309 3.027 6.022 4.866 3.423 3.641 5.946 8.002 6.443 12.824.28 2.39.097 4.87-.659 7.281-.371 1.158-.921 2.487-1.485 3.503-.647 1.193-1.34 2.257-2.154 3.33-3.302 4.212-7.805 7.611-12.696 10.312z" fill="#b3619d"/><path d="m460.982 43.499c-1.028.229-2 .326-2.974.375-2.279.1-4.499-.011-6.657-.353 2.249-.311 4.466-.536 6.618-.864.672-.118 1.353-.226 1.991-.369.377-.084.739-.18 1.075-.297.451-.14.858-.363.887-.442.001-.001.002-.003.004-.005l-.015-.117c-.001.01-.002.015-.005.016-.016.003-.062-.12-.152-.173-.418-.394-1.437-.694-2.386-.891-.972-.224-2.022-.36-3.067-.509l-6.436-.752c2.247-.376 4.491-.515 6.741-.463 1.123.013 2.237.114 3.367.284 1.105.214 2.256.405 3.309 1.239.257.239.45.46.559.95l.015.161c.01.044-.01.24-.034.357-.061.278-.192.451-.33.647-.65.686-1.351.882-1.96 1.071-.186.05-.369.094-.55.135zm.944-1.948c-.001.004-.003.007-.005.012-.009.002.006.051.011.05.001 0 .002-.005 0-.02z" fill="#b56ca3"/></g></svg>