<?xml version="1.0" encoding="UTF-8" standalone="no"?><!DOCTYPE svg PUBLIC "-//W3C//DTD SVG 1.1//EN" "http://www.w3.org/Graphics/SVG/1.1/DTD/svg11.dtd"><svg width="100%" height="100%" viewBox="0 0 522 209" version="1.1" xmlns="http://www.w3.org/2000/svg" xmlns:xlink="http://www.w3.org/1999/xlink" xml:space="preserve" xmlns:serif="http://www.serif.com/" style="fill-rule:evenodd;clip-rule:evenodd;stroke-linejoin:round;stroke-miterlimit:1.41421;"><g id="pain-charbon-courge"><g id="base-pain-charbon"><path id="pain-charbon" d="M0,208.341c0,-98.112 112.715,-208.341 256.133,-208.341c143.418,0 265.388,110.229 265.388,208.341l-521.521,0Z" style="fill:#56514c;fill-rule:nonzero;"/><path d="M415.12,50.521c-31.131,82.42 -102.718,130.595 -164.006,157.82l270.407,0c-1.178,-63.116 -53.085,-128.792 -106.401,-157.82Z" style="fill:#4d4844;fill-rule:nonzero;"/><path d="M23.923,188.883c0,0 31.592,-139.426 188.033,-170.405c0,0 -117.403,65.725 -188.033,170.405Z" style="fill:#706a63;fill-rule:nonzero;"/></g><g id="courge"><path id="_-Curve-" serif:id="(Curve)" d="M372.693,67.523c16.993,-2.365 31.638,1.957 32.71,9.656c1.072,7.699 -11.834,15.86 -28.827,18.225c-16.995,2.366 -31.639,-1.956 -32.712,-9.655c-1.07,-7.7 11.834,-15.86 28.829,-18.226Z" style="fill:url(#_Linear1);fill-rule:nonzero;"/><path id="_-Curve-1" serif:id="(Curve)" d="M368.821,20.362c14.751,8.761 23.493,21.281 19.524,27.964c-3.969,6.684 -19.146,5.002 -33.897,-3.76c-14.753,-8.761 -23.495,-21.281 -19.526,-27.964c3.971,-6.684 19.146,-5.001 33.899,3.76Z" style="fill:url(#_Linear2);fill-rule:nonzero;"/><path id="_-Curve-2" serif:id="(Curve)" d="M242.294,3.074c16.322,-5.289 31.495,-3.583 33.892,3.811c2.397,7.394 -8.891,17.679 -25.212,22.967c-16.323,5.291 -31.496,3.585 -33.893,-3.809c-2.395,-7.396 8.891,-17.679 25.213,-22.969Z" style="fill:url(#_Linear3);fill-rule:nonzero;"/><path id="_-Curve-3" serif:id="(Curve)" d="M116.198,111.019c12.731,-11.501 27.275,-16.15 32.486,-10.382c5.211,5.767 -0.883,19.768 -13.614,31.27c-12.732,11.503 -27.276,16.152 -32.487,10.384c-5.211,-5.769 0.883,-19.768 13.615,-31.272Z" style="fill:url(#_Linear4);fill-rule:nonzero;"/><path id="_-Curve-4" serif:id="(Curve)" d="M196.78,143.445c14.568,9.062 23.051,21.758 18.946,28.359c-4.105,6.601 -19.244,4.608 -33.813,-4.454c-14.57,-9.062 -23.053,-21.758 -18.948,-28.358c4.107,-6.601 19.244,-4.608 33.815,4.453Z" style="fill:url(#_Linear5);fill-rule:nonzero;"/><path id="_-Curve-5" serif:id="(Curve)" d="M131.198,31.351c12.731,-11.502 27.275,-16.151 32.486,-10.383c5.211,5.767 -0.883,19.769 -13.614,31.27c-12.732,11.503 -27.276,16.152 -32.487,10.384c-5.211,-5.769 0.883,-19.768 13.615,-31.271Z" style="fill:url(#_Linear6);fill-rule:nonzero;"/><path id="_-Curve-6" serif:id="(Curve)" d="M39.479,92.777c8.654,-14.815 21.11,-23.647 27.822,-19.727c6.712,3.921 5.141,19.109 -3.514,33.924c-8.653,14.816 -21.109,23.649 -27.821,19.728c-6.712,-3.922 -5.14,-19.109 3.513,-33.925Z" style="fill:url(#_Linear7);fill-rule:nonzero;"/><path id="_-Curve-7" serif:id="(Curve)" d="M206.088,80.857c11.363,-12.854 25.295,-19.102 31.119,-13.954c5.825,5.147 1.336,19.743 -10.027,32.597c-11.364,12.856 -25.296,19.105 -31.12,13.957c-5.824,-5.15 -1.336,-19.744 10.028,-32.6Z" style="fill:url(#_Linear8);fill-rule:nonzero;"/><path id="_-Curve-8" serif:id="(Curve)" d="M278.7,70.38c-6.338,-15.944 -5.622,-31.196 1.601,-34.068c7.224,-2.872 18.219,7.723 24.557,23.667c6.34,15.944 5.624,31.196 -1.599,34.068c-7.225,2.871 -18.219,-7.723 -24.559,-23.667Z" style="fill:url(#_Linear9);fill-rule:nonzero;"/><path id="_-Curve-9" serif:id="(Curve)" d="M336.059,115.623c17.153,0.34 30.935,6.915 30.781,14.687c-0.153,7.771 -14.184,13.798 -31.337,13.458c-17.155,-0.34 -30.937,-6.914 -30.783,-14.686c0.155,-7.773 14.184,-13.798 31.339,-13.459Z" style="fill:url(#_Linear10);fill-rule:nonzero;"/><path id="_-Curve-10" serif:id="(Curve)" d="M237.066,125.427c3.864,-16.716 13.135,-28.849 20.708,-27.099c7.574,1.75 10.584,16.72 6.719,33.437c-3.863,16.717 -13.134,28.85 -20.707,27.1c-7.575,-1.752 -10.583,-16.72 -6.72,-33.438Z" style="fill:url(#_Linear11);fill-rule:nonzero;"/><path id="_-Curve-11" serif:id="(Curve)" d="M392.557,135.835c5.453,-16.267 15.847,-27.453 23.217,-24.983c7.37,2.47 8.927,17.66 3.474,33.928c-5.452,16.269 -15.846,27.454 -23.216,24.984c-7.371,-2.472 -8.927,-17.66 -3.475,-33.929Z" style="fill:url(#_Linear12);fill-rule:nonzero;"/><path id="_-Curve-12" serif:id="(Curve)" d="M469.094,157.018c-4.36,-16.593 -1.801,-31.647 5.717,-33.623c7.517,-1.976 17.149,9.874 21.509,26.468c4.361,16.594 1.803,31.648 -5.715,33.624c-7.52,1.974 -17.149,-9.874 -21.511,-26.469Z" style="fill:url(#_Linear13);fill-rule:nonzero;"/></g></g><defs><linearGradient id="_Linear1" x1="0" y1="0" x2="1" y2="0" gradientUnits="userSpaceOnUse" gradientTransform="matrix(-33.7362,-30.4105,34.0885,-37.8165,391.502,96.6692)"><stop offset="0" style="stop-color:#bdba00;stop-opacity:1"/><stop offset="1" style="stop-color:#021d00;stop-opacity:1"/></linearGradient><linearGradient id="_Linear2" x1="0" y1="0" x2="1" y2="0" gradientUnits="userSpaceOnUse" gradientTransform="matrix(-7.36774,-44.8179,50.2384,-8.25884,365.317,54.873)"><stop offset="0" style="stop-color:#bdba00;stop-opacity:1"/><stop offset="1" style="stop-color:#021d00;stop-opacity:1"/></linearGradient><linearGradient id="_Linear3" x1="0" y1="0" x2="1" y2="0" gradientUnits="userSpaceOnUse" gradientTransform="matrix(-38.5172,-24.0697,26.9809,-43.1757,265.892,28.4989)"><stop offset="0" style="stop-color:#bdba00;stop-opacity:1"/><stop offset="1" style="stop-color:#021d00;stop-opacity:1"/></linearGradient><linearGradient id="_Linear4" x1="0" y1="0" x2="1" y2="0" gradientUnits="userSpaceOnUse" gradientTransform="matrix(-44.9926,-6.21245,6.96382,-50.4343,148.13,124.57)"><stop offset="0" style="stop-color:#bdba00;stop-opacity:1"/><stop offset="1" style="stop-color:#021d00;stop-opacity:1"/></linearGradient><linearGradient id="_Linear5" x1="0" y1="0" x2="1" y2="0" gradientUnits="userSpaceOnUse" gradientTransform="matrix(-6.44797,-44.9595,50.3971,-7.22782,192.57,177.878)"><stop offset="0" style="stop-color:#bdba00;stop-opacity:1"/><stop offset="1" style="stop-color:#021d00;stop-opacity:1"/></linearGradient><linearGradient id="_Linear6" x1="0" y1="0" x2="1" y2="0" gradientUnits="userSpaceOnUse" gradientTransform="matrix(-44.9926,-6.21245,6.96382,-50.4343,163.13,44.9013)"><stop offset="0" style="stop-color:#bdba00;stop-opacity:1"/><stop offset="1" style="stop-color:#021d00;stop-opacity:1"/></linearGradient><linearGradient id="_Linear7" x1="0" y1="0" x2="1" y2="0" gradientUnits="userSpaceOnUse" gradientTransform="matrix(-44.7631,7.6937,-8.62422,-50.177,74.0151,96.0295)"><stop offset="0" style="stop-color:#bdba00;stop-opacity:1"/><stop offset="1" style="stop-color:#021d00;stop-opacity:1"/></linearGradient><linearGradient id="_Linear8" x1="0" y1="0" x2="1" y2="0" gradientUnits="userSpaceOnUse" gradientTransform="matrix(-45.4053,-1.13595,1.27333,-50.8968,239.336,90.7476)"><stop offset="0" style="stop-color:#bdba00;stop-opacity:1"/><stop offset="1" style="stop-color:#021d00;stop-opacity:1"/></linearGradient><linearGradient id="_Linear9" x1="0" y1="0" x2="1" y2="0" gradientUnits="userSpaceOnUse" gradientTransform="matrix(-21.5166,39.9996,-44.8373,-24.1189,302.538,45.1798)"><stop offset="0" style="stop-color:#bdba00;stop-opacity:1"/><stop offset="1" style="stop-color:#021d00;stop-opacity:1"/></linearGradient><linearGradient id="_Linear10" x1="0" y1="0" x2="1" y2="0" gradientUnits="userSpaceOnUse" gradientTransform="matrix(-28.5262,-35.3438,39.6185,-31.9763,350.043,147.368)"><stop offset="0" style="stop-color:#bdba00;stop-opacity:1"/><stop offset="1" style="stop-color:#021d00;stop-opacity:1"/></linearGradient><linearGradient id="_Linear11" x1="0" y1="0" x2="1" y2="0" gradientUnits="userSpaceOnUse" gradientTransform="matrix(-40.4589,20.64,-23.1363,-45.3522,271.009,118.277)"><stop offset="0" style="stop-color:#bdba00;stop-opacity:1"/><stop offset="1" style="stop-color:#021d00;stop-opacity:1"/></linearGradient><linearGradient id="_Linear12" x1="0" y1="0" x2="1" y2="0" gradientUnits="userSpaceOnUse" gradientTransform="matrix(-42.2554,16.6556,-18.67,-47.366,427.031,131.98)"><stop offset="0" style="stop-color:#bdba00;stop-opacity:1"/><stop offset="1" style="stop-color:#021d00;stop-opacity:1"/></linearGradient><linearGradient id="_Linear13" x1="0" y1="0" x2="1" y2="0" gradientUnits="userSpaceOnUse" gradientTransform="matrix(-26.2033,37.0987,-41.5856,-29.3725,495.809,134.892)"><stop offset="0" style="stop-color:#bdba00;stop-opacity:1"/><stop offset="1" style="stop-color:#021d00;stop-opacity:1"/></linearGradient></defs></svg>