<?xml version="1.0" encoding="UTF-8" standalone="no"?><!DOCTYPE svg PUBLIC "-//W3C//DTD SVG 1.1//EN" "http://www.w3.org/Graphics/SVG/1.1/DTD/svg11.dtd"><svg width="100%" height="100%" viewBox="0 0 525 213" version="1.1" xmlns="http://www.w3.org/2000/svg" xmlns:xlink="http://www.w3.org/1999/xlink" xml:space="preserve" xmlns:serif="http://www.serif.com/" style="fill-rule:evenodd;clip-rule:evenodd;stroke-linejoin:round;stroke-miterlimit:1.41421;"><g id="pain-charbon-sesame"><g id="base-pain-charbon"><path id="pain-charbon" d="M0,212.162c0,-98.112 112.715,-208.341 256.133,-208.341c143.418,0 265.388,110.229 265.388,208.341l-521.521,0Z" style="fill:#56514c;fill-rule:nonzero;"/><path d="M415.12,54.342c-31.131,82.42 -102.718,130.595 -164.006,157.82l270.407,0c-1.178,-63.116 -53.085,-128.792 -106.401,-157.82Z" style="fill:#4d4844;fill-rule:nonzero;"/><path d="M23.923,192.704c0,0 31.592,-139.426 188.033,-170.405c0,0 -117.403,65.725 -188.033,170.405Z" style="fill:#706a63;fill-rule:nonzero;"/></g><g id="sesame"><path d="M80.467,113.366c-3.044,7.512 -8.27,12.483 -11.674,11.103c-3.402,-1.377 -3.693,-8.585 -0.649,-16.096c3.044,-7.511 8.27,-12.482 11.673,-11.103c3.403,1.379 3.694,8.586 0.65,16.096Z" style="fill:url(#_Linear1);fill-rule:nonzero;"/><path d="M112.67,62.318c-3.044,7.511 -8.271,12.482 -11.674,11.102c-3.402,-1.377 -3.693,-8.585 -0.649,-16.095c3.043,-7.512 8.27,-12.482 11.673,-11.103c3.403,1.379 3.694,8.585 0.65,16.096Z" style="fill:url(#_Linear2);fill-rule:nonzero;"/><path d="M142.323,66.42c-8.044,0.992 -14.929,-1.158 -15.378,-4.802c-0.451,-3.643 5.706,-7.402 13.749,-8.394c8.043,-0.993 14.928,1.156 15.378,4.8c0.449,3.644 -5.706,7.403 -13.749,8.396Z" style="fill:url(#_Linear3);fill-rule:nonzero;"/><path d="M210.073,42.27c-8.045,0.992 -14.93,-1.158 -15.379,-4.802c-0.45,-3.643 5.707,-7.402 13.749,-8.394c8.044,-0.993 14.929,1.156 15.378,4.8c0.45,3.644 -5.706,7.403 -13.748,8.396Z" style="fill:url(#_Linear4);fill-rule:nonzero;"/><path d="M224.454,13.438c-8.045,0.993 -14.929,-1.157 -15.379,-4.802c-0.45,-3.642 5.707,-7.401 13.749,-8.394c8.044,-0.993 14.929,1.157 15.378,4.801c0.45,3.644 -5.706,7.403 -13.748,8.395Z" style="fill:url(#_Linear5);fill-rule:nonzero;"/><path d="M162.923,84.741c-5.181,-6.233 -7.092,-13.188 -4.267,-15.535c2.821,-2.348 9.311,0.803 14.491,7.035c5.181,6.232 7.092,13.187 4.269,15.534c-2.824,2.347 -9.313,-0.802 -14.493,-7.034Z" style="fill:url(#_Linear6);fill-rule:nonzero;"/><path d="M255.917,95.075c-5.181,-6.233 -7.092,-13.188 -4.267,-15.535c2.822,-2.347 9.311,0.803 14.491,7.035c5.182,6.232 7.092,13.187 4.269,15.534c-2.824,2.347 -9.312,-0.802 -14.493,-7.034Z" style="fill:url(#_Linear7);fill-rule:nonzero;"/><path d="M322.547,103.959c-5.181,-6.233 -7.091,-13.188 -4.267,-15.535c2.822,-2.347 9.311,0.803 14.491,7.035c5.182,6.232 7.092,13.187 4.269,15.534c-2.824,2.348 -9.312,-0.802 -14.493,-7.034Z" style="fill:url(#_Linear8);fill-rule:nonzero;"/><path d="M333.676,143.793c-5.181,-6.233 -7.092,-13.188 -4.267,-15.535c2.822,-2.347 9.311,0.803 14.491,7.035c5.182,6.232 7.092,13.187 4.269,15.534c-2.824,2.348 -9.313,-0.802 -14.493,-7.034Z" style="fill:url(#_Linear9);fill-rule:nonzero;"/><path d="M320.278,194.243c3.885,-7.113 9.646,-11.453 12.869,-9.692c3.222,1.758 2.685,8.952 -1.199,16.064c-3.884,7.113 -9.645,11.453 -12.868,9.693c-3.222,-1.76 -2.686,-8.953 1.198,-16.065Z" style="fill:url(#_Linear10);fill-rule:nonzero;"/><path d="M255.917,42.518c-5.181,-6.233 -7.092,-13.188 -4.267,-15.535c2.822,-2.347 9.311,0.803 14.491,7.035c5.182,6.232 7.092,13.187 4.269,15.534c-2.824,2.347 -9.312,-0.802 -14.493,-7.034Z" style="fill:url(#_Linear11);fill-rule:nonzero;"/><path d="M252.755,135.242c-5.181,-6.233 -7.092,-13.188 -4.267,-15.535c2.821,-2.348 9.311,0.803 14.491,7.035c5.181,6.231 7.092,13.186 4.268,15.534c-2.823,2.347 -9.312,-0.802 -14.492,-7.034Z" style="fill:url(#_Linear12);fill-rule:nonzero;"/><path d="M254.447,194.7c-5.181,-6.233 -7.092,-13.188 -4.267,-15.536c2.821,-2.347 9.311,0.803 14.491,7.035c5.181,6.232 7.092,13.187 4.268,15.535c-2.823,2.347 -9.312,-0.803 -14.492,-7.034Z" style="fill:url(#_Linear13);fill-rule:nonzero;"/><path d="M291.284,114.142c5.589,-5.869 12.275,-8.575 14.934,-6.042c2.659,2.53 0.284,9.342 -5.305,15.21c-5.588,5.87 -12.274,8.575 -14.933,6.043c-2.659,-2.532 -0.285,-9.342 5.304,-15.211Z" style="fill:url(#_Linear14);fill-rule:nonzero;"/><path d="M464.923,107.743c-5.181,-6.233 -7.092,-13.188 -4.267,-15.535c2.821,-2.347 9.311,0.803 14.491,7.035c5.181,6.232 7.092,13.187 4.269,15.534c-2.824,2.347 -9.313,-0.802 -14.493,-7.034Z" style="fill:url(#_Linear15);fill-rule:nonzero;"/><path d="M443.199,144.7c0.672,-8.077 4.182,-14.378 7.842,-14.073c3.657,0.302 6.08,7.097 5.409,15.173c-0.671,8.077 -4.181,14.377 -7.84,14.073c-3.659,-0.304 -6.082,-7.097 -5.411,-15.173Z" style="fill:url(#_Linear16);fill-rule:nonzero;"/><path d="M400.728,89.274c0.671,-8.077 4.182,-14.378 7.842,-14.073c3.657,0.302 6.08,7.097 5.409,15.173c-0.671,8.077 -4.181,14.378 -7.84,14.073c-3.66,-0.304 -6.082,-7.097 -5.411,-15.173Z" style="fill:url(#_Linear17);fill-rule:nonzero;"/><path d="M423.682,191.389c6.939,-4.188 14.102,-5.034 15.999,-1.89c1.898,3.142 -2.19,9.086 -9.128,13.273c-6.938,4.188 -14.101,5.035 -15.998,1.891c-1.897,-3.143 2.189,-9.087 9.127,-13.274Z" style="fill:url(#_Linear18);fill-rule:nonzero;"/><path d="M404.1,167.458c6.715,-4.54 13.825,-5.754 15.881,-2.711c2.057,3.039 -1.719,9.186 -8.432,13.725c-6.714,4.54 -13.824,5.754 -15.88,2.712c-2.057,-3.042 1.718,-9.187 8.431,-13.726Z" style="fill:url(#_Linear19);fill-rule:nonzero;"/><path d="M362.769,31.864c-7.956,-1.544 -13.839,-5.718 -13.138,-9.323c0.697,-3.603 7.715,-5.274 15.671,-3.73c7.956,1.544 13.838,5.717 13.139,9.322c-0.7,3.604 -7.716,5.275 -15.672,3.731Z" style="fill:url(#_Linear20);fill-rule:nonzero;"/><path d="M44.18,174.583c-1.706,7.924 -5.998,13.72 -9.588,12.947c-3.589,-0.771 -5.116,-7.821 -3.411,-15.744c1.705,-7.923 5.998,-13.719 9.587,-12.946c3.59,0.772 5.117,7.821 3.412,15.743Z" style="fill:url(#_Linear21);fill-rule:nonzero;"/><path d="M118.967,174.583c-1.706,7.924 -5.998,13.72 -9.588,12.947c-3.588,-0.771 -5.116,-7.821 -3.41,-15.744c1.704,-7.923 5.997,-13.719 9.586,-12.946c3.59,0.772 5.118,7.821 3.412,15.743Z" style="fill:url(#_Linear22);fill-rule:nonzero;"/><path d="M155.815,190.358c-6.133,5.299 -13.051,7.342 -15.451,4.563c-2.401,-2.776 0.625,-9.325 6.757,-14.623c6.132,-5.299 13.049,-7.342 15.45,-4.564c2.4,2.779 -0.624,9.326 -6.756,14.624Z" style="fill:url(#_Linear23);fill-rule:nonzero;"/><path d="M213.45,178.757c8.011,-1.231 14.956,0.714 15.513,4.344c0.559,3.628 -5.484,7.567 -13.494,8.797c-8.011,1.231 -14.956,-0.713 -15.514,-4.343c-0.557,-3.629 5.485,-7.568 13.495,-8.798Z" style="fill:url(#_Linear24);fill-rule:nonzero;"/><path d="M218.807,134.795c-6.133,5.299 -13.051,7.342 -15.451,4.562c-2.401,-2.776 0.625,-9.324 6.757,-14.623c6.132,-5.299 13.049,-7.342 15.45,-4.563c2.4,2.778 -0.624,9.326 -6.756,14.624Z" style="fill:url(#_Linear25);fill-rule:nonzero;"/><path d="M150.88,138.501c-7.514,-3.039 -12.488,-8.262 -11.111,-11.666c1.375,-3.403 8.583,-3.699 16.096,-0.661c7.513,3.038 12.488,8.261 11.111,11.665c-1.377,3.404 -8.583,3.7 -16.096,0.662Z" style="fill:url(#_Linear26);fill-rule:nonzero;"/><path d="M114.077,127.583c-1.705,7.924 -5.998,13.72 -9.588,12.947c-3.588,-0.771 -5.116,-7.821 -3.41,-15.744c1.705,-7.923 5.997,-13.719 9.587,-12.946c3.589,0.772 5.117,7.821 3.411,15.743Z" style="fill:url(#_Linear27);fill-rule:nonzero;"/><path d="M42.593,125.441c-5.214,6.204 -11.719,9.319 -14.53,6.957c-2.811,-2.362 -0.864,-9.307 4.35,-15.511c5.214,-6.205 11.719,-9.32 14.53,-6.958c2.811,2.363 0.864,9.307 -4.35,15.512Z" style="fill:url(#_Linear28);fill-rule:nonzero;"/><path d="M84.843,77.492c-5.214,6.204 -11.719,9.319 -14.53,6.957c-2.811,-2.362 -0.864,-9.307 4.35,-15.511c5.214,-6.205 11.719,-9.32 14.53,-6.958c2.811,2.363 0.864,9.307 -4.35,15.512Z" style="fill:url(#_Linear29);fill-rule:nonzero;"/><path d="M82.415,148.46c-0.797,8.065 -4.405,14.31 -8.059,13.949c-3.654,-0.361 -5.97,-7.191 -5.173,-15.256c0.797,-8.066 4.405,-14.311 8.059,-13.95c3.654,0.362 5.97,7.192 5.173,15.257Z" style="fill:url(#_Linear30);fill-rule:nonzero;"/><path d="M144.707,105.963c-7.443,3.206 -14.654,3.072 -16.107,-0.299c-1.453,-3.372 3.403,-8.706 10.846,-11.912c7.443,-3.207 14.654,-3.074 16.107,0.298c1.452,3.373 -3.402,8.706 -10.846,11.913Z" style="fill:url(#_Linear31);fill-rule:nonzero;"/><path d="M400.746,39.011c6.758,4.473 10.594,10.581 8.568,13.643c-2.027,3.062 -9.148,1.919 -15.906,-2.554c-6.759,-4.473 -10.595,-10.581 -8.568,-13.643c2.027,-3.062 9.148,-1.919 15.906,2.554Z" style="fill:url(#_Linear32);fill-rule:nonzero;"/><path d="M183.569,121.756c-7.443,3.206 -14.654,3.072 -16.107,-0.3c-1.453,-3.371 3.402,-8.705 10.845,-11.912c7.443,-3.207 14.654,-3.073 16.107,0.299c1.453,3.373 -3.402,8.706 -10.845,11.913Z" style="fill:url(#_Linear33);fill-rule:nonzero;"/><path d="M293.21,76.443c-7.443,3.206 -14.654,3.073 -16.107,-0.299c-1.453,-3.372 3.403,-8.706 10.845,-11.912c7.444,-3.207 14.655,-3.073 16.108,0.298c1.452,3.373 -3.403,8.706 -10.846,11.913Z" style="fill:url(#_Linear34);fill-rule:nonzero;"/><path d="M195.363,57.181c1.286,8.001 -0.61,14.96 -4.235,15.543c-3.625,0.583 -7.607,-5.431 -8.893,-13.433c-1.286,-8.002 0.61,-14.96 4.235,-15.543c3.626,-0.582 7.607,5.431 8.893,13.433Z" style="fill:url(#_Linear35);fill-rule:nonzero;"/><path d="M234.131,64.519c-7.658,-2.652 -12.893,-7.613 -11.692,-11.083c1.201,-3.469 8.383,-4.134 16.041,-1.483c7.659,2.651 12.894,7.612 11.693,11.082c-1.202,3.47 -8.383,4.134 -16.042,1.484Z" style="fill:url(#_Linear36);fill-rule:nonzero;"/><path d="M272.072,14.189c-7.658,-2.651 -12.893,-7.612 -11.692,-11.082c1.2,-3.469 8.382,-4.134 16.041,-1.483c7.659,2.651 12.893,7.612 11.693,11.082c-1.202,3.47 -8.383,4.134 -16.042,1.483Z" style="fill:url(#_Linear37);fill-rule:nonzero;"/><path d="M322.131,20.775c-7.658,-2.651 -12.893,-7.613 -11.692,-11.082c1.201,-3.47 8.383,-4.135 16.041,-1.484c7.659,2.651 12.894,7.613 11.693,11.082c-1.202,3.47 -8.383,4.135 -16.042,1.484Z" style="fill:url(#_Linear38);fill-rule:nonzero;"/><path d="M223.167,106.211c-7.856,-1.989 -13.494,-6.486 -12.594,-10.045c0.901,-3.559 8,-4.834 15.857,-2.845c7.857,1.988 13.495,6.485 12.595,10.045c-0.902,3.56 -8,4.834 -15.858,2.845Z" style="fill:url(#_Linear39);fill-rule:nonzero;"/><path d="M455.344,76.296c5.964,5.487 8.784,12.125 6.298,14.827c-2.486,2.703 -9.336,0.446 -15.3,-5.042c-5.965,-5.487 -8.784,-12.125 -6.299,-14.827c2.487,-2.702 9.337,-0.446 15.301,5.042Z" style="fill:url(#_Linear40);fill-rule:nonzero;"/><path d="M73.937,182.147c3.114,7.482 2.891,14.691 -0.499,16.102c-3.39,1.411 -8.663,-3.51 -11.776,-10.992c-3.115,-7.483 -2.892,-14.691 0.498,-16.102c3.391,-1.411 8.663,3.51 11.777,10.992Z" style="fill:url(#_Linear41);fill-rule:nonzero;"/><path d="M13.954,186.533c-2.232,7.79 -6.902,13.287 -10.431,12.276c-3.53,-1.011 -4.584,-8.146 -2.352,-15.937c2.231,-7.791 6.901,-13.288 10.431,-12.277c3.53,1.011 4.583,8.146 2.352,15.938Z" style="fill:url(#_Linear42);fill-rule:nonzero;"/><path d="M119.508,88.922c-0.798,8.065 -4.405,14.31 -8.059,13.949c-3.654,-0.361 -5.971,-7.191 -5.173,-15.256c0.797,-8.066 4.405,-14.311 8.058,-13.95c3.655,0.362 5.971,7.192 5.174,15.257Z" style="fill:url(#_Linear43);fill-rule:nonzero;"/><path d="M143.378,39.195c-7.108,3.892 -14.3,4.437 -16.063,1.217c-1.764,-3.22 2.568,-8.987 9.677,-12.879c7.108,-3.893 14.3,-4.438 16.064,-1.218c1.763,3.221 -2.569,8.987 -9.678,12.88Z" style="fill:url(#_Linear44);fill-rule:nonzero;"/><path d="M189.753,21.529c-7.875,1.911 -14.961,0.569 -15.828,-2.999c-0.866,-3.568 4.816,-8.011 12.691,-9.923c7.876,-1.912 14.963,-0.57 15.829,2.998c0.866,3.569 -4.816,8.011 -12.692,9.924Z" style="fill:url(#_Linear45);fill-rule:nonzero;"/><path d="M137.559,146.13c2.918,7.561 2.508,14.761 -0.917,16.084c-3.425,1.322 -8.569,-3.734 -11.487,-11.295c-2.919,-7.56 -2.509,-14.761 0.916,-16.084c3.426,-1.321 8.569,3.734 11.488,11.295Z" style="fill:url(#_Linear46);fill-rule:nonzero;"/><path d="M194.583,163.221c-8.1,0.244 -14.756,-2.533 -14.867,-6.203c-0.111,-3.67 6.366,-6.844 14.467,-7.087c8.101,-0.245 14.757,2.532 14.868,6.202c0.11,3.671 -6.366,6.844 -14.468,7.088Z" style="fill:url(#_Linear47);fill-rule:nonzero;"/><path d="M299.759,158.756c-8.1,0.243 -14.757,-2.534 -14.867,-6.204c-0.111,-3.67 6.366,-6.844 14.466,-7.087c8.101,-0.244 14.758,2.532 14.868,6.202c0.11,3.671 -6.366,6.844 -14.467,7.089Z" style="fill:url(#_Linear48);fill-rule:nonzero;"/><path d="M356.681,177.124c-6.578,-4.732 -10.174,-10.984 -8.03,-13.965c2.144,-2.981 9.215,-1.562 15.794,3.171c6.58,4.732 10.175,10.984 8.032,13.965c-2.145,2.981 -9.216,1.562 -15.796,-3.171Z" style="fill:url(#_Linear49);fill-rule:nonzero;"/><path d="M299.699,187.584c-8.1,0.244 -14.756,-2.533 -14.867,-6.203c-0.111,-3.67 6.366,-6.844 14.467,-7.087c8.101,-0.245 14.757,2.532 14.868,6.202c0.11,3.671 -6.367,6.844 -14.468,7.088Z" style="fill:url(#_Linear50);fill-rule:nonzero;"/><path d="M248.585,167.953c-5.045,-6.342 -6.806,-13.336 -3.932,-15.622c2.873,-2.286 9.293,1.002 14.337,7.344c5.046,6.343 6.807,13.337 3.933,15.623c-2.874,2.286 -9.293,-1.002 -14.338,-7.345Z" style="fill:url(#_Linear51);fill-rule:nonzero;"/><path d="M306.087,47.389c-8.066,-0.779 -14.32,-4.372 -13.967,-8.027c0.352,-3.654 7.178,-5.987 15.244,-5.208c8.067,0.779 14.321,4.372 13.968,8.027c-0.353,3.655 -7.177,5.987 -15.245,5.208Z" style="fill:url(#_Linear52);fill-rule:nonzero;"/><path d="M338.079,66.867c-1.062,-8.035 1.027,-14.938 4.667,-15.419c3.64,-0.482 7.453,5.641 8.515,13.675c1.063,8.035 -1.026,14.938 -4.666,15.419c-3.641,0.481 -7.453,-5.641 -8.516,-13.675Z" style="fill:url(#_Linear53);fill-rule:nonzero;"/><path d="M357.675,107.661c4.819,-6.516 11.118,-10.029 14.07,-7.846c2.952,2.183 1.44,9.236 -3.378,15.751c-4.819,6.517 -11.118,10.03 -14.07,7.847c-2.953,-2.184 -1.44,-9.235 3.378,-15.752Z" style="fill:url(#_Linear54);fill-rule:nonzero;"/><path d="M392.986,140.347c-0.509,-8.088 2.047,-14.832 5.711,-15.064c3.665,-0.231 7.05,6.138 7.56,14.226c0.51,8.089 -2.046,14.833 -5.71,15.064c-3.665,0.231 -7.05,-6.138 -7.561,-14.226Z" style="fill:url(#_Linear55);fill-rule:nonzero;"/><path d="M429.809,104.355c7.644,-2.691 14.829,-2.065 16.049,1.399c1.219,3.463 -3.99,8.453 -11.634,11.143c-7.645,2.691 -14.83,2.065 -16.049,-1.398c-1.219,-3.465 3.989,-8.453 11.634,-11.144Z" style="fill:url(#_Linear56);fill-rule:nonzero;"/><path d="M468.878,169.946c7.645,-2.69 14.83,-2.064 16.049,1.399c1.219,3.463 -3.989,8.453 -11.634,11.143c-7.645,2.691 -14.83,2.065 -16.049,-1.398c-1.218,-3.464 3.989,-8.453 11.634,-11.144Z" style="fill:url(#_Linear57);fill-rule:nonzero;"/><path d="M490.847,142.551c-0.51,-8.088 2.047,-14.832 5.711,-15.064c3.664,-0.231 7.049,6.138 7.559,14.226c0.511,8.089 -2.045,14.833 -5.71,15.064c-3.665,0.231 -7.049,-6.137 -7.56,-14.226Z" style="fill:url(#_Linear58);fill-rule:nonzero;"/><path d="M510.847,197.929c-0.51,-8.088 2.047,-14.832 5.711,-15.063c3.664,-0.232 7.049,6.137 7.559,14.225c0.511,8.089 -2.045,14.833 -5.71,15.065c-3.665,0.23 -7.049,-6.138 -7.56,-14.227Z" style="fill:url(#_Linear59);fill-rule:nonzero;"/><path d="M379.157,59.731c8.027,-1.117 14.944,0.925 15.451,4.561c0.506,3.637 -5.59,7.492 -13.617,8.609c-8.027,1.118 -14.945,-0.924 -15.451,-4.561c-0.506,-3.637 5.59,-7.491 13.617,-8.609Z" style="fill:url(#_Linear60);fill-rule:nonzero;"/></g></g><defs><linearGradient id="_Linear1" x1="0" y1="0" x2="1" y2="0" gradientUnits="userSpaceOnUse" gradientTransform="matrix(9.76624,19.4983,-21.216,10.6266,69.4222,101.121)"><stop offset="0" style="stop-color:#f9f9f9;stop-opacity:1"/><stop offset="1" style="stop-color:#ffe2a6;stop-opacity:1"/></linearGradient><linearGradient id="_Linear2" x1="0" y1="0" x2="1" y2="0" gradientUnits="userSpaceOnUse" gradientTransform="matrix(9.76624,19.4983,-21.216,10.6266,101.625,50.0721)"><stop offset="0" style="stop-color:#f9f9f9;stop-opacity:1"/><stop offset="1" style="stop-color:#ffe2a6;stop-opacity:1"/></linearGradient><linearGradient id="_Linear3" x1="0" y1="0" x2="1" y2="0" gradientUnits="userSpaceOnUse" gradientTransform="matrix(-12.289,18.0152,-19.6022,-13.3716,147.653,50.8137)"><stop offset="0" style="stop-color:#f9f9f9;stop-opacity:1"/><stop offset="1" style="stop-color:#ffe2a6;stop-opacity:1"/></linearGradient><linearGradient id="_Linear4" x1="0" y1="0" x2="1" y2="0" gradientUnits="userSpaceOnUse" gradientTransform="matrix(-12.289,18.0152,-19.6022,-13.3716,215.402,26.6637)"><stop offset="0" style="stop-color:#f9f9f9;stop-opacity:1"/><stop offset="1" style="stop-color:#ffe2a6;stop-opacity:1"/></linearGradient><linearGradient id="_Linear5" x1="0" y1="0" x2="1" y2="0" gradientUnits="userSpaceOnUse" gradientTransform="matrix(-12.289,18.0152,-19.6022,-13.3716,229.783,-2.16775)"><stop offset="0" style="stop-color:#f9f9f9;stop-opacity:1"/><stop offset="1" style="stop-color:#ffe2a6;stop-opacity:1"/></linearGradient><linearGradient id="_Linear6" x1="0" y1="0" x2="1" y2="0" gradientUnits="userSpaceOnUse" gradientTransform="matrix(-21.7989,-0.608312,0.661901,-23.7193,178.935,80.7944)"><stop offset="0" style="stop-color:#f9f9f9;stop-opacity:1"/><stop offset="1" style="stop-color:#ffe2a6;stop-opacity:1"/></linearGradient><linearGradient id="_Linear7" x1="0" y1="0" x2="1" y2="0" gradientUnits="userSpaceOnUse" gradientTransform="matrix(-21.7989,-0.608312,0.661901,-23.7193,271.929,91.1288)"><stop offset="0" style="stop-color:#f9f9f9;stop-opacity:1"/><stop offset="1" style="stop-color:#ffe2a6;stop-opacity:1"/></linearGradient><linearGradient id="_Linear8" x1="0" y1="0" x2="1" y2="0" gradientUnits="userSpaceOnUse" gradientTransform="matrix(-21.7989,-0.608312,0.661901,-23.7193,338.559,100.013)"><stop offset="0" style="stop-color:#f9f9f9;stop-opacity:1"/><stop offset="1" style="stop-color:#ffe2a6;stop-opacity:1"/></linearGradient><linearGradient id="_Linear9" x1="0" y1="0" x2="1" y2="0" gradientUnits="userSpaceOnUse" gradientTransform="matrix(-21.7989,-0.608312,0.661901,-23.7193,349.688,139.847)"><stop offset="0" style="stop-color:#f9f9f9;stop-opacity:1"/><stop offset="1" style="stop-color:#ffe2a6;stop-opacity:1"/></linearGradient><linearGradient id="_Linear10" x1="0" y1="0" x2="1" y2="0" gradientUnits="userSpaceOnUse" gradientTransform="matrix(-7.46833,-20.4887,22.2937,-8.12625,329.848,207.673)"><stop offset="0" style="stop-color:#f9f9f9;stop-opacity:1"/><stop offset="1" style="stop-color:#ffe2a6;stop-opacity:1"/></linearGradient><linearGradient id="_Linear11" x1="0" y1="0" x2="1" y2="0" gradientUnits="userSpaceOnUse" gradientTransform="matrix(-21.7989,-0.608312,0.661901,-23.7193,271.929,38.5718)"><stop offset="0" style="stop-color:#f9f9f9;stop-opacity:1"/><stop offset="1" style="stop-color:#ffe2a6;stop-opacity:1"/></linearGradient><linearGradient id="_Linear12" x1="0" y1="0" x2="1" y2="0" gradientUnits="userSpaceOnUse" gradientTransform="matrix(-21.7989,-0.608312,0.661901,-23.7193,268.767,131.295)"><stop offset="0" style="stop-color:#f9f9f9;stop-opacity:1"/><stop offset="1" style="stop-color:#ffe2a6;stop-opacity:1"/></linearGradient><linearGradient id="_Linear13" x1="0" y1="0" x2="1" y2="0" gradientUnits="userSpaceOnUse" gradientTransform="matrix(-21.7989,-0.608312,0.661901,-23.7193,270.459,190.753)"><stop offset="0" style="stop-color:#f9f9f9;stop-opacity:1"/><stop offset="1" style="stop-color:#ffe2a6;stop-opacity:1"/></linearGradient><linearGradient id="_Linear14" x1="0" y1="0" x2="1" y2="0" gradientUnits="userSpaceOnUse" gradientTransform="matrix(-1.9265,-21.7222,23.6358,-2.09622,297.062,129.588)"><stop offset="0" style="stop-color:#f9f9f9;stop-opacity:1"/><stop offset="1" style="stop-color:#ffe2a6;stop-opacity:1"/></linearGradient><linearGradient id="_Linear15" x1="0" y1="0" x2="1" y2="0" gradientUnits="userSpaceOnUse" gradientTransform="matrix(-21.7989,-0.608312,0.661901,-23.7193,480.935,103.797)"><stop offset="0" style="stop-color:#f9f9f9;stop-opacity:1"/><stop offset="1" style="stop-color:#ffe2a6;stop-opacity:1"/></linearGradient><linearGradient id="_Linear16" x1="0" y1="0" x2="1" y2="0" gradientUnits="userSpaceOnUse" gradientTransform="matrix(-15.1257,-15.7091,17.093,-16.4582,457.388,153.104)"><stop offset="0" style="stop-color:#f9f9f9;stop-opacity:1"/><stop offset="1" style="stop-color:#ffe2a6;stop-opacity:1"/></linearGradient><linearGradient id="_Linear17" x1="0" y1="0" x2="1" y2="0" gradientUnits="userSpaceOnUse" gradientTransform="matrix(-15.1257,-15.7091,17.093,-16.4582,414.917,97.6784)"><stop offset="0" style="stop-color:#f9f9f9;stop-opacity:1"/><stop offset="1" style="stop-color:#ffe2a6;stop-opacity:1"/></linearGradient><linearGradient id="_Linear18" x1="0" y1="0" x2="1" y2="0" gradientUnits="userSpaceOnUse" gradientTransform="matrix(3.86964,-21.4614,23.352,4.21054,425.183,207.812)"><stop offset="0" style="stop-color:#f9f9f9;stop-opacity:1"/><stop offset="1" style="stop-color:#ffe2a6;stop-opacity:1"/></linearGradient><linearGradient id="_Linear19" x1="0" y1="0" x2="1" y2="0" gradientUnits="userSpaceOnUse" gradientTransform="matrix(2.75967,-21.6321,23.5378,3.00278,406.445,183.781)"><stop offset="0" style="stop-color:#f9f9f9;stop-opacity:1"/><stop offset="1" style="stop-color:#ffe2a6;stop-opacity:1"/></linearGradient><linearGradient id="_Linear20" x1="0" y1="0" x2="1" y2="0" gradientUnits="userSpaceOnUse" gradientTransform="matrix(-17.2584,13.3309,-14.5052,-18.7788,372.665,18.6717)"><stop offset="0" style="stop-color:#f9f9f9;stop-opacity:1"/><stop offset="1" style="stop-color:#ffe2a6;stop-opacity:1"/></linearGradient><linearGradient id="_Linear21" x1="0" y1="0" x2="1" y2="0" gradientUnits="userSpaceOnUse" gradientTransform="matrix(12.9772,17.5259,-19.0698,14.1204,31.1916,164.422)"><stop offset="0" style="stop-color:#f9f9f9;stop-opacity:1"/><stop offset="1" style="stop-color:#ffe2a6;stop-opacity:1"/></linearGradient><linearGradient id="_Linear22" x1="0" y1="0" x2="1" y2="0" gradientUnits="userSpaceOnUse" gradientTransform="matrix(12.9772,17.5259,-19.0698,14.1204,105.979,164.422)"><stop offset="0" style="stop-color:#f9f9f9;stop-opacity:1"/><stop offset="1" style="stop-color:#ffe2a6;stop-opacity:1"/></linearGradient><linearGradient id="_Linear23" x1="0" y1="0" x2="1" y2="0" gradientUnits="userSpaceOnUse" gradientTransform="matrix(-0.192477,21.8066,-23.7276,-0.209433,151.564,174.425)"><stop offset="0" style="stop-color:#f9f9f9;stop-opacity:1"/><stop offset="1" style="stop-color:#ffe2a6;stop-opacity:1"/></linearGradient><linearGradient id="_Linear24" x1="0" y1="0" x2="1" y2="0" gradientUnits="userSpaceOnUse" gradientTransform="matrix(11.7501,-18.3712,19.9896,12.7852,208.584,194.514)"><stop offset="0" style="stop-color:#f9f9f9;stop-opacity:1"/><stop offset="1" style="stop-color:#ffe2a6;stop-opacity:1"/></linearGradient><linearGradient id="_Linear25" x1="0" y1="0" x2="1" y2="0" gradientUnits="userSpaceOnUse" gradientTransform="matrix(-0.192477,21.8066,-23.7276,-0.209433,214.556,118.861)"><stop offset="0" style="stop-color:#f9f9f9;stop-opacity:1"/><stop offset="1" style="stop-color:#ffe2a6;stop-opacity:1"/></linearGradient><linearGradient id="_Linear26" x1="0" y1="0" x2="1" y2="0" gradientUnits="userSpaceOnUse" gradientTransform="matrix(-19.4914,9.77998,-10.6415,-21.2085,163.118,127.447)"><stop offset="0" style="stop-color:#f9f9f9;stop-opacity:1"/><stop offset="1" style="stop-color:#ffe2a6;stop-opacity:1"/></linearGradient><linearGradient id="_Linear27" x1="0" y1="0" x2="1" y2="0" gradientUnits="userSpaceOnUse" gradientTransform="matrix(12.9772,17.5259,-19.0698,14.1204,101.089,117.422)"><stop offset="0" style="stop-color:#f9f9f9;stop-opacity:1"/><stop offset="1" style="stop-color:#ffe2a6;stop-opacity:1"/></linearGradient><linearGradient id="_Linear28" x1="0" y1="0" x2="1" y2="0" gradientUnits="userSpaceOnUse" gradientTransform="matrix(21.4538,0,0,24.0486,26.7765,121.164)"><stop offset="0" style="stop-color:#ee7a27;stop-opacity:1"/><stop offset="1" style="stop-color:#fff48b;stop-opacity:1"/></linearGradient><linearGradient id="_Linear29" x1="0" y1="0" x2="1" y2="0" gradientUnits="userSpaceOnUse" gradientTransform="matrix(21.4538,0,0,24.0486,69.026,73.2147)"><stop offset="0" style="stop-color:#ee7a27;stop-opacity:1"/><stop offset="1" style="stop-color:#fff48b;stop-opacity:1"/></linearGradient><linearGradient id="_Linear30" x1="0" y1="0" x2="1" y2="0" gradientUnits="userSpaceOnUse" gradientTransform="matrix(17.7025,-12.1197,13.5856,19.8436,66.9478,153.866)"><stop offset="0" style="stop-color:#ee7a27;stop-opacity:1"/><stop offset="1" style="stop-color:#fff48b;stop-opacity:1"/></linearGradient><linearGradient id="_Linear31" x1="0" y1="0" x2="1" y2="0" gradientUnits="userSpaceOnUse" gradientTransform="matrix(19.1746,9.62301,-10.7869,21.4937,132.489,95.0453)"><stop offset="0" style="stop-color:#ee7a27;stop-opacity:1"/><stop offset="1" style="stop-color:#fff48b;stop-opacity:1"/></linearGradient><linearGradient id="_Linear32" x1="0" y1="0" x2="1" y2="0" gradientUnits="userSpaceOnUse" gradientTransform="matrix(-2.44474,-21.3141,23.8919,-2.74042,398.299,55.2126)"><stop offset="0" style="stop-color:#ee7a27;stop-opacity:1"/><stop offset="1" style="stop-color:#fff48b;stop-opacity:1"/></linearGradient><linearGradient id="_Linear33" x1="0" y1="0" x2="1" y2="0" gradientUnits="userSpaceOnUse" gradientTransform="matrix(19.1746,9.62301,-10.7869,21.4937,171.351,110.838)"><stop offset="0" style="stop-color:#ee7a27;stop-opacity:1"/><stop offset="1" style="stop-color:#fff48b;stop-opacity:1"/></linearGradient><linearGradient id="_Linear34" x1="0" y1="0" x2="1" y2="0" gradientUnits="userSpaceOnUse" gradientTransform="matrix(19.1746,9.62301,-10.7869,21.4937,280.992,65.5257)"><stop offset="0" style="stop-color:#ee7a27;stop-opacity:1"/><stop offset="1" style="stop-color:#fff48b;stop-opacity:1"/></linearGradient><linearGradient id="_Linear35" x1="0" y1="0" x2="1" y2="0" gradientUnits="userSpaceOnUse" gradientTransform="matrix(14.0261,-16.2338,18.1972,15.7225,181.786,66.3526)"><stop offset="0" style="stop-color:#ee7a27;stop-opacity:1"/><stop offset="1" style="stop-color:#fff48b;stop-opacity:1"/></linearGradient><linearGradient id="_Linear36" x1="0" y1="0" x2="1" y2="0" gradientUnits="userSpaceOnUse" gradientTransform="matrix(7.67045,20.0358,-22.459,8.59816,232.471,48.2179)"><stop offset="0" style="stop-color:#ee7a27;stop-opacity:1"/><stop offset="1" style="stop-color:#fff48b;stop-opacity:1"/></linearGradient><linearGradient id="_Linear37" x1="0" y1="0" x2="1" y2="0" gradientUnits="userSpaceOnUse" gradientTransform="matrix(7.67045,20.0358,-22.459,8.59816,270.411,-2.11128)"><stop offset="0" style="stop-color:#ee7a27;stop-opacity:1"/><stop offset="1" style="stop-color:#fff48b;stop-opacity:1"/></linearGradient><linearGradient id="_Linear38" x1="0" y1="0" x2="1" y2="0" gradientUnits="userSpaceOnUse" gradientTransform="matrix(7.67045,20.0358,-22.459,8.59816,320.471,4.47405)"><stop offset="0" style="stop-color:#ee7a27;stop-opacity:1"/><stop offset="1" style="stop-color:#fff48b;stop-opacity:1"/></linearGradient><linearGradient id="_Linear39" x1="0" y1="0" x2="1" y2="0" gradientUnits="userSpaceOnUse" gradientTransform="matrix(9.3502,19.3091,-21.6444,10.4811,220.124,90.1114)"><stop offset="0" style="stop-color:#ee7a27;stop-opacity:1"/><stop offset="1" style="stop-color:#fff48b;stop-opacity:1"/></linearGradient><linearGradient id="_Linear40" x1="0" y1="0" x2="1" y2="0" gradientUnits="userSpaceOnUse" gradientTransform="matrix(0.963127,-21.4322,24.0243,1.07961,450.361,91.9047)"><stop offset="0" style="stop-color:#ee7a27;stop-opacity:1"/><stop offset="1" style="stop-color:#fff48b;stop-opacity:1"/></linearGradient><linearGradient id="_Linear41" x1="0" y1="0" x2="1" y2="0" gradientUnits="userSpaceOnUse" gradientTransform="matrix(9.86024,-19.0537,21.3582,11.0528,62.8689,194.229)"><stop offset="0" style="stop-color:#ee7a27;stop-opacity:1"/><stop offset="1" style="stop-color:#fff48b;stop-opacity:1"/></linearGradient><linearGradient id="_Linear42" x1="0" y1="0" x2="1" y2="0" gradientUnits="userSpaceOnUse" gradientTransform="matrix(19.5899,-8.74669,9.80456,21.9592,-2.23283,189.075)"><stop offset="0" style="stop-color:#ee7a27;stop-opacity:1"/><stop offset="1" style="stop-color:#fff48b;stop-opacity:1"/></linearGradient><linearGradient id="_Linear43" x1="0" y1="0" x2="1" y2="0" gradientUnits="userSpaceOnUse" gradientTransform="matrix(17.7025,-12.1197,13.5856,19.8436,104.04,94.3281)"><stop offset="0" style="stop-color:#ee7a27;stop-opacity:1"/><stop offset="1" style="stop-color:#fff48b;stop-opacity:1"/></linearGradient><linearGradient id="_Linear44" x1="0" y1="0" x2="1" y2="0" gradientUnits="userSpaceOnUse" gradientTransform="matrix(19.9948,7.77671,-8.71727,22.413,130.188,29.4752)"><stop offset="0" style="stop-color:#ee7a27;stop-opacity:1"/><stop offset="1" style="stop-color:#fff48b;stop-opacity:1"/></linearGradient><linearGradient id="_Linear45" x1="0" y1="0" x2="1" y2="0" gradientUnits="userSpaceOnUse" gradientTransform="matrix(17.2871,12.7052,-14.2419,19.3779,179.542,8.71489)"><stop offset="0" style="stop-color:#ee7a27;stop-opacity:1"/><stop offset="1" style="stop-color:#fff48b;stop-opacity:1"/></linearGradient><linearGradient id="_Linear46" x1="0" y1="0" x2="1" y2="0" gradientUnits="userSpaceOnUse" gradientTransform="matrix(10.3517,-18.7912,21.0639,11.6037,126.181,157.92)"><stop offset="0" style="stop-color:#ee7a27;stop-opacity:1"/><stop offset="1" style="stop-color:#fff48b;stop-opacity:1"/></linearGradient><linearGradient id="_Linear47" x1="0" y1="0" x2="1" y2="0" gradientUnits="userSpaceOnUse" gradientTransform="matrix(14.2905,16.0016,-17.9369,16.0188,187.238,148.575)"><stop offset="0" style="stop-color:#ee7a27;stop-opacity:1"/><stop offset="1" style="stop-color:#fff48b;stop-opacity:1"/></linearGradient><linearGradient id="_Linear48" x1="0" y1="0" x2="1" y2="0" gradientUnits="userSpaceOnUse" gradientTransform="matrix(14.2905,16.0016,-17.9369,16.0188,292.414,144.109)"><stop offset="0" style="stop-color:#ee7a27;stop-opacity:1"/><stop offset="1" style="stop-color:#fff48b;stop-opacity:1"/></linearGradient><linearGradient id="_Linear49" x1="0" y1="0" x2="1" y2="0" gradientUnits="userSpaceOnUse" gradientTransform="matrix(1.61409,21.393,-23.9804,1.8093,359.757,161.03)"><stop offset="0" style="stop-color:#ee7a27;stop-opacity:1"/><stop offset="1" style="stop-color:#fff48b;stop-opacity:1"/></linearGradient><linearGradient id="_Linear50" x1="0" y1="0" x2="1" y2="0" gradientUnits="userSpaceOnUse" gradientTransform="matrix(14.2905,16.0016,-17.9369,16.0188,292.354,172.938)"><stop offset="0" style="stop-color:#ee7a27;stop-opacity:1"/><stop offset="1" style="stop-color:#fff48b;stop-opacity:1"/></linearGradient><linearGradient id="_Linear51" x1="0" y1="0" x2="1" y2="0" gradientUnits="userSpaceOnUse" gradientTransform="matrix(-4.26168,21.0263,-23.5693,-4.77712,255.919,153.301)"><stop offset="0" style="stop-color:#ee7a27;stop-opacity:1"/><stop offset="1" style="stop-color:#fff48b;stop-opacity:1"/></linearGradient><linearGradient id="_Linear52" x1="0" y1="0" x2="1" y2="0" gradientUnits="userSpaceOnUse" gradientTransform="matrix(12.1604,17.6746,-19.8123,13.6312,300.646,31.9342)"><stop offset="0" style="stop-color:#ee7a27;stop-opacity:1"/><stop offset="1" style="stop-color:#fff48b;stop-opacity:1"/></linearGradient><linearGradient id="_Linear53" x1="0" y1="0" x2="1" y2="0" gradientUnits="userSpaceOnUse" gradientTransform="matrix(-14.4733,15.8364,-17.7517,-16.2238,351.907,58.0769)"><stop offset="0" style="stop-color:#ee7a27;stop-opacity:1"/><stop offset="1" style="stop-color:#fff48b;stop-opacity:1"/></linearGradient><linearGradient id="_Linear54" x1="0" y1="0" x2="1" y2="0" gradientUnits="userSpaceOnUse" gradientTransform="matrix(-21.4125,1.33201,-1.49311,-24.0022,373.727,110.948)"><stop offset="0" style="stop-color:#ee7a27;stop-opacity:1"/><stop offset="1" style="stop-color:#fff48b;stop-opacity:1"/></linearGradient><linearGradient id="_Linear55" x1="0" y1="0" x2="1" y2="0" gradientUnits="userSpaceOnUse" gradientTransform="matrix(-15.5227,14.8092,-16.6003,-17.4002,407.383,132.524)"><stop offset="0" style="stop-color:#ee7a27;stop-opacity:1"/><stop offset="1" style="stop-color:#fff48b;stop-opacity:1"/></linearGradient><linearGradient id="_Linear56" x1="0" y1="0" x2="1" y2="0" gradientUnits="userSpaceOnUse" gradientTransform="matrix(-18.4723,-10.9106,12.2302,-20.7064,441.252,116.081)"><stop offset="0" style="stop-color:#ee7a27;stop-opacity:1"/><stop offset="1" style="stop-color:#fff48b;stop-opacity:1"/></linearGradient><linearGradient id="_Linear57" x1="0" y1="0" x2="1" y2="0" gradientUnits="userSpaceOnUse" gradientTransform="matrix(-18.4723,-10.9106,12.2302,-20.7064,480.322,181.673)"><stop offset="0" style="stop-color:#ee7a27;stop-opacity:1"/><stop offset="1" style="stop-color:#fff48b;stop-opacity:1"/></linearGradient><linearGradient id="_Linear58" x1="0" y1="0" x2="1" y2="0" gradientUnits="userSpaceOnUse" gradientTransform="matrix(-15.5227,14.8092,-16.6003,-17.4002,505.244,134.728)"><stop offset="0" style="stop-color:#ee7a27;stop-opacity:1"/><stop offset="1" style="stop-color:#fff48b;stop-opacity:1"/></linearGradient><linearGradient id="_Linear59" x1="0" y1="0" x2="1" y2="0" gradientUnits="userSpaceOnUse" gradientTransform="matrix(-15.5227,14.8092,-16.6003,-17.4002,525.244,190.106)"><stop offset="0" style="stop-color:#ee7a27;stop-opacity:1"/><stop offset="1" style="stop-color:#fff48b;stop-opacity:1"/></linearGradient><linearGradient id="_Linear60" x1="0" y1="0" x2="1" y2="0" gradientUnits="userSpaceOnUse" gradientTransform="matrix(-15.9353,-14.3644,16.1017,-17.8626,388.041,73.4985)"><stop offset="0" style="stop-color:#ee7a27;stop-opacity:1"/><stop offset="1" style="stop-color:#fff48b;stop-opacity:1"/></linearGradient></defs></svg>