<svg clip-rule="evenodd" fill-rule="evenodd" stroke-linejoin="round" stroke-miterlimit="1.41421" viewBox="0 0 525 213" xmlns="http://www.w3.org/2000/svg" xmlns:xlink="http://www.w3.org/1999/xlink"><linearGradient id="a"><stop offset="0" stop-color="#f9f9f9"/><stop offset="1" stop-color="#ffe2a6"/></linearGradient><linearGradient id="b" gradientTransform="matrix(9.76624 19.4983 -21.216 10.6266 69.4222 101.121)" gradientUnits="userSpaceOnUse" x1="0" x2="1" xlink:href="#a" y1="0" y2="0"/><linearGradient id="c" gradientTransform="matrix(9.76624 19.4983 -21.216 10.6266 101.625 50.0721)" gradientUnits="userSpaceOnUse" x1="0" x2="1" xlink:href="#a" y1="0" y2="0"/><linearGradient id="d" gradientTransform="matrix(-12.289 18.0152 -19.6022 -13.3716 147.653 50.8137)" gradientUnits="userSpaceOnUse" x1="0" x2="1" xlink:href="#a" y1="0" y2="0"/><linearGradient id="e" gradientTransform="matrix(-12.289 18.0152 -19.6022 -13.3716 215.402 26.6637)" gradientUnits="userSpaceOnUse" x1="0" x2="1" xlink:href="#a" y1="0" y2="0"/><linearGradient id="f" gradientTransform="matrix(-12.289 18.0152 -19.6022 -13.3716 229.783 -2.16775)" gradientUnits="userSpaceOnUse" x1="0" x2="1" xlink:href="#a" y1="0" y2="0"/><linearGradient id="g" gradientTransform="matrix(-21.7989 -.608312 .661901 -23.7193 178.935 80.7944)" gradientUnits="userSpaceOnUse" x1="0" x2="1" xlink:href="#a" y1="0" y2="0"/><linearGradient id="h" gradientTransform="matrix(-21.7989 -.608312 .661901 -23.7193 271.929 91.1288)" gradientUnits="userSpaceOnUse" x1="0" x2="1" xlink:href="#a" y1="0" y2="0"/><linearGradient id="i" gradientTransform="matrix(-21.7989 -.608312 .661901 -23.7193 338.559 100.013)" gradientUnits="userSpaceOnUse" x1="0" x2="1" xlink:href="#a" y1="0" y2="0"/><linearGradient id="j" gradientTransform="matrix(-21.7989 -.608312 .661901 -23.7193 349.688 139.847)" gradientUnits="userSpaceOnUse" x1="0" x2="1" xlink:href="#a" y1="0" y2="0"/><linearGradient id="k" gradientTransform="matrix(-7.46833 -20.4887 22.2937 -8.12625 329.848 207.673)" gradientUnits="userSpaceOnUse" x1="0" x2="1" xlink:href="#a" y1="0" y2="0"/><linearGradient id="l" gradientTransform="matrix(-21.7989 -.608312 .661901 -23.7193 271.929 38.5718)" gradientUnits="userSpaceOnUse" x1="0" x2="1" xlink:href="#a" y1="0" y2="0"/><linearGradient id="m" gradientTransform="matrix(-21.7989 -.608312 .661901 -23.7193 268.767 131.295)" gradientUnits="userSpaceOnUse" x1="0" x2="1" xlink:href="#a" y1="0" y2="0"/><linearGradient id="n" gradientTransform="matrix(-21.7989 -.608312 .661901 -23.7193 270.459 190.753)" gradientUnits="userSpaceOnUse" x1="0" x2="1" xlink:href="#a" y1="0" y2="0"/><linearGradient id="o" gradientTransform="matrix(-1.9265 -21.7222 23.6358 -2.09622 297.062 129.588)" gradientUnits="userSpaceOnUse" x1="0" x2="1" xlink:href="#a" y1="0" y2="0"/><linearGradient id="p" gradientTransform="matrix(-21.7989 -.608312 .661901 -23.7193 480.935 103.797)" gradientUnits="userSpaceOnUse" x1="0" x2="1" xlink:href="#a" y1="0" y2="0"/><linearGradient id="q" gradientTransform="matrix(-15.1257 -15.7091 17.093 -16.4582 457.388 153.104)" gradientUnits="userSpaceOnUse" x1="0" x2="1" xlink:href="#a" y1="0" y2="0"/><linearGradient id="r" gradientTransform="matrix(-15.1257 -15.7091 17.093 -16.4582 414.917 97.6784)" gradientUnits="userSpaceOnUse" x1="0" x2="1" xlink:href="#a" y1="0" y2="0"/><linearGradient id="s" gradientTransform="matrix(3.86964 -21.4614 23.352 4.21054 425.183 207.812)" gradientUnits="userSpaceOnUse" x1="0" x2="1" xlink:href="#a" y1="0" y2="0"/><linearGradient id="t" gradientTransform="matrix(2.75967 -21.6321 23.5378 3.00278 406.445 183.781)" gradientUnits="userSpaceOnUse" x1="0" x2="1" xlink:href="#a" y1="0" y2="0"/><linearGradient id="u" gradientTransform="matrix(-17.2584 13.3309 -14.5052 -18.7788 372.665 18.6717)" gradientUnits="userSpaceOnUse" x1="0" x2="1" xlink:href="#a" y1="0" y2="0"/><linearGradient id="v" gradientTransform="matrix(12.9772 17.5259 -19.0698 14.1204 31.1916 164.422)" gradientUnits="userSpaceOnUse" x1="0" x2="1" xlink:href="#a" y1="0" y2="0"/><linearGradient id="w" gradientTransform="matrix(12.9772 17.5259 -19.0698 14.1204 105.979 164.422)" gradientUnits="userSpaceOnUse" x1="0" x2="1" xlink:href="#a" y1="0" y2="0"/><linearGradient id="x" gradientTransform="matrix(-.192477 21.8066 -23.7276 -.209433 151.564 174.425)" gradientUnits="userSpaceOnUse" x1="0" x2="1" xlink:href="#a" y1="0" y2="0"/><linearGradient id="y" gradientTransform="matrix(11.7501 -18.3712 19.9896 12.7852 208.584 194.514)" gradientUnits="userSpaceOnUse" x1="0" x2="1" xlink:href="#a" y1="0" y2="0"/><linearGradient id="z" gradientTransform="matrix(-.192477 21.8066 -23.7276 -.209433 214.556 118.861)" gradientUnits="userSpaceOnUse" x1="0" x2="1" xlink:href="#a" y1="0" y2="0"/><linearGradient id="A" gradientTransform="matrix(-19.4914 9.77998 -10.6415 -21.2085 163.118 127.447)" gradientUnits="userSpaceOnUse" x1="0" x2="1" xlink:href="#a" y1="0" y2="0"/><linearGradient id="B" gradientTransform="matrix(12.9772 17.5259 -19.0698 14.1204 101.089 117.422)" gradientUnits="userSpaceOnUse" x1="0" x2="1" xlink:href="#a" y1="0" y2="0"/><linearGradient id="C"><stop offset="0" stop-color="#ee7a27"/><stop offset="1" stop-color="#fff48b"/></linearGradient><linearGradient id="D" gradientTransform="matrix(21.4538 0 0 24.0486 26.7765 121.164)" gradientUnits="userSpaceOnUse" x1="0" x2="1" xlink:href="#C" y1="0" y2="0"/><linearGradient id="E" gradientTransform="matrix(21.4538 0 0 24.0486 69.026 73.2147)" gradientUnits="userSpaceOnUse" x1="0" x2="1" xlink:href="#C" y1="0" y2="0"/><linearGradient id="F" gradientTransform="matrix(17.7025 -12.1197 13.5856 19.8436 66.9478 153.866)" gradientUnits="userSpaceOnUse" x1="0" x2="1" xlink:href="#C" y1="0" y2="0"/><linearGradient id="G" gradientTransform="matrix(19.1746 9.62301 -10.7869 21.4937 132.489 95.0453)" gradientUnits="userSpaceOnUse" x1="0" x2="1" xlink:href="#C" y1="0" y2="0"/><linearGradient id="H" gradientTransform="matrix(-2.44474 -21.3141 23.8919 -2.74042 398.299 55.2126)" gradientUnits="userSpaceOnUse" x1="0" x2="1" xlink:href="#C" y1="0" y2="0"/><linearGradient id="I" gradientTransform="matrix(19.1746 9.62301 -10.7869 21.4937 171.351 110.838)" gradientUnits="userSpaceOnUse" x1="0" x2="1" xlink:href="#C" y1="0" y2="0"/><linearGradient id="J" gradientTransform="matrix(19.1746 9.62301 -10.7869 21.4937 280.992 65.5257)" gradientUnits="userSpaceOnUse" x1="0" x2="1" xlink:href="#C" y1="0" y2="0"/><linearGradient id="K" gradientTransform="matrix(14.0261 -16.2338 18.1972 15.7225 181.786 66.3526)" gradientUnits="userSpaceOnUse" x1="0" x2="1" xlink:href="#C" y1="0" y2="0"/><linearGradient id="L" gradientTransform="matrix(7.67045 20.0358 -22.459 8.59816 232.471 48.2179)" gradientUnits="userSpaceOnUse" x1="0" x2="1" xlink:href="#C" y1="0" y2="0"/><linearGradient id="M" gradientTransform="matrix(7.67045 20.0358 -22.459 8.59816 270.411 -2.11128)" gradientUnits="userSpaceOnUse" x1="0" x2="1" xlink:href="#C" y1="0" y2="0"/><linearGradient id="N" gradientTransform="matrix(7.67045 20.0358 -22.459 8.59816 320.471 4.47405)" gradientUnits="userSpaceOnUse" x1="0" x2="1" xlink:href="#C" y1="0" y2="0"/><linearGradient id="O" gradientTransform="matrix(9.3502 19.3091 -21.6444 10.4811 220.124 90.1114)" gradientUnits="userSpaceOnUse" x1="0" x2="1" xlink:href="#C" y1="0" y2="0"/><linearGradient id="P" gradientTransform="matrix(.963127 -21.4322 24.0243 1.07961 450.361 91.9047)" gradientUnits="userSpaceOnUse" x1="0" x2="1" xlink:href="#C" y1="0" y2="0"/><linearGradient id="Q" gradientTransform="matrix(9.86024 -19.0537 21.3582 11.0528 62.8689 194.229)" gradientUnits="userSpaceOnUse" x1="0" x2="1" xlink:href="#C" y1="0" y2="0"/><linearGradient id="R" gradientTransform="matrix(19.5899 -8.74669 9.80456 21.9592 -2.23283 189.075)" gradientUnits="userSpaceOnUse" x1="0" x2="1" xlink:href="#C" y1="0" y2="0"/><linearGradient id="S" gradientTransform="matrix(17.7025 -12.1197 13.5856 19.8436 104.04 94.3281)" gradientUnits="userSpaceOnUse" x1="0" x2="1" xlink:href="#C" y1="0" y2="0"/><linearGradient id="T" gradientTransform="matrix(19.9948 7.77671 -8.71727 22.413 130.188 29.4752)" gradientUnits="userSpaceOnUse" x1="0" x2="1" xlink:href="#C" y1="0" y2="0"/><linearGradient id="U" gradientTransform="matrix(17.2871 12.7052 -14.2419 19.3779 179.542 8.71489)" gradientUnits="userSpaceOnUse" x1="0" x2="1" xlink:href="#C" y1="0" y2="0"/><linearGradient id="V" gradientTransform="matrix(10.3517 -18.7912 21.0639 11.6037 126.181 157.92)" gradientUnits="userSpaceOnUse" x1="0" x2="1" xlink:href="#C" y1="0" y2="0"/><linearGradient id="W" gradientTransform="matrix(14.2905 16.0016 -17.9369 16.0188 187.238 148.575)" gradientUnits="userSpaceOnUse" x1="0" x2="1" xlink:href="#C" y1="0" y2="0"/><linearGradient id="X" gradientTransform="matrix(14.2905 16.0016 -17.9369 16.0188 292.414 144.109)" gradientUnits="userSpaceOnUse" x1="0" x2="1" xlink:href="#C" y1="0" y2="0"/><linearGradient id="Y" gradientTransform="matrix(1.61409 21.393 -23.9804 1.8093 359.757 161.03)" gradientUnits="userSpaceOnUse" x1="0" x2="1" xlink:href="#C" y1="0" y2="0"/><linearGradient id="Z" gradientTransform="matrix(14.2905 16.0016 -17.9369 16.0188 292.354 172.938)" gradientUnits="userSpaceOnUse" x1="0" x2="1" xlink:href="#C" y1="0" y2="0"/><linearGradient id="aa" gradientTransform="matrix(-4.26168 21.0263 -23.5693 -4.77712 255.919 153.301)" gradientUnits="userSpaceOnUse" x1="0" x2="1" xlink:href="#C" y1="0" y2="0"/><linearGradient id="ab" gradientTransform="matrix(12.1604 17.6746 -19.8123 13.6312 300.646 31.9342)" gradientUnits="userSpaceOnUse" x1="0" x2="1" xlink:href="#C" y1="0" y2="0"/><linearGradient id="ac" gradientTransform="matrix(-14.4733 15.8364 -17.7517 -16.2238 351.907 58.0769)" gradientUnits="userSpaceOnUse" x1="0" x2="1" xlink:href="#C" y1="0" y2="0"/><linearGradient id="ad" gradientTransform="matrix(-21.4125 1.33201 -1.49311 -24.0022 373.727 110.948)" gradientUnits="userSpaceOnUse" x1="0" x2="1" xlink:href="#C" y1="0" y2="0"/><linearGradient id="ae" gradientTransform="matrix(-15.5227 14.8092 -16.6003 -17.4002 407.383 132.524)" gradientUnits="userSpaceOnUse" x1="0" x2="1" xlink:href="#C" y1="0" y2="0"/><linearGradient id="af" gradientTransform="matrix(-18.4723 -10.9106 12.2302 -20.7064 441.252 116.081)" gradientUnits="userSpaceOnUse" x1="0" x2="1" xlink:href="#C" y1="0" y2="0"/><linearGradient id="ag" gradientTransform="matrix(-18.4723 -10.9106 12.2302 -20.7064 480.322 181.673)" gradientUnits="userSpaceOnUse" x1="0" x2="1" xlink:href="#C" y1="0" y2="0"/><linearGradient id="ah" gradientTransform="matrix(-15.5227 14.8092 -16.6003 -17.4002 505.244 134.728)" gradientUnits="userSpaceOnUse" x1="0" x2="1" xlink:href="#C" y1="0" y2="0"/><linearGradient id="ai" gradientTransform="matrix(-15.5227 14.8092 -16.6003 -17.4002 525.244 190.106)" gradientUnits="userSpaceOnUse" x1="0" x2="1" xlink:href="#C" y1="0" y2="0"/><linearGradient id="aj" gradientTransform="matrix(-15.9353 -14.3644 16.1017 -17.8626 388.041 73.4985)" gradientUnits="userSpaceOnUse" x1="0" x2="1" xlink:href="#C" y1="0" y2="0"/><g fill-rule="nonzero"><path d="m0 212.162c0-98.112 112.715-208.341 256.133-208.341s265.388 110.229 265.388 208.341z" fill="#e4a330"/><path d="m414.805 54.342c-31.131 82.42-102.718 130.595-164.006 157.82h270.407c-1.178-63.116-53.085-128.792-106.401-157.82z" fill="#e1972f"/><path d="m14.812 197.008s31.592-139.426 188.033-170.405c0 0-117.403 65.725-188.033 170.405z" fill="#ebba63"/><path d="m80.467 113.366c-3.044 7.512-8.27 12.483-11.674 11.103-3.402-1.377-3.693-8.585-.649-16.096s8.27-12.482 11.673-11.103 3.694 8.586.65 16.096z" fill="url(#b)"/><path d="m112.67 62.318c-3.044 7.511-8.271 12.482-11.674 11.102-3.402-1.377-3.693-8.585-.649-16.095 3.043-7.512 8.27-12.482 11.673-11.103s3.694 8.585.65 16.096z" fill="url(#c)"/><path d="m142.323 66.42c-8.044.992-14.929-1.158-15.378-4.802-.451-3.643 5.706-7.402 13.749-8.394 8.043-.993 14.928 1.156 15.378 4.8.449 3.644-5.706 7.403-13.749 8.396z" fill="url(#d)"/><path d="m210.073 42.27c-8.045.992-14.93-1.158-15.379-4.802-.45-3.643 5.707-7.402 13.749-8.394 8.044-.993 14.929 1.156 15.378 4.8.45 3.644-5.706 7.403-13.748 8.396z" fill="url(#e)"/><path d="m224.454 13.438c-8.045.993-14.929-1.157-15.379-4.802-.45-3.642 5.707-7.401 13.749-8.394 8.044-.993 14.929 1.157 15.378 4.801.45 3.644-5.706 7.403-13.748 8.395z" fill="url(#f)"/><path d="m162.923 84.741c-5.181-6.233-7.092-13.188-4.267-15.535 2.821-2.348 9.311.803 14.491 7.035 5.181 6.232 7.092 13.187 4.269 15.534-2.824 2.347-9.313-.802-14.493-7.034z" fill="url(#g)"/><path d="m255.917 95.075c-5.181-6.233-7.092-13.188-4.267-15.535 2.822-2.347 9.311.803 14.491 7.035 5.182 6.232 7.092 13.187 4.269 15.534-2.824 2.347-9.312-.802-14.493-7.034z" fill="url(#h)"/><path d="m322.547 103.959c-5.181-6.233-7.091-13.188-4.267-15.535 2.822-2.347 9.311.803 14.491 7.035 5.182 6.232 7.092 13.187 4.269 15.534-2.824 2.348-9.312-.802-14.493-7.034z" fill="url(#i)"/><path d="m333.676 143.793c-5.181-6.233-7.092-13.188-4.267-15.535 2.822-2.347 9.311.803 14.491 7.035 5.182 6.232 7.092 13.187 4.269 15.534-2.824 2.348-9.313-.802-14.493-7.034z" fill="url(#j)"/><path d="m320.278 194.243c3.885-7.113 9.646-11.453 12.869-9.692 3.222 1.758 2.685 8.952-1.199 16.064-3.884 7.113-9.645 11.453-12.868 9.693-3.222-1.76-2.686-8.953 1.198-16.065z" fill="url(#k)"/><path d="m255.917 42.518c-5.181-6.233-7.092-13.188-4.267-15.535 2.822-2.347 9.311.803 14.491 7.035 5.182 6.232 7.092 13.187 4.269 15.534-2.824 2.347-9.312-.802-14.493-7.034z" fill="url(#l)"/><path d="m252.755 135.242c-5.181-6.233-7.092-13.188-4.267-15.535 2.821-2.348 9.311.803 14.491 7.035 5.181 6.231 7.092 13.186 4.268 15.534-2.823 2.347-9.312-.802-14.492-7.034z" fill="url(#m)"/><path d="m254.447 194.7c-5.181-6.233-7.092-13.188-4.267-15.536 2.821-2.347 9.311.803 14.491 7.035 5.181 6.232 7.092 13.187 4.268 15.535-2.823 2.347-9.312-.803-14.492-7.034z" fill="url(#n)"/><path d="m291.284 114.142c5.589-5.869 12.275-8.575 14.934-6.042 2.659 2.53.284 9.342-5.305 15.21-5.588 5.87-12.274 8.575-14.933 6.043s-.285-9.342 5.304-15.211z" fill="url(#o)"/><path d="m464.923 107.743c-5.181-6.233-7.092-13.188-4.267-15.535 2.821-2.347 9.311.803 14.491 7.035 5.181 6.232 7.092 13.187 4.269 15.534-2.824 2.347-9.313-.802-14.493-7.034z" fill="url(#p)"/><path d="m443.199 144.7c.672-8.077 4.182-14.378 7.842-14.073 3.657.302 6.08 7.097 5.409 15.173-.671 8.077-4.181 14.377-7.84 14.073s-6.082-7.097-5.411-15.173z" fill="url(#q)"/><path d="m400.728 89.274c.671-8.077 4.182-14.378 7.842-14.073 3.657.302 6.08 7.097 5.409 15.173-.671 8.077-4.181 14.378-7.84 14.073-3.66-.304-6.082-7.097-5.411-15.173z" fill="url(#r)"/><path d="m423.682 191.389c6.939-4.188 14.102-5.034 15.999-1.89 1.898 3.142-2.19 9.086-9.128 13.273-6.938 4.188-14.101 5.035-15.998 1.891-1.897-3.143 2.189-9.087 9.127-13.274z" fill="url(#s)"/><path d="m404.1 167.458c6.715-4.54 13.825-5.754 15.881-2.711 2.057 3.039-1.719 9.186-8.432 13.725-6.714 4.54-13.824 5.754-15.88 2.712-2.057-3.042 1.718-9.187 8.431-13.726z" fill="url(#t)"/><path d="m362.769 31.864c-7.956-1.544-13.839-5.718-13.138-9.323.697-3.603 7.715-5.274 15.671-3.73s13.838 5.717 13.139 9.322c-.7 3.604-7.716 5.275-15.672 3.731z" fill="url(#u)"/><path d="m44.18 174.583c-1.706 7.924-5.998 13.72-9.588 12.947-3.589-.771-5.116-7.821-3.411-15.744s5.998-13.719 9.587-12.946c3.59.772 5.117 7.821 3.412 15.743z" fill="url(#v)"/><path d="m118.967 174.583c-1.706 7.924-5.998 13.72-9.588 12.947-3.588-.771-5.116-7.821-3.41-15.744 1.704-7.923 5.997-13.719 9.586-12.946 3.59.772 5.118 7.821 3.412 15.743z" fill="url(#w)"/><path d="m155.815 190.358c-6.133 5.299-13.051 7.342-15.451 4.563-2.401-2.776.625-9.325 6.757-14.623 6.132-5.299 13.049-7.342 15.45-4.564 2.4 2.779-.624 9.326-6.756 14.624z" fill="url(#x)"/><path d="m213.45 178.757c8.011-1.231 14.956.714 15.513 4.344.559 3.628-5.484 7.567-13.494 8.797-8.011 1.231-14.956-.713-15.514-4.343-.557-3.629 5.485-7.568 13.495-8.798z" fill="url(#y)"/><path d="m218.807 134.795c-6.133 5.299-13.051 7.342-15.451 4.562-2.401-2.776.625-9.324 6.757-14.623s13.049-7.342 15.45-4.563c2.4 2.778-.624 9.326-6.756 14.624z" fill="url(#z)"/><path d="m150.88 138.501c-7.514-3.039-12.488-8.262-11.111-11.666 1.375-3.403 8.583-3.699 16.096-.661s12.488 8.261 11.111 11.665-8.583 3.7-16.096.662z" fill="url(#A)"/><path d="m114.077 127.583c-1.705 7.924-5.998 13.72-9.588 12.947-3.588-.771-5.116-7.821-3.41-15.744 1.705-7.923 5.997-13.719 9.587-12.946 3.589.772 5.117 7.821 3.411 15.743z" fill="url(#B)"/><path d="m42.593 125.441c-5.214 6.204-11.719 9.319-14.53 6.957s-.864-9.307 4.35-15.511c5.214-6.205 11.719-9.32 14.53-6.958 2.811 2.363.864 9.307-4.35 15.512z" fill="url(#D)"/><path d="m84.843 77.492c-5.214 6.204-11.719 9.319-14.53 6.957s-.864-9.307 4.35-15.511c5.214-6.205 11.719-9.32 14.53-6.958 2.811 2.363.864 9.307-4.35 15.512z" fill="url(#E)"/><path d="m82.415 148.46c-.797 8.065-4.405 14.31-8.059 13.949s-5.97-7.191-5.173-15.256c.797-8.066 4.405-14.311 8.059-13.95 3.654.362 5.97 7.192 5.173 15.257z" fill="url(#F)"/><path d="m144.707 105.963c-7.443 3.206-14.654 3.072-16.107-.299-1.453-3.372 3.403-8.706 10.846-11.912 7.443-3.207 14.654-3.074 16.107.298 1.452 3.373-3.402 8.706-10.846 11.913z" fill="url(#G)"/><path d="m400.746 39.011c6.758 4.473 10.594 10.581 8.568 13.643-2.027 3.062-9.148 1.919-15.906-2.554-6.759-4.473-10.595-10.581-8.568-13.643s9.148-1.919 15.906 2.554z" fill="url(#H)"/><path d="m183.569 121.756c-7.443 3.206-14.654 3.072-16.107-.3-1.453-3.371 3.402-8.705 10.845-11.912s14.654-3.073 16.107.299c1.453 3.373-3.402 8.706-10.845 11.913z" fill="url(#I)"/><path d="m293.21 76.443c-7.443 3.206-14.654 3.073-16.107-.299s3.403-8.706 10.845-11.912c7.444-3.207 14.655-3.073 16.108.298 1.452 3.373-3.403 8.706-10.846 11.913z" fill="url(#J)"/><path d="m195.363 57.181c1.286 8.001-.61 14.96-4.235 15.543s-7.607-5.431-8.893-13.433.61-14.96 4.235-15.543c3.626-.582 7.607 5.431 8.893 13.433z" fill="url(#K)"/><path d="m234.131 64.519c-7.658-2.652-12.893-7.613-11.692-11.083 1.201-3.469 8.383-4.134 16.041-1.483 7.659 2.651 12.894 7.612 11.693 11.082-1.202 3.47-8.383 4.134-16.042 1.484z" fill="url(#L)"/><path d="m272.072 14.189c-7.658-2.651-12.893-7.612-11.692-11.082 1.2-3.469 8.382-4.134 16.041-1.483s12.893 7.612 11.693 11.082c-1.202 3.47-8.383 4.134-16.042 1.483z" fill="url(#M)"/><path d="m322.131 20.775c-7.658-2.651-12.893-7.613-11.692-11.082 1.201-3.47 8.383-4.135 16.041-1.484 7.659 2.651 12.894 7.613 11.693 11.082-1.202 3.47-8.383 4.135-16.042 1.484z" fill="url(#N)"/><path d="m223.167 106.211c-7.856-1.989-13.494-6.486-12.594-10.045.901-3.559 8-4.834 15.857-2.845 7.857 1.988 13.495 6.485 12.595 10.045-.902 3.56-8 4.834-15.858 2.845z" fill="url(#O)"/><path d="m455.344 76.296c5.964 5.487 8.784 12.125 6.298 14.827-2.486 2.703-9.336.446-15.3-5.042-5.965-5.487-8.784-12.125-6.299-14.827 2.487-2.702 9.337-.446 15.301 5.042z" fill="url(#P)"/><path d="m73.937 182.147c3.114 7.482 2.891 14.691-.499 16.102s-8.663-3.51-11.776-10.992c-3.115-7.483-2.892-14.691.498-16.102 3.391-1.411 8.663 3.51 11.777 10.992z" fill="url(#Q)"/><path d="m13.954 186.533c-2.232 7.79-6.902 13.287-10.431 12.276-3.53-1.011-4.584-8.146-2.352-15.937 2.231-7.791 6.901-13.288 10.431-12.277s4.583 8.146 2.352 15.938z" fill="url(#R)"/><path d="m119.508 88.922c-.798 8.065-4.405 14.31-8.059 13.949s-5.971-7.191-5.173-15.256c.797-8.066 4.405-14.311 8.058-13.95 3.655.362 5.971 7.192 5.174 15.257z" fill="url(#S)"/><path d="m143.378 39.195c-7.108 3.892-14.3 4.437-16.063 1.217-1.764-3.22 2.568-8.987 9.677-12.879 7.108-3.893 14.3-4.438 16.064-1.218 1.763 3.221-2.569 8.987-9.678 12.88z" fill="url(#T)"/><path d="m189.753 21.529c-7.875 1.911-14.961.569-15.828-2.999-.866-3.568 4.816-8.011 12.691-9.923 7.876-1.912 14.963-.57 15.829 2.998.866 3.569-4.816 8.011-12.692 9.924z" fill="url(#U)"/><path d="m137.559 146.13c2.918 7.561 2.508 14.761-.917 16.084-3.425 1.322-8.569-3.734-11.487-11.295-2.919-7.56-2.509-14.761.916-16.084 3.426-1.321 8.569 3.734 11.488 11.295z" fill="url(#V)"/><path d="m194.583 163.221c-8.1.244-14.756-2.533-14.867-6.203s6.366-6.844 14.467-7.087c8.101-.245 14.757 2.532 14.868 6.202.11 3.671-6.366 6.844-14.468 7.088z" fill="url(#W)"/><path d="m299.759 158.756c-8.1.243-14.757-2.534-14.867-6.204-.111-3.67 6.366-6.844 14.466-7.087 8.101-.244 14.758 2.532 14.868 6.202.11 3.671-6.366 6.844-14.467 7.089z" fill="url(#X)"/><path d="m356.681 177.124c-6.578-4.732-10.174-10.984-8.03-13.965s9.215-1.562 15.794 3.171c6.58 4.732 10.175 10.984 8.032 13.965-2.145 2.981-9.216 1.562-15.796-3.171z" fill="url(#Y)"/><path d="m299.699 187.584c-8.1.244-14.756-2.533-14.867-6.203s6.366-6.844 14.467-7.087c8.101-.245 14.757 2.532 14.868 6.202.11 3.671-6.367 6.844-14.468 7.088z" fill="url(#Z)"/><path d="m248.585 167.953c-5.045-6.342-6.806-13.336-3.932-15.622 2.873-2.286 9.293 1.002 14.337 7.344 5.046 6.343 6.807 13.337 3.933 15.623s-9.293-1.002-14.338-7.345z" fill="url(#aa)"/><path d="m306.087 47.389c-8.066-.779-14.32-4.372-13.967-8.027.352-3.654 7.178-5.987 15.244-5.208 8.067.779 14.321 4.372 13.968 8.027s-7.177 5.987-15.245 5.208z" fill="url(#ab)"/><path d="m338.079 66.867c-1.062-8.035 1.027-14.938 4.667-15.419 3.64-.482 7.453 5.641 8.515 13.675 1.063 8.035-1.026 14.938-4.666 15.419-3.641.481-7.453-5.641-8.516-13.675z" fill="url(#ac)"/><path d="m357.675 107.661c4.819-6.516 11.118-10.029 14.07-7.846s1.44 9.236-3.378 15.751c-4.819 6.517-11.118 10.03-14.07 7.847-2.953-2.184-1.44-9.235 3.378-15.752z" fill="url(#ad)"/><path d="m392.986 140.347c-.509-8.088 2.047-14.832 5.711-15.064 3.665-.231 7.05 6.138 7.56 14.226.51 8.089-2.046 14.833-5.71 15.064-3.665.231-7.05-6.138-7.561-14.226z" fill="url(#ae)"/><path d="m429.809 104.355c7.644-2.691 14.829-2.065 16.049 1.399 1.219 3.463-3.99 8.453-11.634 11.143-7.645 2.691-14.83 2.065-16.049-1.398-1.219-3.465 3.989-8.453 11.634-11.144z" fill="url(#af)"/><path d="m468.878 169.946c7.645-2.69 14.83-2.064 16.049 1.399s-3.989 8.453-11.634 11.143c-7.645 2.691-14.83 2.065-16.049-1.398-1.218-3.464 3.989-8.453 11.634-11.144z" fill="url(#ag)"/><path d="m490.847 142.551c-.51-8.088 2.047-14.832 5.711-15.064 3.664-.231 7.049 6.138 7.559 14.226.511 8.089-2.045 14.833-5.71 15.064s-7.049-6.137-7.56-14.226z" fill="url(#ah)"/><path d="m510.847 197.929c-.51-8.088 2.047-14.832 5.711-15.063 3.664-.232 7.049 6.137 7.559 14.225.511 8.089-2.045 14.833-5.71 15.065-3.665.23-7.049-6.138-7.56-14.227z" fill="url(#ai)"/><path d="m379.157 59.731c8.027-1.117 14.944.925 15.451 4.561.506 3.637-5.59 7.492-13.617 8.609-8.027 1.118-14.945-.924-15.451-4.561s5.59-7.491 13.617-8.609z" fill="url(#aj)"/></g></svg>