<svg clip-rule="evenodd" fill-rule="evenodd" stroke-linejoin="round" stroke-miterlimit="1.41421" viewBox="0 0 522 209" xmlns="http://www.w3.org/2000/svg" xmlns:xlink="http://www.w3.org/1999/xlink"><linearGradient id="a"><stop offset="0" stop-color="#bdba00"/><stop offset="1" stop-color="#021d00"/></linearGradient><linearGradient id="b" gradientTransform="matrix(-33.7362 -30.4105 34.0885 -37.8165 398.7 96.6692)" gradientUnits="userSpaceOnUse" x1="0" x2="1" xlink:href="#a" y1="0" y2="0"/><linearGradient id="c" gradientTransform="matrix(-7.36774 -44.8179 50.2384 -8.25884 372.516 54.873)" gradientUnits="userSpaceOnUse" x1="0" x2="1" xlink:href="#a" y1="0" y2="0"/><linearGradient id="d" gradientTransform="matrix(-38.5172 -24.0697 26.9809 -43.1757 273.091 28.4989)" gradientUnits="userSpaceOnUse" x1="0" x2="1" xlink:href="#a" y1="0" y2="0"/><linearGradient id="e" gradientTransform="matrix(-44.9926 -6.21245 6.96382 -50.4343 155.329 124.57)" gradientUnits="userSpaceOnUse" x1="0" x2="1" xlink:href="#a" y1="0" y2="0"/><linearGradient id="f" gradientTransform="matrix(-6.44797 -44.9595 50.3971 -7.22782 199.768 177.878)" gradientUnits="userSpaceOnUse" x1="0" x2="1" xlink:href="#a" y1="0" y2="0"/><linearGradient id="g" gradientTransform="matrix(-44.9926 -6.21245 6.96382 -50.4343 170.329 44.9013)" gradientUnits="userSpaceOnUse" x1="0" x2="1" xlink:href="#a" y1="0" y2="0"/><linearGradient id="h" gradientTransform="matrix(-44.7631 7.6937 -8.62422 -50.177 81.2139 96.0295)" gradientUnits="userSpaceOnUse" x1="0" x2="1" xlink:href="#a" y1="0" y2="0"/><linearGradient id="i" gradientTransform="matrix(-45.4053 -1.13595 1.27333 -50.8968 246.535 90.7476)" gradientUnits="userSpaceOnUse" x1="0" x2="1" xlink:href="#a" y1="0" y2="0"/><linearGradient id="j" gradientTransform="matrix(-21.5166 39.9996 -44.8373 -24.1189 309.737 45.1798)" gradientUnits="userSpaceOnUse" x1="0" x2="1" xlink:href="#a" y1="0" y2="0"/><linearGradient id="k" gradientTransform="matrix(-28.5262 -35.3438 39.6185 -31.9763 357.242 147.368)" gradientUnits="userSpaceOnUse" x1="0" x2="1" xlink:href="#a" y1="0" y2="0"/><linearGradient id="l" gradientTransform="matrix(-40.4589 20.64 -23.1363 -45.3522 278.208 118.277)" gradientUnits="userSpaceOnUse" x1="0" x2="1" xlink:href="#a" y1="0" y2="0"/><linearGradient id="m" gradientTransform="matrix(-42.2554 16.6556 -18.67 -47.366 434.229 131.98)" gradientUnits="userSpaceOnUse" x1="0" x2="1" xlink:href="#a" y1="0" y2="0"/><linearGradient id="n" gradientTransform="matrix(-26.2033 37.0987 -41.5856 -29.3725 503.008 134.892)" gradientUnits="userSpaceOnUse" x1="0" x2="1" xlink:href="#a" y1="0" y2="0"/><g fill-rule="nonzero"><path d="m0 208.341c0-98.112 112.715-208.341 256.133-208.341s265.388 110.229 265.388 208.341z" fill="#cd7a2d"/><path d="m415.12 50.521c-31.131 82.42-102.718 130.595-164.006 157.82h270.407c-1.178-63.116-53.085-128.792-106.401-157.82z" fill="#b86b28"/><path d="m20.77 191.006s31.592-139.426 188.033-170.405c0 0-117.403 65.725-188.033 170.405z" fill="#dfa26d"/><path d="m379.892 67.523c16.993-2.365 31.637 1.957 32.709 9.656 1.073 7.699-11.833 15.86-28.827 18.225-16.994 2.366-31.639-1.956-32.711-9.655-1.071-7.7 11.834-15.86 28.829-18.226z" fill="url(#b)"/><path d="m376.02 20.362c14.751 8.761 23.493 21.281 19.524 27.964-3.969 6.684-19.146 5.002-33.897-3.76-14.753-8.761-23.495-21.281-19.526-27.964 3.971-6.684 19.146-5.001 33.899 3.76z" fill="url(#c)"/><path d="m249.493 3.074c16.321-5.289 31.495-3.583 33.892 3.811s-8.891 17.679-25.212 22.967c-16.323 5.291-31.496 3.585-33.893-3.809-2.396-7.396 8.89-17.679 25.213-22.969z" fill="url(#d)"/><path d="m123.396 111.019c12.731-11.501 27.276-16.15 32.487-10.382 5.211 5.767-.883 19.768-13.614 31.27-12.732 11.503-27.276 16.152-32.487 10.384-5.211-5.769.883-19.768 13.614-31.272z" fill="url(#e)"/><path d="m203.979 143.445c14.568 9.062 23.051 21.758 18.946 28.359s-19.244 4.608-33.813-4.454c-14.57-9.062-23.053-21.758-18.948-28.358 4.107-6.601 19.244-4.608 33.815 4.453z" fill="url(#f)"/><path d="m138.396 31.351c12.731-11.502 27.276-16.151 32.487-10.383 5.211 5.767-.883 19.769-13.614 31.27-12.732 11.503-27.276 16.152-32.487 10.384-5.211-5.769.883-19.768 13.614-31.271z" fill="url(#g)"/><path d="m46.678 92.777c8.654-14.815 21.11-23.647 27.822-19.727 6.712 3.921 5.14 19.109-3.514 33.924-8.654 14.816-21.109 23.649-27.821 19.728-6.713-3.922-5.141-19.109 3.513-33.925z" fill="url(#h)"/><path d="m213.286 80.857c11.364-12.854 25.296-19.102 31.12-13.954 5.824 5.147 1.336 19.743-10.028 32.597-11.363 12.856-25.295 19.105-31.12 13.957-5.824-5.15-1.335-19.744 10.028-32.6z" fill="url(#i)"/><path d="m285.899 70.38c-6.338-15.944-5.622-31.196 1.601-34.068s18.219 7.723 24.557 23.667c6.34 15.944 5.623 31.196-1.6 34.068-7.225 2.871-18.219-7.723-24.558-23.667z" fill="url(#j)"/><path d="m343.258 115.623c17.153.34 30.934 6.915 30.781 14.687-.154 7.771-14.184 13.798-31.338 13.458-17.155-.34-30.936-6.914-30.782-14.686.155-7.773 14.184-13.798 31.339-13.459z" fill="url(#k)"/><path d="m244.265 125.427c3.864-16.716 13.134-28.849 20.708-27.099 7.573 1.75 10.583 16.72 6.719 33.437-3.863 16.717-13.134 28.85-20.707 27.1-7.575-1.752-10.584-16.72-6.72-33.438z" fill="url(#l)"/><path d="m399.756 135.835c5.453-16.267 15.846-27.453 23.217-24.983 7.37 2.47 8.927 17.66 3.474 33.928-5.452 16.269-15.846 27.454-23.217 24.984-7.371-2.472-8.927-17.66-3.474-33.929z" fill="url(#m)"/><path d="m476.293 157.018c-4.36-16.593-1.802-31.647 5.716-33.623s17.15 9.874 21.509 26.468c4.362 16.594 1.804 31.648-5.714 33.624-7.52 1.974-17.149-9.874-21.511-26.469z" fill="url(#n)"/></g></svg>