<svg clip-rule="evenodd" fill-rule="evenodd" stroke-linejoin="round" stroke-miterlimit="1.41421" viewBox="0 0 522 209" xmlns="http://www.w3.org/2000/svg" xmlns:xlink="http://www.w3.org/1999/xlink"><linearGradient id="a"><stop offset="0" stop-color="#bdba00"/><stop offset="1" stop-color="#021d00"/></linearGradient><linearGradient id="b" gradientTransform="matrix(-33.7362 -30.4105 34.0885 -37.8165 392.349 96.6692)" gradientUnits="userSpaceOnUse" x1="0" x2="1" xlink:href="#a" y1="0" y2="0"/><linearGradient id="c" gradientTransform="matrix(-7.36774 -44.8179 50.2384 -8.25884 366.164 54.873)" gradientUnits="userSpaceOnUse" x1="0" x2="1" xlink:href="#a" y1="0" y2="0"/><linearGradient id="d" gradientTransform="matrix(-38.5172 -24.0697 26.9809 -43.1757 266.739 28.4989)" gradientUnits="userSpaceOnUse" x1="0" x2="1" xlink:href="#a" y1="0" y2="0"/><linearGradient id="e" gradientTransform="matrix(-44.9926 -6.21245 6.96382 -50.4343 148.977 124.57)" gradientUnits="userSpaceOnUse" x1="0" x2="1" xlink:href="#a" y1="0" y2="0"/><linearGradient id="f" gradientTransform="matrix(-6.44797 -44.9595 50.3971 -7.22782 193.416 177.878)" gradientUnits="userSpaceOnUse" x1="0" x2="1" xlink:href="#a" y1="0" y2="0"/><linearGradient id="g" gradientTransform="matrix(-44.9926 -6.21245 6.96382 -50.4343 163.977 44.9013)" gradientUnits="userSpaceOnUse" x1="0" x2="1" xlink:href="#a" y1="0" y2="0"/><linearGradient id="h" gradientTransform="matrix(-44.7631 7.6937 -8.62422 -50.177 74.8619 96.0295)" gradientUnits="userSpaceOnUse" x1="0" x2="1" xlink:href="#a" y1="0" y2="0"/><linearGradient id="i" gradientTransform="matrix(-45.4053 -1.13595 1.27333 -50.8968 240.183 90.7476)" gradientUnits="userSpaceOnUse" x1="0" x2="1" xlink:href="#a" y1="0" y2="0"/><linearGradient id="j" gradientTransform="matrix(-21.5166 39.9996 -44.8373 -24.1189 303.385 45.1798)" gradientUnits="userSpaceOnUse" x1="0" x2="1" xlink:href="#a" y1="0" y2="0"/><linearGradient id="k" gradientTransform="matrix(-28.5262 -35.3438 39.6185 -31.9763 350.89 147.368)" gradientUnits="userSpaceOnUse" x1="0" x2="1" xlink:href="#a" y1="0" y2="0"/><linearGradient id="l" gradientTransform="matrix(-40.4589 20.64 -23.1363 -45.3522 271.856 118.277)" gradientUnits="userSpaceOnUse" x1="0" x2="1" xlink:href="#a" y1="0" y2="0"/><linearGradient id="m" gradientTransform="matrix(-42.2554 16.6556 -18.67 -47.366 427.877 131.98)" gradientUnits="userSpaceOnUse" x1="0" x2="1" xlink:href="#a" y1="0" y2="0"/><linearGradient id="n" gradientTransform="matrix(-26.2033 37.0987 -41.5856 -29.3725 496.656 134.892)" gradientUnits="userSpaceOnUse" x1="0" x2="1" xlink:href="#a" y1="0" y2="0"/><g fill-rule="nonzero"><path d="m0 208.341c0-98.112 112.715-208.341 256.133-208.341s265.388 110.229 265.388 208.341z" fill="#e4a330"/><path d="m414.805 50.521c-31.131 82.42-102.718 130.595-164.006 157.82h270.407c-1.178-63.116-53.085-128.792-106.401-157.82z" fill="#e1972f"/><path d="m14.812 193.187s31.592-139.426 188.033-170.405c0 0-117.403 65.725-188.033 170.405z" fill="#ebba63"/><path d="m373.54 67.523c16.993-2.365 31.637 1.957 32.71 9.656 1.072 7.699-11.834 15.86-28.827 18.225-16.995 2.366-31.64-1.956-32.712-9.655-1.071-7.7 11.834-15.86 28.829-18.226z" fill="url(#b)"/><path d="m369.668 20.362c14.751 8.761 23.493 21.281 19.524 27.964-3.969 6.684-19.146 5.002-33.897-3.76-14.753-8.761-23.495-21.281-19.526-27.964 3.971-6.684 19.146-5.001 33.899 3.76z" fill="url(#c)"/><path d="m243.141 3.074c16.321-5.289 31.495-3.583 33.892 3.811s-8.891 17.679-25.212 22.967c-16.323 5.291-31.496 3.585-33.893-3.809-2.396-7.396 8.891-17.679 25.213-22.969z" fill="url(#d)"/><path d="m117.044 111.019c12.732-11.501 27.276-16.15 32.487-10.382 5.211 5.767-.883 19.768-13.614 31.27-12.732 11.503-27.276 16.152-32.487 10.384-5.211-5.769.883-19.768 13.614-31.272z" fill="url(#e)"/><path d="m197.627 143.445c14.568 9.062 23.051 21.758 18.946 28.359s-19.244 4.608-33.813-4.454c-14.57-9.062-23.053-21.758-18.948-28.358 4.107-6.601 19.244-4.608 33.815 4.453z" fill="url(#f)"/><path d="m132.044 31.351c12.732-11.502 27.276-16.151 32.487-10.383 5.211 5.767-.883 19.769-13.614 31.27-12.732 11.503-27.276 16.152-32.487 10.384-5.211-5.769.883-19.768 13.614-31.271z" fill="url(#g)"/><path d="m40.326 92.777c8.654-14.815 21.11-23.647 27.822-19.727 6.712 3.921 5.14 19.109-3.514 33.924-8.653 14.816-21.109 23.649-27.821 19.728-6.713-3.922-5.14-19.109 3.513-33.925z" fill="url(#h)"/><path d="m206.934 80.857c11.364-12.854 25.296-19.102 31.12-13.954 5.824 5.147 1.336 19.743-10.027 32.597-11.364 12.856-25.296 19.105-31.12 13.957-5.825-5.15-1.336-19.744 10.027-32.6z" fill="url(#i)"/><path d="m279.547 70.38c-6.338-15.944-5.622-31.196 1.601-34.068s18.219 7.723 24.557 23.667c6.34 15.944 5.624 31.196-1.6 34.068-7.225 2.871-18.218-7.723-24.558-23.667z" fill="url(#j)"/><path d="m336.906 115.623c17.153.34 30.935 6.915 30.781 14.687-.154 7.771-14.184 13.798-31.337 13.458-17.156-.34-30.937-6.914-30.783-14.686.155-7.773 14.184-13.798 31.339-13.459z" fill="url(#k)"/><path d="m237.913 125.427c3.864-16.716 13.134-28.849 20.708-27.099s10.583 16.72 6.719 33.437c-3.863 16.717-13.134 28.85-20.707 27.1-7.575-1.752-10.584-16.72-6.72-33.438z" fill="url(#l)"/><path d="m393.404 135.835c5.453-16.267 15.846-27.453 23.217-24.983 7.37 2.47 8.927 17.66 3.474 33.928-5.452 16.269-15.846 27.454-23.216 24.984-7.372-2.472-8.928-17.66-3.475-33.929z" fill="url(#m)"/><path d="m469.941 157.018c-4.36-16.593-1.801-31.647 5.716-33.623 7.518-1.976 17.15 9.874 21.51 26.468 4.361 16.594 1.803 31.648-5.715 33.624-7.52 1.974-17.149-9.874-21.511-26.469z" fill="url(#n)"/></g></svg>