<svg clip-rule="evenodd" fill-rule="evenodd" stroke-linejoin="round" stroke-miterlimit="1.41421" viewBox="0 0 522 209" xmlns="http://www.w3.org/2000/svg" xmlns:xlink="http://www.w3.org/1999/xlink"><linearGradient id="a"><stop offset="0" stop-color="#4f5563"/><stop offset="1" stop-color="#313541"/></linearGradient><linearGradient id="b" gradientUnits="userSpaceOnUse" x1="92.002" x2="98.07201" xlink:href="#a" y1="57.6296" y2="57.6296"/><linearGradient id="c" gradientUnits="userSpaceOnUse" x1="98.072" x2="104.14201" xlink:href="#a" y1="63.6996" y2="63.6996"/><linearGradient id="d" gradientUnits="userSpaceOnUse" x1="85.932" x2="92.00201" xlink:href="#a" y1="69.7696" y2="69.7696"/><linearGradient id="e" gradientTransform="matrix(2.78732 -5.3922 5.3922 2.78732 91.5336 81.1408)" gradientUnits="userSpaceOnUse" x1="0" x2="1" xlink:href="#a" y1="0" y2="0"/><linearGradient id="f" gradientTransform="matrix(2.78732 -5.3922 5.3922 2.78732 99.7131 78.5359)" gradientUnits="userSpaceOnUse" x1="0" x2="1" xlink:href="#a" y1="0" y2="0"/><linearGradient id="g" gradientTransform="matrix(2.78732 -5.3922 5.3922 2.78732 99.5307 92.1077)" gradientUnits="userSpaceOnUse" x1="0" x2="1" xlink:href="#a" y1="0" y2="0"/><linearGradient id="h" gradientTransform="matrix(-4.62072 -3.93623 4.01875 -4.71759 121.818 75.2037)" gradientUnits="userSpaceOnUse" x1="0" x2="1" xlink:href="#a" y1="0" y2="0"/><linearGradient id="i" gradientTransform="matrix(-4.62072 -3.93623 4.01875 -4.71759 121.216 66.5498)" gradientUnits="userSpaceOnUse" x1="0" x2="1" xlink:href="#a" y1="0" y2="0"/><linearGradient id="j" gradientTransform="matrix(-4.62072 -3.93623 4.01875 -4.71759 134.477 69.7047)" gradientUnits="userSpaceOnUse" x1="0" x2="1" xlink:href="#a" y1="0" y2="0"/><linearGradient id="k" gradientTransform="matrix(2.78732 -5.3922 5.50524 2.84575 131.091 56.865)" gradientUnits="userSpaceOnUse" x1="0" x2="1" xlink:href="#a" y1="0" y2="0"/><linearGradient id="l" gradientTransform="matrix(2.78732 -5.3922 5.50524 2.84575 139.384 54.3185)" gradientUnits="userSpaceOnUse" x1="0" x2="1" xlink:href="#a" y1="0" y2="0"/><linearGradient id="m" gradientTransform="matrix(2.78732 -5.3922 5.50524 2.84575 139.315 67.9487)" gradientUnits="userSpaceOnUse" x1="0" x2="1" xlink:href="#a" y1="0" y2="0"/><linearGradient id="n" gradientTransform="matrix(-5.81962 -1.72539 1.76156 -5.94162 153.602 37.8189)" gradientUnits="userSpaceOnUse" x1="0" x2="1" xlink:href="#a" y1="0" y2="0"/><linearGradient id="o" gradientTransform="matrix(-5.81962 -1.72539 1.76156 -5.94162 149.544 30.1519)" gradientUnits="userSpaceOnUse" x1="0" x2="1" xlink:href="#a" y1="0" y2="0"/><linearGradient id="p" gradientTransform="matrix(-5.81962 -1.72539 1.76156 -5.94162 162.945 27.6611)" gradientUnits="userSpaceOnUse" x1="0" x2="1" xlink:href="#a" y1="0" y2="0"/><linearGradient id="q" gradientTransform="matrix(2.78732 -5.3922 5.50524 2.84575 160.019 56.865)" gradientUnits="userSpaceOnUse" x1="0" x2="1" xlink:href="#a" y1="0" y2="0"/><linearGradient id="r" gradientTransform="matrix(2.78732 -5.3922 5.50524 2.84575 168.311 54.3185)" gradientUnits="userSpaceOnUse" x1="0" x2="1" xlink:href="#a" y1="0" y2="0"/><linearGradient id="s" gradientTransform="matrix(2.78732 -5.3922 5.50524 2.84575 168.242 67.9487)" gradientUnits="userSpaceOnUse" x1="0" x2="1" xlink:href="#a" y1="0" y2="0"/><linearGradient id="t" gradientTransform="matrix(3.18475 5.01489 -5.23148 3.3223 148.646 82.496)" gradientUnits="userSpaceOnUse" x1="0" x2="1" xlink:href="#a" y1="0" y2="0"/><linearGradient id="u" gradientTransform="matrix(3.18475 5.01489 -5.23148 3.3223 146.599 90.8332)" gradientUnits="userSpaceOnUse" x1="0" x2="1" xlink:href="#a" y1="0" y2="0"/><linearGradient id="v" gradientTransform="matrix(3.18475 5.01489 -5.23148 3.3223 134.998 84.1257)" gradientUnits="userSpaceOnUse" x1="0" x2="1" xlink:href="#a" y1="0" y2="0"/><linearGradient id="w" gradientTransform="matrix(2.72793 -5.27732 5.50524 2.84575 188.963 76.3695)" gradientUnits="userSpaceOnUse" x1="0" x2="1" xlink:href="#a" y1="0" y2="0"/><linearGradient id="x" gradientTransform="matrix(2.72793 -5.27732 5.50524 2.84575 197.196 73.9379)" gradientUnits="userSpaceOnUse" x1="0" x2="1" xlink:href="#a" y1="0" y2="0"/><linearGradient id="y" gradientTransform="matrix(2.72793 -5.27732 5.50524 2.84575 197.245 87.3383)" gradientUnits="userSpaceOnUse" x1="0" x2="1" xlink:href="#a" y1="0" y2="0"/><linearGradient id="z" gradientTransform="matrix(3.97266 -4.41698 4.60775 4.14423 174.774 35.5169)" gradientUnits="userSpaceOnUse" x1="0" x2="1" xlink:href="#a" y1="0" y2="0"/><linearGradient id="A" gradientTransform="matrix(3.97266 -4.41698 4.60775 4.14423 183.355 35.2441)" gradientUnits="userSpaceOnUse" x1="0" x2="1" xlink:href="#a" y1="0" y2="0"/><linearGradient id="B" gradientTransform="matrix(3.97266 -4.41698 4.60775 4.14423 180.017 48.2223)" gradientUnits="userSpaceOnUse" x1="0" x2="1" xlink:href="#a" y1="0" y2="0"/><linearGradient id="C" gradientTransform="matrix(.887145 -5.87407 6.12777 .925461 200.054 50.9675)" gradientUnits="userSpaceOnUse" x1="0" x2="1" xlink:href="#a" y1="0" y2="0"/><linearGradient id="D" gradientTransform="matrix(.887145 -5.87407 6.12777 .925461 207.069 46.0189)" gradientUnits="userSpaceOnUse" x1="0" x2="1" xlink:href="#a" y1="0" y2="0"/><linearGradient id="E" gradientTransform="matrix(.887145 -5.87407 6.12777 .925461 211.423 58.6925)" gradientUnits="userSpaceOnUse" x1="0" x2="1" xlink:href="#a" y1="0" y2="0"/><linearGradient id="F" gradientTransform="matrix(-5.84207 1.07794 -1.12449 -6.09438 199.841 23.6116)" gradientUnits="userSpaceOnUse" x1="0" x2="1" xlink:href="#a" y1="0" y2="0"/><linearGradient id="G" gradientTransform="matrix(-5.84207 1.07794 -1.12449 -6.09438 192.874 18.5952)" gradientUnits="userSpaceOnUse" x1="0" x2="1" xlink:href="#a" y1="0" y2="0"/><linearGradient id="H" gradientTransform="matrix(-5.84207 1.07794 -1.12449 -6.09438 203.434 10.3449)" gradientUnits="userSpaceOnUse" x1="0" x2="1" xlink:href="#a" y1="0" y2="0"/><linearGradient id="I" gradientTransform="matrix(-5.06449 3.10526 -3.23938 -5.28322 239.567 15.1832)" gradientUnits="userSpaceOnUse" x1="0" x2="1" xlink:href="#a" y1="0" y2="0"/><linearGradient id="J" gradientTransform="matrix(-5.06449 3.10526 -3.23938 -5.28322 231.263 13.0052)" gradientUnits="userSpaceOnUse" x1="0" x2="1" xlink:href="#a" y1="0" y2="0"/><linearGradient id="K" gradientTransform="matrix(-5.06449 3.10526 -3.23938 -5.28322 238.153 1.5115)" gradientUnits="userSpaceOnUse" x1="0" x2="1" xlink:href="#a" y1="0" y2="0"/><linearGradient id="L" gradientTransform="matrix(2.72793 -5.27732 5.50524 2.84575 258.926 11.2455)" gradientUnits="userSpaceOnUse" x1="0" x2="1" xlink:href="#a" y1="0" y2="0"/><linearGradient id="M" gradientTransform="matrix(2.72793 -5.27732 5.50524 2.84575 267.159 8.81395)" gradientUnits="userSpaceOnUse" x1="0" x2="1" xlink:href="#a" y1="0" y2="0"/><linearGradient id="N" gradientTransform="matrix(2.72793 -5.27732 5.50524 2.84575 267.209 22.2143)" gradientUnits="userSpaceOnUse" x1="0" x2="1" xlink:href="#a" y1="0" y2="0"/><linearGradient id="O" gradientTransform="matrix(2.72793 -5.27732 5.50524 2.84575 244.499 29.3525)" gradientUnits="userSpaceOnUse" x1="0" x2="1" xlink:href="#a" y1="0" y2="0"/><linearGradient id="P" gradientTransform="matrix(2.72793 -5.27732 5.50524 2.84575 252.732 26.9209)" gradientUnits="userSpaceOnUse" x1="0" x2="1" xlink:href="#a" y1="0" y2="0"/><linearGradient id="Q" gradientTransform="matrix(2.72793 -5.27732 5.50524 2.84575 252.782 40.3213)" gradientUnits="userSpaceOnUse" x1="0" x2="1" xlink:href="#a" y1="0" y2="0"/><linearGradient id="R" gradientTransform="matrix(4.81525 -3.47923 3.6295 5.02322 227.758 40.1899)" gradientUnits="userSpaceOnUse" x1="0" x2="1" xlink:href="#a" y1="0" y2="0"/><linearGradient id="S" gradientTransform="matrix(4.81525 -3.47923 3.6295 5.02322 236.203 41.7339)" gradientUnits="userSpaceOnUse" x1="0" x2="1" xlink:href="#a" y1="0" y2="0"/><linearGradient id="T" gradientTransform="matrix(4.81525 -3.47923 3.6295 5.02322 230.202 53.7156)" gradientUnits="userSpaceOnUse" x1="0" x2="1" xlink:href="#a" y1="0" y2="0"/><linearGradient id="U" gradientTransform="matrix(-5.31149 -2.66079 2.77571 -5.54089 224.639 82.3657)" gradientUnits="userSpaceOnUse" x1="0" x2="1" xlink:href="#a" y1="0" y2="0"/><linearGradient id="V" gradientTransform="matrix(-5.31149 -2.66079 2.77571 -5.54089 222.104 74.1641)" gradientUnits="userSpaceOnUse" x1="0" x2="1" xlink:href="#a" y1="0" y2="0"/><linearGradient id="W" gradientTransform="matrix(-5.31149 -2.66079 2.77571 -5.54089 235.502 73.9448)" gradientUnits="userSpaceOnUse" x1="0" x2="1" xlink:href="#a" y1="0" y2="0"/><linearGradient id="X" gradientTransform="matrix(2.72793 -5.27732 5.50524 2.84575 282.499 9.9561)" gradientUnits="userSpaceOnUse" x1="0" x2="1" xlink:href="#a" y1="0" y2="0"/><linearGradient id="Y" gradientTransform="matrix(2.72793 -5.27732 5.50524 2.84575 290.732 7.52453)" gradientUnits="userSpaceOnUse" x1="0" x2="1" xlink:href="#a" y1="0" y2="0"/><linearGradient id="Z" gradientTransform="matrix(2.72793 -5.27732 5.50524 2.84575 290.782 20.9249)" gradientUnits="userSpaceOnUse" x1="0" x2="1" xlink:href="#a" y1="0" y2="0"/><linearGradient id="aa" gradientTransform="matrix(4.42459 -3.96417 4.13538 4.61569 273.911 40.8399)" gradientUnits="userSpaceOnUse" x1="0" x2="1" xlink:href="#a" y1="0" y2="0"/><linearGradient id="ab" gradientTransform="matrix(4.42459 -3.96417 4.13538 4.61569 282.471 41.4914)" gradientUnits="userSpaceOnUse" x1="0" x2="1" xlink:href="#a" y1="0" y2="0"/><linearGradient id="ac" gradientTransform="matrix(4.42459 -3.96417 4.13538 4.61569 277.758 54.0355)" gradientUnits="userSpaceOnUse" x1="0" x2="1" xlink:href="#a" y1="0" y2="0"/><linearGradient id="ad" gradientTransform="matrix(2.28317 5.48442 -5.72129 2.38177 325.948 12.9322)" gradientUnits="userSpaceOnUse" x1="0" x2="1" xlink:href="#a" y1="0" y2="0"/><linearGradient id="ae" gradientTransform="matrix(2.28317 5.48442 -5.72129 2.38177 322.51 20.7984)" gradientUnits="userSpaceOnUse" x1="0" x2="1" xlink:href="#a" y1="0" y2="0"/><linearGradient id="af" gradientTransform="matrix(2.28317 5.48442 -5.72129 2.38177 312.222 12.2114)" gradientUnits="userSpaceOnUse" x1="0" x2="1" xlink:href="#a" y1="0" y2="0"/><linearGradient id="ag" gradientTransform="matrix(2.72793 -5.27732 5.50524 2.84575 302.281 41.7887)" gradientUnits="userSpaceOnUse" x1="0" x2="1" xlink:href="#a" y1="0" y2="0"/><linearGradient id="ah" gradientTransform="matrix(2.72793 -5.27732 5.50524 2.84575 310.514 39.3571)" gradientUnits="userSpaceOnUse" x1="0" x2="1" xlink:href="#a" y1="0" y2="0"/><linearGradient id="ai" gradientTransform="matrix(2.72793 -5.27732 5.50524 2.84575 310.563 52.7575)" gradientUnits="userSpaceOnUse" x1="0" x2="1" xlink:href="#a" y1="0" y2="0"/><linearGradient id="aj" gradientTransform="matrix(4.74778 -3.57075 3.72497 4.95284 347.269 20.9097)" gradientUnits="userSpaceOnUse" x1="0" x2="1" xlink:href="#a" y1="0" y2="0"/><linearGradient id="ak" gradientTransform="matrix(4.74778 -3.57075 3.72497 4.95284 355.742 22.2918)" gradientUnits="userSpaceOnUse" x1="0" x2="1" xlink:href="#a" y1="0" y2="0"/><linearGradient id="al" gradientTransform="matrix(4.74778 -3.57075 3.72497 4.95284 349.972 34.3861)" gradientUnits="userSpaceOnUse" x1="0" x2="1" xlink:href="#a" y1="0" y2="0"/><linearGradient id="am" gradientTransform="matrix(2.72793 -5.27732 5.50524 2.84575 329.45 48.7489)" gradientUnits="userSpaceOnUse" x1="0" x2="1" xlink:href="#a" y1="0" y2="0"/><linearGradient id="an" gradientTransform="matrix(2.72793 -5.27732 5.50524 2.84575 337.684 46.3173)" gradientUnits="userSpaceOnUse" x1="0" x2="1" xlink:href="#a" y1="0" y2="0"/><linearGradient id="ao" gradientTransform="matrix(2.72793 -5.27732 5.50524 2.84575 337.733 59.7177)" gradientUnits="userSpaceOnUse" x1="0" x2="1" xlink:href="#a" y1="0" y2="0"/><linearGradient id="ap" gradientTransform="matrix(2.72793 -5.27732 5.50524 2.84575 354.671 55.891)" gradientUnits="userSpaceOnUse" x1="0" x2="1" xlink:href="#a" y1="0" y2="0"/><linearGradient id="aq" gradientTransform="matrix(2.72793 -5.27732 5.50524 2.84575 362.905 53.4594)" gradientUnits="userSpaceOnUse" x1="0" x2="1" xlink:href="#a" y1="0" y2="0"/><linearGradient id="ar" gradientTransform="matrix(2.72793 -5.27732 5.50524 2.84575 362.954 66.8598)" gradientUnits="userSpaceOnUse" x1="0" x2="1" xlink:href="#a" y1="0" y2="0"/><linearGradient id="as" gradientTransform="matrix(-3.50929 -4.79339 5.00041 -3.66085 257.719 63.2377)" gradientUnits="userSpaceOnUse" x1="0" x2="1" xlink:href="#a" y1="0" y2="0"/><linearGradient id="at" gradientTransform="matrix(-3.50929 -4.79339 5.00041 -3.66085 259.21 54.7835)" gradientUnits="userSpaceOnUse" x1="0" x2="1" xlink:href="#a" y1="0" y2="0"/><linearGradient id="au" gradientTransform="matrix(-3.50929 -4.79339 5.00041 -3.66085 271.229 60.7094)" gradientUnits="userSpaceOnUse" x1="0" x2="1" xlink:href="#a" y1="0" y2="0"/><linearGradient id="av" gradientTransform="matrix(-.38781 -5.92801 6.18404 -.40456 247.697 98.2594)" gradientUnits="userSpaceOnUse" x1="0" x2="1" xlink:href="#a" y1="0" y2="0"/><linearGradient id="aw" gradientTransform="matrix(-.38781 -5.92801 6.18404 -.40456 253.493 91.9268)" gradientUnits="userSpaceOnUse" x1="0" x2="1" xlink:href="#a" y1="0" y2="0"/><linearGradient id="ax" gradientTransform="matrix(-.38781 -5.92801 6.18404 -.40456 260.453 103.378)" gradientUnits="userSpaceOnUse" x1="0" x2="1" xlink:href="#a" y1="0" y2="0"/><linearGradient id="ay" gradientTransform="matrix(4.644 -3.70472 3.86472 4.84457 269.398 78.0877)" gradientUnits="userSpaceOnUse" x1="0" x2="1" xlink:href="#a" y1="0" y2="0"/><linearGradient id="az" gradientTransform="matrix(4.644 -3.70472 3.86472 4.84457 277.906 79.2276)" gradientUnits="userSpaceOnUse" x1="0" x2="1" xlink:href="#a" y1="0" y2="0"/><linearGradient id="aA" gradientTransform="matrix(4.644 -3.70472 3.86472 4.84457 272.483 91.4816)" gradientUnits="userSpaceOnUse" x1="0" x2="1" xlink:href="#a" y1="0" y2="0"/><linearGradient id="aB" gradientTransform="matrix(2.72793 -5.27732 5.50524 2.84575 293.781 62.6628)" gradientUnits="userSpaceOnUse" x1="0" x2="1" xlink:href="#a" y1="0" y2="0"/><linearGradient id="aC" gradientTransform="matrix(2.72793 -5.27732 5.50524 2.84575 302.014 60.2313)" gradientUnits="userSpaceOnUse" x1="0" x2="1" xlink:href="#a" y1="0" y2="0"/><linearGradient id="aD" gradientTransform="matrix(2.72793 -5.27732 5.50524 2.84575 302.063 73.6316)" gradientUnits="userSpaceOnUse" x1="0" x2="1" xlink:href="#a" y1="0" y2="0"/><linearGradient id="aE" gradientTransform="matrix(2.72793 -5.27732 5.50524 2.84575 322.671 75.2874)" gradientUnits="userSpaceOnUse" x1="0" x2="1" xlink:href="#a" y1="0" y2="0"/><linearGradient id="aF" gradientTransform="matrix(2.72793 -5.27732 5.50524 2.84575 330.905 72.8558)" gradientUnits="userSpaceOnUse" x1="0" x2="1" xlink:href="#a" y1="0" y2="0"/><linearGradient id="aG" gradientTransform="matrix(2.72793 -5.27732 5.50524 2.84575 330.954 86.2562)" gradientUnits="userSpaceOnUse" x1="0" x2="1" xlink:href="#a" y1="0" y2="0"/><linearGradient id="aH" gradientTransform="matrix(-3.06895 -5.08658 5.30626 -3.2015 297.95 100.636)" gradientUnits="userSpaceOnUse" x1="0" x2="1" xlink:href="#a" y1="0" y2="0"/><linearGradient id="aI" gradientTransform="matrix(-3.06895 -5.08658 5.30626 -3.2015 300.187 92.3476)" gradientUnits="userSpaceOnUse" x1="0" x2="1" xlink:href="#a" y1="0" y2="0"/><linearGradient id="aJ" gradientTransform="matrix(-3.06895 -5.08658 5.30626 -3.2015 311.631 99.3192)" gradientUnits="userSpaceOnUse" x1="0" x2="1" xlink:href="#a" y1="0" y2="0"/><linearGradient id="aK" gradientTransform="matrix(2.72793 -5.27732 5.50524 2.84575 375.39 36.4946)" gradientUnits="userSpaceOnUse" x1="0" x2="1" xlink:href="#a" y1="0" y2="0"/><linearGradient id="aL" gradientTransform="matrix(2.72793 -5.27732 5.50524 2.84575 383.623 34.063)" gradientUnits="userSpaceOnUse" x1="0" x2="1" xlink:href="#a" y1="0" y2="0"/><linearGradient id="aM" gradientTransform="matrix(2.72793 -5.27732 5.50524 2.84575 383.672 47.4634)" gradientUnits="userSpaceOnUse" x1="0" x2="1" xlink:href="#a" y1="0" y2="0"/><linearGradient id="aN" gradientTransform="matrix(-4.23376 -4.16737 4.34736 -4.41661 402.665 55.4563)" gradientUnits="userSpaceOnUse" x1="0" x2="1" xlink:href="#a" y1="0" y2="0"/><linearGradient id="aO" gradientTransform="matrix(-4.23376 -4.16737 4.34736 -4.41661 402.778 46.8723)" gradientUnits="userSpaceOnUse" x1="0" x2="1" xlink:href="#a" y1="0" y2="0"/><linearGradient id="aP" gradientTransform="matrix(-4.23376 -4.16737 4.34736 -4.41661 415.593 50.7904)" gradientUnits="userSpaceOnUse" x1="0" x2="1" xlink:href="#a" y1="0" y2="0"/><linearGradient id="aQ" gradientTransform="matrix(-1.74379 -5.67899 5.92426 -1.8191 378.166 67.5285)" gradientUnits="userSpaceOnUse" x1="0" x2="1" xlink:href="#a" y1="0" y2="0"/><linearGradient id="aR" gradientTransform="matrix(-1.74379 -5.67899 5.92426 -1.8191 382.346 60.0304)" gradientUnits="userSpaceOnUse" x1="0" x2="1" xlink:href="#a" y1="0" y2="0"/><linearGradient id="aS" gradientTransform="matrix(-1.74379 -5.67899 5.92426 -1.8191 391.758 69.5693)" gradientUnits="userSpaceOnUse" x1="0" x2="1" xlink:href="#a" y1="0" y2="0"/><linearGradient id="aT" gradientTransform="matrix(4.51954 3.85557 -4.02209 4.71474 432.106 61.7098)" gradientUnits="userSpaceOnUse" x1="0" x2="1" xlink:href="#a" y1="0" y2="0"/><linearGradient id="aU" gradientTransform="matrix(4.51954 3.85557 -4.02209 4.71474 432.603 70.2801)" gradientUnits="userSpaceOnUse" x1="0" x2="1" xlink:href="#a" y1="0" y2="0"/><linearGradient id="aV" gradientTransform="matrix(4.51954 3.85557 -4.02209 4.71474 419.542 67.2837)" gradientUnits="userSpaceOnUse" x1="0" x2="1" xlink:href="#a" y1="0" y2="0"/><linearGradient id="aW" gradientTransform="matrix(5.93111 -.33703 .351587 6.18728 358.223 76.2475)" gradientUnits="userSpaceOnUse" x1="0" x2="1" xlink:href="#a" y1="0" y2="0"/><linearGradient id="aX" gradientTransform="matrix(5.93111 -.33703 .351587 6.18728 364.506 82.0978)" gradientUnits="userSpaceOnUse" x1="0" x2="1" xlink:href="#a" y1="0" y2="0"/><linearGradient id="aY" gradientTransform="matrix(5.93111 -.33703 .351587 6.18728 352.996 88.9591)" gradientUnits="userSpaceOnUse" x1="0" x2="1" xlink:href="#a" y1="0" y2="0"/><linearGradient id="aZ" gradientTransform="matrix(-2.36676 -5.58958 5.70676 -2.41638 113.713 47.5664)" gradientUnits="userSpaceOnUse" x1="0" x2="1" xlink:href="#a" y1="0" y2="0"/><linearGradient id="a0" gradientTransform="matrix(-2.36676 -5.58958 5.70676 -2.41638 117.053 39.5605)" gradientUnits="userSpaceOnUse" x1="0" x2="1" xlink:href="#a" y1="0" y2="0"/><linearGradient id="a1" gradientTransform="matrix(-2.36676 -5.58958 5.70676 -2.41638 127.493 48.3233)" gradientUnits="userSpaceOnUse" x1="0" x2="1" xlink:href="#a" y1="0" y2="0"/><linearGradient id="a2" gradientTransform="matrix(2.78732 -5.3922 5.3922 2.78732 65.5736 88.1408)" gradientUnits="userSpaceOnUse" x1="0" x2="1" xlink:href="#a" y1="0" y2="0"/><linearGradient id="a3" gradientTransform="matrix(2.78732 -5.3922 5.3922 2.78732 73.7531 85.5359)" gradientUnits="userSpaceOnUse" x1="0" x2="1" xlink:href="#a" y1="0" y2="0"/><linearGradient id="a4" gradientTransform="matrix(2.78732 -5.3922 5.3922 2.78732 73.5707 99.1077)" gradientUnits="userSpaceOnUse" x1="0" x2="1" xlink:href="#a" y1="0" y2="0"/><g fill-rule="nonzero"><path d="m0 208.341c0-98.112 112.715-208.341 256.133-208.341s265.388 110.229 265.388 208.341z" fill="#cd7a2d"/><path d="m415.12 50.521c-31.131 82.42-102.718 130.595-164.006 157.82h270.407c-1.178-63.116-53.085-128.792-106.401-157.82z" fill="#b86b28"/><path d="m20.77 191.006s31.592-139.426 188.033-170.405c0 0-117.403 65.725-188.033 170.405z" fill="#dfa26d"/></g><circle cx="95.037" cy="57.63" fill="url(#b)" r="3.035"/><circle cx="101.107" cy="63.7" fill="url(#c)" r="3.035"/><circle cx="88.967" cy="69.77" fill="url(#d)" r="3.035"/><path d="m90.231 77.051c.769-1.488 2.602-2.072 4.09-1.302 1.488.769 2.072 2.601 1.302 4.089-.769 1.488-2.601 2.072-4.089 1.303s-2.072-2.602-1.303-4.09z" fill="url(#e)"/><path d="m98.411 74.446c.769-1.488 2.601-2.071 4.089-1.302s2.072 2.601 1.303 4.089c-.769 1.489-2.602 2.072-4.09 1.303s-2.071-2.602-1.302-4.09z" fill="url(#f)"/><path d="m98.228 88.018c.769-1.488 2.602-2.072 4.09-1.303 1.488.77 2.072 2.602 1.302 4.09-.769 1.488-2.601 2.072-4.089 1.303-1.488-.77-2.072-2.602-1.303-4.09z" fill="url(#g)"/><path d="m117.499 75.594c-1.276-1.086-1.41-3.025-.301-4.327 1.109-1.301 3.044-1.476 4.319-.39s1.41 3.025.301 4.327-3.044 1.477-4.319.39z" fill="url(#h)"/><path d="m116.897 66.941c-1.276-1.087-1.41-3.026-.301-4.327 1.109-1.302 3.044-1.477 4.319-.391s1.41 3.025.301 4.327-3.044 1.477-4.319.391z" fill="url(#i)"/><path d="m130.157 70.095c-1.275-1.086-1.41-3.025-.301-4.327 1.109-1.301 3.044-1.476 4.32-.39 1.275 1.086 1.41 3.025.301 4.327s-3.045 1.477-4.32.39z" fill="url(#j)"/><path d="m129.733 52.746c.769-1.488 2.627-2.059 4.146-1.273 1.519.785 2.128 2.631 1.359 4.119s-2.627 2.058-4.147 1.273c-1.519-.785-2.128-2.631-1.358-4.119z" fill="url(#k)"/><path d="m138.025 50.2c.769-1.488 2.627-2.059 4.146-1.274 1.52.786 2.129 2.631 1.359 4.119-.769 1.488-2.627 2.059-4.146 1.273-1.519-.785-2.128-2.63-1.359-4.118z" fill="url(#l)"/><path d="m137.956 63.83c.769-1.488 2.627-2.059 4.146-1.274 1.519.786 2.128 2.631 1.359 4.119s-2.627 2.059-4.146 1.274c-1.52-.786-2.128-2.631-1.359-4.119z" fill="url(#m)"/><path d="m149.812 39.927c-1.606-.476-2.515-2.194-2.029-3.833.486-1.64 2.184-2.585 3.79-2.109 1.606.477 2.515 2.194 2.029 3.834s-2.184 2.584-3.79 2.108z" fill="url(#n)"/><path d="m145.754 32.26c-1.606-.476-2.515-2.194-2.029-3.833.486-1.64 2.184-2.585 3.79-2.109 1.606.477 2.515 2.194 2.029 3.834s-2.184 2.584-3.79 2.108z" fill="url(#o)"/><path d="m159.154 29.769c-1.605-.476-2.515-2.194-2.029-3.833.487-1.64 2.185-2.585 3.791-2.108 1.606.476 2.515 2.193 2.029 3.833s-2.185 2.584-3.791 2.108z" fill="url(#p)"/><path d="m158.66 52.746c.769-1.488 2.627-2.059 4.146-1.273 1.519.785 2.128 2.631 1.359 4.119s-2.627 2.058-4.146 1.273-2.128-2.631-1.359-4.119z" fill="url(#q)"/><path d="m166.952 50.2c.77-1.488 2.628-2.059 4.147-1.274 1.519.786 2.128 2.631 1.359 4.119s-2.627 2.059-4.147 1.273c-1.519-.785-2.128-2.63-1.359-4.118z" fill="url(#r)"/><path d="m166.883 63.83c.769-1.488 2.627-2.059 4.146-1.274 1.52.786 2.129 2.631 1.359 4.119-.769 1.488-2.627 2.059-4.146 1.274-1.519-.786-2.128-2.631-1.359-4.119z" fill="url(#s)"/><path d="m152.854 83.342c.879 1.384.42 3.252-1.023 4.169-1.444.917-3.33.537-4.208-.846-.879-1.384-.421-3.252 1.023-4.169s3.329-.538 4.208.846z" fill="url(#t)"/><path d="m150.807 91.679c.879 1.384.421 3.252-1.023 4.169s-3.329.538-4.208-.846-.42-3.252 1.023-4.169c1.444-.917 3.33-.537 4.208.846z" fill="url(#u)"/><path d="m139.206 84.972c.879 1.384.421 3.252-1.023 4.169-1.444.916-3.329.537-4.208-.847s-.42-3.252 1.023-4.168c1.444-.917 3.33-.538 4.208.846z" fill="url(#v)"/><path d="m187.574 72.308c.753-1.456 2.597-2.001 4.117-1.216 1.519.785 2.141 2.605 1.388 4.062-.752 1.456-2.597 2.001-4.116 1.215-1.519-.785-2.142-2.605-1.389-4.061z" fill="url(#w)"/><path d="m195.807 69.876c.753-1.456 2.598-2.001 4.117-1.215 1.519.785 2.141 2.605 1.388 4.061-.752 1.456-2.597 2.001-4.116 1.216s-2.142-2.605-1.389-4.062z" fill="url(#x)"/><path d="m195.857 83.277c.752-1.457 2.597-2.001 4.116-1.216s2.142 2.605 1.389 4.062c-.753 1.456-2.598 2.001-4.117 1.215-1.519-.785-2.141-2.605-1.388-4.061z" fill="url(#y)"/><path d="m174.457 31.236c1.096-1.219 3.018-1.28 4.29-.136 1.271 1.144 1.414 3.062.317 4.28-1.096 1.219-3.018 1.28-4.29.137-1.271-1.144-1.414-3.062-.317-4.281z" fill="url(#z)"/><path d="m183.037 30.964c1.096-1.219 3.019-1.28 4.29-.137 1.272 1.144 1.414 3.062.318 4.281-1.097 1.219-3.019 1.28-4.29.136-1.272-1.144-1.414-3.062-.318-4.28z" fill="url(#A)"/><path d="m179.699 43.942c1.097-1.219 3.019-1.28 4.291-.137 1.271 1.144 1.413 3.062.317 4.281s-3.018 1.28-4.29.136c-1.272-1.143-1.414-3.061-.318-4.28z" fill="url(#B)"/><path d="m197.434 47.568c.245-1.621 1.817-2.73 3.508-2.475 1.691.256 2.865 1.779 2.62 3.4s-1.817 2.73-3.508 2.475c-1.691-.256-2.865-1.779-2.62-3.4z" fill="url(#C)"/><path d="m204.449 42.619c.245-1.621 1.816-2.73 3.507-2.474 1.691.255 2.866 1.779 2.621 3.4s-1.817 2.729-3.508 2.474-2.865-1.779-2.62-3.4z" fill="url(#D)"/><path d="m208.803 55.293c.244-1.621 1.816-2.73 3.507-2.475 1.691.256 2.865 1.779 2.62 3.4s-1.816 2.73-3.507 2.475c-1.691-.256-2.865-1.779-2.62-3.4z" fill="url(#E)"/><path d="m197.482 27.198c-1.612.297-3.173-.827-3.483-2.508-.31-1.682.746-3.289 2.359-3.587 1.612-.297 3.173.827 3.483 2.509.31 1.681-.747 3.288-2.359 3.586z" fill="url(#F)"/><path d="m190.516 22.181c-1.613.298-3.173-.826-3.484-2.508-.31-1.682.747-3.289 2.359-3.586s3.173.826 3.483 2.508c.311 1.682-.746 3.289-2.358 3.586z" fill="url(#G)"/><path d="m201.075 13.931c-1.612.298-3.173-.826-3.483-2.508s.747-3.289 2.359-3.586c1.612-.298 3.173.826 3.483 2.508s-.747 3.289-2.359 3.586z" fill="url(#H)"/><path d="m238.654 19.377c-1.397.857-3.258.369-4.151-1.089-.894-1.457-.486-3.337.912-4.194s3.258-.369 4.152 1.089.485 3.338-.913 4.194z" fill="url(#I)"/><path d="m230.351 17.199c-1.398.857-3.258.369-4.152-1.088-.894-1.458-.485-3.338.912-4.195 1.398-.857 3.258-.369 4.152 1.089s.485 3.338-.912 4.194z" fill="url(#J)"/><path d="m237.24 5.706c-1.397.857-3.258.369-4.152-1.089s-.485-3.338.913-4.194c1.397-.857 3.258-.369 4.152 1.088.894 1.458.485 3.338-.913 4.195z" fill="url(#K)"/><path d="m257.538 7.184c.752-1.456 2.597-2.001 4.116-1.216 1.519.786 2.142 2.605 1.389 4.062-.753 1.456-2.598 2.001-4.117 1.216-1.519-.786-2.141-2.606-1.388-4.062z" fill="url(#L)"/><path d="m265.771 4.752c.752-1.456 2.597-2.001 4.116-1.215 1.52.785 2.142 2.605 1.389 4.061s-2.597 2.001-4.117 1.216c-1.519-.785-2.141-2.605-1.388-4.062z" fill="url(#M)"/><path d="m265.82 18.153c.753-1.457 2.597-2.001 4.117-1.216 1.519.785 2.141 2.605 1.388 4.062-.752 1.456-2.597 2.001-4.116 1.215-1.519-.785-2.142-2.605-1.389-4.061z" fill="url(#N)"/><path d="m243.11 25.291c.753-1.456 2.598-2.001 4.117-1.216s2.141 2.605 1.389 4.062c-.753 1.456-2.598 2.001-4.117 1.215-1.519-.785-2.141-2.605-1.389-4.061z" fill="url(#O)"/><path d="m251.344 22.859c.752-1.456 2.597-2.001 4.116-1.215 1.519.785 2.142 2.605 1.389 4.061s-2.598 2.001-4.117 1.216-2.141-2.605-1.388-4.062z" fill="url(#P)"/><path d="m251.393 36.26c.753-1.457 2.597-2.001 4.117-1.216 1.519.785 2.141 2.605 1.388 4.062-.753 1.456-2.597 2.001-4.116 1.215-1.52-.785-2.142-2.605-1.389-4.061z" fill="url(#Q)"/><path d="m228.351 35.939c1.329-.96 3.221-.614 4.223.772 1.001 1.386.735 3.291-.593 4.251-1.329.96-3.221.614-4.223-.772-1.001-1.386-.736-3.291.593-4.251z" fill="url(#R)"/><path d="m236.796 37.483c1.329-.96 3.221-.615 4.222.772 1.002 1.386.736 3.291-.593 4.251-1.328.96-3.22.614-4.222-.772s-.736-3.291.593-4.251z" fill="url(#S)"/><path d="m230.795 49.464c1.329-.96 3.221-.614 4.222.772 1.002 1.387.736 3.291-.593 4.252-1.328.96-3.22.614-4.222-.772-1.002-1.387-.736-3.292.593-4.252z" fill="url(#T)"/><path d="m220.596 83.806c-1.466-.734-2.034-2.572-1.268-4.101s2.578-2.174 4.043-1.44c1.466.734 2.034 2.572 1.268 4.101s-2.577 2.174-4.043 1.44z" fill="url(#U)"/><path d="m218.06 75.604c-1.466-.734-2.034-2.572-1.268-4.101s2.578-2.174 4.044-1.44c1.465.734 2.034 2.572 1.268 4.101s-2.578 2.174-4.044 1.44z" fill="url(#V)"/><path d="m231.459 75.385c-1.466-.734-2.034-2.572-1.268-4.101s2.578-2.174 4.043-1.44c1.466.734 2.034 2.572 1.268 4.101s-2.578 2.174-4.043 1.44z" fill="url(#W)"/><path d="m281.11 5.895c.753-1.457 2.598-2.002 4.117-1.216 1.519.785 2.141 2.605 1.389 4.061-.753 1.457-2.598 2.001-4.117 1.216s-2.141-2.605-1.389-4.061z" fill="url(#X)"/><path d="m289.344 3.463c.752-1.456 2.597-2.001 4.116-1.216 1.519.786 2.142 2.605 1.389 4.062-.753 1.456-2.598 2.001-4.117 1.216-1.519-.786-2.141-2.606-1.388-4.062z" fill="url(#Y)"/><path d="m289.393 16.863c.753-1.456 2.597-2.001 4.117-1.215 1.519.785 2.141 2.605 1.388 4.061s-2.597 2.001-4.116 1.216c-1.52-.785-2.142-2.605-1.389-4.062z" fill="url(#Z)"/><path d="m274.056 36.55c1.221-1.094 3.139-.948 4.28.326 1.141 1.273 1.076 3.196-.145 4.29s-3.138.948-4.28-.326c-1.141-1.274-1.076-3.196.145-4.29z" fill="url(#aa)"/><path d="m282.616 37.202c1.221-1.094 3.139-.948 4.28.325 1.141 1.274 1.076 3.196-.145 4.29s-3.138.948-4.28-.326c-1.141-1.273-1.076-3.196.145-4.289z" fill="url(#ab)"/><path d="m277.902 49.746c1.221-1.094 3.139-.948 4.28.325 1.141 1.274 1.077 3.196-.144 4.29s-3.139.948-4.28-.326c-1.142-1.273-1.077-3.196.144-4.289z" fill="url(#ac)"/><path d="m329.95 14.484c.63 1.513-.14 3.275-1.719 3.933-1.579.657-3.372-.038-4.002-1.552-.63-1.513.14-3.275 1.719-3.933 1.579-.657 3.372.038 4.002 1.552z" fill="url(#ad)"/><path d="m326.512 22.35c.63 1.513-.14 3.276-1.719 3.933s-3.372-.038-4.002-1.551c-.63-1.514.14-3.276 1.719-3.934 1.579-.657 3.372.038 4.002 1.552z" fill="url(#ae)"/><path d="m316.224 13.763c.63 1.513-.14 3.276-1.719 3.933-1.578.657-3.372-.038-4.002-1.552-.63-1.513.14-3.275 1.719-3.933 1.579-.657 3.372.038 4.002 1.552z" fill="url(#af)"/><path d="m300.892 37.727c.753-1.456 2.597-2.001 4.117-1.216 1.519.786 2.141 2.606 1.388 4.062-.752 1.456-2.597 2.001-4.116 1.216-1.519-.786-2.142-2.605-1.389-4.062z" fill="url(#ag)"/><path d="m309.125 35.296c.753-1.457 2.598-2.001 4.117-1.216s2.141 2.605 1.389 4.061c-.753 1.457-2.598 2.001-4.117 1.216s-2.142-2.605-1.389-4.061z" fill="url(#ah)"/><path d="m309.175 48.696c.752-1.456 2.597-2.001 4.116-1.216 1.519.786 2.142 2.605 1.389 4.062-.753 1.456-2.597 2.001-4.117 1.216-1.519-.786-2.141-2.606-1.388-4.062z" fill="url(#ai)"/><path d="m347.781 16.648c1.31-.985 3.208-.676 4.236.691s.799 3.276-.511 4.262c-1.31.985-3.209.675-4.237-.691-1.028-1.367-.798-3.277.512-4.262z" fill="url(#aj)"/><path d="m356.254 18.03c1.31-.985 3.208-.676 4.236.691s.799 3.276-.512 4.262c-1.31.985-3.208.676-4.236-.691s-.799-3.277.512-4.262z" fill="url(#ak)"/><path d="m350.483 30.124c1.31-.985 3.208-.675 4.236.691 1.028 1.367.799 3.277-.511 4.262-1.31.986-3.209.676-4.236-.691-1.028-1.367-.799-3.276.511-4.262z" fill="url(#al)"/><path d="m328.062 44.687c.753-1.456 2.597-2.001 4.116-1.215 1.52.785 2.142 2.605 1.389 4.061s-2.597 2.001-4.117 1.216c-1.519-.785-2.141-2.605-1.388-4.062z" fill="url(#am)"/><path d="m336.295 42.256c.753-1.457 2.597-2.001 4.116-1.216 1.52.785 2.142 2.605 1.389 4.062-.753 1.456-2.597 2.001-4.116 1.215-1.52-.785-2.142-2.605-1.389-4.061z" fill="url(#an)"/><path d="m336.344 55.656c.753-1.456 2.598-2.001 4.117-1.216 1.519.786 2.141 2.606 1.389 4.062-.753 1.456-2.598 2.001-4.117 1.216-1.519-.786-2.142-2.606-1.389-4.062z" fill="url(#ao)"/><path d="m353.283 51.829c.753-1.456 2.597-2.001 4.116-1.215 1.52.785 2.142 2.605 1.389 4.061-.753 1.457-2.597 2.001-4.117 1.216-1.519-.785-2.141-2.605-1.388-4.062z" fill="url(#ap)"/><path d="m361.516 49.398c.753-1.456 2.597-2.001 4.116-1.216 1.52.785 2.142 2.605 1.389 4.062-.753 1.456-2.597 2.001-4.116 1.215-1.52-.785-2.142-2.605-1.389-4.061z" fill="url(#aq)"/><path d="m361.565 62.798c.753-1.456 2.598-2.001 4.117-1.216 1.519.786 2.141 2.606 1.389 4.062-.753 1.456-2.598 2.001-4.117 1.216-1.519-.786-2.142-2.605-1.389-4.062z" fill="url(#ar)"/><path d="m253.464 62.671c-.968-1.322-.634-3.216.746-4.227 1.38-1.01 3.286-.756 4.255.567.968 1.322.634 3.217-.746 4.227s-3.286.756-4.255-.567z" fill="url(#as)"/><path d="m254.956 54.217c-.969-1.323-.635-3.217.745-4.227s3.287-.756 4.255.566c.968 1.323.634 3.217-.746 4.228-1.38 1.01-3.286.756-4.254-.567z" fill="url(#at)"/><path d="m266.975 60.143c-.969-1.323-.635-3.217.745-4.227s3.287-.756 4.255.566c.968 1.323.634 3.217-.746 4.227-1.38 1.011-3.286.757-4.254-.566z" fill="url(#au)"/><path d="m244.411 95.498c-.107-1.636 1.191-3.055 2.898-3.167 1.706-.111 3.179 1.126 3.286 2.762s-1.192 3.055-2.898 3.166c-1.707.112-3.179-1.125-3.286-2.761z" fill="url(#av)"/><path d="m250.207 89.165c-.107-1.636 1.192-3.055 2.898-3.166 1.707-.112 3.179 1.126 3.286 2.762.107 1.635-1.192 3.054-2.898 3.166-1.707.111-3.179-1.126-3.286-2.762z" fill="url(#aw)"/><path d="m257.167 100.617c-.107-1.636 1.191-3.055 2.898-3.167 1.706-.111 3.179 1.126 3.286 2.762s-1.192 3.055-2.898 3.166c-1.707.112-3.179-1.126-3.286-2.761z" fill="url(#ax)"/><path d="m269.787 73.813c1.282-1.022 3.188-.767 4.255.57 1.066 1.337.892 3.252-.39 4.275-1.282 1.022-3.188.767-4.254-.57-1.067-1.337-.892-3.253.389-4.275z" fill="url(#ay)"/><path d="m278.296 74.953c1.282-1.022 3.188-.767 4.254.57 1.067 1.337.892 3.252-.389 4.275-1.282 1.022-3.188.766-4.255-.57-1.066-1.337-.892-3.253.39-4.275z" fill="url(#az)"/><path d="m272.873 87.207c1.281-1.022 3.188-.767 4.254.57 1.067 1.337.892 3.252-.39 4.275-1.281 1.022-3.187.766-4.254-.57-1.066-1.337-.892-3.253.39-4.275z" fill="url(#aA)"/><path d="m292.392 58.601c.753-1.456 2.597-2.001 4.116-1.215 1.52.785 2.142 2.605 1.389 4.061s-2.597 2.001-4.116 1.216c-1.52-.785-2.142-2.605-1.389-4.062z" fill="url(#aB)"/><path d="m300.625 56.17c.753-1.457 2.597-2.001 4.117-1.216 1.519.785 2.141 2.605 1.388 4.061-.753 1.457-2.597 2.002-4.116 1.216-1.52-.785-2.142-2.605-1.389-4.061z" fill="url(#aC)"/><path d="m300.674 69.57c.753-1.456 2.598-2.001 4.117-1.216 1.519.786 2.141 2.606 1.389 4.062-.753 1.456-2.598 2.001-4.117 1.216-1.519-.786-2.141-2.606-1.389-4.062z" fill="url(#aD)"/><path d="m321.283 71.226c.753-1.456 2.597-2.001 4.116-1.216 1.52.785 2.142 2.605 1.389 4.062-.753 1.456-2.597 2.001-4.117 1.215-1.519-.785-2.141-2.605-1.388-4.061z" fill="url(#aE)"/><path d="m329.516 68.794c.753-1.456 2.597-2.001 4.116-1.216 1.52.786 2.142 2.606 1.389 4.062s-2.597 2.001-4.116 1.216c-1.52-.786-2.142-2.605-1.389-4.062z" fill="url(#aF)"/><path d="m329.565 82.195c.753-1.457 2.598-2.001 4.117-1.216s2.141 2.605 1.389 4.061c-.753 1.457-2.598 2.001-4.117 1.216s-2.142-2.605-1.389-4.061z" fill="url(#aG)"/><path d="m293.762 99.693c-.847-1.404-.345-3.26 1.119-4.144 1.464-.883 3.341-.461 4.188.943.846 1.403.345 3.26-1.119 4.144-1.464.883-3.341.461-4.188-.943z" fill="url(#aH)"/><path d="m296 91.405c-.847-1.404-.346-3.261 1.118-4.144 1.465-.884 3.341-.461 4.188.943.847 1.403.345 3.26-1.119 4.144-1.464.883-3.341.461-4.187-.943z" fill="url(#aI)"/><path d="m307.444 98.377c-.847-1.404-.346-3.261 1.118-4.144 1.465-.884 3.341-.462 4.188.942s.346 3.261-1.119 4.144c-1.464.884-3.34.461-4.187-.942z" fill="url(#aJ)"/><path d="m374.001 32.433c.753-1.456 2.598-2.001 4.117-1.216 1.519.786 2.141 2.605 1.388 4.062-.752 1.456-2.597 2.001-4.116 1.216-1.519-.786-2.142-2.606-1.389-4.062z" fill="url(#aK)"/><path d="m382.234 30.001c.753-1.456 2.598-2.001 4.117-1.215 1.519.785 2.141 2.605 1.389 4.061-.753 1.457-2.598 2.001-4.117 1.216s-2.141-2.605-1.389-4.062z" fill="url(#aL)"/><path d="m382.284 43.402c.753-1.456 2.597-2.001 4.116-1.216 1.52.785 2.142 2.605 1.389 4.062-.753 1.456-2.597 2.001-4.117 1.215-1.519-.785-2.141-2.605-1.388-4.061z" fill="url(#aM)"/><path d="m398.374 55.581c-1.168-1.15-1.143-3.073.057-4.292s3.122-1.275 4.29-.125c1.169 1.15 1.143 3.073-.056 4.292-1.2 1.219-3.123 1.275-4.291.125z" fill="url(#aN)"/><path d="m398.488 46.997c-1.169-1.15-1.143-3.073.057-4.292 1.199-1.219 3.122-1.275 4.29-.125s1.143 3.073-.057 4.292c-1.199 1.219-3.122 1.275-4.29.125z" fill="url(#aO)"/><path d="m411.303 50.915c-1.169-1.15-1.143-3.073.056-4.292 1.2-1.219 3.123-1.275 4.291-.125s1.143 3.074-.057 4.292c-1.2 1.219-3.122 1.275-4.29.125z" fill="url(#aP)"/><path d="m374.331 65.599c-.481-1.568.456-3.247 2.091-3.749s3.353.362 3.834 1.929c.481 1.568-.456 3.248-2.09 3.75-1.635.502-3.353-.363-3.835-1.93z" fill="url(#aQ)"/><path d="m378.512 58.1c-.481-1.567.455-3.247 2.09-3.749s3.353.363 3.834 1.93c.481 1.568-.455 3.247-2.09 3.749s-3.353-.362-3.834-1.93z" fill="url(#aR)"/><path d="m387.924 67.639c-.481-1.567.455-3.247 2.09-3.749s3.353.363 3.834 1.93-.455 3.247-2.09 3.749-3.353-.362-3.834-1.93z" fill="url(#aS)"/><path d="m436.377 61.28c1.247 1.064 1.358 2.984.248 4.285s-3.023 1.494-4.27.43c-1.248-1.064-1.359-2.984-.249-4.285s3.023-1.494 4.271-.43z" fill="url(#aT)"/><path d="m436.874 69.851c1.247 1.064 1.359 2.984.249 4.285s-3.024 1.493-4.271.429-1.359-2.984-.249-4.285 3.024-1.493 4.271-.429z" fill="url(#aU)"/><path d="m423.813 66.854c1.247 1.064 1.359 2.984.249 4.285s-3.024 1.494-4.271.43-1.359-2.984-.249-4.285 3.024-1.494 4.271-.43z" fill="url(#aV)"/><path d="m361.013 72.985c1.637-.093 3.045 1.218 3.142 2.926.097 1.707-1.153 3.169-2.79 3.262s-3.045-1.218-3.142-2.925c-.097-1.708 1.153-3.17 2.79-3.263z" fill="url(#aW)"/><path d="m367.296 78.836c1.637-.093 3.044 1.217 3.141 2.925.097 1.707-1.153 3.169-2.79 3.262-1.636.093-3.044-1.218-3.141-2.925-.097-1.708 1.153-3.169 2.79-3.262z" fill="url(#aX)"/><path d="m355.785 85.697c1.637-.093 3.045 1.218 3.142 2.925.097 1.708-1.153 3.169-2.79 3.262s-3.044-1.217-3.141-2.925c-.098-1.707 1.153-3.169 2.789-3.262z" fill="url(#aY)"/><path d="m109.676 45.98c-.653-1.543.096-3.336 1.67-4.003 1.575-.667 3.384.044 4.037 1.586.653 1.543-.095 3.337-1.67 4.003-1.575.667-3.383-.044-4.037-1.586z" fill="url(#aZ)"/><path d="m113.016 37.974c-.653-1.543.096-3.336 1.67-4.003 1.575-.667 3.384.044 4.037 1.587.653 1.542-.095 3.336-1.67 4.002-1.575.667-3.383-.044-4.037-1.586z" fill="url(#a0)"/><path d="m123.457 46.737c-.653-1.543.095-3.336 1.67-4.003 1.574-.667 3.383.044 4.036 1.586.654 1.543-.095 3.336-1.67 4.003-1.574.667-3.383-.044-4.036-1.586z" fill="url(#a1)"/><path d="m64.271 84.051c.769-1.488 2.602-2.072 4.09-1.302 1.488.769 2.072 2.601 1.302 4.089-.769 1.488-2.601 2.072-4.089 1.303s-2.072-2.602-1.303-4.09z" fill="url(#a2)"/><path d="m72.451 81.446c.769-1.488 2.601-2.071 4.089-1.302s2.072 2.601 1.303 4.089c-.769 1.489-2.602 2.072-4.09 1.303s-2.072-2.602-1.302-4.09z" fill="url(#a3)"/><path d="m72.268 95.018c.769-1.488 2.602-2.072 4.09-1.303 1.488.77 2.072 2.602 1.302 4.09-.769 1.488-2.601 2.072-4.089 1.303-1.488-.77-2.072-2.602-1.303-4.09z" fill="url(#a4)"/></svg>