<svg clip-rule="evenodd" fill-rule="evenodd" stroke-linejoin="round" stroke-miterlimit="1.41421" viewBox="0 0 560 59" xmlns="http://www.w3.org/2000/svg" xmlns:xlink="http://www.w3.org/1999/xlink"><linearGradient id="a" gradientTransform="matrix(550 0 0 58.5864 0 29.2932)" gradientUnits="userSpaceOnUse" x1="0" x2="1" y1="0" y2="0"><stop offset="0" stop-color="#fdfa38"/><stop offset="1" stop-color="#42730c"/></linearGradient><g fill-rule="nonzero"><path d="m557.401 29.846c-.066-.091-21.583-29.846-21.583-29.846h-236.979-28.716-236.979s-21.517 29.755-21.583 29.846c-11.061 15.297 25.047 18.891 36.641 13.912 4.734-2.033 8.303-5.272 12.899-7.415 14.917-6.954 31.539-2.889 44.234 5.014 0 0 41.678 31.081 80.379 2.446 12.923-9.562 28.654-14.698 46.109-8.209 15.8 5.875 27.781 17.397 44.574 21.734 11.61 2.998 24.391.393 33.977-5.21 6.454-3.773 9.858-9.61 16.919-12.782 18.278-8.213 40.8-6.746 55.956 4.468 38.701 28.633 80.378-2.447 80.378-2.447 12.695-7.903 29.317-11.968 44.234-5.014 4.596 2.143 8.165 5.382 12.899 7.415 11.594 4.979 47.702 1.385 36.641-13.912z" fill="#4d713d"/><path d="m547.92 29.846c-.066-.091-21.583-29.846-21.583-29.846h-236.979-28.716-236.979s-21.517 29.755-21.583 29.846c-11.061 15.297 25.047 18.891 36.641 13.912 4.734-2.033 8.303-5.272 12.899-7.415 14.917-6.954 31.539-2.889 44.234 5.014 0 0 41.678 31.081 80.379 2.446 12.923-9.562 28.654-14.698 46.109-8.209 15.8 5.875 27.781 17.397 44.574 21.734 11.61 2.998 24.391.393 33.977-5.21 6.454-3.773 9.858-9.61 16.919-12.782 18.278-8.213 40.8-6.746 55.956 4.468 38.701 28.633 80.378-2.447 80.378-2.447 12.695-7.903 29.317-11.968 44.234-5.014 4.596 2.143 8.165 5.382 12.899 7.415 11.594 4.979 47.702 1.385 36.641-13.912z" fill="url(#a)"/></g></svg>