<?xml version="1.0" encoding="UTF-8" standalone="no"?><!DOCTYPE svg PUBLIC "-//W3C//DTD SVG 1.1//EN" "http://www.w3.org/Graphics/SVG/1.1/DTD/svg11.dtd"><svg width="100%" height="100%" viewBox="0 0 341 755" version="1.1" xmlns="http://www.w3.org/2000/svg" xmlns:xlink="http://www.w3.org/1999/xlink" xml:space="preserve" xmlns:serif="http://www.serif.com/" style="fill-rule:evenodd;clip-rule:evenodd;stroke-linejoin:round;stroke-miterlimit:1.41421;"><path d="M177.375,250.608l-24.261,0l0,-170.703c-0.564,-14.252 9.038,-43.007 49.59,-52.472l100.047,-27.433l6.416,23.398l-100.76,27.617c-31.764,7.329 -31.061,27.772 -31.049,27.978l0.017,0.638l0,170.977Z" style="fill:#be242a;fill-rule:nonzero;"/><path d="M153.09,81.95l0,4.859l24.262,-1.179l0,-4.858l-24.262,1.178Z" style="fill:#ce4151;fill-rule:nonzero;"/><path d="M178.267,73.464l-23.133,-7.17c-0.512,1.611 -0.921,3.183 -1.232,4.698l23.448,7.267c0.049,-0.914 0.241,-2.627 0.917,-4.795Z" style="fill:#ce4151;fill-rule:nonzero;"/><path d="M181.674,66.573l-19.257,-14.627c-0.979,1.349 -1.863,2.708 -2.667,4.068l19.51,14.819c0.6,-1.345 1.384,-2.783 2.414,-4.26Z" style="fill:#ce4151;fill-rule:nonzero;"/><path d="M187.218,60.622l-13.151,-20.421c-1.335,1.005 -2.596,2.037 -3.781,3.093l13.372,20.763c1.016,-1.151 2.192,-2.305 3.56,-3.435Z" style="fill:#ce4151;fill-rule:nonzero;"/><path d="M184.735,33.71l5.585,24.619c1.324,-0.876 2.794,-1.722 4.401,-2.53l-5.472,-24.121c-1.57,0.643 -3.068,1.325 -4.514,2.032Z" style="fill:#ce4151;fill-rule:nonzero;"/><path d="M291.337,738.883l28.526,-477.654l-299.572,0l30.72,477.654c0,0 109.407,34.4 240.326,0Z" style="fill:#c72b2c;fill-rule:nonzero;"/><rect x="0" y="228.665" width="340.154" height="32.564" style="fill:#e0dfde;fill-rule:nonzero;"/><rect x="12.31" y="207.819" width="315.534" height="20.846" style="fill:#f0f0ef;fill-rule:nonzero;"/><path d="M20.291,261.229c0,0 231.837,9.611 297.165,40.302l2.407,-40.302l-299.572,0Z" style="fill:#b8252b;fill-rule:nonzero;"/><path d="M51.011,738.883c0,0 109.407,34.4 240.326,0l21.659,-362.661c-95.756,327.068 -261.985,362.661 -261.985,362.661Z" style="fill:#a1272a;fill-rule:nonzero;"/><path d="M305.343,590.712l12.626,-201.419l-295.784,0l13.598,201.419l269.56,0Z" style="fill:#aed3e1;fill-rule:nonzero;"/><path d="M317.969,389.293c0,0 -27.712,126.371 -113.291,201.419l100.665,0l12.626,-201.419Z" style="fill:#8fbed8;fill-rule:nonzero;"/><path d="M41.482,590.712l258.704,0l-1.275,21.346l-257.429,-21.346Z" style="fill:#ad262b;fill-rule:nonzero;"/><path d="M327.844,207.819l0,20.846l-148.9,0c0,0 125.411,-0.423 148.9,-20.846Z" style="fill:#d7d4d2;fill-rule:nonzero;"/></svg>