<?xml version="1.0" encoding="UTF-8" standalone="no"?><!DOCTYPE svg PUBLIC "-//W3C//DTD SVG 1.1//EN" "http://www.w3.org/Graphics/SVG/1.1/DTD/svg11.dtd"><svg width="100%" height="100%" viewBox="0 0 599 88" version="1.1" xmlns="http://www.w3.org/2000/svg" xmlns:xlink="http://www.w3.org/1999/xlink" xml:space="preserve" xmlns:serif="http://www.serif.com/" style="fill-rule:evenodd;clip-rule:evenodd;stroke-linejoin:round;stroke-miterlimit:1.41421;"><g id="tomate"><g><path d="M253.024,38.232l-0.586,-0.915l0.11,0.01c-2.957,-3.265 -5.707,-6.584 -9.865,-8.938c-4.542,-2.576 -9.514,-5.177 -14.361,-7.22c-9.546,-4.027 -18.204,-7.269 -28.588,-9.672l0.026,0.072l-1.033,-0.194c-9.625,-1.836 -19.575,-2.513 -29.1,-3.36c-12.225,-1.097 -24.404,-0.935 -36.673,-0.881c-9.368,0.042 -18.839,-0.061 -28.288,0.18c-4.952,0.125 -9.889,0.348 -14.82,0.729c-11.033,1.026 -21.986,2.772 -32.732,5.919l-0.012,0.012c-0.583,0.175 -1.189,0.374 -1.797,0.56c-10.845,3.566 -21.36,8.566 -31.687,14.259c-3.137,1.731 -7.154,3.508 -10.899,5.83c-3.649,2.245 -7.017,5.023 -9.076,8.708c18.625,11.381 39.639,15.179 59.767,18.766c11.7,2.088 23.308,4.509 35.029,5.057c6.025,0.275 12.044,0.282 18.07,0.129c5.551,-0.141 11.11,-0.416 16.667,-0.752c23.659,-1.407 47.461,-1.033 70.579,-7.379c8.589,-2.348 15.501,-3.795 24.433,-6.566c8.946,-2.758 17.456,-6.766 24.415,-14.098c0.094,-0.113 0.25,-0.203 0.421,-0.256Zm2.559,11.202c0.169,-1.069 0.376,-2.543 0.342,-3.875c-0.027,-1.087 -0.236,-2.074 -0.653,-2.649c-0.406,-0.554 -0.726,-0.643 -1.256,-0.752c-0.417,-0.087 -0.969,-0.122 -1.55,-0.365c-7.057,6.81 -15.559,10.671 -24.323,13.352c-8.898,2.721 -15.637,4.176 -23.925,6.33c-23.479,6.089 -47.298,5.994 -71.032,7.355c-5.926,0.334 -11.861,0.669 -17.815,0.819c-6.333,0.159 -12.658,0.124 -19.006,-0.314c-11.235,-0.754 -22.314,-2.982 -33.411,-4.963c-20.533,-3.676 -40.718,-8.046 -59.767,-19.733c-0.572,2.069 -0.811,4.216 -0.755,6.404c0.054,2.151 0.392,4.344 0.899,6.535c3.87,0.61 7.056,2.756 10.488,4.969c5.136,3.32 10.773,5.171 16.36,6.985c11.064,3.61 22.032,7.724 33.216,9.814c12.131,2.273 24.522,2.204 36.845,3.37c11.735,1.123 23.473,2.342 35.196,2.534c2.937,0.048 5.898,0.034 8.856,-0.04c19.902,-0.506 40.054,-3.696 59.549,-8.164c8.428,-1.939 14.452,-3.205 22.807,-5.143c8.779,-2.044 18.282,-4.549 25.033,-12.364c0.166,-0.188 0.419,-0.341 0.7,-0.361c1.649,-2.537 2.729,-6.65 3.202,-9.744Zm-198.865,-36.636l-0.002,-0.013l0.001,-0.012l-0.001,-0.037l-0.002,-0.048l0.035,-0.111c10.802,-3.357 21.888,-4.665 32.969,-6.169l0.012,-0.001l0.013,-0.001c8.937,-0.226 17.883,-0.978 26.82,-1.205c5.489,-0.139 10.971,-0.021 16.426,-0.134c14.229,-0.313 28.345,-0.352 42.603,1.342c6.478,0.776 12.935,1.677 19.395,2.687c1.242,0.203 2.505,0.365 3.769,0.542l0.394,0.051l0.054,0.206c4.539,0.032 9.371,1.989 13.477,3.267c6.289,1.97 10.734,3.618 16.653,6.44c5.808,2.765 12.031,5.996 17.107,9.867c3.131,2.38 6.821,4.671 9.164,7.817l0.111,0.009l0.142,0.266l0.101,0.194c0.548,0.817 1.023,1.686 1.364,2.619c0.053,0.145 0.044,0.304 -0.001,0.452c0.713,1.573 1.105,3.532 1.161,5.256c0.014,0.525 -0.011,1.039 -0.072,1.506c-0.307,2.368 -0.861,5.123 -1.763,7.641c-0.891,2.506 -2.118,4.787 -3.818,6.262c-5.982,6.733 -13.58,10.02 -21.445,12.018c-7.875,1.986 -13.596,2.645 -20.773,4.221c-21.326,4.688 -43.202,9.364 -65.022,9.917c-2.104,0.054 -4.207,0.058 -6.311,0.039c-12.457,-0.162 -24.858,-1.437 -37.242,-2.618c-11.662,-1.11 -23.573,-0.967 -35.293,-2.933c-12.015,-2.02 -23.691,-6.128 -35.414,-9.671c-5.301,-1.604 -10.566,-3.28 -15.743,-5.779c-2.366,-1.163 -4.485,-2.711 -6.586,-4.054c-2.114,-1.34 -4.21,-2.461 -6.543,-2.842l-0.307,-0.053l-0.142,-0.279c-0.451,-0.905 -0.902,-1.812 -1.341,-2.742l-0.027,-0.062l-0.027,-0.083c-0.323,-1.644 -0.556,-3.607 -0.607,-5.6c-0.057,-2.787 0.215,-5.583 1.229,-7.542l-0.163,-0.106l0.44,-0.525l0.427,-0.525l0.075,0.048c0.142,-0.151 0.298,-0.303 0.466,-0.429c0.164,-0.309 0.352,-0.62 0.528,-0.906l0.023,-0.037l0.024,-0.024c0.747,-0.937 1.482,-1.874 2.178,-2.858l0.048,-0.074l0.047,-0.062c4.167,-4.534 10.029,-7.338 14.204,-9.584c10.487,-5.648 21.268,-10.289 32.257,-13.992c1.056,-0.346 2.1,-0.665 3.132,-0.985c0.194,-0.054 0.387,-0.131 0.606,-0.198c0.412,-0.145 0.813,-0.253 1.19,-0.373Z" style="fill:#7a1f20;fill-rule:nonzero;"/><path d="M255.925,45.559c0.034,1.332 -0.173,2.806 -0.342,3.875c-0.473,3.094 -1.553,7.207 -3.202,9.744c-0.281,0.02 -0.534,0.173 -0.7,0.361c-6.751,7.815 -16.254,10.32 -25.033,12.364c-8.355,1.938 -14.379,3.204 -22.807,5.143c-19.495,4.468 -39.647,7.658 -59.549,8.164c-2.958,0.074 -5.919,0.088 -8.856,0.04c-11.723,-0.192 -23.461,-1.411 -35.196,-2.534c-12.323,-1.166 -24.714,-1.097 -36.845,-3.37c-11.184,-2.09 -22.152,-6.204 -33.216,-9.814c-5.587,-1.814 -11.224,-3.665 -16.36,-6.985c-3.432,-2.213 -6.618,-4.359 -10.488,-4.969c-0.507,-2.191 -0.845,-4.384 -0.899,-6.535c-0.056,-2.188 0.183,-4.335 0.755,-6.404c19.049,11.687 39.234,16.057 59.767,19.733c11.097,1.981 22.176,4.209 33.411,4.963c6.348,0.438 12.673,0.473 19.006,0.314c5.954,-0.15 11.889,-0.485 17.815,-0.819c23.734,-1.361 47.553,-1.266 71.032,-7.355c8.288,-2.154 15.027,-3.609 23.925,-6.33c8.764,-2.681 17.266,-6.542 24.323,-13.352c0.581,0.243 1.133,0.278 1.55,0.365c0.53,0.109 0.85,0.198 1.256,0.752c0.417,0.575 0.626,1.562 0.653,2.649Z" style="fill:#ba2e33;fill-rule:nonzero;"/><path d="M90.786,44.644c-0.004,-0.134 -0.044,-0.279 -0.158,-0.399c-0.112,-0.121 -0.274,-0.189 -0.432,-0.198c-0.343,-0.016 -0.686,-0.019 -1.029,-0.01c-1.186,0.03 -2.379,0.22 -3.499,0.468c-0.389,0.095 -0.755,0.141 -1.118,0.286c-0.363,0.13 -0.724,0.372 -1.02,0.783c-0.247,0.361 -0.394,0.83 -0.382,1.295c0.007,0.305 0.089,0.609 0.266,0.874c0.178,0.265 0.477,0.464 0.833,0.529l0.282,0.029c0.478,-0.011 0.923,-0.292 1.156,-0.715c0.118,-0.209 0.185,-0.432 0.24,-0.653l0.025,-0.025l-0.001,-0.012c0.096,-0.1 0.301,-0.204 0.556,-0.272c0.256,-0.067 0.548,-0.111 0.804,-0.167c0.461,-0.122 1.083,-0.199 1.679,-0.361c0.606,-0.173 1.2,-0.421 1.614,-0.933c0.12,-0.149 0.188,-0.323 0.184,-0.519Zm2.89,5.468c0.008,-0.17 -0.094,-0.352 -0.256,-0.445l-0.064,-0.146c-0.089,-0.107 -0.237,-0.189 -0.408,-0.186c-0.111,0.004 -0.22,0.043 -0.316,0.106c-0.565,0.394 -1.515,0.589 -2.4,0.893c-0.449,0.146 -0.884,0.341 -1.256,0.619c-0.384,0.291 -0.692,0.678 -0.839,1.195l-0.031,0.221c0.005,0.16 0.083,0.366 0.282,0.482c0.509,0.282 1.001,0.428 1.503,0.416c0.513,-0.013 1.01,-0.185 1.493,-0.478c0.409,-0.243 0.901,-0.61 1.331,-1.05c0.43,-0.426 0.796,-0.913 0.941,-1.455l0.02,-0.172Zm1.294,-26.186l0.343,0.053l-0.409,-0.222l-0.026,-0.072c-0.276,-0.313 -0.648,-0.449 -1.016,-0.526c-0.958,-0.6 -1.943,-1.358 -3.252,-1.336l-0.231,0.017l-0.134,0.016l-0.225,0.3l-0.083,0.099l0.015,0.122c0.133,0.939 0.701,1.621 1.578,1.943c0.556,0.206 1.166,0.19 1.658,0.25c0.269,0.019 0.502,0.049 0.759,0.043c0.221,-0.006 0.452,-0.036 0.707,-0.128c0.218,-0.092 0.335,-0.266 0.342,-0.499l-0.026,-0.06Zm45.833,-6.85c-0.005,-0.208 -0.059,-0.427 -0.211,-0.595c-0.138,-0.179 -0.362,-0.308 -0.619,-0.35l-0.014,0l-0.183,-0.008c-0.465,0.012 -0.799,0.315 -1.049,0.614c-0.261,0.313 -0.448,0.66 -0.576,0.884c-0.27,0.471 -0.442,0.953 -0.624,1.422l-0.034,0.123l-0.061,0.038l-0.204,0.141l0.116,0.241c-0.046,0.123 -0.091,0.234 -0.139,0.285c-0.107,0.137 -0.152,0.298 -0.148,0.444c0.003,0.16 0.056,0.292 0.145,0.412c0.089,0.109 0.249,0.202 0.432,0.197c0.171,-0.005 0.329,-0.093 0.435,-0.219c0.357,-0.4 0.504,-0.905 0.678,-1.277l0.139,-0.297c0.519,-0.27 1.074,-0.553 1.528,-1.042c0.249,-0.275 0.399,-0.634 0.389,-1.013Zm6.032,0.483c0.033,-0.11 0.054,-0.27 0.051,-0.392c-0.006,-0.22 -0.073,-0.452 -0.212,-0.631c-0.127,-0.181 -0.278,-0.336 -0.548,-0.329l-0.023,0l-0.086,0.004l-0.049,0c-0.975,0.16 -1.744,0.68 -2.438,1.285c-0.837,0.768 -1.449,1.725 -2.242,2.332c-0.142,0.139 -0.176,0.249 -0.184,0.408l0.083,0.341l0.31,0.238l0.067,0.181c0.818,-0.021 1.436,-0.722 2.001,-1.139c1.368,-0.108 2.753,-0.952 3.27,-2.298Zm11.112,31.157l0.148,-0.004c-0.056,-1.222 -0.083,-1.344 -0.282,-1.95l0.047,-0.051c-0.079,-0.278 -0.15,-0.632 -0.281,-0.971c-0.131,-0.339 -0.311,-0.689 -0.635,-0.926l-0.296,-0.102c-0.195,0.017 -0.316,0.105 -0.399,0.205c-0.083,0.101 -0.142,0.199 -0.163,0.334l0.002,0.038c-0.255,-0.361 -0.629,-0.67 -1.145,-0.766l-0.123,-0.009c-0.195,0.004 -0.34,0.094 -0.459,0.207c-0.108,0.112 -0.177,0.274 -0.172,0.457l0.067,0.267c0.386,0.7 0.314,1.716 0.546,2.677c0.136,0.547 0.39,0.933 0.751,1.168c0.348,0.235 0.754,0.299 1.17,0.289c0.268,-0.007 0.536,-0.051 0.817,-0.095c0.22,-0.03 0.253,-0.141 0.371,-0.303c0.107,-0.137 0.054,-0.295 0.036,-0.465Zm2.548,-7.135c0.006,-0.258 -0.149,-0.535 -0.42,-0.663c-0.235,-0.129 -0.5,-0.366 -0.798,-0.591c-0.262,-0.201 -0.585,-0.389 -0.965,-0.44c-0.263,-0.238 -0.599,-0.45 -1.051,-0.439l-0.171,0.017c-0.389,0.059 -0.675,0.409 -0.653,0.787l0.043,0.244c0.238,0.667 0.787,1.142 1.189,1.572c0.403,0.406 0.936,0.698 1.523,0.683c0.208,-0.005 0.415,-0.047 0.62,-0.126c0.207,-0.09 0.361,-0.241 0.479,-0.416c0.117,-0.186 0.211,-0.397 0.204,-0.628Zm25.648,-18.022l0.006,-0.244c-0.012,-0.502 -0.231,-0.899 -0.566,-1.111c-0.336,-0.212 -0.729,-0.263 -1.12,-0.253c-0.319,0.009 -0.623,0.053 -0.915,0.122c-0.839,0.204 -1.585,0.651 -2.286,0.998c-0.701,0.349 -1.274,0.866 -1.867,1.1c-0.267,0.129 -0.396,0.353 -0.401,0.622l0.105,0.303c0.064,0.097 0.175,0.167 0.286,0.189c0.283,0.066 0.541,0.096 0.797,0.09c0.808,-0.02 1.509,-0.344 2.211,-0.631l0.097,-0.039l0.195,-0.006c0.991,-0.024 1.978,-0.172 2.901,-0.44c0.34,-0.106 0.528,-0.405 0.557,-0.7Zm8.255,2.337c0.006,-0.221 -0.11,-0.45 -0.32,-0.58c-0.498,-0.318 -1.098,-0.401 -1.674,-0.386c-0.391,0.011 -0.769,0.068 -1.11,0.139c-1.447,0.293 -2.936,0.466 -4.422,0.736l-0.231,0.054l-0.028,0.343l-0.028,0.344l0.355,-0.021c0.391,-0.01 0.794,-0.032 1.198,-0.043c0.904,-0.024 1.798,0.004 2.622,0.203c0.591,0.143 1.281,0.285 1.965,0.268c0.379,-0.01 0.769,-0.069 1.119,-0.224c0.339,-0.143 0.564,-0.456 0.554,-0.833Zm16.353,14.839c0.526,-0.931 0.772,-1.831 0.75,-2.699c-0.029,-1.161 -0.569,-2.187 -1.41,-3.034c-1.493,-1.479 -3.905,-2.531 -6.752,-3.365c-4.276,-1.237 -9.554,-1.947 -14.14,-2.393c-4.575,-0.446 -8.469,-0.63 -9.832,-0.803c-1.362,-0.161 -3.327,-0.503 -4.895,-1.061c-0.789,-0.275 -1.471,-0.6 -1.92,-0.944c-0.224,-0.165 -0.388,-0.344 -0.489,-0.5c-0.102,-0.157 -0.143,-0.291 -0.147,-0.425c-0.005,-0.232 0.086,-0.541 0.466,-0.979c0.38,-0.437 1.027,-0.967 2.003,-1.543c0.916,-0.549 1.804,-1.232 2.492,-2.081c0.676,-0.837 1.151,-1.877 1.122,-3.038c-0.012,-0.439 -0.096,-0.878 -0.254,-1.339c-0.173,-0.521 -0.562,-0.903 -1.008,-1.161c-0.683,-0.387 -1.52,-0.573 -2.44,-0.684c-0.907,-0.099 -1.898,-0.111 -2.841,-0.087c-1.589,0.04 -3.053,0.186 -3.664,0.19l-0.135,0.004c-1.138,-0.008 -2.287,-0.003 -3.436,0.025c-5.746,0.147 -11.45,0.964 -16.635,3.958c-1.844,1.061 -3.379,2.275 -4.897,3.207c-1.517,0.944 -2.968,1.591 -4.68,1.635c-1.187,0.031 -2.502,-0.23 -4.084,-0.924c-1.163,-0.508 -2.237,-1.313 -3.345,-2.13c-1.122,-0.815 -2.293,-1.642 -3.688,-2.157c-4.322,-1.578 -8.889,-2.711 -13.472,-2.594c-2.238,0.057 -4.468,0.407 -6.676,1.148c-1.674,0.544 -2.65,1.621 -3.433,3.01c-1.23,2.173 -2.128,3.907 -3.332,5.137c-1.205,1.218 -2.68,1.903 -5.357,1.971l-0.099,0.003c-4.082,0.102 -8.19,-0.76 -12.338,-1.804c-4.149,-1.044 -8.337,-2.186 -12.591,-2.507c-0.784,-0.053 -1.898,-0.087 -3.144,-0.055c-1.59,0.041 -3.408,0.221 -5.024,0.678c-1.602,0.457 -3.064,1.203 -3.812,2.543c-0.516,0.906 -0.766,1.708 -0.731,2.563c0.014,0.526 0.113,1.062 0.263,1.681c0.107,0.39 0.31,0.654 0.488,0.906c0.189,0.228 0.378,0.443 0.417,0.502c0.404,0.553 0.589,1.076 0.6,1.539c0.012,0.441 -0.125,0.823 -0.434,1.161c-0.322,0.35 -0.828,0.645 -1.582,0.823c-2.931,0.699 -6.881,1.691 -10.474,3.311c-3.591,1.609 -6.862,3.832 -8.321,7.099c-0.255,0.556 -0.375,1.111 -0.362,1.648c0.017,0.698 0.279,1.339 0.696,1.878c0.745,0.936 1.925,1.603 3.345,2.13c4.284,1.555 10.97,1.863 15.311,1.752c0.928,-0.024 1.747,-0.069 2.406,-0.122c0.672,-0.053 1.183,-0.128 1.537,-0.21c7.135,-1.771 12.476,-6.334 18.642,-9.647c5.696,-3.068 12.204,-4.505 18.302,-5.222l0.001,0.036l0.191,0.766l0.814,-0.204c1.822,-0.511 3.925,-0.565 5.916,-0.688c0.122,-0.003 0.342,-0.009 0.574,-0.014c0.832,-0.022 2.251,-0.009 3.393,0.182c0.566,0.096 1.083,0.242 1.381,0.405c0.161,0.083 0.26,0.164 0.299,0.213l0.065,0.133c0.001,0.06 -0.043,0.246 -0.269,0.532c-0.212,0.3 -0.606,0.676 -1.194,1.12c-3.037,2.267 -6.655,3.862 -9.746,6.437c-1.233,1.034 -2.138,1.998 -2.727,2.906c-0.589,0.921 -0.885,1.797 -0.864,2.628c0.01,0.831 0.372,1.594 0.937,2.191c0.855,0.907 2.143,1.524 3.684,1.974c1.551,0.437 3.381,0.708 5.328,0.806c4.288,0.234 8.719,0.378 13.17,0.267c7.591,-0.194 15.225,-1.146 22.278,-3.734c1.758,-0.644 3.505,-1.692 4.831,-2.949c1.313,-1.256 2.267,-2.761 2.237,-4.387c-0.022,-0.879 -0.363,-1.763 -1.055,-2.553c-0.681,-0.779 -1.677,-1.476 -3.062,-2.088c-0.903,-0.381 -1.766,-0.677 -2.606,-1.011c0.559,-1.079 1.118,-2.169 1.678,-3.26c1.106,-0.297 2.222,-0.63 3.371,-0.66l0.012,-0.001c1.737,-0.043 3.44,-0.429 5.138,-0.472c2.14,-0.055 4.261,0.1 6.4,0.547c2.177,0.459 3.676,1.656 5.059,3.175c1.384,1.519 2.605,3.347 4.199,4.921c2.219,2.17 5.579,2.953 8.261,3.533c2.631,0.571 5.351,0.697 8.089,0.629c3.496,-0.102 7.01,-0.497 10.308,-0.691c4.799,-0.281 10.685,-1.163 14.521,-4.747c1.099,-1.031 1.894,-2.006 2.422,-2.936Zm41.687,-3.418l0.586,0.915c-0.171,0.053 -0.327,0.143 -0.421,0.256c-6.959,7.332 -15.469,11.34 -24.415,14.098c-8.932,2.771 -15.844,4.218 -24.433,6.566c-23.118,6.346 -46.92,5.972 -70.579,7.379c-5.557,0.336 -11.116,0.611 -16.667,0.752c-6.026,0.153 -12.045,0.146 -18.07,-0.129c-11.721,-0.548 -23.329,-2.969 -35.029,-5.057c-20.128,-3.587 -41.142,-7.385 -59.767,-18.766c2.059,-3.685 5.427,-6.463 9.076,-8.708c3.745,-2.322 7.762,-4.099 10.899,-5.83c10.327,-5.693 20.842,-10.693 31.687,-14.259c0.608,-0.186 1.214,-0.385 1.797,-0.56l0.012,-0.012c10.746,-3.147 21.699,-4.893 32.732,-5.919c4.931,-0.381 9.868,-0.604 14.82,-0.729c9.449,-0.241 18.92,-0.138 28.288,-0.18c12.269,-0.054 24.448,-0.216 36.673,0.881c9.525,0.847 19.475,1.524 29.1,3.36l1.033,0.194l-0.026,-0.072c10.384,2.403 19.042,5.645 28.588,9.672c4.847,2.043 9.819,4.644 14.361,7.22c4.158,2.354 6.908,5.673 9.865,8.938l-0.11,-0.01Z" style="fill:#a92b2e;fill-rule:nonzero;"/><path d="M209.657,38.621c-0.017,-0.671 -0.329,-1.421 -1.196,-2.293c-2.612,-2.638 -7.106,-3.82 -11.903,-4.359c-4.785,-0.552 -9.811,-0.497 -13.527,-0.88c-0.503,-0.062 -2.084,-0.204 -3.976,-0.511c-1.892,-0.294 -4.105,-0.752 -5.921,-1.452c-1.211,-0.471 -2.264,-1.02 -2.946,-1.81c-0.39,-0.455 -0.649,-1.011 -0.664,-1.622c-0.014,-0.527 0.145,-1.056 0.462,-1.577c0.657,-1.082 1.731,-1.66 2.721,-2.173c0.991,-0.503 1.933,-0.967 2.466,-1.617c0.976,-1.125 1.262,-1.916 1.251,-2.344c-0.018,-0.182 -0.057,-0.303 -0.134,-0.437c-0.077,-0.119 -0.214,-0.238 -0.388,-0.357c-0.361,-0.235 -0.928,-0.416 -1.555,-0.536c-1.242,-0.225 -2.659,-0.176 -3.209,-0.174c-1.788,-0.028 -3.563,-0.069 -5.335,-0.048c-0.661,0.016 -1.32,0.032 -1.993,0.049c-3.643,0.093 -7.367,0.334 -10.665,1.531c-3.793,1.356 -6.324,4.32 -10.106,6.165c-1.583,0.762 -3.067,1.116 -4.473,1.153c-1.723,0.043 -3.325,-0.393 -4.884,-1.099c-1.559,-0.695 -3.089,-1.66 -4.728,-2.67c-3.593,-2.245 -9.576,-4.198 -14.783,-4.066c-2.358,0.06 -4.561,0.556 -6.321,1.58c-1.76,1.035 -3.102,2.597 -3.826,4.928c-0.564,1.874 -1.904,3.045 -3.453,3.696c-1.55,0.652 -3.319,0.843 -4.969,0.886c-0.905,0.022 -1.762,-0.005 -2.533,-0.034c-3.872,-0.137 -7.644,-0.891 -11.383,-1.641c-4.089,-0.82 -8.14,-1.634 -12.236,-1.627c-0.134,-0.008 -0.282,-0.004 -0.441,-0.001c-1.723,0.044 -5.336,0.368 -7.426,1.363c-0.689,0.323 -1.194,0.715 -1.429,1.1c-0.128,0.224 -0.196,0.434 -0.19,0.703c0.002,0.55 0.415,1.433 1.644,2.576c0.2,0.191 0.476,0.453 0.729,0.777c0.241,0.323 0.471,0.734 0.497,1.247c0.004,0.195 -0.027,0.391 -0.095,0.59c-0.344,0.937 -0.864,1.66 -1.512,2.177c-0.646,0.532 -1.384,0.856 -2.149,1.095c-1.53,0.468 -3.177,0.595 -4.598,1.035c-4.565,1.363 -10.509,3.324 -13.576,6.815c-0.642,0.738 -0.836,1.305 -0.825,1.733c0.008,0.282 0.086,0.524 0.264,0.789c0.167,0.264 0.43,0.539 0.767,0.801c0.686,0.508 1.676,0.972 2.737,1.349c2.134,0.74 4.568,1.168 5.624,1.312c2.062,0.291 4.184,0.481 6.274,0.428c2.8,-0.07 5.614,-0.509 8.156,-1.589c7.527,-3.199 13.726,-9.106 22.016,-11.653c7.333,-2.227 15.408,-2.665 22.742,-2.9l0.005,0.232l-0.243,0.03l0.243,-0.005l0,-0.025c0.196,-0.03 0.39,-0.071 0.528,0.085c0.189,0.215 0.25,0.213 0.256,0.433l-0.009,0.135c1.095,0.217 2.085,0.669 2.779,1.533c0.228,0.287 0.359,0.663 0.356,1.006c0.015,0.599 -0.24,1.131 -0.596,1.617c-0.341,0.499 -0.806,0.975 -1.333,1.441c-1.041,0.907 -2.292,1.759 -3.267,2.382c-0.649,0.42 -1.168,0.727 -1.385,0.867c-0.456,0.318 -1.769,1.146 -3.222,2.222c-1.453,1.065 -3.046,2.366 -4.032,3.528c-0.667,0.763 -1.015,1.481 -0.981,1.848c0.004,0.146 0.043,0.244 0.119,0.351c0.089,0.108 0.238,0.251 0.511,0.379c3.354,1.542 7.558,1.851 11.763,1.744c3.081,-0.077 6.156,-0.376 8.904,-0.531c7.794,-0.43 15.988,-0.492 22.866,-4.238c1.171,-0.64 1.951,-1.198 2.392,-1.662c0.452,-0.477 0.554,-0.797 0.549,-1.029c0.006,-0.221 -0.123,-0.487 -0.424,-0.81c-0.314,-0.31 -0.788,-0.653 -1.347,-1.005c-1.143,-0.693 -2.616,-1.389 -3.872,-2.214c-0.834,-0.554 -1.584,-1.159 -2.069,-1.942c-0.268,-0.446 -0.452,-0.942 -0.464,-1.493c-0.02,-0.721 0.242,-1.461 0.775,-2.22c1.216,-1.732 3.229,-2.871 5.511,-3.603c2.28,-0.742 4.865,-1.077 7.298,-1.138c2.383,-0.06 4.615,0.139 6.313,0.512c2.546,0.559 4.389,1.345 5.996,2.491c1.595,1.133 2.927,2.593 4.506,4.485c2.143,2.575 4.884,4.011 7.926,4.814c3.041,0.792 6.396,0.926 9.673,0.868c2.153,-0.043 4.329,-0.048 6.48,-0.102c2.372,-0.061 4.742,-0.182 7.059,-0.474c1.049,-0.125 3.006,-0.626 4.992,-1.411c1.986,-0.784 4.002,-1.874 5.218,-3.079c0.824,-0.817 1.245,-1.623 1.224,-2.43Zm1.844,-0.585c0.022,0.868 -0.224,1.768 -0.75,2.699c-0.528,0.93 -1.323,1.905 -2.422,2.936c-3.836,3.584 -9.722,4.466 -14.521,4.747c-3.298,0.194 -6.812,0.589 -10.308,0.691c-2.738,0.068 -5.458,-0.058 -8.089,-0.629c-2.682,-0.58 -6.042,-1.363 -8.261,-3.533c-1.594,-1.574 -2.815,-3.402 -4.199,-4.921c-1.383,-1.519 -2.882,-2.716 -5.059,-3.175c-2.139,-0.447 -4.26,-0.602 -6.4,-0.547c-1.698,0.043 -3.401,0.429 -5.138,0.472l-0.012,0.001c-1.149,0.03 -2.265,0.363 -3.371,0.66c-0.56,1.091 -1.119,2.181 -1.678,3.26c0.84,0.334 1.703,0.63 2.606,1.011c1.385,0.612 2.381,1.309 3.062,2.088c0.692,0.79 1.033,1.674 1.055,2.553c0.03,1.626 -0.924,3.131 -2.237,4.387c-1.326,1.257 -3.073,2.305 -4.831,2.949c-7.053,2.588 -14.687,3.54 -22.278,3.734c-4.451,0.111 -8.882,-0.033 -13.17,-0.267c-1.947,-0.098 -3.777,-0.369 -5.328,-0.806c-1.541,-0.45 -2.829,-1.067 -3.684,-1.974c-0.565,-0.597 -0.927,-1.36 -0.937,-2.191c-0.021,-0.831 0.275,-1.707 0.864,-2.628c0.589,-0.908 1.494,-1.872 2.727,-2.906c3.091,-2.575 6.709,-4.17 9.746,-6.437c0.588,-0.444 0.982,-0.82 1.194,-1.12c0.226,-0.286 0.27,-0.472 0.269,-0.532l-0.065,-0.133c-0.039,-0.049 -0.138,-0.13 -0.299,-0.213c-0.298,-0.163 -0.815,-0.309 -1.381,-0.405c-1.142,-0.191 -2.561,-0.204 -3.393,-0.182c-0.232,0.005 -0.452,0.011 -0.574,0.014c-1.991,0.123 -4.094,0.177 -5.916,0.688l-0.814,0.204l-0.191,-0.766l-0.001,-0.036c-6.098,0.717 -12.606,2.154 -18.302,5.222c-6.166,3.313 -11.507,7.876 -18.642,9.647c-0.354,0.082 -0.865,0.157 -1.537,0.21c-0.659,0.053 -1.478,0.098 -2.406,0.122c-4.341,0.111 -11.027,-0.197 -15.311,-1.752c-1.42,-0.527 -2.6,-1.194 -3.345,-2.13c-0.417,-0.539 -0.679,-1.18 -0.696,-1.878c-0.013,-0.537 0.107,-1.092 0.362,-1.648c1.459,-3.267 4.73,-5.49 8.321,-7.099c3.593,-1.62 7.543,-2.612 10.474,-3.311c0.754,-0.178 1.26,-0.473 1.582,-0.823c0.309,-0.338 0.446,-0.72 0.434,-1.161c-0.011,-0.463 -0.196,-0.986 -0.6,-1.539c-0.039,-0.059 -0.228,-0.274 -0.417,-0.502c-0.178,-0.252 -0.381,-0.516 -0.488,-0.906c-0.15,-0.619 -0.249,-1.155 -0.263,-1.681c-0.035,-0.855 0.215,-1.657 0.731,-2.563c0.748,-1.34 2.21,-2.086 3.812,-2.543c1.616,-0.457 3.434,-0.637 5.024,-0.678c1.246,-0.032 2.36,0.002 3.144,0.055c4.254,0.321 8.442,1.463 12.591,2.507c4.148,1.044 8.256,1.906 12.338,1.804l0.099,-0.003c2.677,-0.068 4.152,-0.753 5.357,-1.971c1.204,-1.23 2.102,-2.964 3.332,-5.137c0.783,-1.389 1.759,-2.466 3.433,-3.01c2.208,-0.741 4.438,-1.091 6.676,-1.148c4.583,-0.117 9.15,1.016 13.472,2.594c1.395,0.515 2.566,1.342 3.688,2.157c1.108,0.817 2.182,1.622 3.345,2.13c1.582,0.694 2.897,0.955 4.084,0.924c1.712,-0.044 3.163,-0.691 4.68,-1.635c1.518,-0.932 3.053,-2.146 4.897,-3.207c5.185,-2.994 10.889,-3.811 16.635,-3.958c1.149,-0.028 2.298,-0.033 3.436,-0.025l0.135,-0.004c0.611,-0.004 2.075,-0.15 3.664,-0.19c0.943,-0.024 1.934,-0.012 2.841,0.087c0.92,0.111 1.757,0.297 2.44,0.684c0.446,0.258 0.835,0.64 1.008,1.161c0.158,0.461 0.242,0.9 0.254,1.339c0.029,1.161 -0.446,2.201 -1.122,3.038c-0.688,0.849 -1.576,1.532 -2.492,2.081c-0.976,0.576 -1.623,1.106 -2.003,1.543c-0.38,0.438 -0.471,0.747 -0.466,0.979c0.004,0.134 0.045,0.268 0.147,0.425c0.101,0.156 0.265,0.335 0.489,0.5c0.449,0.344 1.131,0.669 1.92,0.944c1.568,0.558 3.533,0.9 4.895,1.061c1.363,0.173 5.257,0.357 9.832,0.803c4.586,0.446 9.864,1.156 14.14,2.393c2.847,0.834 5.259,1.886 6.752,3.365c0.841,0.847 1.381,1.873 1.41,3.034Z" style="fill:#7a1f20;fill-rule:nonzero;"/><path d="M208.461,36.328c0.867,0.872 1.179,1.622 1.196,2.293c0.021,0.807 -0.4,1.613 -1.224,2.43c-1.216,1.205 -3.232,2.295 -5.218,3.079c-1.986,0.785 -3.943,1.286 -4.992,1.411c-2.317,0.292 -4.687,0.413 -7.059,0.474c-2.151,0.054 -4.327,0.059 -6.48,0.102c-3.277,0.058 -6.632,-0.076 -9.673,-0.868c-3.042,-0.803 -5.783,-2.239 -7.926,-4.814c-1.579,-1.892 -2.911,-3.352 -4.506,-4.485c-1.607,-1.146 -3.45,-1.932 -5.996,-2.491c-1.698,-0.373 -3.93,-0.572 -6.313,-0.512c-2.433,0.061 -5.018,0.396 -7.298,1.138c-2.282,0.732 -4.295,1.871 -5.511,3.603c-0.533,0.759 -0.795,1.499 -0.775,2.22c0.012,0.551 0.196,1.047 0.464,1.493c0.485,0.783 1.235,1.388 2.069,1.942c1.256,0.825 2.729,1.521 3.872,2.214c0.559,0.352 1.033,0.695 1.347,1.005c0.301,0.323 0.43,0.589 0.424,0.81c0.005,0.232 -0.097,0.552 -0.549,1.029c-0.441,0.464 -1.221,1.022 -2.392,1.662c-6.878,3.746 -15.072,3.808 -22.866,4.238c-2.748,0.155 -5.823,0.454 -8.904,0.531c-4.205,0.107 -8.409,-0.202 -11.763,-1.744c-0.273,-0.128 -0.422,-0.271 -0.511,-0.379c-0.076,-0.107 -0.115,-0.205 -0.119,-0.351c-0.034,-0.367 0.314,-1.085 0.981,-1.848c0.986,-1.162 2.579,-2.463 4.032,-3.528c1.453,-1.076 2.766,-1.904 3.222,-2.222c0.217,-0.14 0.736,-0.447 1.385,-0.867c0.975,-0.623 2.226,-1.475 3.267,-2.382c0.527,-0.466 0.992,-0.942 1.333,-1.441c0.356,-0.486 0.611,-1.018 0.596,-1.617c0.003,-0.343 -0.128,-0.719 -0.356,-1.006c-0.694,-0.864 -1.684,-1.316 -2.779,-1.533l0.009,-0.135c-0.006,-0.22 -0.067,-0.218 -0.256,-0.433c-0.138,-0.156 -0.332,-0.115 -0.528,-0.085l-0.005,-0.232c-7.334,0.235 -15.409,0.673 -22.742,2.9c-8.29,2.547 -14.489,8.454 -22.016,11.653c-2.542,1.08 -5.356,1.519 -8.156,1.589c-2.09,0.053 -4.212,-0.137 -6.274,-0.428c-1.056,-0.144 -3.49,-0.572 -5.624,-1.312c-1.061,-0.377 -2.051,-0.841 -2.737,-1.349c-0.337,-0.262 -0.6,-0.537 -0.767,-0.801c-0.178,-0.265 -0.256,-0.507 -0.264,-0.789c-0.011,-0.428 0.183,-0.995 0.825,-1.733c3.067,-3.491 9.011,-5.452 13.576,-6.815c1.421,-0.44 3.068,-0.567 4.598,-1.035c0.765,-0.239 1.503,-0.563 2.149,-1.095c0.648,-0.517 1.168,-1.24 1.512,-2.177c0.068,-0.199 0.099,-0.395 0.095,-0.59c-0.026,-0.513 -0.256,-0.924 -0.497,-1.247c-0.253,-0.324 -0.529,-0.586 -0.729,-0.777c-1.229,-1.143 -1.642,-2.026 -1.644,-2.576c-0.006,-0.269 0.062,-0.479 0.19,-0.703c0.235,-0.385 0.74,-0.777 1.429,-1.1c2.09,-0.995 5.703,-1.319 7.426,-1.363c0.159,-0.003 0.307,-0.007 0.441,0.001c4.096,-0.007 8.147,0.807 12.236,1.627c3.739,0.75 7.511,1.504 11.383,1.641c0.771,0.029 1.628,0.056 2.533,0.034c1.65,-0.043 3.419,-0.234 4.969,-0.886c1.549,-0.651 2.889,-1.822 3.453,-3.696c0.724,-2.331 2.066,-3.893 3.826,-4.928c1.76,-1.024 3.963,-1.52 6.321,-1.58c5.207,-0.132 11.19,1.821 14.783,4.066c1.639,1.01 3.169,1.975 4.728,2.67c1.559,0.706 3.161,1.142 4.884,1.099c1.406,-0.037 2.89,-0.391 4.473,-1.153c3.782,-1.845 6.313,-4.809 10.106,-6.165c3.298,-1.197 7.022,-1.438 10.665,-1.531c0.673,-0.017 1.332,-0.033 1.993,-0.049c1.772,-0.021 3.547,0.02 5.335,0.048c0.55,-0.002 1.967,-0.051 3.209,0.174c0.627,0.12 1.194,0.301 1.555,0.536c0.174,0.119 0.311,0.238 0.388,0.357c0.077,0.134 0.116,0.255 0.134,0.437c0.011,0.428 -0.275,1.219 -1.251,2.344c-0.533,0.65 -1.475,1.114 -2.466,1.617c-0.99,0.513 -2.064,1.091 -2.721,2.173c-0.317,0.521 -0.476,1.05 -0.462,1.577c0.015,0.611 0.274,1.167 0.664,1.622c0.682,0.79 1.735,1.339 2.946,1.81c1.816,0.7 4.029,1.158 5.921,1.452c1.892,0.307 3.473,0.449 3.976,0.511c3.716,0.383 8.742,0.328 13.527,0.88c4.797,0.539 9.291,1.721 11.903,4.359Z" style="fill:#d92e35;fill-rule:nonzero;"/><path d="M187.564,9.78c-0.83,-0.121 -1.66,-0.24 -2.491,-0.357c-4.576,-0.489 -9.147,-0.86 -13.636,-1.249c-0.016,-0.001 -0.033,-0.003 -0.048,-0.004c-0.246,-0.022 -0.493,-0.043 -0.739,-0.065c-0.275,-0.024 -0.55,-0.048 -0.825,-0.072c-0.066,-0.006 -0.133,-0.012 -0.198,-0.018c-12.225,-1.097 -24.404,-0.935 -36.673,-0.881c-9.368,0.042 -18.839,-0.061 -28.288,0.18c-1.684,0.041 -3.368,0.095 -5.048,0.163c-1.952,0.106 -3.903,0.208 -5.855,0.295c-1.306,0.081 -2.612,0.17 -3.917,0.271c-11.033,1.026 -21.986,2.772 -32.732,5.919l-0.012,0.012c-0.583,0.175 -1.189,0.374 -1.797,0.56c-5.357,1.761 -10.635,3.873 -15.85,6.246c0.227,0.537 0.446,1.054 0.662,1.518c2.363,5.088 6.3,6.527 10.93,8.389c2.123,0.854 4.828,2.149 7.539,2.965c0.023,-0.073 0.037,-0.148 0.048,-0.224c0.014,-0.097 0.02,-0.196 0.017,-0.3c-0.011,-0.463 -0.196,-0.986 -0.6,-1.539c-0.039,-0.059 -0.228,-0.274 -0.417,-0.502c-0.178,-0.252 -0.381,-0.516 -0.488,-0.906c-0.15,-0.619 -0.249,-1.155 -0.263,-1.681c-0.009,-0.241 0.003,-0.477 0.039,-0.712c0.089,-0.602 0.321,-1.199 0.692,-1.851c0.748,-1.34 2.21,-2.086 3.812,-2.543c1.616,-0.457 3.434,-0.637 5.024,-0.678c1.246,-0.032 2.36,0.002 3.144,0.055c0.054,0.004 0.109,0.009 0.163,0.013c0.812,0.064 1.621,0.159 2.428,0.277l0.015,0.002c3.139,0.46 6.246,1.267 9.329,2.048c0.053,0.014 0.105,0.028 0.157,0.042c0.021,0.005 0.042,0.009 0.063,0.015c0.112,0.029 0.223,0.057 0.336,0.084c0.033,0.009 0.066,0.017 0.1,0.026c0.053,0.013 0.109,0.027 0.163,0.041c0.036,0.009 0.07,0.018 0.105,0.026l0.003,0.001c0.032,0.007 0.064,0.015 0.097,0.024c0.119,0.029 0.237,0.059 0.356,0.089c2.061,0.507 4.11,0.957 6.153,1.257l0.014,0.002c1.706,0.249 3.41,0.391 5.107,0.369c0.02,0 0.037,0.001 0.055,0c0.065,-0.001 0.129,-0.002 0.193,-0.004c0.031,-0.001 0.062,-0.001 0.092,-0.001l0.099,-0.003c2.677,-0.068 4.152,-0.753 5.357,-1.971c1.204,-1.23 2.102,-2.964 3.332,-5.137c0.783,-1.389 1.759,-2.466 3.433,-3.01c2.208,-0.741 4.438,-1.091 6.676,-1.148c0.029,-0.001 0.06,-0.002 0.091,-0.001c1.581,-0.036 3.161,0.079 4.728,0.307l0.015,0.002c2.863,0.418 5.689,1.221 8.417,2.206c0.033,0.012 0.066,0.024 0.1,0.035c0.039,0.016 0.081,0.031 0.121,0.045c1.395,0.515 2.566,1.342 3.688,2.157c1.108,0.817 2.182,1.622 3.345,2.13c0.013,0.007 0.026,0.012 0.04,0.018c1.009,0.439 1.91,0.7 2.737,0.823l0.025,0.004c0.431,0.063 0.843,0.088 1.238,0.08c0.015,0 0.03,0 0.044,-0.001c1.712,-0.044 3.163,-0.691 4.68,-1.635c1.518,-0.932 3.053,-2.146 4.897,-3.207c5.185,-2.994 10.889,-3.811 16.635,-3.958c1.149,-0.028 2.298,-0.033 3.436,-0.025l0.135,-0.004c0.611,-0.004 2.075,-0.15 3.664,-0.19c0.943,-0.024 1.934,-0.012 2.841,0.087c0.031,0.003 0.063,0.007 0.095,0.012c0.077,0.01 0.154,0.02 0.231,0.031l0.021,0.003c0.705,0.104 1.35,0.264 1.907,0.539c0.021,0.011 0.041,0.021 0.062,0.033c0.012,0.005 0.024,0.012 0.036,0.018c0.03,0.016 0.058,0.032 0.088,0.048c0.446,0.258 0.835,0.64 1.008,1.161c0.158,0.461 0.242,0.9 0.254,1.339c0.006,0.236 -0.009,0.467 -0.042,0.693c-0.13,0.883 -0.542,1.678 -1.08,2.345c-0.688,0.849 -1.576,1.532 -2.492,2.081c-0.976,0.576 -1.623,1.106 -2.003,1.543c-0.307,0.353 -0.424,0.621 -0.455,0.834c-0.008,0.051 -0.011,0.1 -0.011,0.145c0.004,0.134 0.045,0.268 0.147,0.425c0.101,0.156 0.265,0.335 0.489,0.5c0.449,0.344 1.131,0.669 1.92,0.944c0.042,0.014 0.086,0.029 0.129,0.044c0.029,0.01 0.059,0.021 0.088,0.03c1.24,0.418 2.69,0.707 3.888,0.883l0.031,0.004c0.258,0.038 0.503,0.07 0.732,0.097c0.009,0.001 0.018,0.002 0.027,0.003c1.363,0.173 5.257,0.357 9.832,0.803c0.186,0.018 0.376,0.037 0.564,0.056c0.028,0.003 0.055,0.006 0.081,0.008c1.71,0.174 3.502,0.384 5.294,0.646l0.014,0.002c2.847,0.415 5.687,0.959 8.187,1.681c2.847,0.834 5.259,1.886 6.752,3.365c0.841,0.847 1.381,1.873 1.41,3.034c0.006,0.245 -0.008,0.492 -0.045,0.74c-0.093,0.637 -0.327,1.29 -0.705,1.959c-0.037,0.063 -0.074,0.127 -0.113,0.192c4.948,2.922 9.379,7.222 14.213,10.289c0.911,0.58 1.823,1.096 2.735,1.557c0.2,-0.062 0.4,-0.124 0.602,-0.187c8.946,-2.758 17.456,-6.766 24.415,-14.098c0.094,-0.113 0.25,-0.203 0.421,-0.256l-0.586,-0.915l0.11,0.01c-0.394,-0.436 -0.785,-0.873 -1.175,-1.308c-2.036,-1.813 -4.402,-3.378 -6.514,-4.983c-5.077,-3.872 -11.3,-7.102 -17.107,-9.866c-2.859,-1.363 -5.375,-2.454 -7.92,-3.438c-0.345,-0.132 -0.69,-0.264 -1.035,-0.394c-2.394,-0.896 -4.858,-1.72 -7.698,-2.609c-1.332,-0.415 -2.741,-0.901 -4.192,-1.37c-1.925,-0.555 -3.892,-1.078 -5.925,-1.567c-0.243,-0.043 -0.486,-0.084 -0.728,-0.119c-0.884,-0.129 -1.763,-0.205 -2.633,-0.21l-0.054,-0.208l-0.392,-0.051c-0.879,-0.122 -1.76,-0.238 -2.631,-0.366c-0.381,-0.055 -0.762,-0.113 -1.139,-0.174c-1.947,-0.304 -3.894,-0.6 -5.841,-0.884Zm-41.333,6.434c0.001,0 0.002,0 0.004,0c0.203,0.031 0.33,0.167 0.439,0.322c0.139,0.179 0.206,0.411 0.212,0.631c0.001,0.069 -0.005,0.149 -0.016,0.226c-0.009,0.06 -0.021,0.118 -0.035,0.166c-0.517,1.346 -1.902,2.19 -3.27,2.298c-0.565,0.417 -1.183,1.118 -2.001,1.139l-0.067,-0.181l-0.31,-0.238l-0.083,-0.341c0,-0.029 0.003,-0.058 0.007,-0.084c0.017,-0.117 0.062,-0.212 0.177,-0.324c0.793,-0.607 1.405,-1.564 2.242,-2.332c0.694,-0.605 1.463,-1.125 2.438,-1.285l0.049,0l0.086,-0.004l0.023,0c0.004,0 0.007,0.001 0.011,0c0.032,0 0.061,0.002 0.09,0.006c0.001,0 0.002,0 0.004,0.001Zm38.704,5.762c0.003,0.001 0.007,0.001 0.011,0.002c0.211,0.03 0.415,0.094 0.602,0.205c0.004,0.003 0.009,0.005 0.015,0.008c0.001,0.002 0.002,0.002 0.003,0.002c0.006,0.003 0.011,0.008 0.017,0.011c0.335,0.212 0.554,0.609 0.566,1.111l-0.006,0.244c-0.001,0.015 -0.003,0.028 -0.005,0.042c-0.043,0.281 -0.229,0.557 -0.552,0.658c-0.923,0.268 -1.91,0.416 -2.901,0.44l-0.195,0.006l-0.097,0.039c-0.702,0.287 -1.403,0.611 -2.211,0.631c-0.028,0 -0.058,0.001 -0.087,0c-0.129,0 -0.258,-0.01 -0.393,-0.03l-0.016,-0.003c-0.098,-0.014 -0.198,-0.033 -0.301,-0.057c-0.111,-0.022 -0.222,-0.092 -0.286,-0.189l-0.105,-0.303c0.001,-0.033 0.003,-0.066 0.008,-0.098c0.032,-0.226 0.159,-0.411 0.393,-0.524c0.593,-0.234 1.166,-0.751 1.867,-1.1c0.701,-0.347 1.447,-0.794 2.286,-0.998c0.292,-0.069 0.596,-0.113 0.915,-0.122c0.018,-0.001 0.037,-0.001 0.055,-0.001c0.021,0 0.043,0 0.065,-0.001c0.119,0.003 0.237,0.01 0.352,0.027Zm-47.707,-2.631l0.204,-0.141l0.061,-0.038l0.034,-0.123c0.182,-0.469 0.354,-0.951 0.624,-1.422c0.128,-0.224 0.315,-0.571 0.576,-0.884c0.25,-0.299 0.584,-0.602 1.049,-0.614l0.183,0.008l0.014,0c0.257,0.042 0.481,0.171 0.619,0.35c0.152,0.168 0.206,0.387 0.211,0.595c0.002,0.077 -0.003,0.153 -0.013,0.228c-0.042,0.293 -0.178,0.565 -0.376,0.785c-0.454,0.489 -1.009,0.772 -1.528,1.042l-0.139,0.297c-0.174,0.372 -0.321,0.877 -0.678,1.277c-0.106,0.126 -0.264,0.214 -0.435,0.219c-0.005,0 -0.008,0 -0.013,0c-0.025,0 -0.049,-0.002 -0.073,-0.006c0,0 -0.001,0.002 -0.002,0.001c-0.006,-0.001 -0.013,-0.003 -0.021,-0.004c-0.133,-0.024 -0.249,-0.1 -0.32,-0.184c-0.001,-0.001 -0.002,-0.003 -0.003,-0.004c-0.089,-0.12 -0.142,-0.252 -0.145,-0.412c-0.001,-0.037 0.001,-0.075 0.006,-0.112c0.016,-0.113 0.062,-0.229 0.142,-0.332c0.048,-0.051 0.093,-0.162 0.139,-0.285l-0.116,-0.241Zm55.863,5.622c0.003,0.001 0.006,0.001 0.008,0.001c0.346,0.052 0.681,0.158 0.979,0.348c0.21,0.13 0.326,0.359 0.32,0.58c0.002,0.053 -0.002,0.105 -0.009,0.155c-0.047,0.308 -0.253,0.555 -0.545,0.678c-0.35,0.155 -0.74,0.214 -1.119,0.224c-0.028,0.001 -0.055,0 -0.082,0.001c-0.292,0.002 -0.583,-0.023 -0.866,-0.065l-0.016,-0.002c-0.284,-0.041 -0.56,-0.099 -0.821,-0.159c-0.003,-0.001 -0.006,-0.002 -0.008,-0.002c-0.058,-0.014 -0.115,-0.028 -0.172,-0.041c-0.193,-0.047 -0.388,-0.084 -0.587,-0.113l-0.021,-0.003c-0.648,-0.094 -1.328,-0.105 -2.014,-0.087c-0.404,0.011 -0.807,0.033 -1.198,0.043l-0.355,0.021l0.028,-0.344l0.028,-0.343l0.231,-0.054c1.486,-0.27 2.975,-0.443 4.422,-0.736c0.341,-0.071 0.719,-0.128 1.11,-0.139c0.012,0 0.024,0 0.037,0c0.011,0 0.023,-0.001 0.035,-0.001c0.203,-0.003 0.407,0.009 0.61,0.037c0.001,0 0.004,0.001 0.005,0.001Zm-101.95,-3.11c0.005,0.001 0.008,0.001 0.013,0.002c1.004,0.15 1.819,0.736 2.609,1.237c0.002,0.002 0.004,0.004 0.008,0.005c0.013,0.01 0.027,0.018 0.04,0.026c0.009,0.006 0.018,0.011 0.027,0.017c0.007,0.005 0.016,0.01 0.024,0.015c0.368,0.077 0.74,0.213 1.016,0.526l0.026,0.072l0.409,0.222l-0.343,-0.053l0.026,0.06c-0.001,0.026 -0.003,0.051 -0.006,0.075c-0.027,0.196 -0.142,0.342 -0.336,0.424c-0.255,0.092 -0.486,0.122 -0.707,0.128c-0.257,0.006 -0.49,-0.024 -0.759,-0.043c-0.137,-0.016 -0.281,-0.027 -0.432,-0.039c-0.191,-0.014 -0.391,-0.029 -0.592,-0.059l-0.018,-0.002c-0.208,-0.031 -0.414,-0.077 -0.616,-0.15c-0.877,-0.322 -1.445,-1.004 -1.578,-1.943l-0.015,-0.122l0.083,-0.099l0.225,-0.3l0.134,-0.016l0.231,-0.017c0.016,-0.001 0.033,-0.002 0.05,-0.001c0.164,0 0.324,0.012 0.48,0.035l0.001,0Zm-0.847,2.711c-0.258,-0.042 -0.48,-0.11 -0.641,-0.216l-0.038,-0.024c0.025,0.004 0.049,0.007 0.074,0.011c0.294,0.043 0.589,0.119 0.886,0.247l-0.281,-0.018Zm18.111,13.207c-0.004,0 -0.008,-0.001 -0.012,-0.001c-1.102,-0.16 -2.399,-0.17 -3.18,-0.149c-0.232,0.005 -0.452,0.011 -0.574,0.014c-1.991,0.123 -4.094,0.177 -5.916,0.688l-0.814,0.204l-0.191,-0.766l-0.001,-0.036c-1.606,0.188 -3.242,0.428 -4.883,0.733c2.139,1.809 4.494,3.301 7.664,4.298c1.041,0.329 2.07,0.603 3.088,0.824c1.821,-1.104 3.647,-2.14 5.302,-3.374c0.588,-0.444 0.982,-0.82 1.194,-1.12c0.194,-0.246 0.255,-0.417 0.267,-0.499c0.001,-0.013 0.002,-0.024 0.002,-0.033l-0.065,-0.133c-0.039,-0.049 -0.138,-0.13 -0.299,-0.213c-0.298,-0.163 -0.815,-0.309 -1.381,-0.405c-0.032,-0.006 -0.064,-0.01 -0.098,-0.015c-0.033,-0.006 -0.067,-0.011 -0.102,-0.016" style="fill:#912527;fill-rule:nonzero;"/></g><g><path d="M444.024,38.232l-0.586,-0.915l0.11,0.01c-2.957,-3.265 -5.707,-6.584 -9.865,-8.938c-4.542,-2.576 -9.514,-5.177 -14.361,-7.22c-9.546,-4.027 -18.204,-7.269 -28.588,-9.672l0.026,0.072l-1.033,-0.194c-9.625,-1.836 -19.575,-2.513 -29.1,-3.36c-12.225,-1.097 -24.404,-0.935 -36.673,-0.881c-9.368,0.042 -18.839,-0.061 -28.288,0.18c-4.952,0.125 -9.889,0.348 -14.82,0.729c-11.033,1.026 -21.986,2.772 -32.732,5.919l-0.012,0.012c-0.583,0.175 -1.189,0.374 -1.797,0.56c-10.845,3.566 -21.36,8.566 -31.687,14.259c-3.137,1.731 -7.154,3.508 -10.899,5.83c-3.649,2.245 -7.017,5.023 -9.076,8.708c18.625,11.381 39.639,15.179 59.767,18.766c11.7,2.088 23.308,4.509 35.029,5.057c6.025,0.275 12.044,0.282 18.07,0.129c5.551,-0.141 11.11,-0.416 16.667,-0.752c23.659,-1.407 47.461,-1.033 70.579,-7.379c8.589,-2.348 15.501,-3.795 24.433,-6.566c8.946,-2.758 17.456,-6.766 24.415,-14.098c0.094,-0.113 0.25,-0.203 0.421,-0.256Zm2.559,11.202c0.169,-1.069 0.376,-2.543 0.342,-3.875c-0.027,-1.087 -0.236,-2.074 -0.653,-2.649c-0.406,-0.554 -0.726,-0.643 -1.256,-0.752c-0.417,-0.087 -0.969,-0.122 -1.55,-0.365c-7.057,6.81 -15.559,10.671 -24.323,13.352c-8.898,2.721 -15.637,4.176 -23.925,6.33c-23.479,6.089 -47.298,5.994 -71.032,7.355c-5.926,0.334 -11.861,0.669 -17.815,0.819c-6.333,0.159 -12.658,0.124 -19.006,-0.314c-11.235,-0.754 -22.314,-2.982 -33.411,-4.963c-20.533,-3.676 -40.718,-8.046 -59.767,-19.733c-0.572,2.069 -0.811,4.216 -0.755,6.404c0.054,2.151 0.392,4.344 0.899,6.535c3.87,0.61 7.056,2.756 10.488,4.969c5.136,3.32 10.773,5.171 16.36,6.985c11.064,3.61 22.032,7.724 33.216,9.814c12.131,2.273 24.522,2.204 36.845,3.37c11.735,1.123 23.473,2.342 35.196,2.534c2.937,0.048 5.898,0.034 8.856,-0.04c19.902,-0.506 40.054,-3.696 59.549,-8.164c8.428,-1.939 14.452,-3.205 22.807,-5.143c8.779,-2.044 18.282,-4.549 25.033,-12.364c0.166,-0.188 0.419,-0.341 0.7,-0.361c1.649,-2.537 2.729,-6.65 3.202,-9.744Zm-198.865,-36.636l-0.002,-0.013l0.001,-0.012l-0.001,-0.037l-0.002,-0.048l0.035,-0.111c10.802,-3.357 21.888,-4.665 32.969,-6.169l0.012,-0.001l0.013,-0.001c8.937,-0.226 17.883,-0.978 26.82,-1.205c5.489,-0.139 10.971,-0.021 16.426,-0.134c14.229,-0.313 28.345,-0.352 42.603,1.342c6.478,0.776 12.935,1.677 19.395,2.687c1.242,0.203 2.505,0.365 3.769,0.542l0.394,0.051l0.054,0.206c4.539,0.032 9.371,1.989 13.477,3.267c6.289,1.97 10.734,3.618 16.653,6.44c5.808,2.765 12.031,5.996 17.107,9.867c3.131,2.38 6.821,4.671 9.164,7.817l0.111,0.009l0.142,0.266l0.101,0.194c0.548,0.817 1.023,1.686 1.364,2.619c0.053,0.145 0.044,0.304 -0.001,0.452c0.713,1.573 1.105,3.532 1.161,5.256c0.014,0.525 -0.011,1.039 -0.072,1.506c-0.307,2.368 -0.861,5.123 -1.763,7.641c-0.891,2.506 -2.118,4.787 -3.818,6.262c-5.982,6.733 -13.58,10.02 -21.445,12.018c-7.875,1.986 -13.596,2.645 -20.773,4.221c-21.326,4.688 -43.202,9.364 -65.022,9.917c-2.104,0.054 -4.207,0.058 -6.311,0.039c-12.457,-0.162 -24.858,-1.437 -37.242,-2.618c-11.662,-1.11 -23.573,-0.967 -35.293,-2.933c-12.015,-2.02 -23.691,-6.128 -35.414,-9.671c-5.301,-1.604 -10.566,-3.28 -15.743,-5.779c-2.366,-1.163 -4.485,-2.711 -6.586,-4.054c-2.114,-1.34 -4.21,-2.461 -6.543,-2.842l-0.307,-0.053l-0.142,-0.279c-0.451,-0.905 -0.902,-1.812 -1.341,-2.742l-0.027,-0.062l-0.027,-0.083c-0.323,-1.644 -0.556,-3.607 -0.607,-5.6c-0.057,-2.787 0.215,-5.583 1.229,-7.542l-0.163,-0.106l0.44,-0.525l0.427,-0.525l0.075,0.048c0.142,-0.151 0.298,-0.303 0.466,-0.429c0.164,-0.309 0.352,-0.62 0.528,-0.906l0.023,-0.037l0.024,-0.024c0.747,-0.937 1.482,-1.874 2.178,-2.858l0.048,-0.074l0.047,-0.062c4.167,-4.534 10.029,-7.338 14.204,-9.584c10.487,-5.648 21.268,-10.289 32.257,-13.992c1.056,-0.346 2.1,-0.665 3.132,-0.985c0.194,-0.054 0.387,-0.131 0.606,-0.198c0.412,-0.145 0.813,-0.253 1.19,-0.373Z" style="fill:#7a1f20;fill-rule:nonzero;"/><path d="M446.925,45.559c0.034,1.332 -0.173,2.806 -0.342,3.875c-0.473,3.094 -1.553,7.207 -3.202,9.744c-0.281,0.02 -0.534,0.173 -0.7,0.361c-6.751,7.815 -16.254,10.32 -25.033,12.364c-8.355,1.938 -14.379,3.204 -22.807,5.143c-19.495,4.468 -39.647,7.658 -59.549,8.164c-2.958,0.074 -5.919,0.088 -8.856,0.04c-11.723,-0.192 -23.461,-1.411 -35.196,-2.534c-12.323,-1.166 -24.714,-1.097 -36.845,-3.37c-11.184,-2.09 -22.152,-6.204 -33.216,-9.814c-5.587,-1.814 -11.224,-3.665 -16.36,-6.985c-3.432,-2.213 -6.618,-4.359 -10.488,-4.969c-0.507,-2.191 -0.845,-4.384 -0.899,-6.535c-0.056,-2.188 0.183,-4.335 0.755,-6.404c19.049,11.687 39.234,16.057 59.767,19.733c11.097,1.981 22.176,4.209 33.411,4.963c6.348,0.438 12.673,0.473 19.006,0.314c5.954,-0.15 11.889,-0.485 17.815,-0.819c23.734,-1.361 47.553,-1.266 71.032,-7.355c8.288,-2.154 15.027,-3.609 23.925,-6.33c8.764,-2.681 17.266,-6.542 24.323,-13.352c0.581,0.243 1.133,0.278 1.55,0.365c0.53,0.109 0.85,0.198 1.256,0.752c0.417,0.575 0.626,1.562 0.653,2.649Z" style="fill:#ba2e33;fill-rule:nonzero;"/><path d="M281.786,44.644c-0.004,-0.134 -0.044,-0.279 -0.158,-0.399c-0.112,-0.121 -0.274,-0.189 -0.432,-0.198c-0.343,-0.016 -0.686,-0.019 -1.029,-0.01c-1.186,0.03 -2.379,0.22 -3.499,0.468c-0.389,0.095 -0.755,0.141 -1.118,0.286c-0.363,0.13 -0.724,0.372 -1.02,0.783c-0.247,0.361 -0.394,0.83 -0.382,1.295c0.007,0.305 0.089,0.609 0.266,0.874c0.178,0.265 0.477,0.464 0.833,0.529l0.282,0.029c0.478,-0.011 0.923,-0.292 1.156,-0.715c0.118,-0.209 0.185,-0.432 0.24,-0.653l0.025,-0.025l-0.001,-0.012c0.096,-0.1 0.301,-0.204 0.556,-0.272c0.256,-0.067 0.548,-0.111 0.804,-0.167c0.461,-0.122 1.083,-0.199 1.679,-0.361c0.606,-0.173 1.2,-0.421 1.614,-0.933c0.12,-0.149 0.188,-0.323 0.184,-0.519Zm2.89,5.468c0.008,-0.17 -0.094,-0.352 -0.256,-0.445l-0.064,-0.146c-0.089,-0.107 -0.237,-0.189 -0.408,-0.186c-0.111,0.004 -0.22,0.043 -0.316,0.106c-0.565,0.394 -1.515,0.589 -2.4,0.893c-0.449,0.146 -0.884,0.341 -1.256,0.619c-0.384,0.291 -0.692,0.678 -0.839,1.195l-0.031,0.221c0.005,0.16 0.083,0.366 0.282,0.482c0.509,0.282 1.001,0.428 1.503,0.416c0.513,-0.013 1.01,-0.185 1.493,-0.478c0.409,-0.243 0.901,-0.61 1.331,-1.05c0.43,-0.426 0.796,-0.913 0.941,-1.455l0.02,-0.172Zm1.294,-26.186l0.343,0.053l-0.409,-0.222l-0.026,-0.072c-0.276,-0.313 -0.648,-0.449 -1.016,-0.526c-0.958,-0.6 -1.943,-1.358 -3.252,-1.336l-0.231,0.017l-0.134,0.016l-0.225,0.3l-0.083,0.099l0.015,0.122c0.133,0.939 0.701,1.621 1.578,1.943c0.556,0.206 1.166,0.19 1.658,0.25c0.269,0.019 0.502,0.049 0.759,0.043c0.221,-0.006 0.452,-0.036 0.707,-0.128c0.218,-0.092 0.335,-0.266 0.342,-0.499l-0.026,-0.06Zm45.833,-6.85c-0.005,-0.208 -0.059,-0.427 -0.211,-0.595c-0.138,-0.179 -0.362,-0.308 -0.619,-0.35l-0.014,0l-0.183,-0.008c-0.465,0.012 -0.799,0.315 -1.049,0.614c-0.261,0.313 -0.448,0.66 -0.576,0.884c-0.27,0.471 -0.442,0.953 -0.624,1.422l-0.034,0.123l-0.061,0.038l-0.204,0.141l0.116,0.241c-0.046,0.123 -0.091,0.234 -0.139,0.285c-0.107,0.137 -0.152,0.298 -0.148,0.444c0.003,0.16 0.056,0.292 0.145,0.412c0.089,0.109 0.249,0.202 0.432,0.197c0.171,-0.005 0.329,-0.093 0.435,-0.219c0.357,-0.4 0.504,-0.905 0.678,-1.277l0.139,-0.297c0.519,-0.27 1.074,-0.553 1.528,-1.042c0.249,-0.275 0.399,-0.634 0.389,-1.013Zm6.032,0.483c0.033,-0.11 0.054,-0.27 0.051,-0.392c-0.006,-0.22 -0.073,-0.452 -0.212,-0.631c-0.127,-0.181 -0.278,-0.336 -0.548,-0.329l-0.023,0l-0.086,0.004l-0.049,0c-0.975,0.16 -1.744,0.68 -2.438,1.285c-0.837,0.768 -1.449,1.725 -2.242,2.332c-0.142,0.139 -0.176,0.249 -0.184,0.408l0.083,0.341l0.31,0.238l0.067,0.181c0.818,-0.021 1.436,-0.722 2.001,-1.139c1.368,-0.108 2.753,-0.952 3.27,-2.298Zm11.112,31.157l0.148,-0.004c-0.056,-1.222 -0.083,-1.344 -0.282,-1.95l0.047,-0.051c-0.079,-0.278 -0.15,-0.632 -0.281,-0.971c-0.131,-0.339 -0.311,-0.689 -0.635,-0.926l-0.296,-0.102c-0.195,0.017 -0.316,0.105 -0.399,0.205c-0.083,0.101 -0.142,0.199 -0.163,0.334l0.002,0.038c-0.255,-0.361 -0.629,-0.67 -1.145,-0.766l-0.123,-0.009c-0.195,0.004 -0.34,0.094 -0.459,0.207c-0.108,0.112 -0.177,0.274 -0.172,0.457l0.067,0.267c0.386,0.7 0.314,1.716 0.546,2.677c0.136,0.547 0.39,0.933 0.751,1.168c0.348,0.235 0.754,0.299 1.17,0.289c0.268,-0.007 0.536,-0.051 0.817,-0.095c0.22,-0.03 0.253,-0.141 0.371,-0.303c0.107,-0.137 0.054,-0.295 0.036,-0.465Zm2.548,-7.135c0.006,-0.258 -0.149,-0.535 -0.42,-0.663c-0.235,-0.129 -0.5,-0.366 -0.798,-0.591c-0.262,-0.201 -0.585,-0.389 -0.965,-0.44c-0.263,-0.238 -0.599,-0.45 -1.051,-0.439l-0.171,0.017c-0.389,0.059 -0.675,0.409 -0.653,0.787l0.043,0.244c0.238,0.667 0.787,1.142 1.189,1.572c0.403,0.406 0.936,0.698 1.523,0.683c0.208,-0.005 0.415,-0.047 0.62,-0.126c0.207,-0.09 0.361,-0.241 0.479,-0.416c0.117,-0.186 0.211,-0.397 0.204,-0.628Zm25.648,-18.022l0.006,-0.244c-0.012,-0.502 -0.231,-0.899 -0.566,-1.111c-0.336,-0.212 -0.729,-0.263 -1.12,-0.253c-0.319,0.009 -0.623,0.053 -0.915,0.122c-0.839,0.204 -1.585,0.651 -2.286,0.998c-0.701,0.349 -1.274,0.866 -1.867,1.1c-0.267,0.129 -0.396,0.353 -0.401,0.622l0.105,0.303c0.064,0.097 0.175,0.167 0.286,0.189c0.283,0.066 0.541,0.096 0.797,0.09c0.808,-0.02 1.509,-0.344 2.211,-0.631l0.097,-0.039l0.195,-0.006c0.991,-0.024 1.978,-0.172 2.901,-0.44c0.34,-0.106 0.528,-0.405 0.557,-0.7Zm8.255,2.337c0.006,-0.221 -0.11,-0.45 -0.32,-0.58c-0.498,-0.318 -1.098,-0.401 -1.674,-0.386c-0.391,0.011 -0.769,0.068 -1.11,0.139c-1.447,0.293 -2.936,0.466 -4.422,0.736l-0.231,0.054l-0.028,0.343l-0.028,0.344l0.355,-0.021c0.391,-0.01 0.794,-0.032 1.198,-0.043c0.904,-0.024 1.798,0.004 2.622,0.203c0.591,0.143 1.281,0.285 1.965,0.268c0.379,-0.01 0.769,-0.069 1.119,-0.224c0.339,-0.143 0.564,-0.456 0.554,-0.833Zm16.353,14.839c0.526,-0.931 0.772,-1.831 0.75,-2.699c-0.029,-1.161 -0.569,-2.187 -1.41,-3.034c-1.493,-1.479 -3.905,-2.531 -6.752,-3.365c-4.276,-1.237 -9.554,-1.947 -14.14,-2.393c-4.575,-0.446 -8.469,-0.63 -9.832,-0.803c-1.362,-0.161 -3.327,-0.503 -4.895,-1.061c-0.789,-0.275 -1.471,-0.6 -1.92,-0.944c-0.224,-0.165 -0.388,-0.344 -0.489,-0.5c-0.102,-0.157 -0.143,-0.291 -0.147,-0.425c-0.005,-0.232 0.086,-0.541 0.466,-0.979c0.38,-0.437 1.027,-0.967 2.003,-1.543c0.916,-0.549 1.804,-1.232 2.492,-2.081c0.676,-0.837 1.151,-1.877 1.122,-3.038c-0.012,-0.439 -0.096,-0.878 -0.254,-1.339c-0.173,-0.521 -0.562,-0.903 -1.008,-1.161c-0.683,-0.387 -1.52,-0.573 -2.44,-0.684c-0.907,-0.099 -1.898,-0.111 -2.841,-0.087c-1.589,0.04 -3.053,0.186 -3.664,0.19l-0.135,0.004c-1.138,-0.008 -2.287,-0.003 -3.436,0.025c-5.746,0.147 -11.45,0.964 -16.635,3.958c-1.844,1.061 -3.379,2.275 -4.897,3.207c-1.517,0.944 -2.968,1.591 -4.68,1.635c-1.187,0.031 -2.502,-0.23 -4.084,-0.924c-1.163,-0.508 -2.237,-1.313 -3.345,-2.13c-1.122,-0.815 -2.293,-1.642 -3.688,-2.157c-4.322,-1.578 -8.889,-2.711 -13.472,-2.594c-2.238,0.057 -4.468,0.407 -6.676,1.148c-1.674,0.544 -2.65,1.621 -3.433,3.01c-1.23,2.173 -2.128,3.907 -3.332,5.137c-1.205,1.218 -2.68,1.903 -5.357,1.971l-0.099,0.003c-4.082,0.102 -8.19,-0.76 -12.338,-1.804c-4.149,-1.044 -8.337,-2.186 -12.591,-2.507c-0.784,-0.053 -1.898,-0.087 -3.144,-0.055c-1.59,0.041 -3.408,0.221 -5.024,0.678c-1.602,0.457 -3.064,1.203 -3.812,2.543c-0.516,0.906 -0.766,1.708 -0.731,2.563c0.014,0.526 0.113,1.062 0.263,1.681c0.107,0.39 0.31,0.654 0.488,0.906c0.189,0.228 0.378,0.443 0.417,0.502c0.404,0.553 0.589,1.076 0.6,1.539c0.012,0.441 -0.125,0.823 -0.434,1.161c-0.322,0.35 -0.828,0.645 -1.582,0.823c-2.931,0.699 -6.881,1.691 -10.474,3.311c-3.591,1.609 -6.862,3.832 -8.321,7.099c-0.255,0.556 -0.375,1.111 -0.362,1.648c0.017,0.698 0.279,1.339 0.696,1.878c0.745,0.936 1.925,1.603 3.345,2.13c4.284,1.555 10.97,1.863 15.311,1.752c0.928,-0.024 1.747,-0.069 2.406,-0.122c0.672,-0.053 1.183,-0.128 1.537,-0.21c7.135,-1.771 12.476,-6.334 18.642,-9.647c5.696,-3.068 12.204,-4.505 18.302,-5.222l0.001,0.036l0.191,0.766l0.814,-0.204c1.822,-0.511 3.925,-0.565 5.916,-0.688c0.122,-0.003 0.342,-0.009 0.574,-0.014c0.832,-0.022 2.251,-0.009 3.393,0.182c0.566,0.096 1.083,0.242 1.381,0.405c0.161,0.083 0.26,0.164 0.299,0.213l0.065,0.133c0.001,0.06 -0.043,0.246 -0.269,0.532c-0.212,0.3 -0.606,0.676 -1.194,1.12c-3.037,2.267 -6.655,3.862 -9.746,6.437c-1.233,1.034 -2.138,1.998 -2.727,2.906c-0.589,0.921 -0.885,1.797 -0.864,2.628c0.01,0.831 0.372,1.594 0.937,2.191c0.855,0.907 2.143,1.524 3.684,1.974c1.551,0.437 3.381,0.708 5.328,0.806c4.288,0.234 8.719,0.378 13.17,0.267c7.591,-0.194 15.225,-1.146 22.278,-3.734c1.758,-0.644 3.505,-1.692 4.831,-2.949c1.313,-1.256 2.267,-2.761 2.237,-4.387c-0.022,-0.879 -0.363,-1.763 -1.055,-2.553c-0.681,-0.779 -1.677,-1.476 -3.062,-2.088c-0.903,-0.381 -1.766,-0.677 -2.606,-1.011c0.559,-1.079 1.118,-2.169 1.678,-3.26c1.106,-0.297 2.222,-0.63 3.371,-0.66l0.012,-0.001c1.737,-0.043 3.44,-0.429 5.138,-0.472c2.14,-0.055 4.261,0.1 6.4,0.547c2.177,0.459 3.676,1.656 5.059,3.175c1.384,1.519 2.605,3.347 4.199,4.921c2.219,2.17 5.579,2.953 8.261,3.533c2.631,0.571 5.351,0.697 8.089,0.629c3.496,-0.102 7.01,-0.497 10.308,-0.691c4.799,-0.281 10.685,-1.163 14.521,-4.747c1.099,-1.031 1.894,-2.006 2.422,-2.936Zm41.687,-3.418l0.586,0.915c-0.171,0.053 -0.327,0.143 -0.421,0.256c-6.959,7.332 -15.469,11.34 -24.415,14.098c-8.932,2.771 -15.844,4.218 -24.433,6.566c-23.118,6.346 -46.92,5.972 -70.579,7.379c-5.557,0.336 -11.116,0.611 -16.667,0.752c-6.026,0.153 -12.045,0.146 -18.07,-0.129c-11.721,-0.548 -23.329,-2.969 -35.029,-5.057c-20.128,-3.587 -41.142,-7.385 -59.767,-18.766c2.059,-3.685 5.427,-6.463 9.076,-8.708c3.745,-2.322 7.762,-4.099 10.899,-5.83c10.327,-5.693 20.842,-10.693 31.687,-14.259c0.608,-0.186 1.214,-0.385 1.797,-0.56l0.012,-0.012c10.746,-3.147 21.699,-4.893 32.732,-5.919c4.931,-0.381 9.868,-0.604 14.82,-0.729c9.449,-0.241 18.92,-0.138 28.288,-0.18c12.269,-0.054 24.448,-0.216 36.673,0.881c9.525,0.847 19.475,1.524 29.1,3.36l1.033,0.194l-0.026,-0.072c10.384,2.403 19.042,5.645 28.588,9.672c4.847,2.043 9.819,4.644 14.361,7.22c4.158,2.354 6.908,5.673 9.865,8.938l-0.11,-0.01Z" style="fill:#a92b2e;fill-rule:nonzero;"/><path d="M400.657,38.621c-0.017,-0.671 -0.329,-1.421 -1.196,-2.293c-2.612,-2.638 -7.106,-3.82 -11.903,-4.359c-4.785,-0.552 -9.811,-0.497 -13.527,-0.88c-0.503,-0.062 -2.084,-0.204 -3.976,-0.511c-1.892,-0.294 -4.105,-0.752 -5.921,-1.452c-1.211,-0.471 -2.264,-1.02 -2.946,-1.81c-0.39,-0.455 -0.649,-1.011 -0.664,-1.622c-0.014,-0.527 0.145,-1.056 0.462,-1.577c0.657,-1.082 1.731,-1.66 2.721,-2.173c0.991,-0.503 1.933,-0.967 2.466,-1.617c0.976,-1.125 1.262,-1.916 1.251,-2.344c-0.018,-0.182 -0.057,-0.303 -0.134,-0.437c-0.077,-0.119 -0.214,-0.238 -0.388,-0.357c-0.361,-0.235 -0.928,-0.416 -1.555,-0.536c-1.242,-0.225 -2.659,-0.176 -3.209,-0.174c-1.788,-0.028 -3.563,-0.069 -5.335,-0.048c-0.661,0.016 -1.32,0.032 -1.993,0.049c-3.643,0.093 -7.367,0.334 -10.665,1.531c-3.793,1.356 -6.324,4.32 -10.106,6.165c-1.583,0.762 -3.067,1.116 -4.473,1.153c-1.723,0.043 -3.325,-0.393 -4.884,-1.099c-1.559,-0.695 -3.089,-1.66 -4.728,-2.67c-3.593,-2.245 -9.576,-4.198 -14.783,-4.066c-2.358,0.06 -4.561,0.556 -6.321,1.58c-1.76,1.035 -3.102,2.597 -3.826,4.928c-0.564,1.874 -1.904,3.045 -3.453,3.696c-1.55,0.652 -3.319,0.843 -4.969,0.886c-0.905,0.022 -1.762,-0.005 -2.533,-0.034c-3.872,-0.137 -7.644,-0.891 -11.383,-1.641c-4.089,-0.82 -8.14,-1.634 -12.236,-1.627c-0.134,-0.008 -0.282,-0.004 -0.441,-0.001c-1.723,0.044 -5.336,0.368 -7.426,1.363c-0.689,0.323 -1.194,0.715 -1.429,1.1c-0.128,0.224 -0.196,0.434 -0.19,0.703c0.002,0.55 0.415,1.433 1.644,2.576c0.2,0.191 0.476,0.453 0.729,0.777c0.241,0.323 0.471,0.734 0.497,1.247c0.004,0.195 -0.027,0.391 -0.095,0.59c-0.344,0.937 -0.864,1.66 -1.512,2.177c-0.646,0.532 -1.384,0.856 -2.149,1.095c-1.53,0.468 -3.177,0.595 -4.598,1.035c-4.565,1.363 -10.509,3.324 -13.576,6.815c-0.642,0.738 -0.836,1.305 -0.825,1.733c0.008,0.282 0.086,0.524 0.264,0.789c0.167,0.264 0.43,0.539 0.767,0.801c0.686,0.508 1.676,0.972 2.737,1.349c2.134,0.74 4.568,1.168 5.624,1.312c2.062,0.291 4.184,0.481 6.274,0.428c2.8,-0.07 5.614,-0.509 8.156,-1.589c7.527,-3.199 13.726,-9.106 22.016,-11.653c7.333,-2.227 15.408,-2.665 22.742,-2.9l0.005,0.232l-0.243,0.03l0.243,-0.005l0,-0.025c0.196,-0.03 0.39,-0.071 0.528,0.085c0.189,0.215 0.25,0.213 0.256,0.433l-0.009,0.135c1.095,0.217 2.085,0.669 2.779,1.533c0.228,0.287 0.359,0.663 0.356,1.006c0.015,0.599 -0.24,1.131 -0.596,1.617c-0.341,0.499 -0.806,0.975 -1.333,1.441c-1.041,0.907 -2.292,1.759 -3.267,2.382c-0.649,0.42 -1.168,0.727 -1.385,0.867c-0.456,0.318 -1.769,1.146 -3.222,2.222c-1.453,1.065 -3.046,2.366 -4.032,3.528c-0.667,0.763 -1.015,1.481 -0.981,1.848c0.004,0.146 0.043,0.244 0.119,0.351c0.089,0.108 0.238,0.251 0.511,0.379c3.354,1.542 7.558,1.851 11.763,1.744c3.081,-0.077 6.156,-0.376 8.904,-0.531c7.794,-0.43 15.988,-0.492 22.866,-4.238c1.171,-0.64 1.951,-1.198 2.392,-1.662c0.452,-0.477 0.554,-0.797 0.549,-1.029c0.006,-0.221 -0.123,-0.487 -0.424,-0.81c-0.314,-0.31 -0.788,-0.653 -1.347,-1.005c-1.143,-0.693 -2.616,-1.389 -3.872,-2.214c-0.834,-0.554 -1.584,-1.159 -2.069,-1.942c-0.268,-0.446 -0.452,-0.942 -0.464,-1.493c-0.02,-0.721 0.242,-1.461 0.775,-2.22c1.216,-1.732 3.229,-2.871 5.511,-3.603c2.28,-0.742 4.865,-1.077 7.298,-1.138c2.383,-0.06 4.615,0.139 6.313,0.512c2.546,0.559 4.389,1.345 5.996,2.491c1.595,1.133 2.927,2.593 4.506,4.485c2.143,2.575 4.884,4.011 7.926,4.814c3.041,0.792 6.396,0.926 9.673,0.868c2.153,-0.043 4.329,-0.048 6.48,-0.102c2.372,-0.061 4.742,-0.182 7.059,-0.474c1.049,-0.125 3.006,-0.626 4.992,-1.411c1.986,-0.784 4.002,-1.874 5.218,-3.079c0.824,-0.817 1.245,-1.623 1.224,-2.43Zm1.844,-0.585c0.022,0.868 -0.224,1.768 -0.75,2.699c-0.528,0.93 -1.323,1.905 -2.422,2.936c-3.836,3.584 -9.722,4.466 -14.521,4.747c-3.298,0.194 -6.812,0.589 -10.308,0.691c-2.738,0.068 -5.458,-0.058 -8.089,-0.629c-2.682,-0.58 -6.042,-1.363 -8.261,-3.533c-1.594,-1.574 -2.815,-3.402 -4.199,-4.921c-1.383,-1.519 -2.882,-2.716 -5.059,-3.175c-2.139,-0.447 -4.26,-0.602 -6.4,-0.547c-1.698,0.043 -3.401,0.429 -5.138,0.472l-0.012,0.001c-1.149,0.03 -2.265,0.363 -3.371,0.66c-0.56,1.091 -1.119,2.181 -1.678,3.26c0.84,0.334 1.703,0.63 2.606,1.011c1.385,0.612 2.381,1.309 3.062,2.088c0.692,0.79 1.033,1.674 1.055,2.553c0.03,1.626 -0.924,3.131 -2.237,4.387c-1.326,1.257 -3.073,2.305 -4.831,2.949c-7.053,2.588 -14.687,3.54 -22.278,3.734c-4.451,0.111 -8.882,-0.033 -13.17,-0.267c-1.947,-0.098 -3.777,-0.369 -5.328,-0.806c-1.541,-0.45 -2.829,-1.067 -3.684,-1.974c-0.565,-0.597 -0.927,-1.36 -0.937,-2.191c-0.021,-0.831 0.275,-1.707 0.864,-2.628c0.589,-0.908 1.494,-1.872 2.727,-2.906c3.091,-2.575 6.709,-4.17 9.746,-6.437c0.588,-0.444 0.982,-0.82 1.194,-1.12c0.226,-0.286 0.27,-0.472 0.269,-0.532l-0.065,-0.133c-0.039,-0.049 -0.138,-0.13 -0.299,-0.213c-0.298,-0.163 -0.815,-0.309 -1.381,-0.405c-1.142,-0.191 -2.561,-0.204 -3.393,-0.182c-0.232,0.005 -0.452,0.011 -0.574,0.014c-1.991,0.123 -4.094,0.177 -5.916,0.688l-0.814,0.204l-0.191,-0.766l-0.001,-0.036c-6.098,0.717 -12.606,2.154 -18.302,5.222c-6.166,3.313 -11.507,7.876 -18.642,9.647c-0.354,0.082 -0.865,0.157 -1.537,0.21c-0.659,0.053 -1.478,0.098 -2.406,0.122c-4.341,0.111 -11.027,-0.197 -15.311,-1.752c-1.42,-0.527 -2.6,-1.194 -3.345,-2.13c-0.417,-0.539 -0.679,-1.18 -0.696,-1.878c-0.013,-0.537 0.107,-1.092 0.362,-1.648c1.459,-3.267 4.73,-5.49 8.321,-7.099c3.593,-1.62 7.543,-2.612 10.474,-3.311c0.754,-0.178 1.26,-0.473 1.582,-0.823c0.309,-0.338 0.446,-0.72 0.434,-1.161c-0.011,-0.463 -0.196,-0.986 -0.6,-1.539c-0.039,-0.059 -0.228,-0.274 -0.417,-0.502c-0.178,-0.252 -0.381,-0.516 -0.488,-0.906c-0.15,-0.619 -0.249,-1.155 -0.263,-1.681c-0.035,-0.855 0.215,-1.657 0.731,-2.563c0.748,-1.34 2.21,-2.086 3.812,-2.543c1.616,-0.457 3.434,-0.637 5.024,-0.678c1.246,-0.032 2.36,0.002 3.144,0.055c4.254,0.321 8.442,1.463 12.591,2.507c4.148,1.044 8.256,1.906 12.338,1.804l0.099,-0.003c2.677,-0.068 4.152,-0.753 5.357,-1.971c1.204,-1.23 2.102,-2.964 3.332,-5.137c0.783,-1.389 1.759,-2.466 3.433,-3.01c2.208,-0.741 4.438,-1.091 6.676,-1.148c4.583,-0.117 9.15,1.016 13.472,2.594c1.395,0.515 2.566,1.342 3.688,2.157c1.108,0.817 2.182,1.622 3.345,2.13c1.582,0.694 2.897,0.955 4.084,0.924c1.712,-0.044 3.163,-0.691 4.68,-1.635c1.518,-0.932 3.053,-2.146 4.897,-3.207c5.185,-2.994 10.889,-3.811 16.635,-3.958c1.149,-0.028 2.298,-0.033 3.436,-0.025l0.135,-0.004c0.611,-0.004 2.075,-0.15 3.664,-0.19c0.943,-0.024 1.934,-0.012 2.841,0.087c0.92,0.111 1.757,0.297 2.44,0.684c0.446,0.258 0.835,0.64 1.008,1.161c0.158,0.461 0.242,0.9 0.254,1.339c0.029,1.161 -0.446,2.201 -1.122,3.038c-0.688,0.849 -1.576,1.532 -2.492,2.081c-0.976,0.576 -1.623,1.106 -2.003,1.543c-0.38,0.438 -0.471,0.747 -0.466,0.979c0.004,0.134 0.045,0.268 0.147,0.425c0.101,0.156 0.265,0.335 0.489,0.5c0.449,0.344 1.131,0.669 1.92,0.944c1.568,0.558 3.533,0.9 4.895,1.061c1.363,0.173 5.257,0.357 9.832,0.803c4.586,0.446 9.864,1.156 14.14,2.393c2.847,0.834 5.259,1.886 6.752,3.365c0.841,0.847 1.381,1.873 1.41,3.034Z" style="fill:#7a1f20;fill-rule:nonzero;"/><path d="M399.461,36.328c0.867,0.872 1.179,1.622 1.196,2.293c0.021,0.807 -0.4,1.613 -1.224,2.43c-1.216,1.205 -3.232,2.295 -5.218,3.079c-1.986,0.785 -3.943,1.286 -4.992,1.411c-2.317,0.292 -4.687,0.413 -7.059,0.474c-2.151,0.054 -4.327,0.059 -6.48,0.102c-3.277,0.058 -6.632,-0.076 -9.673,-0.868c-3.042,-0.803 -5.783,-2.239 -7.926,-4.814c-1.579,-1.892 -2.911,-3.352 -4.506,-4.485c-1.607,-1.146 -3.45,-1.932 -5.996,-2.491c-1.698,-0.373 -3.93,-0.572 -6.313,-0.512c-2.433,0.061 -5.018,0.396 -7.298,1.138c-2.282,0.732 -4.295,1.871 -5.511,3.603c-0.533,0.759 -0.795,1.499 -0.775,2.22c0.012,0.551 0.196,1.047 0.464,1.493c0.485,0.783 1.235,1.388 2.069,1.942c1.256,0.825 2.729,1.521 3.872,2.214c0.559,0.352 1.033,0.695 1.347,1.005c0.301,0.323 0.43,0.589 0.424,0.81c0.005,0.232 -0.097,0.552 -0.549,1.029c-0.441,0.464 -1.221,1.022 -2.392,1.662c-6.878,3.746 -15.072,3.808 -22.866,4.238c-2.748,0.155 -5.823,0.454 -8.904,0.531c-4.205,0.107 -8.409,-0.202 -11.763,-1.744c-0.273,-0.128 -0.422,-0.271 -0.511,-0.379c-0.076,-0.107 -0.115,-0.205 -0.119,-0.351c-0.034,-0.367 0.314,-1.085 0.981,-1.848c0.986,-1.162 2.579,-2.463 4.032,-3.528c1.453,-1.076 2.766,-1.904 3.222,-2.222c0.217,-0.14 0.736,-0.447 1.385,-0.867c0.975,-0.623 2.226,-1.475 3.267,-2.382c0.527,-0.466 0.992,-0.942 1.333,-1.441c0.356,-0.486 0.611,-1.018 0.596,-1.617c0.003,-0.343 -0.128,-0.719 -0.356,-1.006c-0.694,-0.864 -1.684,-1.316 -2.779,-1.533l0.009,-0.135c-0.006,-0.22 -0.067,-0.218 -0.256,-0.433c-0.138,-0.156 -0.332,-0.115 -0.528,-0.085l-0.005,-0.232c-7.334,0.235 -15.409,0.673 -22.742,2.9c-8.29,2.547 -14.489,8.454 -22.016,11.653c-2.542,1.08 -5.356,1.519 -8.156,1.589c-2.09,0.053 -4.212,-0.137 -6.274,-0.428c-1.056,-0.144 -3.49,-0.572 -5.624,-1.312c-1.061,-0.377 -2.051,-0.841 -2.737,-1.349c-0.337,-0.262 -0.6,-0.537 -0.767,-0.801c-0.178,-0.265 -0.256,-0.507 -0.264,-0.789c-0.011,-0.428 0.183,-0.995 0.825,-1.733c3.067,-3.491 9.011,-5.452 13.576,-6.815c1.421,-0.44 3.068,-0.567 4.598,-1.035c0.765,-0.239 1.503,-0.563 2.149,-1.095c0.648,-0.517 1.168,-1.24 1.512,-2.177c0.068,-0.199 0.099,-0.395 0.095,-0.59c-0.026,-0.513 -0.256,-0.924 -0.497,-1.247c-0.253,-0.324 -0.529,-0.586 -0.729,-0.777c-1.229,-1.143 -1.642,-2.026 -1.644,-2.576c-0.006,-0.269 0.062,-0.479 0.19,-0.703c0.235,-0.385 0.74,-0.777 1.429,-1.1c2.09,-0.995 5.703,-1.319 7.426,-1.363c0.159,-0.003 0.307,-0.007 0.441,0.001c4.096,-0.007 8.147,0.807 12.236,1.627c3.739,0.75 7.511,1.504 11.383,1.641c0.771,0.029 1.628,0.056 2.533,0.034c1.65,-0.043 3.419,-0.234 4.969,-0.886c1.549,-0.651 2.889,-1.822 3.453,-3.696c0.724,-2.331 2.066,-3.893 3.826,-4.928c1.76,-1.024 3.963,-1.52 6.321,-1.58c5.207,-0.132 11.19,1.821 14.783,4.066c1.639,1.01 3.169,1.975 4.728,2.67c1.559,0.706 3.161,1.142 4.884,1.099c1.406,-0.037 2.89,-0.391 4.473,-1.153c3.782,-1.845 6.313,-4.809 10.106,-6.165c3.298,-1.197 7.022,-1.438 10.665,-1.531c0.673,-0.017 1.332,-0.033 1.993,-0.049c1.772,-0.021 3.547,0.02 5.335,0.048c0.55,-0.002 1.967,-0.051 3.209,0.174c0.627,0.12 1.194,0.301 1.555,0.536c0.174,0.119 0.311,0.238 0.388,0.357c0.077,0.134 0.116,0.255 0.134,0.437c0.011,0.428 -0.275,1.219 -1.251,2.344c-0.533,0.65 -1.475,1.114 -2.466,1.617c-0.99,0.513 -2.064,1.091 -2.721,2.173c-0.317,0.521 -0.476,1.05 -0.462,1.577c0.015,0.611 0.274,1.167 0.664,1.622c0.682,0.79 1.735,1.339 2.946,1.81c1.816,0.7 4.029,1.158 5.921,1.452c1.892,0.307 3.473,0.449 3.976,0.511c3.716,0.383 8.742,0.328 13.527,0.88c4.797,0.539 9.291,1.721 11.903,4.359Z" style="fill:#d92e35;fill-rule:nonzero;"/><path d="M378.564,9.78c-0.83,-0.121 -1.66,-0.24 -2.491,-0.357c-4.576,-0.489 -9.147,-0.86 -13.636,-1.249c-0.016,-0.001 -0.033,-0.003 -0.048,-0.004c-0.246,-0.022 -0.493,-0.043 -0.739,-0.065c-0.275,-0.024 -0.55,-0.048 -0.825,-0.072c-0.066,-0.006 -0.133,-0.012 -0.198,-0.018c-12.225,-1.097 -24.404,-0.935 -36.673,-0.881c-9.368,0.042 -18.839,-0.061 -28.288,0.18c-1.684,0.041 -3.368,0.095 -5.048,0.163c-1.952,0.106 -3.903,0.208 -5.855,0.295c-1.306,0.081 -2.612,0.17 -3.917,0.271c-11.033,1.026 -21.986,2.772 -32.732,5.919l-0.012,0.012c-0.583,0.175 -1.189,0.374 -1.797,0.56c-5.357,1.761 -10.635,3.873 -15.85,6.246c0.227,0.537 0.446,1.054 0.662,1.518c2.363,5.088 6.3,6.527 10.93,8.389c2.123,0.854 4.828,2.149 7.539,2.965c0.023,-0.073 0.037,-0.148 0.048,-0.224c0.014,-0.097 0.02,-0.196 0.017,-0.3c-0.011,-0.463 -0.196,-0.986 -0.6,-1.539c-0.039,-0.059 -0.228,-0.274 -0.417,-0.502c-0.178,-0.252 -0.381,-0.516 -0.488,-0.906c-0.15,-0.619 -0.249,-1.155 -0.263,-1.681c-0.009,-0.241 0.003,-0.477 0.039,-0.712c0.089,-0.602 0.321,-1.199 0.692,-1.851c0.748,-1.34 2.21,-2.086 3.812,-2.543c1.616,-0.457 3.434,-0.637 5.024,-0.678c1.246,-0.032 2.36,0.002 3.144,0.055c0.054,0.004 0.109,0.009 0.163,0.013c0.812,0.064 1.621,0.159 2.428,0.277l0.015,0.002c3.139,0.46 6.246,1.267 9.329,2.048c0.053,0.014 0.105,0.028 0.157,0.042c0.021,0.005 0.042,0.009 0.063,0.015c0.112,0.029 0.223,0.057 0.336,0.084c0.033,0.009 0.066,0.017 0.1,0.026c0.053,0.013 0.109,0.027 0.163,0.041c0.036,0.009 0.07,0.018 0.105,0.026l0.003,0.001c0.032,0.007 0.064,0.015 0.097,0.024c0.119,0.029 0.237,0.059 0.356,0.089c2.061,0.507 4.11,0.957 6.153,1.257l0.014,0.002c1.706,0.249 3.41,0.391 5.107,0.369c0.02,0 0.037,0.001 0.055,0c0.065,-0.001 0.129,-0.002 0.193,-0.004c0.031,-0.001 0.062,-0.001 0.092,-0.001l0.099,-0.003c2.677,-0.068 4.152,-0.753 5.357,-1.971c1.204,-1.23 2.102,-2.964 3.332,-5.137c0.783,-1.389 1.759,-2.466 3.433,-3.01c2.208,-0.741 4.438,-1.091 6.676,-1.148c0.029,-0.001 0.06,-0.002 0.091,-0.001c1.581,-0.036 3.161,0.079 4.728,0.307l0.015,0.002c2.863,0.418 5.689,1.221 8.417,2.206c0.033,0.012 0.066,0.024 0.1,0.035c0.039,0.016 0.081,0.031 0.121,0.045c1.395,0.515 2.566,1.342 3.688,2.157c1.108,0.817 2.182,1.622 3.345,2.13c0.013,0.007 0.026,0.012 0.04,0.018c1.009,0.439 1.91,0.7 2.737,0.823l0.025,0.004c0.431,0.063 0.843,0.088 1.238,0.08c0.015,0 0.03,0 0.044,-0.001c1.712,-0.044 3.163,-0.691 4.68,-1.635c1.518,-0.932 3.053,-2.146 4.897,-3.207c5.185,-2.994 10.889,-3.811 16.635,-3.958c1.149,-0.028 2.298,-0.033 3.436,-0.025l0.135,-0.004c0.611,-0.004 2.075,-0.15 3.664,-0.19c0.943,-0.024 1.934,-0.012 2.841,0.087c0.031,0.003 0.063,0.007 0.095,0.012c0.077,0.01 0.154,0.02 0.231,0.031l0.021,0.003c0.705,0.104 1.35,0.264 1.907,0.539c0.021,0.011 0.041,0.021 0.062,0.033c0.012,0.005 0.024,0.012 0.036,0.018c0.03,0.016 0.058,0.032 0.088,0.048c0.446,0.258 0.835,0.64 1.008,1.161c0.158,0.461 0.242,0.9 0.254,1.339c0.006,0.236 -0.009,0.467 -0.042,0.693c-0.13,0.883 -0.542,1.678 -1.08,2.345c-0.688,0.849 -1.576,1.532 -2.492,2.081c-0.976,0.576 -1.623,1.106 -2.003,1.543c-0.307,0.353 -0.424,0.621 -0.455,0.834c-0.008,0.051 -0.011,0.1 -0.011,0.145c0.004,0.134 0.045,0.268 0.147,0.425c0.101,0.156 0.265,0.335 0.489,0.5c0.449,0.344 1.131,0.669 1.92,0.944c0.042,0.014 0.086,0.029 0.129,0.044c0.029,0.01 0.059,0.021 0.088,0.03c1.24,0.418 2.69,0.707 3.888,0.883l0.031,0.004c0.258,0.038 0.503,0.07 0.732,0.097c0.009,0.001 0.018,0.002 0.027,0.003c1.363,0.173 5.257,0.357 9.832,0.803c0.186,0.018 0.376,0.037 0.564,0.056c0.028,0.003 0.055,0.006 0.081,0.008c1.71,0.174 3.502,0.384 5.294,0.646l0.014,0.002c2.847,0.415 5.687,0.959 8.187,1.681c2.847,0.834 5.259,1.886 6.752,3.365c0.841,0.847 1.381,1.873 1.41,3.034c0.006,0.245 -0.008,0.492 -0.045,0.74c-0.093,0.637 -0.327,1.29 -0.705,1.959c-0.037,0.063 -0.074,0.127 -0.113,0.192c4.948,2.922 9.379,7.222 14.213,10.289c0.911,0.58 1.823,1.096 2.735,1.557c0.2,-0.062 0.4,-0.124 0.602,-0.187c8.946,-2.758 17.456,-6.766 24.415,-14.098c0.094,-0.113 0.25,-0.203 0.421,-0.256l-0.586,-0.915l0.11,0.01c-0.394,-0.436 -0.785,-0.873 -1.175,-1.308c-2.036,-1.813 -4.402,-3.378 -6.514,-4.983c-5.077,-3.872 -11.3,-7.102 -17.107,-9.866c-2.859,-1.363 -5.375,-2.454 -7.92,-3.438c-0.345,-0.132 -0.69,-0.264 -1.035,-0.394c-2.394,-0.896 -4.858,-1.72 -7.698,-2.609c-1.332,-0.415 -2.741,-0.901 -4.192,-1.37c-1.925,-0.555 -3.892,-1.078 -5.925,-1.567c-0.243,-0.043 -0.486,-0.084 -0.728,-0.119c-0.884,-0.129 -1.763,-0.205 -2.633,-0.21l-0.054,-0.208l-0.392,-0.051c-0.879,-0.122 -1.76,-0.238 -2.631,-0.366c-0.381,-0.055 -0.762,-0.113 -1.139,-0.174c-1.947,-0.304 -3.894,-0.6 -5.841,-0.884Zm-41.333,6.434c0.001,0 0.002,0 0.004,0c0.203,0.031 0.33,0.167 0.439,0.322c0.139,0.179 0.206,0.411 0.212,0.631c0.001,0.069 -0.005,0.149 -0.016,0.226c-0.009,0.06 -0.021,0.118 -0.035,0.166c-0.517,1.346 -1.902,2.19 -3.27,2.298c-0.565,0.417 -1.183,1.118 -2.001,1.139l-0.067,-0.181l-0.31,-0.238l-0.083,-0.341c0,-0.029 0.003,-0.058 0.007,-0.084c0.017,-0.117 0.062,-0.212 0.177,-0.324c0.793,-0.607 1.405,-1.564 2.242,-2.332c0.694,-0.605 1.463,-1.125 2.438,-1.285l0.049,0l0.086,-0.004l0.023,0c0.004,0 0.007,0.001 0.011,0c0.032,0 0.061,0.002 0.09,0.006c0.001,0 0.002,0 0.004,0.001Zm38.704,5.762c0.003,0.001 0.007,0.001 0.011,0.002c0.211,0.03 0.415,0.094 0.602,0.205c0.004,0.003 0.009,0.005 0.015,0.008c0.001,0.002 0.002,0.002 0.003,0.002c0.006,0.003 0.011,0.008 0.017,0.011c0.335,0.212 0.554,0.609 0.566,1.111l-0.006,0.244c-0.001,0.015 -0.003,0.028 -0.005,0.042c-0.043,0.281 -0.229,0.557 -0.552,0.658c-0.923,0.268 -1.91,0.416 -2.901,0.44l-0.195,0.006l-0.097,0.039c-0.702,0.287 -1.403,0.611 -2.211,0.631c-0.028,0 -0.058,0.001 -0.087,0c-0.129,0 -0.258,-0.01 -0.393,-0.03l-0.016,-0.003c-0.098,-0.014 -0.198,-0.033 -0.301,-0.057c-0.111,-0.022 -0.222,-0.092 -0.286,-0.189l-0.105,-0.303c0.001,-0.033 0.003,-0.066 0.008,-0.098c0.032,-0.226 0.159,-0.411 0.393,-0.524c0.593,-0.234 1.166,-0.751 1.867,-1.1c0.701,-0.347 1.447,-0.794 2.286,-0.998c0.292,-0.069 0.596,-0.113 0.915,-0.122c0.018,-0.001 0.037,-0.001 0.055,-0.001c0.021,0 0.043,0 0.065,-0.001c0.119,0.003 0.237,0.01 0.352,0.027Zm-47.707,-2.631l0.204,-0.141l0.061,-0.038l0.034,-0.123c0.182,-0.469 0.354,-0.951 0.624,-1.422c0.128,-0.224 0.315,-0.571 0.576,-0.884c0.25,-0.299 0.584,-0.602 1.049,-0.614l0.183,0.008l0.014,0c0.257,0.042 0.481,0.171 0.619,0.35c0.152,0.168 0.206,0.387 0.211,0.595c0.002,0.077 -0.003,0.153 -0.013,0.228c-0.042,0.293 -0.178,0.565 -0.376,0.785c-0.454,0.489 -1.009,0.772 -1.528,1.042l-0.139,0.297c-0.174,0.372 -0.321,0.877 -0.678,1.277c-0.106,0.126 -0.264,0.214 -0.435,0.219c-0.005,0 -0.008,0 -0.013,0c-0.025,0 -0.049,-0.002 -0.073,-0.006c0,0 -0.001,0.002 -0.002,0.001c-0.006,-0.001 -0.013,-0.003 -0.021,-0.004c-0.133,-0.024 -0.249,-0.1 -0.32,-0.184c-0.001,-0.001 -0.002,-0.003 -0.003,-0.004c-0.089,-0.12 -0.142,-0.252 -0.145,-0.412c-0.001,-0.037 0.001,-0.075 0.006,-0.112c0.016,-0.113 0.062,-0.229 0.142,-0.332c0.048,-0.051 0.093,-0.162 0.139,-0.285l-0.116,-0.241Zm55.863,5.622c0.003,0.001 0.006,0.001 0.008,0.001c0.346,0.052 0.681,0.158 0.979,0.348c0.21,0.13 0.326,0.359 0.32,0.58c0.002,0.053 -0.002,0.105 -0.009,0.155c-0.047,0.308 -0.253,0.555 -0.545,0.678c-0.35,0.155 -0.74,0.214 -1.119,0.224c-0.028,0.001 -0.055,0 -0.082,0.001c-0.292,0.002 -0.583,-0.023 -0.866,-0.065l-0.016,-0.002c-0.284,-0.041 -0.56,-0.099 -0.821,-0.159c-0.003,-0.001 -0.006,-0.002 -0.008,-0.002c-0.058,-0.014 -0.115,-0.028 -0.172,-0.041c-0.193,-0.047 -0.388,-0.084 -0.587,-0.113l-0.021,-0.003c-0.648,-0.094 -1.328,-0.105 -2.014,-0.087c-0.404,0.011 -0.807,0.033 -1.198,0.043l-0.355,0.021l0.028,-0.344l0.028,-0.343l0.231,-0.054c1.486,-0.27 2.975,-0.443 4.422,-0.736c0.341,-0.071 0.719,-0.128 1.11,-0.139c0.012,0 0.024,0 0.037,0c0.011,0 0.023,-0.001 0.035,-0.001c0.203,-0.003 0.407,0.009 0.61,0.037c0.001,0 0.004,0.001 0.005,0.001Zm-101.95,-3.11c0.005,0.001 0.008,0.001 0.013,0.002c1.004,0.15 1.819,0.736 2.609,1.237c0.002,0.002 0.004,0.004 0.008,0.005c0.013,0.01 0.027,0.018 0.04,0.026c0.009,0.006 0.018,0.011 0.027,0.017c0.007,0.005 0.016,0.01 0.024,0.015c0.368,0.077 0.74,0.213 1.016,0.526l0.026,0.072l0.409,0.222l-0.343,-0.053l0.026,0.06c-0.001,0.026 -0.003,0.051 -0.006,0.075c-0.027,0.196 -0.142,0.342 -0.336,0.424c-0.255,0.092 -0.486,0.122 -0.707,0.128c-0.257,0.006 -0.49,-0.024 -0.759,-0.043c-0.137,-0.016 -0.281,-0.027 -0.432,-0.039c-0.191,-0.014 -0.391,-0.029 -0.592,-0.059l-0.018,-0.002c-0.208,-0.031 -0.414,-0.077 -0.616,-0.15c-0.877,-0.322 -1.445,-1.004 -1.578,-1.943l-0.015,-0.122l0.083,-0.099l0.225,-0.3l0.134,-0.016l0.231,-0.017c0.016,-0.001 0.033,-0.002 0.05,-0.001c0.164,0 0.324,0.012 0.48,0.035l0.001,0Zm-0.847,2.711c-0.258,-0.042 -0.48,-0.11 -0.641,-0.216l-0.038,-0.024c0.025,0.004 0.049,0.007 0.074,0.011c0.294,0.043 0.589,0.119 0.886,0.247l-0.281,-0.018Zm18.111,13.207c-0.004,0 -0.008,-0.001 -0.012,-0.001c-1.102,-0.16 -2.399,-0.17 -3.18,-0.149c-0.232,0.005 -0.452,0.011 -0.574,0.014c-1.991,0.123 -4.094,0.177 -5.916,0.688l-0.814,0.204l-0.191,-0.766l-0.001,-0.036c-1.606,0.188 -3.242,0.428 -4.883,0.733c2.139,1.809 4.494,3.301 7.664,4.298c1.041,0.329 2.07,0.603 3.088,0.824c1.821,-1.104 3.647,-2.14 5.302,-3.374c0.588,-0.444 0.982,-0.82 1.194,-1.12c0.194,-0.246 0.255,-0.417 0.267,-0.499c0.001,-0.013 0.002,-0.024 0.002,-0.033l-0.065,-0.133c-0.039,-0.049 -0.138,-0.13 -0.299,-0.213c-0.298,-0.163 -0.815,-0.309 -1.381,-0.405c-0.032,-0.006 -0.064,-0.01 -0.098,-0.015c-0.033,-0.006 -0.067,-0.011 -0.102,-0.016" style="fill:#912527;fill-rule:nonzero;"/></g><g><path d="M593.21,33.334l-0.586,-0.915l0.11,0.01c-2.958,-3.265 -5.708,-6.584 -9.866,-8.938c-4.542,-2.576 -9.513,-5.177 -14.36,-7.22c-9.547,-4.027 -18.204,-7.269 -28.588,-9.672l0.026,0.072l-1.033,-0.194c-9.625,-1.836 -19.575,-2.513 -29.101,-3.36c-12.224,-1.097 -24.403,-0.935 -36.672,-0.881c-9.369,0.042 -18.84,-0.061 -28.289,0.18c-4.951,0.125 -9.889,0.348 -14.82,0.729c-11.033,1.026 -21.986,2.772 -32.732,5.919l-0.011,0.012c-0.583,0.175 -1.19,0.374 -1.798,0.56c-10.845,3.566 -21.36,8.566 -31.687,14.259c-3.136,1.731 -7.153,3.508 -10.898,5.83c-3.649,2.245 -7.017,5.022 -9.076,8.708c18.625,11.381 39.639,15.179 59.766,18.766c11.7,2.088 23.309,4.509 35.03,5.057c6.024,0.275 12.043,0.281 18.07,0.129c5.55,-0.141 11.109,-0.416 16.666,-0.752c23.66,-1.407 47.462,-1.033 70.58,-7.379c8.589,-2.348 15.5,-3.795 24.432,-6.566c8.947,-2.758 17.456,-6.766 24.416,-14.098c0.093,-0.113 0.25,-0.203 0.421,-0.256Zm2.559,11.202c0.169,-1.069 0.376,-2.543 0.342,-3.875c-0.027,-1.087 -0.236,-2.074 -0.654,-2.649c-0.406,-0.554 -0.726,-0.643 -1.255,-0.752c-0.418,-0.087 -0.969,-0.122 -1.55,-0.365c-7.057,6.81 -15.559,10.671 -24.324,13.352c-8.898,2.721 -15.636,4.176 -23.925,6.33c-23.479,6.089 -47.298,5.994 -71.032,7.355c-5.925,0.334 -11.861,0.669 -17.814,0.819c-6.333,0.159 -12.658,0.124 -19.007,-0.314c-11.235,-0.754 -22.314,-2.982 -33.411,-4.963c-20.532,-3.676 -40.717,-8.046 -59.767,-19.733c-0.571,2.069 -0.81,4.215 -0.755,6.404c0.054,2.151 0.392,4.344 0.9,6.535c3.869,0.61 7.055,2.756 10.487,4.969c5.136,3.319 10.774,5.171 16.361,6.985c11.063,3.61 22.031,7.724 33.215,9.813c12.132,2.274 24.523,2.205 36.846,3.371c11.734,1.123 23.473,2.342 35.196,2.534c2.937,0.048 5.897,0.034 8.856,-0.04c19.901,-0.506 40.054,-3.696 59.549,-8.164c8.428,-1.94 14.451,-3.205 22.806,-5.143c8.78,-2.044 18.282,-4.549 25.034,-12.364c0.166,-0.188 0.418,-0.341 0.7,-0.361c1.648,-2.537 2.729,-6.65 3.202,-9.744Zm-198.866,-36.637l-0.002,-0.012l0.002,-0.012l-0.002,-0.037l-0.001,-0.048l0.034,-0.111c10.802,-3.357 21.889,-4.665 32.97,-6.169l0.012,-0.001l0.012,-0.001c8.937,-0.226 17.884,-0.978 26.821,-1.205c5.489,-0.139 10.971,-0.021 16.425,-0.134c14.23,-0.313 28.346,-0.352 42.604,1.342c6.478,0.776 12.935,1.677 19.395,2.687c1.241,0.202 2.504,0.365 3.769,0.542l0.393,0.051l0.055,0.206c4.538,0.032 9.371,1.989 13.476,3.267c6.289,1.97 10.734,3.617 16.654,6.44c5.808,2.765 12.03,5.996 17.107,9.867c3.13,2.38 6.821,4.671 9.163,7.817l0.112,0.009l0.141,0.266l0.102,0.194c0.547,0.817 1.022,1.686 1.364,2.619c0.052,0.145 0.044,0.304 -0.001,0.452c0.713,1.573 1.105,3.532 1.161,5.256c0.014,0.525 -0.011,1.039 -0.072,1.506c-0.308,2.368 -0.862,5.123 -1.764,7.641c-0.89,2.506 -2.118,4.787 -3.817,6.262c-5.982,6.733 -13.58,10.02 -21.445,12.018c-7.875,1.986 -13.597,2.645 -20.774,4.221c-21.325,4.688 -43.201,9.364 -65.022,9.917c-2.103,0.053 -4.207,0.058 -6.311,0.039c-12.457,-0.162 -24.857,-1.437 -37.241,-2.618c-11.663,-1.11 -23.573,-0.967 -35.293,-2.933c-12.016,-2.02 -23.692,-6.128 -35.414,-9.671c-5.301,-1.604 -10.567,-3.281 -15.743,-5.779c-2.366,-1.163 -4.486,-2.711 -6.587,-4.054c-2.113,-1.34 -4.209,-2.461 -6.542,-2.842l-0.308,-0.053l-0.142,-0.279c-0.451,-0.905 -0.902,-1.812 -1.341,-2.742l-0.026,-0.062l-0.027,-0.083c-0.323,-1.644 -0.556,-3.607 -0.607,-5.6c-0.058,-2.787 0.214,-5.584 1.228,-7.542l-0.162,-0.106l0.439,-0.525l0.428,-0.525l0.075,0.048c0.142,-0.151 0.298,-0.303 0.465,-0.429c0.165,-0.309 0.352,-0.62 0.529,-0.906l0.022,-0.037l0.025,-0.024c0.747,-0.937 1.481,-1.874 2.178,-2.858l0.047,-0.074l0.047,-0.062c4.168,-4.534 10.03,-7.338 14.205,-9.584c10.487,-5.648 21.268,-10.289 32.257,-13.992c1.055,-0.346 2.1,-0.665 3.132,-0.985c0.194,-0.054 0.386,-0.131 0.606,-0.198c0.412,-0.145 0.812,-0.253 1.189,-0.374Z" style="fill:#7a1f20;fill-rule:nonzero;"/><path d="M596.111,40.661c0.034,1.332 -0.173,2.806 -0.342,3.875c-0.473,3.094 -1.554,7.207 -3.202,9.744c-0.282,0.02 -0.534,0.173 -0.7,0.361c-6.752,7.815 -16.254,10.32 -25.034,12.364c-8.355,1.938 -14.378,3.203 -22.806,5.143c-19.495,4.468 -39.648,7.658 -59.549,8.164c-2.959,0.074 -5.919,0.088 -8.856,0.04c-11.723,-0.192 -23.462,-1.411 -35.196,-2.534c-12.323,-1.166 -24.714,-1.097 -36.846,-3.371c-11.184,-2.089 -22.152,-6.203 -33.215,-9.813c-5.587,-1.814 -11.225,-3.666 -16.361,-6.985c-3.432,-2.213 -6.618,-4.359 -10.487,-4.969c-0.508,-2.191 -0.846,-4.384 -0.9,-6.535c-0.055,-2.189 0.184,-4.335 0.755,-6.404c19.05,11.687 39.235,16.057 59.767,19.733c11.097,1.981 22.176,4.209 33.411,4.963c6.349,0.438 12.674,0.473 19.007,0.314c5.953,-0.15 11.889,-0.485 17.814,-0.819c23.734,-1.361 47.553,-1.266 71.032,-7.355c8.289,-2.154 15.027,-3.609 23.925,-6.33c8.765,-2.681 17.267,-6.542 24.324,-13.352c0.581,0.243 1.132,0.278 1.55,0.365c0.529,0.109 0.849,0.198 1.255,0.752c0.418,0.575 0.627,1.562 0.654,2.649Z" style="fill:#ba2e33;fill-rule:nonzero;"/><path d="M430.971,39.746c-0.004,-0.134 -0.044,-0.279 -0.157,-0.399c-0.113,-0.121 -0.274,-0.19 -0.432,-0.198c-0.344,-0.016 -0.686,-0.019 -1.029,-0.01c-1.186,0.03 -2.38,0.22 -3.499,0.468c-0.389,0.095 -0.755,0.141 -1.118,0.286c-0.363,0.13 -0.725,0.372 -1.02,0.783c-0.248,0.361 -0.395,0.83 -0.383,1.295c0.007,0.305 0.089,0.609 0.266,0.874c0.178,0.265 0.478,0.464 0.833,0.529l0.283,0.029c0.477,-0.011 0.923,-0.292 1.156,-0.715c0.118,-0.209 0.184,-0.432 0.24,-0.653l0.024,-0.025l0,-0.012c0.095,-0.1 0.3,-0.204 0.555,-0.272c0.257,-0.067 0.549,-0.111 0.804,-0.167c0.462,-0.122 1.083,-0.199 1.679,-0.361c0.607,-0.173 1.2,-0.421 1.615,-0.933c0.119,-0.149 0.188,-0.323 0.183,-0.519Zm2.891,5.468c0.008,-0.17 -0.094,-0.352 -0.256,-0.446l-0.065,-0.145c-0.088,-0.107 -0.237,-0.189 -0.408,-0.186c-0.11,0.004 -0.219,0.043 -0.315,0.106c-0.565,0.394 -1.515,0.589 -2.4,0.893c-0.449,0.146 -0.885,0.341 -1.256,0.619c-0.385,0.291 -0.693,0.678 -0.839,1.195l-0.031,0.221c0.005,0.16 0.083,0.366 0.281,0.482c0.509,0.282 1.002,0.428 1.503,0.416c0.513,-0.013 1.01,-0.185 1.493,-0.478c0.409,-0.243 0.902,-0.61 1.331,-1.05c0.43,-0.426 0.797,-0.913 0.942,-1.455l0.02,-0.172Zm1.294,-26.186l0.343,0.052l-0.409,-0.221l-0.026,-0.072c-0.277,-0.313 -0.648,-0.449 -1.017,-0.526c-0.958,-0.6 -1.943,-1.358 -3.251,-1.337l-0.232,0.018l-0.133,0.016l-0.225,0.299l-0.083,0.1l0.015,0.122c0.132,0.939 0.701,1.621 1.578,1.943c0.556,0.206 1.166,0.19 1.657,0.25c0.27,0.019 0.503,0.049 0.76,0.042c0.22,-0.005 0.451,-0.035 0.706,-0.127c0.218,-0.092 0.336,-0.266 0.343,-0.499l-0.026,-0.06Zm45.832,-6.85c-0.005,-0.208 -0.059,-0.427 -0.211,-0.595c-0.138,-0.179 -0.362,-0.308 -0.619,-0.35l-0.013,0l-0.183,-0.008c-0.465,0.012 -0.8,0.315 -1.049,0.614c-0.262,0.313 -0.448,0.66 -0.577,0.884c-0.269,0.471 -0.441,0.953 -0.624,1.422l-0.034,0.123l-0.061,0.038l-0.204,0.141l0.117,0.241c-0.046,0.123 -0.092,0.234 -0.14,0.285c-0.107,0.137 -0.151,0.297 -0.148,0.444c0.004,0.16 0.057,0.292 0.146,0.412c0.088,0.109 0.249,0.202 0.432,0.197c0.171,-0.005 0.329,-0.093 0.435,-0.219c0.356,-0.4 0.504,-0.905 0.678,-1.277l0.139,-0.297c0.519,-0.27 1.073,-0.553 1.527,-1.042c0.25,-0.275 0.399,-0.634 0.389,-1.013Zm6.032,0.483c0.033,-0.11 0.054,-0.27 0.051,-0.392c-0.006,-0.22 -0.072,-0.452 -0.211,-0.631c-0.127,-0.181 -0.279,-0.336 -0.548,-0.329l-0.023,0l-0.087,0.003l-0.049,0.001c-0.974,0.16 -1.744,0.68 -2.438,1.285c-0.836,0.768 -1.449,1.725 -2.241,2.332c-0.143,0.139 -0.176,0.249 -0.185,0.408l0.083,0.341l0.311,0.238l0.067,0.181c0.818,-0.021 1.436,-0.722 2.001,-1.139c1.367,-0.108 2.753,-0.952 3.269,-2.298Zm11.113,31.157l0.148,-0.004c-0.056,-1.222 -0.084,-1.344 -0.282,-1.95l0.047,-0.051c-0.08,-0.278 -0.151,-0.632 -0.281,-0.971c-0.131,-0.339 -0.312,-0.689 -0.635,-0.926l-0.296,-0.102c-0.195,0.017 -0.316,0.105 -0.399,0.205c-0.084,0.101 -0.142,0.199 -0.163,0.334l0.002,0.038c-0.255,-0.361 -0.629,-0.67 -1.146,-0.766l-0.122,-0.009c-0.196,0.004 -0.34,0.094 -0.459,0.207c-0.109,0.112 -0.178,0.274 -0.173,0.457l0.068,0.267c0.386,0.7 0.313,1.716 0.546,2.677c0.136,0.547 0.389,0.933 0.751,1.168c0.348,0.235 0.754,0.299 1.17,0.289c0.268,-0.008 0.535,-0.051 0.816,-0.095c0.22,-0.03 0.254,-0.141 0.372,-0.303c0.107,-0.137 0.054,-0.295 0.036,-0.465Zm2.548,-7.135c0.005,-0.258 -0.149,-0.535 -0.421,-0.663c-0.235,-0.129 -0.499,-0.366 -0.797,-0.591c-0.262,-0.201 -0.586,-0.389 -0.965,-0.44c-0.263,-0.238 -0.599,-0.45 -1.052,-0.439l-0.17,0.017c-0.39,0.059 -0.675,0.409 -0.653,0.787l0.043,0.244c0.237,0.667 0.787,1.142 1.188,1.572c0.403,0.406 0.937,0.698 1.523,0.683c0.208,-0.005 0.415,-0.047 0.621,-0.126c0.206,-0.09 0.361,-0.241 0.478,-0.416c0.118,-0.186 0.211,-0.397 0.205,-0.628Zm25.647,-18.022l0.006,-0.244c-0.011,-0.502 -0.23,-0.899 -0.565,-1.111c-0.336,-0.212 -0.729,-0.263 -1.121,-0.253c-0.318,0.009 -0.622,0.053 -0.914,0.122c-0.839,0.204 -1.586,0.651 -2.286,0.998c-0.702,0.349 -1.275,0.866 -1.868,1.1c-0.266,0.129 -0.396,0.353 -0.401,0.622l0.106,0.303c0.064,0.097 0.175,0.167 0.286,0.189c0.283,0.066 0.541,0.096 0.797,0.089c0.808,-0.019 1.508,-0.343 2.211,-0.63l0.096,-0.039l0.196,-0.006c0.99,-0.024 1.977,-0.172 2.9,-0.44c0.341,-0.106 0.529,-0.405 0.557,-0.7Zm8.255,2.337c0.007,-0.221 -0.109,-0.45 -0.319,-0.58c-0.498,-0.318 -1.099,-0.401 -1.675,-0.386c-0.391,0.011 -0.768,0.068 -1.109,0.139c-1.448,0.293 -2.936,0.466 -4.422,0.735l-0.231,0.055l-0.028,0.343l-0.028,0.344l0.355,-0.021c0.391,-0.01 0.794,-0.032 1.197,-0.043c0.905,-0.024 1.799,0.004 2.623,0.203c0.59,0.143 1.281,0.285 1.965,0.268c0.378,-0.01 0.768,-0.069 1.118,-0.224c0.34,-0.143 0.564,-0.456 0.554,-0.833Zm16.353,14.839c0.527,-0.931 0.772,-1.831 0.751,-2.699c-0.029,-1.161 -0.57,-2.187 -1.41,-3.034c-1.493,-1.479 -3.906,-2.531 -6.753,-3.365c-4.275,-1.237 -9.553,-1.947 -14.139,-2.393c-4.575,-0.446 -8.469,-0.63 -9.833,-0.803c-1.361,-0.161 -3.326,-0.503 -4.894,-1.061c-0.79,-0.275 -1.471,-0.6 -1.92,-0.944c-0.225,-0.165 -0.389,-0.345 -0.49,-0.5c-0.102,-0.157 -0.142,-0.291 -0.146,-0.425c-0.005,-0.232 0.085,-0.541 0.465,-0.979c0.38,-0.437 1.028,-0.967 2.004,-1.543c0.916,-0.549 1.804,-1.232 2.491,-2.081c0.676,-0.837 1.152,-1.877 1.123,-3.038c-0.012,-0.439 -0.096,-0.878 -0.255,-1.339c-0.172,-0.521 -0.562,-0.903 -1.008,-1.162c-0.682,-0.386 -1.519,-0.572 -2.44,-0.683c-0.907,-0.099 -1.898,-0.112 -2.84,-0.087c-1.589,0.04 -3.053,0.186 -3.664,0.19l-0.136,0.004c-1.137,-0.008 -2.286,-0.003 -3.435,0.025c-5.746,0.147 -11.45,0.964 -16.635,3.958c-1.844,1.061 -3.379,2.275 -4.898,3.207c-1.516,0.944 -2.968,1.591 -4.679,1.635c-1.187,0.031 -2.502,-0.23 -4.085,-0.924c-1.162,-0.508 -2.236,-1.313 -3.345,-2.13c-1.121,-0.815 -2.292,-1.642 -3.688,-2.157c-4.321,-1.578 -8.888,-2.711 -13.472,-2.594c-2.237,0.057 -4.467,0.407 -6.675,1.148c-1.674,0.544 -2.65,1.621 -3.434,3.01c-1.23,2.173 -2.128,3.907 -3.332,5.137c-1.205,1.218 -2.68,1.903 -5.357,1.971l-0.098,0.003c-4.083,0.102 -8.19,-0.76 -12.338,-1.804c-4.15,-1.044 -8.338,-2.186 -12.592,-2.507c-0.783,-0.053 -1.898,-0.087 -3.144,-0.055c-1.589,0.041 -3.407,0.221 -5.023,0.678c-1.603,0.457 -3.065,1.203 -3.813,2.543c-0.516,0.906 -0.765,1.708 -0.731,2.562c0.014,0.527 0.114,1.062 0.264,1.682c0.107,0.39 0.31,0.654 0.487,0.906c0.189,0.228 0.378,0.443 0.417,0.502c0.405,0.553 0.59,1.076 0.601,1.539c0.011,0.441 -0.125,0.823 -0.435,1.161c-0.322,0.35 -0.828,0.645 -1.582,0.823c-2.93,0.699 -6.881,1.691 -10.473,3.311c-3.592,1.609 -6.863,3.832 -8.321,7.099c-0.255,0.556 -0.376,1.111 -0.362,1.648c0.017,0.698 0.279,1.339 0.695,1.878c0.746,0.936 1.926,1.603 3.345,2.13c4.285,1.555 10.971,1.863 15.312,1.752c0.928,-0.024 1.747,-0.069 2.405,-0.122c0.672,-0.053 1.183,-0.128 1.537,-0.21c7.136,-1.772 12.476,-6.334 18.643,-9.647c5.696,-3.068 12.204,-4.506 18.302,-5.222l0.001,0.036l0.19,0.766l0.815,-0.204c1.822,-0.511 3.924,-0.565 5.916,-0.688c0.121,-0.003 0.342,-0.009 0.574,-0.015c0.832,-0.022 2.25,-0.008 3.393,0.183c0.565,0.096 1.082,0.242 1.381,0.405c0.16,0.082 0.26,0.164 0.298,0.213l0.065,0.133c0.001,0.06 -0.043,0.246 -0.268,0.532c-0.212,0.3 -0.606,0.676 -1.195,1.12c-3.037,2.267 -6.655,3.862 -9.745,6.437c-1.233,1.034 -2.139,1.998 -2.727,2.906c-0.589,0.921 -0.885,1.797 -0.864,2.628c0.01,0.831 0.371,1.594 0.936,2.191c0.856,0.907 2.143,1.524 3.684,1.974c1.552,0.437 3.381,0.708 5.329,0.806c4.287,0.234 8.719,0.378 13.169,0.267c7.592,-0.194 15.225,-1.146 22.279,-3.734c1.757,-0.644 3.505,-1.692 4.83,-2.949c1.314,-1.256 2.268,-2.761 2.238,-4.387c-0.023,-0.879 -0.363,-1.764 -1.055,-2.553c-0.681,-0.779 -1.677,-1.476 -3.062,-2.088c-0.903,-0.381 -1.767,-0.677 -2.607,-1.011c0.56,-1.079 1.118,-2.169 1.679,-3.26c1.105,-0.297 2.222,-0.63 3.371,-0.66l0.012,-0.001c1.737,-0.043 3.439,-0.429 5.138,-0.472c2.139,-0.055 4.26,0.1 6.4,0.547c2.177,0.459 3.675,1.656 5.059,3.175c1.384,1.519 2.605,3.346 4.199,4.921c2.219,2.17 5.579,2.953 8.261,3.533c2.631,0.571 5.351,0.697 8.089,0.628c3.495,-0.101 7.009,-0.496 10.307,-0.69c4.799,-0.281 10.686,-1.163 14.522,-4.747c1.099,-1.031 1.893,-2.006 2.421,-2.936Zm41.688,-3.418l0.586,0.915c-0.171,0.053 -0.328,0.143 -0.421,0.256c-6.96,7.332 -15.469,11.34 -24.416,14.098c-8.932,2.771 -15.843,4.218 -24.432,6.566c-23.118,6.346 -46.92,5.972 -70.58,7.379c-5.557,0.336 -11.116,0.611 -16.666,0.752c-6.027,0.152 -12.046,0.146 -18.07,-0.129c-11.721,-0.548 -23.33,-2.969 -35.03,-5.057c-20.127,-3.587 -41.141,-7.385 -59.766,-18.766c2.059,-3.686 5.427,-6.463 9.076,-8.708c3.745,-2.322 7.762,-4.099 10.898,-5.83c10.327,-5.693 20.842,-10.693 31.687,-14.259c0.608,-0.186 1.215,-0.385 1.798,-0.56l0.011,-0.012c10.746,-3.147 21.699,-4.893 32.732,-5.919c4.931,-0.381 9.869,-0.604 14.82,-0.729c9.449,-0.241 18.92,-0.138 28.289,-0.18c12.269,-0.054 24.448,-0.216 36.672,0.881c9.526,0.847 19.476,1.524 29.101,3.36l1.033,0.194l-0.026,-0.072c10.384,2.403 19.041,5.645 28.588,9.672c4.847,2.043 9.818,4.644 14.36,7.22c4.158,2.354 6.908,5.673 9.866,8.938l-0.11,-0.01Z" style="fill:#a92b2e;fill-rule:nonzero;"/><path d="M549.843,33.723c-0.018,-0.671 -0.33,-1.422 -1.196,-2.293c-2.612,-2.638 -7.107,-3.82 -11.903,-4.359c-4.785,-0.552 -9.811,-0.497 -13.527,-0.88c-0.504,-0.062 -2.085,-0.204 -3.976,-0.511c-1.893,-0.295 -4.105,-0.752 -5.921,-1.452c-1.211,-0.471 -2.265,-1.02 -2.946,-1.811c-0.391,-0.454 -0.649,-1.01 -0.664,-1.621c-0.014,-0.527 0.144,-1.056 0.462,-1.577c0.657,-1.082 1.731,-1.66 2.72,-2.173c0.992,-0.503 1.933,-0.967 2.467,-1.617c0.976,-1.125 1.261,-1.916 1.25,-2.344c-0.017,-0.182 -0.056,-0.303 -0.133,-0.437c-0.077,-0.119 -0.214,-0.238 -0.388,-0.357c-0.362,-0.235 -0.928,-0.416 -1.556,-0.536c-1.241,-0.225 -2.658,-0.176 -3.209,-0.174c-1.787,-0.028 -3.562,-0.069 -5.335,-0.049c-0.66,0.017 -1.32,0.033 -1.993,0.05c-3.642,0.092 -7.366,0.334 -10.664,1.531c-3.794,1.356 -6.325,4.32 -10.107,6.165c-1.583,0.762 -3.066,1.116 -4.472,1.152c-1.724,0.044 -3.326,-0.392 -4.884,-1.099c-1.56,-0.694 -3.089,-1.659 -4.729,-2.669c-3.593,-2.245 -9.575,-4.198 -14.783,-4.066c-2.358,0.06 -4.56,0.556 -6.32,1.58c-1.76,1.035 -3.103,2.597 -3.827,4.928c-0.563,1.874 -1.904,3.045 -3.452,3.696c-1.55,0.652 -3.32,0.843 -4.969,0.885c-0.906,0.023 -1.762,-0.004 -2.534,-0.033c-3.871,-0.137 -7.644,-0.891 -11.383,-1.641c-4.089,-0.82 -8.139,-1.634 -12.235,-1.627c-0.135,-0.009 -0.282,-0.004 -0.441,-0.001c-1.724,0.044 -5.336,0.367 -7.426,1.363c-0.69,0.323 -1.194,0.715 -1.429,1.1c-0.129,0.224 -0.196,0.434 -0.19,0.703c0.002,0.55 0.415,1.433 1.644,2.576c0.2,0.191 0.475,0.453 0.728,0.777c0.241,0.323 0.472,0.734 0.497,1.247c0.005,0.195 -0.026,0.391 -0.094,0.59c-0.344,0.937 -0.864,1.66 -1.512,2.177c-0.646,0.532 -1.385,0.856 -2.149,1.095c-1.53,0.468 -3.178,0.595 -4.599,1.035c-4.564,1.363 -10.508,3.324 -13.575,6.815c-0.642,0.738 -0.837,1.305 -0.826,1.733c0.008,0.282 0.087,0.524 0.265,0.789c0.166,0.264 0.43,0.539 0.767,0.8c0.686,0.509 1.675,0.973 2.737,1.35c2.134,0.74 4.568,1.168 5.624,1.312c2.062,0.291 4.184,0.481 6.274,0.428c2.8,-0.07 5.614,-0.509 8.155,-1.589c7.528,-3.199 13.726,-9.106 22.017,-11.653c7.333,-2.227 15.407,-2.665 22.741,-2.9l0.006,0.232l-0.244,0.03l0.244,-0.005l0,-0.025c0.195,-0.03 0.39,-0.071 0.528,0.085c0.189,0.215 0.249,0.213 0.255,0.433l-0.008,0.135c1.094,0.217 2.085,0.669 2.778,1.533c0.228,0.287 0.36,0.663 0.356,1.005c0.016,0.6 -0.24,1.132 -0.595,1.618c-0.341,0.498 -0.807,0.975 -1.333,1.441c-1.042,0.907 -2.292,1.758 -3.267,2.382c-0.65,0.42 -1.169,0.727 -1.385,0.867c-0.456,0.318 -1.77,1.146 -3.222,2.222c-1.453,1.065 -3.047,2.366 -4.032,3.528c-0.667,0.763 -1.016,1.481 -0.981,1.848c0.003,0.146 0.043,0.244 0.119,0.351c0.088,0.108 0.238,0.251 0.511,0.379c3.354,1.542 7.558,1.851 11.762,1.744c3.082,-0.077 6.156,-0.376 8.905,-0.531c7.794,-0.43 15.987,-0.492 22.865,-4.238c1.171,-0.64 1.951,-1.198 2.393,-1.662c0.452,-0.477 0.554,-0.797 0.548,-1.029c0.007,-0.221 -0.122,-0.487 -0.423,-0.81c-0.314,-0.31 -0.789,-0.653 -1.348,-1.005c-1.142,-0.693 -2.616,-1.389 -3.872,-2.214c-0.833,-0.554 -1.583,-1.159 -2.068,-1.942c-0.268,-0.446 -0.452,-0.942 -0.465,-1.493c-0.02,-0.721 0.243,-1.461 0.775,-2.22c1.216,-1.732 3.23,-2.871 5.512,-3.603c2.28,-0.742 4.865,-1.077 7.298,-1.138c2.383,-0.061 4.615,0.139 6.313,0.512c2.546,0.559 4.389,1.345 5.996,2.491c1.595,1.133 2.927,2.592 4.505,4.485c2.144,2.575 4.884,4.011 7.927,4.814c3.04,0.792 6.396,0.926 9.673,0.868c2.152,-0.043 4.329,-0.049 6.48,-0.102c2.372,-0.061 4.741,-0.182 7.059,-0.474c1.049,-0.125 3.006,-0.626 4.992,-1.411c1.986,-0.784 4.002,-1.874 5.218,-3.079c0.824,-0.817 1.244,-1.623 1.224,-2.43Zm1.844,-0.585c0.021,0.868 -0.224,1.768 -0.751,2.699c-0.528,0.93 -1.322,1.905 -2.421,2.936c-3.836,3.584 -9.723,4.466 -14.522,4.747c-3.298,0.194 -6.812,0.589 -10.307,0.69c-2.738,0.069 -5.458,-0.057 -8.089,-0.628c-2.682,-0.58 -6.042,-1.363 -8.261,-3.533c-1.594,-1.575 -2.815,-3.402 -4.199,-4.921c-1.384,-1.519 -2.882,-2.716 -5.059,-3.175c-2.14,-0.447 -4.261,-0.602 -6.4,-0.547c-1.699,0.043 -3.401,0.429 -5.138,0.472l-0.012,0.001c-1.149,0.03 -2.266,0.363 -3.371,0.66c-0.561,1.091 -1.119,2.181 -1.679,3.26c0.84,0.334 1.704,0.63 2.607,1.011c1.385,0.612 2.381,1.309 3.062,2.088c0.692,0.789 1.032,1.674 1.055,2.553c0.03,1.626 -0.924,3.131 -2.238,4.387c-1.325,1.257 -3.073,2.305 -4.83,2.949c-7.054,2.588 -14.687,3.54 -22.279,3.734c-4.45,0.111 -8.882,-0.033 -13.169,-0.267c-1.948,-0.098 -3.777,-0.369 -5.329,-0.806c-1.541,-0.45 -2.828,-1.067 -3.684,-1.974c-0.565,-0.597 -0.926,-1.36 -0.936,-2.191c-0.021,-0.831 0.275,-1.707 0.864,-2.628c0.588,-0.908 1.494,-1.872 2.727,-2.906c3.09,-2.575 6.708,-4.17 9.745,-6.437c0.589,-0.444 0.983,-0.82 1.195,-1.12c0.225,-0.286 0.269,-0.472 0.268,-0.532l-0.065,-0.133c-0.038,-0.049 -0.138,-0.131 -0.298,-0.213c-0.299,-0.163 -0.816,-0.309 -1.381,-0.405c-1.143,-0.191 -2.561,-0.205 -3.393,-0.183c-0.232,0.006 -0.453,0.012 -0.574,0.015c-1.992,0.123 -4.094,0.177 -5.916,0.688l-0.815,0.204l-0.19,-0.766l-0.001,-0.036c-6.098,0.716 -12.606,2.154 -18.302,5.222c-6.167,3.313 -11.507,7.875 -18.643,9.647c-0.354,0.082 -0.865,0.157 -1.537,0.21c-0.658,0.053 -1.477,0.098 -2.405,0.122c-4.341,0.111 -11.027,-0.197 -15.312,-1.752c-1.419,-0.527 -2.599,-1.194 -3.345,-2.13c-0.416,-0.539 -0.678,-1.18 -0.695,-1.878c-0.014,-0.537 0.107,-1.092 0.362,-1.648c1.458,-3.267 4.729,-5.49 8.321,-7.099c3.592,-1.62 7.543,-2.612 10.473,-3.311c0.754,-0.178 1.26,-0.473 1.582,-0.823c0.31,-0.338 0.446,-0.72 0.435,-1.161c-0.011,-0.463 -0.196,-0.986 -0.601,-1.539c-0.039,-0.059 -0.228,-0.274 -0.417,-0.502c-0.177,-0.252 -0.38,-0.516 -0.487,-0.906c-0.15,-0.62 -0.25,-1.155 -0.264,-1.682c-0.034,-0.854 0.215,-1.656 0.731,-2.562c0.748,-1.34 2.21,-2.086 3.813,-2.543c1.616,-0.457 3.434,-0.637 5.023,-0.678c1.246,-0.032 2.361,0.002 3.144,0.055c4.254,0.321 8.442,1.463 12.592,2.507c4.148,1.044 8.255,1.906 12.338,1.804l0.098,-0.003c2.677,-0.068 4.152,-0.753 5.357,-1.971c1.204,-1.23 2.102,-2.964 3.332,-5.137c0.784,-1.389 1.76,-2.466 3.434,-3.01c2.208,-0.741 4.438,-1.091 6.675,-1.148c4.584,-0.117 9.151,1.016 13.472,2.594c1.396,0.515 2.567,1.342 3.688,2.157c1.109,0.817 2.183,1.622 3.345,2.13c1.583,0.694 2.898,0.955 4.085,0.924c1.711,-0.044 3.163,-0.691 4.679,-1.635c1.519,-0.932 3.054,-2.146 4.898,-3.207c5.185,-2.994 10.889,-3.811 16.635,-3.958c1.149,-0.028 2.298,-0.033 3.435,-0.025l0.136,-0.004c0.611,-0.004 2.075,-0.15 3.664,-0.19c0.942,-0.025 1.933,-0.012 2.84,0.087c0.921,0.111 1.758,0.297 2.44,0.683c0.446,0.259 0.836,0.641 1.008,1.162c0.159,0.461 0.243,0.9 0.255,1.339c0.029,1.161 -0.447,2.201 -1.123,3.038c-0.687,0.849 -1.575,1.532 -2.491,2.081c-0.976,0.576 -1.624,1.106 -2.004,1.543c-0.38,0.438 -0.47,0.747 -0.465,0.979c0.004,0.134 0.044,0.268 0.146,0.425c0.101,0.155 0.265,0.335 0.49,0.5c0.449,0.344 1.13,0.669 1.92,0.944c1.568,0.558 3.533,0.9 4.894,1.061c1.364,0.173 5.258,0.357 9.833,0.803c4.586,0.446 9.864,1.156 14.139,2.393c2.847,0.834 5.26,1.886 6.753,3.365c0.84,0.847 1.381,1.873 1.41,3.034Z" style="fill:#7a1f20;fill-rule:nonzero;"/><path d="M548.647,31.43c0.866,0.871 1.178,1.622 1.196,2.293c0.02,0.807 -0.4,1.613 -1.224,2.43c-1.216,1.205 -3.232,2.295 -5.218,3.079c-1.986,0.785 -3.943,1.286 -4.992,1.411c-2.318,0.292 -4.687,0.413 -7.059,0.474c-2.151,0.053 -4.328,0.059 -6.48,0.102c-3.277,0.058 -6.633,-0.076 -9.673,-0.868c-3.043,-0.803 -5.783,-2.239 -7.927,-4.814c-1.578,-1.893 -2.91,-3.352 -4.505,-4.485c-1.607,-1.146 -3.45,-1.932 -5.996,-2.491c-1.698,-0.373 -3.93,-0.573 -6.313,-0.512c-2.433,0.061 -5.018,0.396 -7.298,1.138c-2.282,0.732 -4.296,1.871 -5.512,3.603c-0.532,0.759 -0.795,1.499 -0.775,2.22c0.013,0.551 0.197,1.047 0.465,1.493c0.485,0.783 1.235,1.388 2.068,1.942c1.256,0.825 2.73,1.521 3.872,2.214c0.559,0.352 1.034,0.695 1.348,1.005c0.301,0.323 0.43,0.589 0.423,0.81c0.006,0.232 -0.096,0.552 -0.548,1.029c-0.442,0.464 -1.222,1.022 -2.393,1.662c-6.878,3.746 -15.071,3.808 -22.865,4.238c-2.749,0.155 -5.823,0.454 -8.905,0.531c-4.204,0.107 -8.408,-0.202 -11.762,-1.744c-0.273,-0.128 -0.423,-0.271 -0.511,-0.379c-0.076,-0.107 -0.116,-0.205 -0.119,-0.351c-0.035,-0.367 0.314,-1.085 0.981,-1.848c0.985,-1.162 2.579,-2.463 4.032,-3.528c1.452,-1.076 2.766,-1.904 3.222,-2.222c0.216,-0.14 0.735,-0.447 1.385,-0.867c0.975,-0.624 2.225,-1.475 3.267,-2.382c0.526,-0.466 0.992,-0.943 1.333,-1.441c0.355,-0.486 0.611,-1.018 0.595,-1.618c0.004,-0.342 -0.128,-0.718 -0.356,-1.005c-0.693,-0.864 -1.684,-1.316 -2.778,-1.533l0.008,-0.135c-0.006,-0.22 -0.066,-0.218 -0.255,-0.433c-0.138,-0.156 -0.333,-0.115 -0.528,-0.085l-0.006,-0.232c-7.334,0.235 -15.408,0.673 -22.741,2.9c-8.291,2.547 -14.489,8.454 -22.017,11.653c-2.541,1.08 -5.355,1.519 -8.155,1.589c-2.09,0.053 -4.212,-0.137 -6.274,-0.428c-1.056,-0.144 -3.49,-0.572 -5.624,-1.312c-1.062,-0.377 -2.051,-0.841 -2.737,-1.35c-0.337,-0.261 -0.601,-0.536 -0.767,-0.8c-0.178,-0.265 -0.257,-0.507 -0.265,-0.789c-0.011,-0.428 0.184,-0.995 0.826,-1.733c3.067,-3.491 9.011,-5.452 13.575,-6.815c1.421,-0.44 3.069,-0.567 4.599,-1.035c0.764,-0.239 1.503,-0.563 2.149,-1.095c0.648,-0.517 1.168,-1.24 1.512,-2.177c0.068,-0.199 0.099,-0.395 0.094,-0.59c-0.025,-0.513 -0.256,-0.924 -0.497,-1.247c-0.253,-0.324 -0.528,-0.586 -0.728,-0.777c-1.229,-1.143 -1.642,-2.026 -1.644,-2.576c-0.006,-0.269 0.061,-0.479 0.19,-0.703c0.235,-0.385 0.739,-0.777 1.429,-1.1c2.09,-0.996 5.702,-1.319 7.426,-1.363c0.159,-0.003 0.306,-0.008 0.441,0.001c4.096,-0.007 8.146,0.807 12.235,1.627c3.739,0.75 7.512,1.504 11.383,1.641c0.772,0.029 1.628,0.056 2.534,0.033c1.649,-0.042 3.419,-0.233 4.969,-0.885c1.548,-0.651 2.889,-1.822 3.452,-3.696c0.724,-2.331 2.067,-3.893 3.827,-4.928c1.76,-1.024 3.962,-1.52 6.32,-1.58c5.208,-0.132 11.19,1.821 14.783,4.066c1.64,1.01 3.169,1.975 4.729,2.669c1.558,0.707 3.16,1.143 4.884,1.099c1.406,-0.036 2.889,-0.39 4.472,-1.152c3.782,-1.845 6.313,-4.809 10.107,-6.165c3.298,-1.197 7.022,-1.439 10.664,-1.531c0.673,-0.017 1.333,-0.033 1.993,-0.05c1.773,-0.02 3.548,0.021 5.335,0.049c0.551,-0.002 1.968,-0.051 3.209,0.174c0.628,0.12 1.194,0.301 1.556,0.536c0.174,0.119 0.311,0.238 0.388,0.357c0.077,0.134 0.116,0.255 0.133,0.437c0.011,0.428 -0.274,1.219 -1.25,2.344c-0.534,0.65 -1.475,1.114 -2.467,1.617c-0.989,0.513 -2.063,1.091 -2.72,2.173c-0.318,0.521 -0.476,1.05 -0.462,1.577c0.015,0.611 0.273,1.167 0.664,1.621c0.681,0.791 1.735,1.34 2.946,1.811c1.816,0.7 4.028,1.157 5.921,1.452c1.891,0.307 3.472,0.449 3.976,0.511c3.716,0.383 8.742,0.328 13.527,0.88c4.796,0.539 9.291,1.721 11.903,4.359Z" style="fill:#d92e35;fill-rule:nonzero;"/><path d="M527.75,4.882c-0.83,-0.121 -1.66,-0.24 -2.491,-0.357c-4.576,-0.489 -9.147,-0.86 -13.636,-1.249c-0.016,-0.001 -0.033,-0.003 -0.049,-0.004c-0.245,-0.022 -0.492,-0.043 -0.738,-0.065c-0.276,-0.024 -0.551,-0.048 -0.825,-0.072c-0.067,-0.006 -0.133,-0.012 -0.199,-0.018c-12.224,-1.097 -24.403,-0.935 -36.672,-0.881c-9.369,0.042 -18.84,-0.061 -28.289,0.18c-1.684,0.041 -3.367,0.095 -5.047,0.163c-1.952,0.106 -3.904,0.208 -5.855,0.295c-1.306,0.081 -2.612,0.17 -3.918,0.271c-11.033,1.026 -21.986,2.772 -32.732,5.919l-0.011,0.012c-0.583,0.175 -1.19,0.374 -1.798,0.56c-5.357,1.761 -10.635,3.873 -15.849,6.246c0.227,0.537 0.445,1.054 0.662,1.518c2.363,5.088 6.299,6.527 10.93,8.389c2.123,0.854 4.827,2.149 7.538,2.965c0.023,-0.073 0.038,-0.148 0.049,-0.224c0.014,-0.097 0.02,-0.196 0.017,-0.3c-0.011,-0.463 -0.196,-0.986 -0.601,-1.539c-0.039,-0.059 -0.228,-0.274 -0.417,-0.502c-0.177,-0.252 -0.38,-0.516 -0.487,-0.906c-0.15,-0.62 -0.25,-1.155 -0.264,-1.682c-0.009,-0.24 0.004,-0.476 0.039,-0.711c0.089,-0.602 0.321,-1.199 0.692,-1.851c0.748,-1.34 2.21,-2.086 3.813,-2.543c1.616,-0.457 3.434,-0.637 5.023,-0.678c1.246,-0.032 2.361,0.002 3.144,0.055c0.055,0.004 0.11,0.008 0.164,0.013c0.812,0.064 1.62,0.159 2.428,0.277l0.014,0.002c3.139,0.46 6.246,1.267 9.33,2.048c0.053,0.014 0.105,0.028 0.157,0.042c0.021,0.005 0.041,0.009 0.062,0.015c0.113,0.028 0.224,0.057 0.336,0.084c0.033,0.009 0.066,0.017 0.101,0.026c0.053,0.013 0.108,0.027 0.163,0.041c0.035,0.009 0.069,0.018 0.105,0.026l0.002,0.001c0.032,0.007 0.064,0.015 0.097,0.024c0.12,0.029 0.238,0.059 0.356,0.088c2.061,0.508 4.111,0.958 6.153,1.258l0.015,0.002c1.706,0.249 3.41,0.391 5.107,0.369c0.019,0 0.036,0 0.055,0c0.065,-0.001 0.129,-0.002 0.193,-0.004c0.031,-0.001 0.061,-0.001 0.092,-0.001l0.098,-0.003c2.677,-0.068 4.152,-0.753 5.357,-1.971c1.204,-1.23 2.102,-2.964 3.332,-5.137c0.784,-1.389 1.76,-2.466 3.434,-3.01c2.208,-0.741 4.438,-1.091 6.675,-1.148c0.03,-0.001 0.061,-0.002 0.091,-0.002c1.582,-0.035 3.162,0.08 4.729,0.308l0.014,0.002c2.864,0.418 5.689,1.221 8.417,2.206c0.034,0.012 0.066,0.024 0.1,0.035c0.04,0.016 0.082,0.031 0.121,0.045c1.396,0.515 2.567,1.342 3.688,2.157c1.109,0.817 2.183,1.622 3.345,2.13c0.014,0.007 0.027,0.012 0.041,0.018c1.009,0.439 1.91,0.7 2.736,0.823l0.025,0.004c0.431,0.063 0.843,0.087 1.239,0.08c0.015,0 0.029,0 0.044,-0.001c1.711,-0.044 3.163,-0.691 4.679,-1.635c1.519,-0.932 3.054,-2.146 4.898,-3.207c5.185,-2.994 10.889,-3.811 16.635,-3.958c1.149,-0.028 2.298,-0.033 3.435,-0.025l0.136,-0.004c0.611,-0.004 2.075,-0.15 3.664,-0.19c0.942,-0.025 1.933,-0.012 2.84,0.087c0.032,0.003 0.063,0.007 0.096,0.012c0.077,0.01 0.154,0.02 0.23,0.031l0.022,0.003c0.704,0.104 1.35,0.264 1.907,0.539c0.02,0.011 0.041,0.021 0.061,0.033c0.013,0.005 0.024,0.012 0.037,0.018c0.029,0.016 0.058,0.032 0.087,0.047c0.446,0.259 0.836,0.641 1.008,1.162c0.159,0.461 0.243,0.9 0.255,1.339c0.006,0.236 -0.01,0.467 -0.043,0.693c-0.13,0.883 -0.541,1.678 -1.08,2.345c-0.687,0.849 -1.575,1.532 -2.491,2.081c-0.976,0.576 -1.624,1.106 -2.004,1.543c-0.306,0.353 -0.424,0.621 -0.455,0.834c-0.007,0.051 -0.011,0.1 -0.01,0.145c0.004,0.134 0.044,0.268 0.146,0.425c0.101,0.155 0.265,0.335 0.49,0.5c0.449,0.344 1.13,0.669 1.92,0.944c0.042,0.014 0.085,0.029 0.128,0.044c0.029,0.01 0.06,0.021 0.089,0.03c1.239,0.418 2.69,0.707 3.887,0.883l0.032,0.004c0.258,0.038 0.503,0.07 0.732,0.097c0.008,0.001 0.018,0.002 0.026,0.003c1.364,0.173 5.258,0.357 9.833,0.803c0.186,0.018 0.375,0.037 0.564,0.056c0.028,0.003 0.054,0.006 0.081,0.008c1.71,0.174 3.502,0.384 5.293,0.646l0.015,0.002c2.846,0.415 5.686,0.958 8.186,1.681c2.847,0.834 5.26,1.886 6.753,3.365c0.84,0.847 1.381,1.873 1.41,3.034c0.006,0.245 -0.008,0.492 -0.046,0.74c-0.093,0.637 -0.327,1.29 -0.705,1.959c-0.036,0.063 -0.074,0.127 -0.112,0.192c4.947,2.922 9.379,7.222 14.212,10.289c0.912,0.58 1.823,1.096 2.735,1.557c0.201,-0.062 0.401,-0.125 0.602,-0.187c8.947,-2.758 17.456,-6.766 24.416,-14.098c0.093,-0.113 0.25,-0.203 0.421,-0.256l-0.586,-0.915l0.11,0.01c-0.395,-0.436 -0.786,-0.873 -1.176,-1.308c-2.035,-1.813 -4.402,-3.378 -6.513,-4.983c-5.078,-3.872 -11.3,-7.102 -17.107,-9.866c-2.859,-1.363 -5.375,-2.454 -7.921,-3.438c-0.344,-0.132 -0.689,-0.264 -1.034,-0.394c-2.394,-0.896 -4.858,-1.72 -7.698,-2.609c-1.332,-0.415 -2.742,-0.901 -4.193,-1.37c-1.924,-0.555 -3.892,-1.078 -5.925,-1.568c-0.242,-0.042 -0.485,-0.083 -0.728,-0.118c-0.883,-0.129 -1.763,-0.205 -2.632,-0.21l-0.054,-0.208l-0.393,-0.051c-0.879,-0.122 -1.759,-0.239 -2.63,-0.366c-0.382,-0.055 -0.762,-0.113 -1.139,-0.175c-1.947,-0.303 -3.895,-0.599 -5.841,-0.883Zm-41.334,6.434c0.001,0 0.003,0 0.005,0c0.203,0.031 0.33,0.167 0.439,0.322c0.139,0.179 0.205,0.411 0.211,0.631c0.001,0.069 -0.004,0.149 -0.015,0.226c-0.009,0.06 -0.021,0.118 -0.036,0.166c-0.516,1.346 -1.902,2.19 -3.269,2.298c-0.565,0.417 -1.183,1.118 -2.001,1.139l-0.067,-0.181l-0.311,-0.238l-0.083,-0.341c0.001,-0.029 0.004,-0.058 0.008,-0.084c0.017,-0.117 0.061,-0.212 0.177,-0.324c0.792,-0.607 1.405,-1.564 2.241,-2.332c0.694,-0.605 1.464,-1.125 2.438,-1.285l0.049,-0.001l0.087,-0.003l0.023,0c0.003,0 0.007,0.001 0.011,0c0.032,0 0.061,0.002 0.09,0.006c0.001,0 0.002,0 0.003,0.001Zm38.704,5.762c0.004,0 0.008,0.001 0.011,0.002c0.211,0.03 0.415,0.094 0.603,0.205c0.004,0.003 0.009,0.005 0.014,0.008c0.001,0.002 0.003,0.002 0.004,0.002c0.005,0.003 0.011,0.008 0.017,0.011c0.335,0.212 0.554,0.609 0.565,1.111l-0.006,0.244c-0.001,0.015 -0.003,0.028 -0.005,0.042c-0.042,0.281 -0.228,0.557 -0.552,0.658c-0.923,0.268 -1.91,0.416 -2.9,0.44l-0.196,0.006l-0.096,0.039c-0.703,0.287 -1.403,0.611 -2.211,0.63c-0.029,0.001 -0.058,0.002 -0.087,0.001c-0.129,0 -0.259,-0.01 -0.393,-0.03l-0.017,-0.003c-0.097,-0.014 -0.197,-0.033 -0.3,-0.057c-0.111,-0.022 -0.222,-0.092 -0.286,-0.189l-0.106,-0.303c0.001,-0.033 0.004,-0.066 0.008,-0.098c0.032,-0.226 0.16,-0.411 0.393,-0.524c0.593,-0.234 1.166,-0.751 1.868,-1.1c0.7,-0.347 1.447,-0.794 2.286,-0.998c0.292,-0.069 0.596,-0.113 0.914,-0.122c0.019,-0.001 0.037,-0.001 0.056,-0.002c0.021,0.001 0.043,0.001 0.065,0c0.118,0.003 0.236,0.01 0.351,0.027Zm-47.707,-2.631l0.204,-0.141l0.061,-0.038l0.034,-0.123c0.183,-0.469 0.355,-0.951 0.624,-1.422c0.129,-0.224 0.315,-0.571 0.577,-0.884c0.249,-0.299 0.584,-0.602 1.049,-0.614l0.183,0.008l0.013,0c0.257,0.042 0.481,0.171 0.619,0.35c0.152,0.168 0.206,0.387 0.211,0.595c0.003,0.077 -0.002,0.153 -0.012,0.228c-0.043,0.293 -0.178,0.565 -0.377,0.785c-0.454,0.489 -1.008,0.772 -1.527,1.042l-0.139,0.297c-0.174,0.372 -0.322,0.877 -0.678,1.277c-0.106,0.126 -0.264,0.214 -0.435,0.219c-0.005,0 -0.009,0 -0.014,0c-0.024,0 -0.048,-0.002 -0.072,-0.006c0,0 -0.002,0.001 -0.003,0.001c-0.006,-0.001 -0.013,-0.003 -0.02,-0.004c-0.134,-0.024 -0.249,-0.1 -0.32,-0.184c-0.001,-0.001 -0.002,-0.003 -0.003,-0.004c-0.089,-0.12 -0.142,-0.252 -0.146,-0.412c-0.001,-0.037 0.001,-0.075 0.007,-0.112c0.016,-0.113 0.061,-0.229 0.141,-0.332c0.048,-0.051 0.094,-0.162 0.14,-0.285l-0.117,-0.241Zm55.863,5.622c0.004,0 0.006,0.001 0.009,0.001c0.345,0.052 0.68,0.158 0.979,0.348c0.21,0.13 0.326,0.359 0.319,0.58c0.003,0.053 -0.001,0.105 -0.009,0.155c-0.046,0.308 -0.252,0.555 -0.545,0.678c-0.35,0.155 -0.74,0.214 -1.118,0.224c-0.029,0.001 -0.056,0 -0.083,0.001c-0.292,0.002 -0.582,-0.023 -0.865,-0.065l-0.016,-0.002c-0.284,-0.041 -0.56,-0.099 -0.821,-0.159c-0.004,-0.001 -0.006,-0.002 -0.008,-0.003c-0.058,-0.013 -0.115,-0.027 -0.172,-0.04c-0.193,-0.047 -0.389,-0.084 -0.588,-0.113l-0.02,-0.003c-0.648,-0.094 -1.328,-0.105 -2.015,-0.087c-0.403,0.011 -0.806,0.033 -1.197,0.043l-0.355,0.021l0.028,-0.344l0.028,-0.343l0.231,-0.055c1.486,-0.269 2.974,-0.442 4.422,-0.735c0.341,-0.071 0.718,-0.128 1.109,-0.139c0.013,0 0.025,0 0.037,0c0.011,0 0.024,-0.001 0.036,-0.001c0.202,-0.003 0.407,0.009 0.61,0.037c0.001,0 0.003,0.001 0.004,0.001Zm-101.949,-3.11c0.004,0.001 0.008,0.001 0.013,0.002c1.004,0.15 1.819,0.736 2.609,1.237c0.002,0.002 0.004,0.004 0.007,0.005c0.014,0.01 0.027,0.018 0.041,0.026c0.009,0.006 0.018,0.011 0.027,0.017c0.006,0.005 0.015,0.01 0.023,0.015c0.369,0.077 0.74,0.213 1.017,0.526l0.026,0.072l0.409,0.221l-0.343,-0.052l0.026,0.06c-0.002,0.026 -0.003,0.051 -0.006,0.075c-0.028,0.196 -0.142,0.342 -0.337,0.424c-0.255,0.092 -0.486,0.122 -0.706,0.127c-0.257,0.007 -0.49,-0.023 -0.76,-0.042c-0.136,-0.016 -0.28,-0.027 -0.432,-0.04c-0.19,-0.013 -0.39,-0.028 -0.592,-0.058l-0.018,-0.002c-0.207,-0.031 -0.414,-0.077 -0.615,-0.15c-0.877,-0.322 -1.446,-1.004 -1.578,-1.943l-0.015,-0.122l0.083,-0.1l0.225,-0.299l0.133,-0.016l0.232,-0.018c0.016,0 0.032,-0.001 0.049,0c0.164,0 0.324,0.012 0.48,0.035l0.002,0Zm-0.847,2.711c-0.259,-0.042 -0.48,-0.11 -0.642,-0.216l-0.038,-0.024c0.026,0.004 0.05,0.007 0.075,0.011c0.294,0.043 0.589,0.119 0.885,0.247l-0.28,-0.018Zm18.111,13.207c-0.004,0 -0.009,-0.001 -0.012,-0.001c-1.102,-0.16 -2.4,-0.171 -3.18,-0.15c-0.232,0.006 -0.453,0.012 -0.574,0.015c-1.992,0.123 -4.094,0.177 -5.916,0.688l-0.815,0.204l-0.19,-0.766l-0.001,-0.036c-1.606,0.188 -3.242,0.427 -4.884,0.733c2.14,1.809 4.495,3.301 7.664,4.298c1.042,0.329 2.071,0.603 3.089,0.824c1.82,-1.104 3.647,-2.14 5.301,-3.374c0.589,-0.444 0.983,-0.82 1.195,-1.12c0.194,-0.246 0.254,-0.417 0.266,-0.499c0.002,-0.013 0.002,-0.024 0.002,-0.033l-0.065,-0.133c-0.038,-0.049 -0.138,-0.131 -0.298,-0.213c-0.299,-0.163 -0.816,-0.309 -1.381,-0.405c-0.032,-0.006 -0.065,-0.01 -0.098,-0.015c-0.034,-0.007 -0.067,-0.011 -0.102,-0.017" style="fill:#912527;fill-rule:nonzero;"/></g></g></svg>